M48
;Layer_Color=9474304
;FILE_FORMAT=2:5
INCH,LZ
;TYPE=PLATED
T01F00S00C0.01181
T03F00S00C0.04094
T04F00S00C0.12598
;TYPE=NON_PLATED
T05F00S00C0.02559
T06F00S00C0.03898
T07F00S00C0.09409
T08F00S00C0.12598
T09F00S00C0.13583
%
T01
X00784Y00375
X0081102Y0059843
X00881Y00598
X0083858Y0067323
X008189Y0082677
X0083858Y0088189
X0081102Y0089764
X0062598Y0077165
X011063Y0069291
X0155118Y0084646
X0144094Y0108268
X01465Y01155
X014685Y0120079
X0146Y0123
X01425Y01238
X0137008Y0123622
X0137795Y0112598
X0130315Y0116929
X0133858Y0133071
X0142218Y0130782
X01435Y0139
X0137008Y0140945
X01354Y01445
X0137008Y0148425
X013937Y0151969
X013622Y0155118
X0129Y01516
X0128346Y0148819
X01155Y0146
X01101Y0154195
X00805Y0156
X0070472Y0151575
X0066535Y0149606
X0071654Y014685
X0074803Y0143701
X00695Y01377
X0049Y01475
X0004331Y0155906
X0145276Y0145669
X0162787Y0151287
X016063Y0155512
X0162Y0139
X01568Y0128
X01832Y0127641
X0182677Y0130709
Y0137008
X0191339Y0135433
X0195669Y0137008
Y0133071
X02Y0132677
Y0136614
X0204Y01415
X0202362Y0146457
X0204331Y0148819
X019252Y0144882
X018622
X0189764Y0151969
X0193865Y015443
X0172047Y0148819
X0191339Y0127953
X0206693Y0132213
Y0122441
X0208661Y0115748
X0205906Y0111024
X02065Y01067
X0207874Y0102362
X02131Y0111
X0220866Y0096457
X0220472Y0089764
X0230709
X0233465Y0085433
X02398Y008189
X0248425
X0251575Y0088583
X0251181Y0095669
X02455Y0095669
X0242126Y009685
X0234252
X0245276Y010315
Y0111024
X0251575
X025Y0115748
X0254331Y0118898
X0257874Y0116142
X02603Y0118108
X0259843Y0120933
X0267Y01225
X0265Y0128
X0254724Y0131102
X02485Y0134
X02465Y0124
X0236Y01255
X0234252Y0122441
X0227953Y0124016
X0232283Y0115748
X023622
X0240157
X0238209Y0111004
X0253937Y0105512
X0253543Y0102362
X0262598Y0104724
X026811
X02685Y0099
X02735Y00975
X0276772Y0092126
X0275984Y0087795
X02775Y00835
X0277559Y007874
X0267913
X026811Y0085827
X0270472Y0090945
X0261024Y0092126
X0259055Y0088583
X0260236Y0069291
X0248819Y0067717
X0241732Y0061417
X02378Y00598
X0230709Y0059843
X0233465Y0067323
X0237Y00725
X02245Y00775
X02207Y0074003
X0212205Y0077165
X0203937
X020511Y0067303
X02044Y00878
X0282677Y0087402
Y0093701
X0280709Y01
X0281102Y0111024
X0287402Y0113386
X0297244Y0111024
X02967Y01042
X0293701Y0105512
X0295669Y0094882
X03052Y0093701
X0308661Y008622
X0300394Y0078346
X0293Y00695
X0310236Y0061024
X03046Y01221
X0302362Y0129134
X0306693Y0129528
X0307087Y0135827
X0306693Y0140551
X0304724Y0143701
Y0149213
X0303738Y015551
X0296457Y0149606
Y0142126
X0293701Y0131496
X02945Y012
X0275984Y0125197
X0287Y0154
X02245Y01545
X0315442Y0154913
X031698Y01525
X0313319Y0150461
X0315329Y0148423
X0317323Y0137402
X03135Y0137
X03255Y01415
X0330315Y0138976
X03355Y0143
X033958Y0139947
X0349213Y0138583
X0373622
X038937Y0139764
X0365748Y0125984
X0374409Y0111024
X03605Y01045
X03575Y0093
X0350787Y0090945
X03471Y00866
X03415Y0083
X0338976Y0090551
X03375Y00944
X0330315Y0089764
X0334646Y0079535
X0337795Y0068504
X0329921Y0061024
X0312992Y0070079
X0319291Y007874
X0317323Y0093701
X032126Y0097244
X03215Y01185
X03385Y011
X03531Y00779
X0362992Y0074016
X0360496Y0085039
X0351Y0157
X0352487Y0169758
X03677Y01669
X0328346Y0172047
Y0176378
X0323622
X032126Y0174016
X03159Y01811
X0312992Y0169291
X0316929Y0164961
Y0159449
X0325591Y0162186
X0332283Y0182283
X0333071Y0205228
X0329921Y0203937
Y0211417
X0333071Y021063
X0323456Y0214456
X03201Y02143
X0317116Y0207662
X0314Y0208
X0320079Y0202756
X0322835Y020539
X032126Y0227559
X0325Y0227362
X0333071Y0227559
X0330807Y0245079
X0340157Y0253937
X0347638Y0252756
X0364567Y0227559
X038937Y0194094
X0311417Y0196063
X0309055Y018189
X0305906Y0172835
X0298425Y0169291
X0300394Y0166929
X0295669Y0165354
X02921Y01679
X0286614Y0168898
X0284298Y0170579
X0284646Y0175591
X02703Y0176378
X0271654Y0171654
X02713Y01688
X0268898Y0170079
X0262205Y0169291
X0261024Y0174016
X02525Y0174
X0253002Y0169498
X0253937Y0183465
X0251181Y0185827
X02465Y01865
X0243744Y0185729
X0241732Y0189764
X0248032Y0188976
X0247638Y019252
X02535Y0195
X025805Y020025
X026063Y0202756
X0263386Y0205512
X0251Y0203
X0238583Y0201575
X0232283
X0227559Y0194094
X0219685
X022047Y0190968
X021378Y0192913
X0211811Y0195669
X0206095Y0197485
X0204Y0194
X0204618Y0186024
X0203937Y0182283
X021063Y0184252
X0212205Y0188189
X0212591Y0176782
X0218504Y0176793
X0227953Y0175984
X0228Y017
X0221654Y0161433
X0217717
X0214567
X02085Y01645
X0205524Y0167
X0204Y0158
X0194488Y0163386
X0192126Y0166142
Y0172441
X0192Y01795
X0187402Y0183071
X0183465Y0175591
X0181102Y0173228
X0176378Y017126
X0173228
X0172441Y0158661
X0181102Y0159055
X0184646Y0166142
X0176772Y02
X0179134Y0215354
X0174016Y0220079
X0168898Y0215748
X0166631Y022457
X0185039Y0223622
X01905Y02055
X0219685Y0201575
X0222047Y0198032
X0224Y0184342
X0230315Y0188976
X02345Y0186
X0238Y01755
X0241732Y0174803
X0263Y0164
X02635Y01575
X026877Y0156299
Y0162598
X02995Y01895
X0302Y02085
X0296457Y0216535
X0289764Y0227559
X02827Y0227362
Y02569
X029685Y0253937
X0304331Y0252756
X0311Y022
X0269291Y0248032
X0161811Y0245276
X0145866
X0144882Y0242126
X0148819Y02367
X0151969Y0231496
X01534Y022457
X0151181Y0222441
X0137402
X01329Y0227239
X0135433Y0231102
X0120472Y0231496
X01142Y02395
X01125Y02048
X0112Y02015
X0118Y02
X0123228Y0197638
X0122835Y0194488
Y0190551
Y0183465
X01176Y01787
X0110627Y0187786
X0130315Y0186024
Y0194094
X013622Y0189976
Y0207087
Y0211417
X0130709Y0214173
X0127Y02145
X0130709Y0207087
X0100024Y02048
X0077165Y0228346
X0058661Y0184252
X0051575Y0170079
X00454Y0165354
X0038976
X00235Y01575
X0016535Y0190551
X0086614Y0159457
X0113524Y01575
X01095Y0166141
X0137008Y0165354
X0137Y01687
T03
X007813Y0031496
X0089035
X0099941
X0110846
X0105394Y0042677
X0116299
X0094488
X0083583
X0072677
X0222283
X0233189
X0244094
X0255
X0265906
X0260453Y0031496
X0249547
X0238642
X0227736
T04
X0045276Y0037087
X0143701
X0194882
X0293307
T05
X0369764Y0075236
Y0097992
T06
X0162165Y0216535
X0192165Y0212535
Y0220535
T07
X0319409Y0188976
T08
X0015748Y0015748
X0377953
Y0244094
X0015748
T09
X0285906Y0125984
X0068425Y0188976
M30
