G04*
G04 #@! TF.GenerationSoftware,Altium Limited,Altium Designer,26.9.1 (10)*
G04*
G04 Layer_Physical_Order=3*
G04 Layer_Color=16440176*
G04 Board_Origin=0|0*
%FSLAX25Y25*%
%MOIN*%
G70*
G04*
G04 #@! TF.SameCoordinates,562DED8C-2AFF-4B73-B5E2-3D2E9E186A84*
G04*
G04*
G04 #@! TF.FilePolarity,Positive*
G04*
G01*
G75*
%ADD10C,0.00591*%
%ADD61C,0.06299*%
%ADD69C,0.02362*%
%ADD70C,0.00787*%
%ADD71C,0.01968*%
G36*
X367717Y244094D02*
X367913Y242098D01*
X368496Y240177D01*
X369441Y238409D01*
X370717Y236858D01*
X372268Y235583D01*
X374035Y234638D01*
X375957Y234055D01*
X377953Y233858D01*
X392126D01*
Y25984D01*
X377953D01*
X375957Y25787D01*
X374035Y25205D01*
X372268Y24260D01*
X370717Y22984D01*
X369441Y21433D01*
X368496Y19665D01*
X367913Y17744D01*
X367717Y15748D01*
Y1575D01*
X25984D01*
Y15748D01*
X25787Y17744D01*
X25205Y19665D01*
X24260Y21433D01*
X22984Y22984D01*
X21433Y24260D01*
X19665Y25205D01*
X17744Y25787D01*
X15748Y25984D01*
X1575D01*
Y233858D01*
X15748D01*
X17744Y234055D01*
X19665Y234638D01*
X21433Y235583D01*
X22984Y236858D01*
X24260Y238409D01*
X25205Y240177D01*
X25787Y242098D01*
X25984Y244094D01*
Y258268D01*
X280991D01*
X281258Y257768D01*
X281116Y257556D01*
X280986Y256900D01*
X281116Y256244D01*
X281488Y255688D01*
X282044Y255316D01*
X282700Y255186D01*
X283356Y255316D01*
X283912Y255688D01*
X284284Y256244D01*
X284414Y256900D01*
X284284Y257556D01*
X284142Y257768D01*
X284409Y258268D01*
X367717D01*
Y244094D01*
D02*
G37*
%LPC*%
G36*
X348138Y254880D02*
Y253256D01*
X349762D01*
X349692Y253607D01*
X349210Y254328D01*
X348489Y254811D01*
X348138Y254880D01*
D02*
G37*
G36*
X347138D02*
X346787Y254811D01*
X346065Y254328D01*
X345583Y253607D01*
X345513Y253256D01*
X347138D01*
Y254880D01*
D02*
G37*
G36*
X304831D02*
Y253256D01*
X306455D01*
X306385Y253607D01*
X305903Y254328D01*
X305182Y254811D01*
X304831Y254880D01*
D02*
G37*
G36*
X303831D02*
X303480Y254811D01*
X302758Y254328D01*
X302276Y253607D01*
X302206Y253256D01*
X303831D01*
Y254880D01*
D02*
G37*
G36*
X340157Y255651D02*
X339502Y255521D01*
X338945Y255149D01*
X338574Y254593D01*
X338443Y253937D01*
X338574Y253281D01*
X338945Y252725D01*
X339502Y252353D01*
X340157Y252223D01*
X340813Y252353D01*
X341369Y252725D01*
X341741Y253281D01*
X341871Y253937D01*
X341741Y254593D01*
X341369Y255149D01*
X340813Y255521D01*
X340157Y255651D01*
D02*
G37*
G36*
X296850D02*
X296195Y255521D01*
X295638Y255149D01*
X295267Y254593D01*
X295136Y253937D01*
X295267Y253281D01*
X295638Y252725D01*
X296195Y252353D01*
X296850Y252223D01*
X297506Y252353D01*
X298062Y252725D01*
X298434Y253281D01*
X298564Y253937D01*
X298434Y254593D01*
X298062Y255149D01*
X297506Y255521D01*
X296850Y255651D01*
D02*
G37*
G36*
X349762Y252256D02*
X348138D01*
Y250632D01*
X348489Y250701D01*
X349210Y251184D01*
X349692Y251905D01*
X349762Y252256D01*
D02*
G37*
G36*
X347138D02*
X345513D01*
X345583Y251905D01*
X346065Y251184D01*
X346787Y250701D01*
X347138Y250632D01*
Y252256D01*
D02*
G37*
G36*
X306455D02*
X304831D01*
Y250632D01*
X305182Y250701D01*
X305903Y251184D01*
X306385Y251905D01*
X306455Y252256D01*
D02*
G37*
G36*
X303831D02*
X302206D01*
X302276Y251905D01*
X302758Y251184D01*
X303480Y250701D01*
X303831Y250632D01*
Y252256D01*
D02*
G37*
G36*
X269291Y249746D02*
X268636Y249615D01*
X268079Y249244D01*
X267708Y248688D01*
X267577Y248032D01*
X267708Y247376D01*
X268079Y246820D01*
X268636Y246448D01*
X269291Y246318D01*
X269947Y246448D01*
X270503Y246820D01*
X270875Y247376D01*
X271005Y248032D01*
X270875Y248688D01*
X270503Y249244D01*
X269947Y249615D01*
X269291Y249746D01*
D02*
G37*
G36*
X161811Y246990D02*
X161155Y246859D01*
X160599Y246488D01*
X160227Y245932D01*
X160097Y245276D01*
X160227Y244620D01*
X160599Y244064D01*
X161155Y243692D01*
X161811Y243562D01*
X162467Y243692D01*
X163023Y244064D01*
X163395Y244620D01*
X163525Y245276D01*
X163395Y245932D01*
X163023Y246488D01*
X162467Y246859D01*
X161811Y246990D01*
D02*
G37*
G36*
X330807Y246793D02*
X330151Y246662D01*
X329595Y246291D01*
X329223Y245735D01*
X329093Y245079D01*
X329187Y244606D01*
X295179Y210598D01*
X294000D01*
X293690Y210536D01*
X293426Y210361D01*
X293426Y210360D01*
X258474Y175408D01*
X258298Y175145D01*
X258236Y174834D01*
Y147883D01*
X247857Y137504D01*
X247193D01*
X246883Y137442D01*
X246620Y137267D01*
X246620Y137266D01*
X236473Y127120D01*
X236000Y127214D01*
X235344Y127084D01*
X234788Y126712D01*
X234416Y126156D01*
X234286Y125500D01*
X234416Y124844D01*
X234580Y124600D01*
X234279Y124150D01*
X234252Y124155D01*
X233596Y124025D01*
X233040Y123653D01*
X232668Y123097D01*
X232538Y122441D01*
X232668Y121785D01*
X233040Y121229D01*
X233596Y120857D01*
X234252Y120727D01*
X234908Y120857D01*
X235464Y121229D01*
X235732Y121630D01*
X236672D01*
X240373Y117929D01*
X240196Y117545D01*
X240137Y117458D01*
X239502Y117332D01*
X238945Y116960D01*
X238574Y116404D01*
X238443Y115748D01*
X238574Y115092D01*
X238945Y114536D01*
X239502Y114164D01*
X240157Y114034D01*
X240813Y114164D01*
X241369Y114536D01*
X241741Y115092D01*
X241867Y115728D01*
X241955Y115787D01*
X242338Y115964D01*
X244716Y113586D01*
X244571Y113107D01*
X244425Y113078D01*
X243703Y112596D01*
X243221Y111875D01*
X243151Y111524D01*
X245276D01*
Y111024D01*
X245776D01*
Y108899D01*
X246127Y108969D01*
X246848Y109451D01*
X247330Y110173D01*
X247359Y110319D01*
X247838Y110464D01*
X252317Y105985D01*
X252223Y105512D01*
X252353Y104856D01*
X252682Y104364D01*
X252722Y104283D01*
X252621Y103768D01*
X252331Y103574D01*
X251960Y103018D01*
X251829Y102362D01*
X251960Y101706D01*
X252331Y101150D01*
X252888Y100779D01*
X252968Y100762D01*
X253114Y100284D01*
X251286Y98456D01*
X250363D01*
X250052Y98395D01*
X249789Y98219D01*
X247643Y96073D01*
X247101Y96238D01*
X247084Y96325D01*
X246712Y96881D01*
X246156Y97253D01*
X245500Y97383D01*
X244844Y97253D01*
X244322Y96904D01*
X244112Y96943D01*
X243800Y97051D01*
X243710Y97506D01*
X243338Y98062D01*
X242782Y98434D01*
X242126Y98564D01*
X241470Y98434D01*
X241211Y98261D01*
X240711Y98528D01*
Y109255D01*
X240642Y109604D01*
X240444Y109899D01*
X239826Y110518D01*
X239922Y111004D01*
X239792Y111660D01*
X239421Y112216D01*
X238864Y112588D01*
X238209Y112718D01*
X237553Y112588D01*
X236997Y112216D01*
X236625Y111660D01*
X236494Y111004D01*
X236625Y110348D01*
X236997Y109792D01*
X237553Y109421D01*
X238209Y109290D01*
X238432Y109335D01*
X238889Y108878D01*
Y83303D01*
X238588Y83102D01*
X238216Y82546D01*
X238086Y81890D01*
X238216Y81234D01*
X238588Y80678D01*
X239144Y80306D01*
X239225Y80290D01*
X239370Y79812D01*
X234726Y75168D01*
X232979D01*
X232979Y75168D01*
X232669Y75106D01*
X232405Y74930D01*
X225589Y68114D01*
X206590D01*
X206322Y68515D01*
X205766Y68887D01*
X205110Y69017D01*
X204454Y68887D01*
X203898Y68515D01*
X203527Y67959D01*
X203396Y67303D01*
X203527Y66647D01*
X203898Y66091D01*
X204454Y65720D01*
X205110Y65589D01*
X205766Y65720D01*
X206322Y66091D01*
X206590Y66492D01*
X225925D01*
X226236Y66554D01*
X226499Y66730D01*
X233315Y73546D01*
X235062D01*
X235078Y73549D01*
X235277Y73318D01*
X235406Y73105D01*
X235286Y72500D01*
X235416Y71844D01*
X235788Y71288D01*
X236344Y70916D01*
X237000Y70786D01*
X237656Y70916D01*
X238212Y71288D01*
X238584Y71844D01*
X238714Y72500D01*
X238584Y73156D01*
X238212Y73712D01*
X237656Y74084D01*
X237000Y74214D01*
X236717Y74158D01*
X236470Y74619D01*
X244656Y82804D01*
X244831Y83067D01*
X244893Y83377D01*
Y91030D01*
X249103Y95239D01*
X249582Y95094D01*
X249598Y95013D01*
X249969Y94457D01*
X250525Y94086D01*
X251181Y93955D01*
X251837Y94086D01*
X252393Y94457D01*
X252765Y95013D01*
X252895Y95669D01*
X252765Y96325D01*
X252393Y96881D01*
X252520Y97398D01*
X260506Y105383D01*
X260966Y105136D01*
X260884Y104724D01*
X261015Y104069D01*
X261386Y103512D01*
X261943Y103141D01*
X262598Y103010D01*
X263254Y103141D01*
X263810Y103512D01*
X264182Y104069D01*
X264312Y104724D01*
X264182Y105380D01*
X263810Y105936D01*
X263254Y106308D01*
X262598Y106438D01*
X262187Y106357D01*
X261940Y106817D01*
X263573Y108450D01*
X263573Y108450D01*
X263749Y108713D01*
X263811Y109024D01*
Y125164D01*
X264944Y126297D01*
X265000Y126286D01*
X265656Y126416D01*
X266212Y126788D01*
X266584Y127344D01*
X266714Y128000D01*
X266584Y128656D01*
X266212Y129212D01*
X265656Y129584D01*
X265000Y129714D01*
X264344Y129584D01*
X263788Y129212D01*
X263416Y128656D01*
X263286Y128000D01*
X263416Y127344D01*
X263529Y127176D01*
X262427Y126073D01*
X262251Y125810D01*
X262189Y125500D01*
Y119207D01*
X261689Y119055D01*
X261512Y119320D01*
X261055Y119626D01*
Y119721D01*
X261426Y120277D01*
X261557Y120933D01*
X261426Y121589D01*
X261055Y122145D01*
X260498Y122517D01*
X259843Y122647D01*
X259187Y122517D01*
X258631Y122145D01*
X258273Y121609D01*
X258037Y121530D01*
X257781Y121463D01*
X257473Y121721D01*
Y125838D01*
X257473Y125838D01*
X257411Y126149D01*
X257235Y126412D01*
X254731Y128916D01*
X254925Y129428D01*
X255380Y129519D01*
X255936Y129890D01*
X256308Y130447D01*
X256438Y131102D01*
X256344Y131576D01*
X257367Y132599D01*
X268189D01*
Y124836D01*
X267473Y124120D01*
X267000Y124214D01*
X266344Y124084D01*
X265788Y123712D01*
X265416Y123156D01*
X265286Y122500D01*
X265416Y121844D01*
X265788Y121288D01*
X266344Y120916D01*
X267000Y120786D01*
X267656Y120916D01*
X268212Y121288D01*
X268584Y121844D01*
X268714Y122500D01*
X268620Y122973D01*
X269573Y123927D01*
X269749Y124190D01*
X269811Y124500D01*
X269811Y124500D01*
Y133063D01*
X269749Y133374D01*
X269573Y133637D01*
X269227Y133983D01*
X268964Y134159D01*
X268654Y134220D01*
X257031D01*
X256721Y134159D01*
X256458Y133983D01*
X255198Y132722D01*
X254724Y132816D01*
X254068Y132686D01*
X253512Y132314D01*
X253141Y131758D01*
X253050Y131304D01*
X252538Y131109D01*
X250120Y133527D01*
X250214Y134000D01*
X250084Y134656D01*
X249712Y135212D01*
X249156Y135584D01*
X248931Y135628D01*
X248819Y135964D01*
X248809Y136162D01*
X259621Y146974D01*
X259621Y146974D01*
X259796Y147237D01*
X259858Y147547D01*
Y167978D01*
X260358Y168129D01*
X260632Y167719D01*
X261354Y167237D01*
X261705Y167167D01*
Y169291D01*
Y171416D01*
X261354Y171346D01*
X260632Y170864D01*
X260358Y170454D01*
X259858Y170605D01*
Y171616D01*
X260358Y171924D01*
X260524Y171891D01*
Y174016D01*
X261024D01*
Y174516D01*
X263148D01*
X263078Y174867D01*
X262596Y175588D01*
X262032Y175965D01*
X261896Y176537D01*
X294336Y208976D01*
X295515D01*
X295826Y209038D01*
X296089Y209214D01*
X330334Y243459D01*
X330807Y243365D01*
X331463Y243495D01*
X332019Y243867D01*
X332391Y244423D01*
X332521Y245079D01*
X332391Y245735D01*
X332019Y246291D01*
X331463Y246662D01*
X330807Y246793D01*
D02*
G37*
G36*
X145866Y246990D02*
X145210Y246859D01*
X144654Y246488D01*
X144283Y245932D01*
X144152Y245276D01*
X144283Y244620D01*
X144512Y244276D01*
X144324Y243730D01*
X144322Y243729D01*
X144226Y243710D01*
X143670Y243338D01*
X143298Y242782D01*
X143168Y242126D01*
X143298Y241470D01*
X143670Y240914D01*
X144226Y240542D01*
X144882Y240412D01*
X145538Y240542D01*
X146094Y240914D01*
X146465Y241470D01*
X146596Y242126D01*
X146465Y242782D01*
X146236Y243125D01*
X146424Y243671D01*
X146426Y243673D01*
X146522Y243692D01*
X147078Y244064D01*
X147450Y244620D01*
X147580Y245276D01*
X147450Y245932D01*
X147078Y246488D01*
X146522Y246859D01*
X145866Y246990D01*
D02*
G37*
G36*
X114200Y241214D02*
X113544Y241084D01*
X112988Y240712D01*
X112616Y240156D01*
X112486Y239500D01*
X112616Y238844D01*
X112988Y238288D01*
X113544Y237916D01*
X114200Y237786D01*
X114856Y237916D01*
X115412Y238288D01*
X115784Y238844D01*
X115914Y239500D01*
X115784Y240156D01*
X115412Y240712D01*
X114856Y241084D01*
X114200Y241214D01*
D02*
G37*
G36*
X148819Y238414D02*
X148163Y238284D01*
X147607Y237912D01*
X147235Y237356D01*
X147105Y236700D01*
X147235Y236044D01*
X147607Y235488D01*
X148163Y235116D01*
X148819Y234986D01*
X149475Y235116D01*
X150031Y235488D01*
X150403Y236044D01*
X150533Y236700D01*
X150403Y237356D01*
X150031Y237912D01*
X149475Y238284D01*
X148819Y238414D01*
D02*
G37*
G36*
X151969Y233210D02*
X151313Y233080D01*
X150757Y232708D01*
X150385Y232152D01*
X150255Y231496D01*
X150385Y230840D01*
X150757Y230284D01*
X151313Y229912D01*
X151969Y229782D01*
X152624Y229912D01*
X153181Y230284D01*
X153552Y230840D01*
X153683Y231496D01*
X153552Y232152D01*
X153181Y232708D01*
X152624Y233080D01*
X151969Y233210D01*
D02*
G37*
G36*
X135433Y232816D02*
X134777Y232686D01*
X134221Y232314D01*
X133849Y231758D01*
X133719Y231102D01*
X133849Y230447D01*
X134221Y229890D01*
X134777Y229519D01*
X135433Y229388D01*
X136089Y229519D01*
X136645Y229890D01*
X137017Y230447D01*
X137147Y231102D01*
X137017Y231758D01*
X136645Y232314D01*
X136089Y232686D01*
X135433Y232816D01*
D02*
G37*
G36*
X77165Y230060D02*
X76509Y229930D01*
X75953Y229558D01*
X75582Y229002D01*
X75451Y228346D01*
X75582Y227691D01*
X75953Y227134D01*
X76509Y226763D01*
X77165Y226632D01*
X77821Y226763D01*
X78377Y227134D01*
X78749Y227691D01*
X78879Y228346D01*
X78749Y229002D01*
X78377Y229558D01*
X77821Y229930D01*
X77165Y230060D01*
D02*
G37*
G36*
X364567Y229273D02*
X363911Y229143D01*
X363355Y228771D01*
X362983Y228215D01*
X362853Y227559D01*
X362983Y226903D01*
X363355Y226347D01*
X363911Y225975D01*
X364567Y225845D01*
X365223Y225975D01*
X365779Y226347D01*
X366151Y226903D01*
X366281Y227559D01*
X366151Y228215D01*
X365779Y228771D01*
X365223Y229143D01*
X364567Y229273D01*
D02*
G37*
G36*
X333071D02*
X332415Y229143D01*
X331859Y228771D01*
X331487Y228215D01*
X331357Y227559D01*
X331487Y226903D01*
X331859Y226347D01*
X332415Y225975D01*
X333071Y225845D01*
X333727Y225975D01*
X334283Y226347D01*
X334654Y226903D01*
X334785Y227559D01*
X334654Y228215D01*
X334283Y228771D01*
X333727Y229143D01*
X333071Y229273D01*
D02*
G37*
G36*
X289764D02*
X289108Y229143D01*
X288552Y228771D01*
X288180Y228215D01*
X288050Y227559D01*
X288180Y226903D01*
X288552Y226347D01*
X289108Y225975D01*
X289764Y225845D01*
X290420Y225975D01*
X290976Y226347D01*
X291347Y226903D01*
X291478Y227559D01*
X291347Y228215D01*
X290976Y228771D01*
X290420Y229143D01*
X289764Y229273D01*
D02*
G37*
G36*
X321260D02*
X320604Y229143D01*
X320048Y228771D01*
X319676Y228215D01*
X319546Y227559D01*
X319676Y226903D01*
X320048Y226347D01*
X320604Y225975D01*
X321260Y225845D01*
X321916Y225975D01*
X322472Y226347D01*
X322843Y226903D01*
X322855Y226964D01*
X323365D01*
X323416Y226706D01*
X323788Y226150D01*
X324344Y225779D01*
X325000Y225648D01*
X325656Y225779D01*
X326212Y226150D01*
X326584Y226706D01*
X326714Y227362D01*
X326584Y228018D01*
X326212Y228574D01*
X325656Y228946D01*
X325000Y229076D01*
X324344Y228946D01*
X323788Y228574D01*
X323416Y228018D01*
X323404Y227958D01*
X322895D01*
X322843Y228215D01*
X322472Y228771D01*
X321916Y229143D01*
X321260Y229273D01*
D02*
G37*
G36*
X282700Y229076D02*
X282044Y228946D01*
X281488Y228574D01*
X281116Y228018D01*
X280986Y227362D01*
X281116Y226706D01*
X281488Y226150D01*
X282044Y225779D01*
X282700Y225648D01*
X283356Y225779D01*
X283912Y226150D01*
X284284Y226706D01*
X284414Y227362D01*
X284284Y228018D01*
X283912Y228574D01*
X283356Y228946D01*
X282700Y229076D01*
D02*
G37*
G36*
X132900Y228953D02*
X132244Y228823D01*
X131688Y228451D01*
X131316Y227895D01*
X131186Y227239D01*
X131316Y226584D01*
X131688Y226027D01*
X132244Y225656D01*
X132900Y225525D01*
X133556Y225656D01*
X134112Y226027D01*
X134484Y226584D01*
X134614Y227239D01*
X134484Y227895D01*
X134112Y228451D01*
X133556Y228823D01*
X132900Y228953D01*
D02*
G37*
G36*
X153400Y226284D02*
X152744Y226154D01*
X152188Y225782D01*
X151816Y225226D01*
X151686Y224570D01*
X151705Y224475D01*
X151351Y224121D01*
X151181Y224155D01*
X150525Y224025D01*
X149969Y223653D01*
X149598Y223097D01*
X149467Y222441D01*
X149598Y221785D01*
X149969Y221229D01*
X150525Y220857D01*
X151181Y220727D01*
X151837Y220857D01*
X152393Y221229D01*
X152765Y221785D01*
X152895Y222441D01*
X152876Y222536D01*
X153230Y222890D01*
X153400Y222856D01*
X154056Y222986D01*
X154612Y223358D01*
X154984Y223914D01*
X155114Y224570D01*
X154984Y225226D01*
X154612Y225782D01*
X154056Y226154D01*
X153400Y226284D01*
D02*
G37*
G36*
X166631D02*
X165975Y226154D01*
X165419Y225782D01*
X165047Y225226D01*
X164917Y224570D01*
X165047Y223914D01*
X165419Y223358D01*
X165975Y222986D01*
X166631Y222856D01*
X167287Y222986D01*
X167843Y223358D01*
X168214Y223914D01*
X168345Y224570D01*
X168214Y225226D01*
X167843Y225782D01*
X167287Y226154D01*
X166631Y226284D01*
D02*
G37*
G36*
X185039Y225336D02*
X184383Y225206D01*
X183827Y224834D01*
X183456Y224278D01*
X183325Y223622D01*
X183456Y222966D01*
X183827Y222410D01*
X184383Y222038D01*
X185039Y221908D01*
X185695Y222038D01*
X186251Y222410D01*
X186623Y222966D01*
X186753Y223622D01*
X186623Y224278D01*
X186251Y224834D01*
X185695Y225206D01*
X185039Y225336D01*
D02*
G37*
G36*
X120472Y233210D02*
X119817Y233080D01*
X119260Y232708D01*
X118889Y232152D01*
X118758Y231496D01*
X118889Y230840D01*
X119260Y230284D01*
X119561Y230083D01*
Y221028D01*
X119631Y220679D01*
X119828Y220383D01*
X125356Y214855D01*
X125286Y214500D01*
X125416Y213844D01*
X125788Y213288D01*
X126344Y212916D01*
X127000Y212786D01*
X127656Y212916D01*
X128212Y213288D01*
X128558Y213806D01*
X128714Y213822D01*
X129077Y213760D01*
X129125Y213517D01*
X129497Y212961D01*
X130053Y212590D01*
X130709Y212459D01*
X131365Y212590D01*
X131431Y212634D01*
X131872Y212399D01*
Y208861D01*
X131431Y208626D01*
X131365Y208670D01*
X130709Y208801D01*
X130053Y208670D01*
X129497Y208299D01*
X129125Y207743D01*
X128995Y207087D01*
X129125Y206431D01*
X129497Y205875D01*
X130053Y205503D01*
X130709Y205373D01*
X131365Y205503D01*
X131431Y205548D01*
X131872Y205312D01*
Y195621D01*
X131372Y195410D01*
X130971Y195678D01*
X130315Y195808D01*
X129659Y195678D01*
X129103Y195306D01*
X128731Y194750D01*
X128601Y194094D01*
X128731Y193438D01*
X129103Y192882D01*
X129659Y192511D01*
X129848Y192473D01*
X130012Y191931D01*
X123189Y185108D01*
X122835Y185179D01*
X122179Y185048D01*
X121623Y184677D01*
X121251Y184121D01*
X121121Y183465D01*
X121251Y182809D01*
X121623Y182253D01*
X122179Y181881D01*
X122835Y181751D01*
X123491Y181881D01*
X124047Y182253D01*
X124418Y182809D01*
X124549Y183465D01*
X124478Y183819D01*
X127912Y187254D01*
X128301Y186935D01*
X128260Y186875D01*
X128191Y186524D01*
X129815D01*
Y188148D01*
X129464Y188078D01*
X129403Y188038D01*
X129085Y188426D01*
X133428Y192769D01*
X133625Y193065D01*
X133695Y193413D01*
Y217445D01*
X137047Y220798D01*
X137402Y220727D01*
X138057Y220857D01*
X138614Y221229D01*
X138985Y221785D01*
X139116Y222441D01*
X138985Y223097D01*
X138614Y223653D01*
X138057Y224025D01*
X137402Y224155D01*
X136746Y224025D01*
X136190Y223653D01*
X135818Y223097D01*
X135688Y222441D01*
X135758Y222086D01*
X132139Y218467D01*
X131942Y218172D01*
X131872Y217823D01*
Y215948D01*
X131431Y215712D01*
X131365Y215757D01*
X130709Y215887D01*
X130053Y215757D01*
X129497Y215385D01*
X129151Y214868D01*
X128995Y214851D01*
X128632Y214913D01*
X128584Y215156D01*
X128212Y215712D01*
X127656Y216084D01*
X127000Y216214D01*
X126645Y216143D01*
X121384Y221405D01*
Y230083D01*
X121684Y230284D01*
X122056Y230840D01*
X122186Y231496D01*
X122056Y232152D01*
X121684Y232708D01*
X121128Y233080D01*
X120472Y233210D01*
D02*
G37*
G36*
X174016Y221793D02*
X173360Y221662D01*
X172804Y221291D01*
X172432Y220735D01*
X172302Y220079D01*
X172432Y219423D01*
X172804Y218867D01*
X173360Y218495D01*
X174016Y218365D01*
X174672Y218495D01*
X175228Y218867D01*
X175599Y219423D01*
X175730Y220079D01*
X175599Y220735D01*
X175228Y221291D01*
X174672Y221662D01*
X174016Y221793D01*
D02*
G37*
G36*
X311000Y221714D02*
X310344Y221584D01*
X309788Y221212D01*
X309416Y220656D01*
X309286Y220000D01*
X309416Y219344D01*
X309788Y218788D01*
X310344Y218416D01*
X311000Y218286D01*
X311656Y218416D01*
X312212Y218788D01*
X312584Y219344D01*
X312714Y220000D01*
X312584Y220656D01*
X312212Y221212D01*
X311656Y221584D01*
X311000Y221714D01*
D02*
G37*
G36*
X192165Y223032D02*
X191210Y222842D01*
X190400Y222301D01*
X189859Y221491D01*
X189669Y220535D01*
X189859Y219580D01*
X190400Y218770D01*
X191210Y218229D01*
X192165Y218039D01*
X193121Y218229D01*
X193931Y218770D01*
X194472Y219580D01*
X194662Y220535D01*
X194472Y221491D01*
X193931Y222301D01*
X193121Y222842D01*
X192165Y223032D01*
D02*
G37*
G36*
X169398Y217872D02*
Y216248D01*
X171022D01*
X170952Y216599D01*
X170470Y217320D01*
X169749Y217803D01*
X169398Y217872D01*
D02*
G37*
G36*
X168398D02*
X168047Y217803D01*
X167325Y217320D01*
X166843Y216599D01*
X166773Y216248D01*
X168398D01*
Y217872D01*
D02*
G37*
G36*
X323456Y216170D02*
X322800Y216039D01*
X322244Y215668D01*
X322026Y215343D01*
X321442Y215318D01*
X321312Y215512D01*
X320756Y215884D01*
X320100Y216014D01*
X319444Y215884D01*
X318888Y215512D01*
X318516Y214956D01*
X318386Y214300D01*
X318516Y213644D01*
X318888Y213088D01*
X319444Y212716D01*
X320100Y212586D01*
X320455Y212657D01*
X322962Y210150D01*
X323257Y209952D01*
X323606Y209883D01*
X323806D01*
X326477Y207212D01*
Y187179D01*
X326546Y186830D01*
X326744Y186535D01*
X330640Y182638D01*
X330569Y182283D01*
X330700Y181628D01*
X331071Y181071D01*
X331627Y180700D01*
X332283Y180569D01*
X332939Y180700D01*
X333495Y181071D01*
X333867Y181628D01*
X333997Y182283D01*
X333867Y182939D01*
X333495Y183495D01*
X332939Y183867D01*
X332283Y183997D01*
X331929Y183927D01*
X328299Y187556D01*
Y201796D01*
X328799Y202064D01*
X329070Y201882D01*
X329421Y201813D01*
Y203937D01*
Y206061D01*
X329070Y205992D01*
X328799Y205810D01*
X328299Y206078D01*
Y207589D01*
X328230Y207938D01*
X328032Y208233D01*
X324827Y211438D01*
X324532Y211636D01*
X324183Y211705D01*
X323984D01*
X323409Y212280D01*
X323621Y212774D01*
X324112Y212872D01*
X324668Y213244D01*
X325039Y213800D01*
X325170Y214456D01*
X325039Y215111D01*
X324668Y215668D01*
X324112Y216039D01*
X323456Y216170D01*
D02*
G37*
G36*
X296457Y218249D02*
X295801Y218119D01*
X295245Y217747D01*
X294873Y217191D01*
X294743Y216535D01*
X294873Y215880D01*
X295245Y215323D01*
X295801Y214952D01*
X296457Y214821D01*
X297112Y214952D01*
X297669Y215323D01*
X298040Y215880D01*
X298171Y216535D01*
X298040Y217191D01*
X297669Y217747D01*
X297112Y218119D01*
X296457Y218249D01*
D02*
G37*
G36*
X162165Y219032D02*
X161210Y218842D01*
X160400Y218301D01*
X159859Y217491D01*
X159669Y216535D01*
X159859Y215580D01*
X160400Y214770D01*
X161210Y214229D01*
X162165Y214039D01*
X163121Y214229D01*
X163931Y214770D01*
X164472Y215580D01*
X164662Y216535D01*
X164472Y217491D01*
X163931Y218301D01*
X163121Y218842D01*
X162165Y219032D01*
D02*
G37*
G36*
X179134Y217068D02*
X178478Y216938D01*
X177922Y216566D01*
X177550Y216010D01*
X177420Y215354D01*
X177550Y214699D01*
X177922Y214142D01*
X178478Y213771D01*
X179134Y213640D01*
X179790Y213771D01*
X180346Y214142D01*
X180717Y214699D01*
X180848Y215354D01*
X180717Y216010D01*
X180346Y216566D01*
X179790Y216938D01*
X179134Y217068D01*
D02*
G37*
G36*
X171022Y215248D02*
X169398D01*
Y213624D01*
X169749Y213693D01*
X170470Y214176D01*
X170952Y214897D01*
X171022Y215248D01*
D02*
G37*
G36*
X168398D02*
X166773D01*
X166843Y214897D01*
X167325Y214176D01*
X168047Y213693D01*
X168398Y213624D01*
Y215248D01*
D02*
G37*
G36*
X329421Y213542D02*
X329070Y213472D01*
X328349Y212990D01*
X327867Y212268D01*
X327797Y211917D01*
X329421D01*
Y213542D01*
D02*
G37*
G36*
X192165Y215032D02*
X191210Y214842D01*
X190400Y214301D01*
X189859Y213491D01*
X189669Y212535D01*
X189859Y211580D01*
X190400Y210770D01*
X191210Y210229D01*
X192165Y210039D01*
X193121Y210229D01*
X193931Y210770D01*
X194472Y211580D01*
X194662Y212535D01*
X194472Y213491D01*
X193931Y214301D01*
X193121Y214842D01*
X192165Y215032D01*
D02*
G37*
G36*
X136220Y213131D02*
X135564Y213001D01*
X135008Y212629D01*
X134637Y212073D01*
X134506Y211417D01*
X134637Y210761D01*
X135008Y210205D01*
X135564Y209834D01*
X136220Y209703D01*
X136876Y209834D01*
X137432Y210205D01*
X137804Y210761D01*
X137934Y211417D01*
X137804Y212073D01*
X137432Y212629D01*
X136876Y213001D01*
X136220Y213131D01*
D02*
G37*
G36*
X329421Y210917D02*
X327797D01*
X327867Y210566D01*
X328349Y209845D01*
X329070Y209363D01*
X329421Y209293D01*
Y210917D01*
D02*
G37*
G36*
X302500Y210624D02*
Y209000D01*
X304124D01*
X304055Y209351D01*
X303573Y210072D01*
X302851Y210555D01*
X302500Y210624D01*
D02*
G37*
G36*
X301500D02*
X301149Y210555D01*
X300428Y210072D01*
X299945Y209351D01*
X299876Y209000D01*
X301500D01*
Y210624D01*
D02*
G37*
G36*
X330421Y213542D02*
Y211417D01*
Y209293D01*
X330772Y209363D01*
X331494Y209845D01*
X331574D01*
X331859Y209418D01*
X332415Y209046D01*
X333071Y208916D01*
X333727Y209046D01*
X334283Y209418D01*
X334654Y209974D01*
X334785Y210630D01*
X334654Y211286D01*
X334283Y211842D01*
X333727Y212214D01*
X333071Y212344D01*
X332415Y212214D01*
X331859Y212443D01*
X331494Y212990D01*
X330772Y213472D01*
X330421Y213542D01*
D02*
G37*
G36*
X304124Y208000D02*
X302500D01*
Y206376D01*
X302851Y206445D01*
X303573Y206927D01*
X304055Y207649D01*
X304124Y208000D01*
D02*
G37*
G36*
X301500D02*
X299876D01*
X299945Y207649D01*
X300428Y206927D01*
X301149Y206445D01*
X301500Y206376D01*
Y208000D01*
D02*
G37*
G36*
X314000Y209714D02*
X313344Y209584D01*
X312788Y209212D01*
X312416Y208656D01*
X312286Y208000D01*
X312416Y207344D01*
X312788Y206788D01*
X313344Y206416D01*
X314000Y206286D01*
X314656Y206416D01*
X315212Y206788D01*
X315745Y206686D01*
X315904Y206450D01*
X316460Y206078D01*
X317116Y205947D01*
X317772Y206078D01*
X318328Y206450D01*
X318699Y207006D01*
X318830Y207662D01*
X318699Y208317D01*
X318328Y208874D01*
X317772Y209245D01*
X317116Y209376D01*
X316460Y209245D01*
X315904Y208874D01*
X315370Y208975D01*
X315212Y209212D01*
X314656Y209584D01*
X314000Y209714D01*
D02*
G37*
G36*
X333071Y206942D02*
X332415Y206812D01*
X331859Y206440D01*
X331487Y205884D01*
X331145Y205743D01*
X330772Y205992D01*
X330421Y206061D01*
Y203937D01*
Y201813D01*
X330772Y201882D01*
X331494Y202364D01*
X331976Y203086D01*
X332057Y203497D01*
X332415Y203645D01*
X333071Y203514D01*
X333727Y203645D01*
X334283Y204016D01*
X334654Y204572D01*
X334785Y205228D01*
X334654Y205884D01*
X334283Y206440D01*
X333727Y206812D01*
X333071Y206942D01*
D02*
G37*
G36*
X136220Y208801D02*
X135564Y208670D01*
X135008Y208299D01*
X134637Y207743D01*
X134506Y207087D01*
X134637Y206431D01*
X135008Y205875D01*
X135564Y205503D01*
X136220Y205373D01*
X136876Y205503D01*
X137432Y205875D01*
X137804Y206431D01*
X137934Y207087D01*
X137804Y207743D01*
X137432Y208299D01*
X136876Y208670D01*
X136220Y208801D01*
D02*
G37*
G36*
X322835Y207104D02*
X322179Y206973D01*
X321623Y206602D01*
X321251Y206046D01*
X321121Y205390D01*
X321251Y204734D01*
X321417Y204485D01*
X321057Y204124D01*
X320735Y204340D01*
X320079Y204470D01*
X319423Y204340D01*
X318867Y203968D01*
X318495Y203412D01*
X318365Y202756D01*
X318495Y202100D01*
X318867Y201544D01*
X319423Y201172D01*
X320079Y201042D01*
X320735Y201172D01*
X321291Y201544D01*
X321662Y202100D01*
X321793Y202756D01*
X321662Y203412D01*
X321496Y203661D01*
X321856Y204022D01*
X322179Y203806D01*
X322835Y203676D01*
X323491Y203806D01*
X324047Y204178D01*
X324418Y204734D01*
X324549Y205390D01*
X324418Y206046D01*
X324047Y206602D01*
X323491Y206973D01*
X322835Y207104D01*
D02*
G37*
G36*
X263386Y207226D02*
X262730Y207095D01*
X262174Y206724D01*
X261802Y206168D01*
X261672Y205512D01*
X261802Y204856D01*
X262116Y204386D01*
X261756Y204026D01*
X261286Y204340D01*
X260630Y204470D01*
X259974Y204340D01*
X259418Y203968D01*
X259046Y203412D01*
X258916Y202756D01*
X259022Y202224D01*
X258841Y202001D01*
X258765Y201933D01*
X258625Y201850D01*
X258050Y201964D01*
X257394Y201834D01*
X256838Y201462D01*
X256466Y200906D01*
X256336Y200250D01*
X256466Y199594D01*
X256838Y199038D01*
X257394Y198666D01*
X258050Y198536D01*
X258706Y198666D01*
X259262Y199038D01*
X259634Y199594D01*
X259764Y200250D01*
X259658Y200782D01*
X259839Y201005D01*
X259915Y201073D01*
X260055Y201156D01*
X260630Y201042D01*
X261286Y201172D01*
X261842Y201544D01*
X262214Y202100D01*
X262344Y202756D01*
X262214Y203412D01*
X261900Y203882D01*
X262260Y204242D01*
X262730Y203928D01*
X263386Y203798D01*
X264042Y203928D01*
X264598Y204300D01*
X264969Y204856D01*
X265100Y205512D01*
X264969Y206168D01*
X264598Y206724D01*
X264042Y207095D01*
X263386Y207226D01*
D02*
G37*
G36*
X190500Y207214D02*
X189844Y207084D01*
X189288Y206712D01*
X188916Y206156D01*
X188786Y205500D01*
X188916Y204844D01*
X189288Y204288D01*
X189844Y203916D01*
X190500Y203786D01*
X191156Y203916D01*
X191712Y204288D01*
X192084Y204844D01*
X192214Y205500D01*
X192084Y206156D01*
X191712Y206712D01*
X191156Y207084D01*
X190500Y207214D01*
D02*
G37*
G36*
X100024Y206514D02*
X99368Y206384D01*
X98812Y206012D01*
X98440Y205456D01*
X98310Y204800D01*
X98440Y204144D01*
X98812Y203588D01*
X99368Y203216D01*
X100024Y203086D01*
X100680Y203216D01*
X101236Y203588D01*
X101607Y204144D01*
X101738Y204800D01*
X101607Y205456D01*
X101236Y206012D01*
X100680Y206384D01*
X100024Y206514D01*
D02*
G37*
G36*
X220185Y203699D02*
Y202075D01*
X221809D01*
X221740Y202426D01*
X221257Y203147D01*
X220536Y203629D01*
X220185Y203699D01*
D02*
G37*
G36*
X219185D02*
X218834Y203629D01*
X218112Y203147D01*
X217631Y202426D01*
X217561Y202075D01*
X219185D01*
Y203699D01*
D02*
G37*
G36*
X251000Y204714D02*
X250344Y204584D01*
X249788Y204212D01*
X249416Y203656D01*
X249286Y203000D01*
X249416Y202344D01*
X249788Y201788D01*
X250344Y201416D01*
X251000Y201286D01*
X251656Y201416D01*
X252212Y201788D01*
X252584Y202344D01*
X252714Y203000D01*
X252584Y203656D01*
X252212Y204212D01*
X251656Y204584D01*
X251000Y204714D01*
D02*
G37*
G36*
X238583Y203289D02*
X237927Y203158D01*
X237371Y202787D01*
X236999Y202231D01*
X236869Y201575D01*
X236999Y200919D01*
X237371Y200363D01*
X237927Y199991D01*
X238583Y199861D01*
X239239Y199991D01*
X239795Y200363D01*
X240166Y200919D01*
X240297Y201575D01*
X240166Y202231D01*
X239795Y202787D01*
X239239Y203158D01*
X238583Y203289D01*
D02*
G37*
G36*
X232283D02*
X231627Y203158D01*
X231071Y202787D01*
X230700Y202231D01*
X230569Y201575D01*
X230700Y200919D01*
X231071Y200363D01*
X231627Y199991D01*
X232283Y199861D01*
X232939Y199991D01*
X233495Y200363D01*
X233867Y200919D01*
X233997Y201575D01*
X233867Y202231D01*
X233495Y202787D01*
X232939Y203158D01*
X232283Y203289D01*
D02*
G37*
G36*
X112500Y206514D02*
X111844Y206384D01*
X111288Y206012D01*
X110916Y205456D01*
X110786Y204800D01*
X110916Y204144D01*
X111288Y203588D01*
X111295Y203584D01*
X111312Y203403D01*
X111243Y203016D01*
X110788Y202712D01*
X110416Y202156D01*
X110286Y201500D01*
X110416Y200844D01*
X110788Y200288D01*
X111344Y199916D01*
X112000Y199786D01*
X112656Y199916D01*
X113212Y200288D01*
X113584Y200844D01*
X113714Y201500D01*
X113584Y202156D01*
X113212Y202712D01*
X113205Y202716D01*
X113188Y202897D01*
X113257Y203284D01*
X113712Y203588D01*
X114084Y204144D01*
X114214Y204800D01*
X114084Y205456D01*
X113712Y206012D01*
X113156Y206384D01*
X112500Y206514D01*
D02*
G37*
G36*
X219185Y201075D02*
X217561D01*
X217631Y200724D01*
X218112Y200002D01*
X218834Y199520D01*
X219185Y199450D01*
Y201075D01*
D02*
G37*
G36*
X221809D02*
X220185D01*
Y199202D01*
X220363Y198976D01*
X220302Y198843D01*
X209449D01*
X209139Y198781D01*
X208876Y198605D01*
X208567Y198296D01*
X207575D01*
X207307Y198697D01*
X206751Y199069D01*
X206095Y199199D01*
X205439Y199069D01*
X204883Y198697D01*
X204511Y198141D01*
X204381Y197485D01*
X204511Y196829D01*
X204883Y196273D01*
X205439Y195902D01*
X206095Y195771D01*
X206751Y195902D01*
X207307Y196273D01*
X207575Y196675D01*
X208903D01*
X209213Y196736D01*
X209369Y196841D01*
X209693Y196573D01*
X209751Y196494D01*
X209687Y196169D01*
X213935D01*
X213865Y196520D01*
X213692Y196780D01*
X213928Y197221D01*
X220567D01*
X220835Y196820D01*
X221391Y196448D01*
X222047Y196318D01*
X222703Y196448D01*
X223259Y196820D01*
X223631Y197376D01*
X223761Y198032D01*
X223631Y198688D01*
X223259Y199244D01*
X222703Y199615D01*
X222047Y199746D01*
X221579Y199653D01*
X221533Y199703D01*
X221332Y200113D01*
X221740Y200724D01*
X221809Y201075D01*
D02*
G37*
G36*
X176772Y201714D02*
X176116Y201584D01*
X175560Y201212D01*
X175188Y200656D01*
X175058Y200000D01*
X175188Y199344D01*
X175560Y198788D01*
X176116Y198416D01*
X176772Y198286D01*
X177427Y198416D01*
X177984Y198788D01*
X178355Y199344D01*
X178486Y200000D01*
X178355Y200656D01*
X177984Y201212D01*
X177427Y201584D01*
X176772Y201714D01*
D02*
G37*
G36*
X118000D02*
X117344Y201584D01*
X116788Y201212D01*
X116416Y200656D01*
X116286Y200000D01*
X116416Y199344D01*
X116788Y198788D01*
X117344Y198416D01*
X118000Y198286D01*
X118656Y198416D01*
X119212Y198788D01*
X119584Y199344D01*
X119714Y200000D01*
X119584Y200656D01*
X119212Y201212D01*
X118656Y201584D01*
X118000Y201714D01*
D02*
G37*
G36*
X311417Y197777D02*
X310761Y197647D01*
X310205Y197275D01*
X309834Y196719D01*
X309703Y196063D01*
X309834Y195407D01*
X310205Y194851D01*
X310761Y194479D01*
X311417Y194349D01*
X312073Y194479D01*
X312629Y194851D01*
X313001Y195407D01*
X313131Y196063D01*
X313001Y196719D01*
X312629Y197275D01*
X312073Y197647D01*
X311417Y197777D01*
D02*
G37*
G36*
X253500Y196714D02*
X252844Y196584D01*
X252288Y196212D01*
X251916Y195656D01*
X251786Y195000D01*
X251916Y194344D01*
X252288Y193788D01*
X252844Y193416D01*
X253500Y193286D01*
X254156Y193416D01*
X254712Y193788D01*
X255084Y194344D01*
X255214Y195000D01*
X255084Y195656D01*
X254712Y196212D01*
X254156Y196584D01*
X253500Y196714D01*
D02*
G37*
G36*
X389370Y195808D02*
X388714Y195678D01*
X388158Y195306D01*
X387786Y194750D01*
X387656Y194094D01*
X387786Y193438D01*
X388158Y192882D01*
X388714Y192511D01*
X389370Y192380D01*
X390026Y192511D01*
X390582Y192882D01*
X390954Y193438D01*
X391084Y194094D01*
X390954Y194750D01*
X390582Y195306D01*
X390026Y195678D01*
X389370Y195808D01*
D02*
G37*
G36*
X227559D02*
X226903Y195678D01*
X226347Y195306D01*
X225975Y194750D01*
X225845Y194094D01*
X225975Y193438D01*
X226347Y192882D01*
X226903Y192511D01*
X227559Y192380D01*
X228215Y192511D01*
X228771Y192882D01*
X229143Y193438D01*
X229273Y194094D01*
X229143Y194750D01*
X228771Y195306D01*
X228215Y195678D01*
X227559Y195808D01*
D02*
G37*
G36*
X204000Y195714D02*
X203344Y195584D01*
X202788Y195212D01*
X202416Y194656D01*
X202286Y194000D01*
X202416Y193344D01*
X202788Y192788D01*
X203344Y192416D01*
X204000Y192286D01*
X204656Y192416D01*
X205212Y192788D01*
X205584Y193344D01*
X205714Y194000D01*
X205584Y194656D01*
X205212Y195212D01*
X204656Y195584D01*
X204000Y195714D01*
D02*
G37*
G36*
X123228Y199352D02*
X122573Y199221D01*
X122016Y198850D01*
X121645Y198294D01*
X121514Y197638D01*
X121645Y196982D01*
X121973Y196490D01*
X122013Y196409D01*
X121913Y195894D01*
X121623Y195700D01*
X121251Y195144D01*
X121121Y194488D01*
X121251Y193832D01*
X121623Y193276D01*
X121891Y193097D01*
X121918Y192951D01*
X121855Y192520D01*
X121262Y192124D01*
X120780Y191402D01*
X120710Y191051D01*
X124959D01*
X124889Y191402D01*
X124407Y192124D01*
X123814Y192520D01*
X123751Y192951D01*
X123778Y193097D01*
X124047Y193276D01*
X124418Y193832D01*
X124549Y194488D01*
X124418Y195144D01*
X124090Y195636D01*
X124050Y195717D01*
X124151Y196232D01*
X124440Y196426D01*
X124812Y196982D01*
X124942Y197638D01*
X124812Y198294D01*
X124440Y198850D01*
X123884Y199221D01*
X123228Y199352D01*
D02*
G37*
G36*
X219685Y195808D02*
X219029Y195678D01*
X218473Y195306D01*
X218101Y194750D01*
X217971Y194094D01*
X218101Y193438D01*
X218473Y192882D01*
X218956Y192560D01*
X219039Y192455D01*
X219126Y191982D01*
X218887Y191624D01*
X218756Y190968D01*
X218887Y190312D01*
X218967Y190192D01*
X218307Y189533D01*
X215400Y192440D01*
X215494Y192913D01*
X215363Y193569D01*
X214992Y194125D01*
X214436Y194497D01*
X214274Y194529D01*
X214215Y194571D01*
X213923Y195109D01*
X213935Y195169D01*
X209687D01*
X209756Y194818D01*
X210239Y194097D01*
X210960Y193615D01*
X211811Y193445D01*
X212112Y193145D01*
X212066Y192913D01*
X212196Y192257D01*
X212568Y191701D01*
X213124Y191330D01*
X213780Y191199D01*
X214253Y191294D01*
X217734Y187812D01*
X219586Y185960D01*
X219849Y185784D01*
X220159Y185723D01*
X221473D01*
X222380Y184816D01*
X222286Y184342D01*
X222416Y183686D01*
X222788Y183130D01*
X223344Y182759D01*
X224000Y182628D01*
X224656Y182759D01*
X225212Y183130D01*
X225584Y183686D01*
X225714Y184342D01*
X225584Y184998D01*
X225212Y185554D01*
X224656Y185926D01*
X224000Y186056D01*
X223527Y185962D01*
X222382Y187107D01*
X222119Y187283D01*
X221809Y187345D01*
X220495D01*
X219454Y188386D01*
X220346Y189278D01*
X220470Y189254D01*
X221126Y189384D01*
X221682Y189756D01*
X222054Y190312D01*
X222184Y190968D01*
X222054Y191624D01*
X221682Y192180D01*
X221199Y192503D01*
X221116Y192607D01*
X221029Y193080D01*
X221269Y193438D01*
X221399Y194094D01*
X221269Y194750D01*
X220897Y195306D01*
X220341Y195678D01*
X219685Y195808D01*
D02*
G37*
G36*
X16535Y192265D02*
X15879Y192135D01*
X15323Y191763D01*
X14952Y191207D01*
X14821Y190551D01*
X14952Y189895D01*
X15323Y189339D01*
X15879Y188968D01*
X16535Y188837D01*
X17191Y188968D01*
X17747Y189339D01*
X18119Y189895D01*
X18249Y190551D01*
X18119Y191207D01*
X17747Y191763D01*
X17191Y192135D01*
X16535Y192265D01*
D02*
G37*
G36*
X124959Y190051D02*
X123335D01*
Y188427D01*
X123686Y188497D01*
X124407Y188979D01*
X124889Y189700D01*
X124959Y190051D01*
D02*
G37*
G36*
X122335D02*
X120710D01*
X120780Y189700D01*
X121262Y188979D01*
X121984Y188497D01*
X122335Y188427D01*
Y190051D01*
D02*
G37*
G36*
X111127Y189910D02*
Y188286D01*
X112751D01*
X112681Y188637D01*
X112199Y189358D01*
X111478Y189840D01*
X111127Y189910D01*
D02*
G37*
G36*
X110127D02*
X109776Y189840D01*
X109054Y189358D01*
X108572Y188637D01*
X108502Y188286D01*
X110127D01*
Y189910D01*
D02*
G37*
G36*
X136220Y191690D02*
X135564Y191560D01*
X135008Y191188D01*
X134637Y190632D01*
X134506Y189976D01*
X134637Y189321D01*
X135008Y188764D01*
X135564Y188393D01*
X136220Y188262D01*
X136876Y188393D01*
X137432Y188764D01*
X137804Y189321D01*
X137934Y189976D01*
X137804Y190632D01*
X137432Y191188D01*
X136876Y191560D01*
X136220Y191690D01*
D02*
G37*
G36*
X247638Y194234D02*
X246982Y194103D01*
X246426Y193732D01*
X246054Y193175D01*
X245924Y192520D01*
X246054Y191864D01*
X246426Y191308D01*
X246982Y190936D01*
X247025Y190927D01*
X247131Y190397D01*
X246820Y190188D01*
X246448Y189632D01*
X246318Y188976D01*
X246448Y188321D01*
X246017Y188118D01*
X245844Y188084D01*
X245288Y187712D01*
X245107Y187441D01*
X244467Y187267D01*
X244400Y187312D01*
X243744Y187443D01*
X243088Y187312D01*
X242984Y187243D01*
X242543Y187479D01*
Y188284D01*
X242944Y188552D01*
X243316Y189108D01*
X243446Y189764D01*
X243316Y190420D01*
X242944Y190976D01*
X242388Y191347D01*
X241732Y191478D01*
X241076Y191347D01*
X240520Y190976D01*
X240149Y190420D01*
X240018Y189764D01*
X240149Y189108D01*
X240520Y188552D01*
X240921Y188284D01*
Y182623D01*
X240983Y182312D01*
X241159Y182049D01*
X242898Y180310D01*
Y176577D01*
X242457Y176341D01*
X242388Y176387D01*
X241732Y176517D01*
X241259Y176423D01*
X235402Y182280D01*
Y184581D01*
X235712Y184788D01*
X236084Y185344D01*
X236214Y186000D01*
X236084Y186656D01*
X235712Y187212D01*
X235156Y187584D01*
X234500Y187714D01*
X233844Y187584D01*
X233288Y187212D01*
X232916Y186656D01*
X232786Y186000D01*
X232916Y185344D01*
X233288Y184788D01*
X233780Y184459D01*
Y181944D01*
X233842Y181634D01*
X234018Y181371D01*
X237720Y177668D01*
X237556Y177126D01*
X237344Y177084D01*
X236788Y176712D01*
X236416Y176156D01*
X236286Y175500D01*
X236416Y174844D01*
X236788Y174288D01*
X237344Y173916D01*
X238000Y173786D01*
X238656Y173916D01*
X239212Y174288D01*
X239543Y174784D01*
X239876Y174749D01*
X240040Y174695D01*
X240149Y174147D01*
X240520Y173591D01*
X241076Y173220D01*
X241383Y173159D01*
X241548Y172616D01*
X225039Y156107D01*
X224500Y156214D01*
X223844Y156084D01*
X223288Y155712D01*
X222916Y155156D01*
X222786Y154500D01*
X222916Y153844D01*
X223288Y153288D01*
X223844Y152916D01*
X224500Y152786D01*
X225156Y152916D01*
X225712Y153288D01*
X226084Y153844D01*
X226214Y154500D01*
X226133Y154908D01*
X244282Y173057D01*
X244458Y173320D01*
X244519Y173630D01*
X244519Y173630D01*
Y180646D01*
X244458Y180957D01*
X244282Y181220D01*
X242543Y182958D01*
Y183979D01*
X242984Y184214D01*
X243088Y184145D01*
X243744Y184015D01*
X244400Y184145D01*
X244956Y184517D01*
X245327Y185073D01*
X245502Y185145D01*
X245844Y184916D01*
X246500Y184786D01*
X247156Y184916D01*
X247712Y185288D01*
X248084Y185844D01*
X248214Y186500D01*
X248084Y187156D01*
X248514Y187358D01*
X248688Y187393D01*
X249244Y187764D01*
X249615Y188321D01*
X249746Y188976D01*
X249615Y189632D01*
X249244Y190188D01*
X248688Y190560D01*
X248644Y190569D01*
X248538Y191100D01*
X248850Y191308D01*
X249221Y191864D01*
X249352Y192520D01*
X249221Y193175D01*
X248850Y193732D01*
X248294Y194103D01*
X247638Y194234D01*
D02*
G37*
G36*
X230315Y190690D02*
X229659Y190560D01*
X229103Y190188D01*
X228731Y189632D01*
X228601Y188976D01*
X228695Y188503D01*
X227379Y187188D01*
X227204Y186925D01*
X227142Y186614D01*
Y177464D01*
X226741Y177196D01*
X226369Y176640D01*
X226239Y175984D01*
X226369Y175328D01*
X226741Y174772D01*
X227297Y174401D01*
X227953Y174270D01*
X228609Y174401D01*
X229165Y174772D01*
X229536Y175328D01*
X229667Y175984D01*
X229536Y176640D01*
X229165Y177196D01*
X228764Y177464D01*
Y186278D01*
X229842Y187356D01*
X230315Y187262D01*
X230971Y187393D01*
X231527Y187764D01*
X231899Y188321D01*
X232029Y188976D01*
X231899Y189632D01*
X231527Y190188D01*
X230971Y190560D01*
X230315Y190690D01*
D02*
G37*
G36*
X205118Y188148D02*
Y186524D01*
X206743D01*
X206673Y186875D01*
X206191Y187596D01*
X205469Y188078D01*
X205118Y188148D01*
D02*
G37*
G36*
X204118D02*
X203767Y188078D01*
X203046Y187596D01*
X202564Y186875D01*
X202494Y186524D01*
X204118D01*
Y188148D01*
D02*
G37*
G36*
X130815D02*
Y186524D01*
X132439D01*
X132370Y186875D01*
X131887Y187596D01*
X131166Y188078D01*
X130815Y188148D01*
D02*
G37*
G36*
X212205Y189903D02*
X211549Y189773D01*
X210993Y189401D01*
X210621Y188845D01*
X210491Y188189D01*
X210621Y187533D01*
X210993Y186977D01*
X211549Y186605D01*
X212205Y186475D01*
X212861Y186605D01*
X213417Y186977D01*
X213788Y187533D01*
X213919Y188189D01*
X213788Y188845D01*
X213417Y189401D01*
X212861Y189773D01*
X212205Y189903D01*
D02*
G37*
G36*
X112751Y187286D02*
X111127D01*
Y185661D01*
X111478Y185731D01*
X112199Y186213D01*
X112681Y186934D01*
X112751Y187286D01*
D02*
G37*
G36*
X110127D02*
X108502D01*
X108572Y186934D01*
X109054Y186213D01*
X109776Y185731D01*
X110127Y185661D01*
Y187286D01*
D02*
G37*
G36*
X132439Y185524D02*
X130815D01*
Y183899D01*
X131166Y183969D01*
X131887Y184451D01*
X132370Y185173D01*
X132439Y185524D01*
D02*
G37*
G36*
X129815D02*
X128191D01*
X128260Y185173D01*
X128743Y184451D01*
X129464Y183969D01*
X129815Y183899D01*
Y185524D01*
D02*
G37*
G36*
X319409Y194226D02*
X318051Y194047D01*
X316785Y193523D01*
X315697Y192688D01*
X314863Y191601D01*
X314339Y190335D01*
X314160Y188976D01*
X314339Y187618D01*
X314863Y186352D01*
X315697Y185264D01*
X316785Y184430D01*
X318051Y183906D01*
X319409Y183727D01*
X320768Y183906D01*
X322034Y184430D01*
X323122Y185264D01*
X323956Y186352D01*
X324480Y187618D01*
X324659Y188976D01*
X324480Y190335D01*
X323956Y191601D01*
X323122Y192688D01*
X322034Y193523D01*
X320768Y194047D01*
X319409Y194226D01*
D02*
G37*
G36*
X206743Y185524D02*
X202494D01*
X202564Y185173D01*
X202854Y184738D01*
X203030Y184434D01*
X202726Y184098D01*
X202364Y183856D01*
X201882Y183134D01*
X201813Y182783D01*
X206061D01*
X205992Y183134D01*
X205701Y183569D01*
X205525Y183873D01*
X205829Y184209D01*
X206191Y184451D01*
X206673Y185173D01*
X206743Y185524D01*
D02*
G37*
G36*
X210630Y185966D02*
X209974Y185836D01*
X209418Y185464D01*
X209046Y184908D01*
X208916Y184252D01*
X209046Y183596D01*
X209418Y183040D01*
X209974Y182668D01*
X210630Y182538D01*
X211286Y182668D01*
X211842Y183040D01*
X212214Y183596D01*
X212344Y184252D01*
X212214Y184908D01*
X211842Y185464D01*
X211286Y185836D01*
X210630Y185966D01*
D02*
G37*
G36*
X58661D02*
X58005Y185836D01*
X57449Y185464D01*
X57078Y184908D01*
X56947Y184252D01*
X57018Y183897D01*
X44756Y171635D01*
X44558Y171339D01*
X44489Y170991D01*
Y166767D01*
X44188Y166566D01*
X43816Y166010D01*
X43686Y165354D01*
X43816Y164699D01*
X44188Y164142D01*
X44744Y163771D01*
X45400Y163640D01*
X46056Y163771D01*
X46612Y164142D01*
X46984Y164699D01*
X47114Y165354D01*
X46984Y166010D01*
X46612Y166566D01*
X46311Y166767D01*
Y170613D01*
X58307Y182608D01*
X58661Y182538D01*
X59317Y182668D01*
X59873Y183040D01*
X60245Y183596D01*
X60375Y184252D01*
X60245Y184908D01*
X59873Y185464D01*
X59317Y185836D01*
X58661Y185966D01*
D02*
G37*
G36*
X251181Y187541D02*
X250525Y187410D01*
X249969Y187039D01*
X249598Y186483D01*
X249467Y185827D01*
X249598Y185171D01*
X249969Y184615D01*
X250525Y184243D01*
X251181Y184113D01*
X251837Y184243D01*
X251914Y184295D01*
X252323Y183966D01*
X252223Y183465D01*
X252353Y182809D01*
X252725Y182253D01*
X253281Y181881D01*
X253937Y181751D01*
X254593Y181881D01*
X255149Y182253D01*
X255521Y182809D01*
X255651Y183465D01*
X255521Y184121D01*
X255149Y184677D01*
X254593Y185048D01*
X253937Y185179D01*
X253281Y185048D01*
X253204Y184997D01*
X252795Y185325D01*
X252895Y185827D01*
X252765Y186483D01*
X252393Y187039D01*
X251837Y187410D01*
X251181Y187541D01*
D02*
G37*
G36*
X68425Y196303D02*
X66996Y196162D01*
X65621Y195745D01*
X64355Y195068D01*
X63244Y194157D01*
X62333Y193047D01*
X61656Y191780D01*
X61239Y190406D01*
X61099Y188976D01*
X61239Y187547D01*
X61656Y186173D01*
X62333Y184906D01*
X63244Y183796D01*
X64355Y182885D01*
X65621Y182208D01*
X66996Y181791D01*
X68425Y181650D01*
X69854Y181791D01*
X71229Y182208D01*
X72496Y182885D01*
X73606Y183796D01*
X74517Y184906D01*
X75194Y186173D01*
X75611Y187547D01*
X75752Y188976D01*
X75611Y190406D01*
X75194Y191780D01*
X74517Y193047D01*
X73606Y194157D01*
X72496Y195068D01*
X71229Y195745D01*
X69854Y196162D01*
X68425Y196303D01*
D02*
G37*
G36*
X187402Y184785D02*
X186746Y184654D01*
X186190Y184283D01*
X185818Y183727D01*
X185688Y183071D01*
X185818Y182415D01*
X186190Y181859D01*
X186746Y181487D01*
X187402Y181357D01*
X188057Y181487D01*
X188614Y181859D01*
X188985Y182415D01*
X189116Y183071D01*
X188985Y183727D01*
X188614Y184283D01*
X188057Y184654D01*
X187402Y184785D01*
D02*
G37*
G36*
X206061Y181783D02*
X204437D01*
Y180159D01*
X204788Y180229D01*
X205509Y180711D01*
X205992Y181432D01*
X206061Y181783D01*
D02*
G37*
G36*
X203437D02*
X201813D01*
X201882Y181432D01*
X202364Y180711D01*
X203086Y180229D01*
X203437Y180159D01*
Y181783D01*
D02*
G37*
G36*
X315900Y182814D02*
X315244Y182684D01*
X314688Y182312D01*
X314316Y181756D01*
X314186Y181100D01*
X314316Y180444D01*
X314688Y179888D01*
X315244Y179516D01*
X315900Y179386D01*
X316556Y179516D01*
X317112Y179888D01*
X317484Y180444D01*
X317614Y181100D01*
X317484Y181756D01*
X317112Y182312D01*
X316556Y182684D01*
X315900Y182814D01*
D02*
G37*
G36*
X192000Y181214D02*
X191344Y181084D01*
X190788Y180712D01*
X190416Y180156D01*
X190286Y179500D01*
X190416Y178844D01*
X190788Y178288D01*
X191344Y177916D01*
X192000Y177786D01*
X192656Y177916D01*
X193212Y178288D01*
X193584Y178844D01*
X193714Y179500D01*
X193584Y180156D01*
X193212Y180712D01*
X192656Y181084D01*
X192000Y181214D01*
D02*
G37*
G36*
X117600Y180414D02*
X116944Y180284D01*
X116388Y179912D01*
X116016Y179356D01*
X115886Y178700D01*
X116016Y178044D01*
X116388Y177488D01*
X116944Y177116D01*
X117600Y176986D01*
X118256Y177116D01*
X118812Y177488D01*
X119184Y178044D01*
X119314Y178700D01*
X119184Y179356D01*
X118812Y179912D01*
X118256Y180284D01*
X117600Y180414D01*
D02*
G37*
G36*
X218504Y178507D02*
X217848Y178376D01*
X217292Y178005D01*
X216920Y177449D01*
X216790Y176793D01*
X216920Y176137D01*
X217292Y175581D01*
X217848Y175209D01*
X218504Y175079D01*
X219160Y175209D01*
X219716Y175581D01*
X220088Y176137D01*
X220218Y176793D01*
X220088Y177449D01*
X219716Y178005D01*
X219160Y178376D01*
X218504Y178507D01*
D02*
G37*
G36*
X212591Y178496D02*
X211935Y178365D01*
X211379Y177994D01*
X211007Y177438D01*
X210877Y176782D01*
X211007Y176126D01*
X211379Y175570D01*
X211935Y175198D01*
X212591Y175068D01*
X213246Y175198D01*
X213803Y175570D01*
X214174Y176126D01*
X214305Y176782D01*
X214174Y177438D01*
X213803Y177994D01*
X213246Y178365D01*
X212591Y178496D01*
D02*
G37*
G36*
X183465Y177305D02*
X182809Y177174D01*
X182253Y176803D01*
X181881Y176247D01*
X181751Y175591D01*
X181806Y175312D01*
X181381Y174887D01*
X181102Y174942D01*
X180447Y174812D01*
X179890Y174440D01*
X179519Y173884D01*
X179388Y173228D01*
X179519Y172573D01*
X179890Y172016D01*
X180447Y171645D01*
X181102Y171514D01*
X181758Y171645D01*
X182314Y172016D01*
X182686Y172573D01*
X182816Y173228D01*
X182761Y173507D01*
X183186Y173932D01*
X183465Y173877D01*
X184121Y174007D01*
X184677Y174379D01*
X185048Y174935D01*
X185179Y175591D01*
X185048Y176247D01*
X184677Y176803D01*
X184121Y177174D01*
X183465Y177305D01*
D02*
G37*
G36*
X328346Y178092D02*
X327691Y177962D01*
X327134Y177590D01*
X326763Y177034D01*
X326632Y176378D01*
X326763Y175722D01*
X327134Y175166D01*
X327691Y174794D01*
X328346Y174664D01*
X329002Y174794D01*
X329558Y175166D01*
X329930Y175722D01*
X330060Y176378D01*
X329930Y177034D01*
X329558Y177590D01*
X329002Y177962D01*
X328346Y178092D01*
D02*
G37*
G36*
X299500Y191214D02*
X298844Y191084D01*
X298288Y190712D01*
X297916Y190156D01*
X297786Y189500D01*
X297916Y188844D01*
X298288Y188288D01*
X298844Y187916D01*
X299500Y187786D01*
X299973Y187880D01*
X306268Y181585D01*
Y180717D01*
X306330Y180406D01*
X306505Y180143D01*
X315183Y171466D01*
X315446Y171290D01*
X315756Y171229D01*
X315756Y171229D01*
X326871D01*
X327134Y170835D01*
X327691Y170464D01*
X328346Y170333D01*
X329002Y170464D01*
X329558Y170835D01*
X329930Y171391D01*
X330060Y172047D01*
X329930Y172703D01*
X329558Y173259D01*
X329002Y173631D01*
X328346Y173761D01*
X327691Y173631D01*
X327134Y173259D01*
X326861Y172850D01*
X323033D01*
X322797Y173291D01*
X322843Y173360D01*
X322974Y174016D01*
X322919Y174294D01*
X323344Y174719D01*
X323622Y174664D01*
X324278Y174794D01*
X324834Y175166D01*
X325206Y175722D01*
X325336Y176378D01*
X325206Y177034D01*
X324834Y177590D01*
X324278Y177962D01*
X323622Y178092D01*
X322966Y177962D01*
X322410Y177590D01*
X322038Y177034D01*
X321908Y176378D01*
X321963Y176100D01*
X321538Y175674D01*
X321260Y175730D01*
X320604Y175599D01*
X320048Y175228D01*
X319676Y174672D01*
X319546Y174016D01*
X319676Y173360D01*
X319722Y173291D01*
X319486Y172850D01*
X316092D01*
X309240Y179703D01*
X309404Y180245D01*
X309711Y180306D01*
X310267Y180678D01*
X310639Y181234D01*
X310769Y181890D01*
X310639Y182546D01*
X310267Y183102D01*
X309711Y183473D01*
X309055Y183604D01*
X308399Y183473D01*
X307843Y183102D01*
X307742Y182951D01*
X307245Y182902D01*
X301120Y189027D01*
X301214Y189500D01*
X301084Y190156D01*
X300712Y190712D01*
X300156Y191084D01*
X299500Y191214D01*
D02*
G37*
G36*
X270300Y178092D02*
X269644Y177962D01*
X269088Y177590D01*
X268716Y177034D01*
X268586Y176378D01*
X268656Y176023D01*
X266178Y173545D01*
X265981Y173249D01*
X265912Y172901D01*
Y164546D01*
X265981Y164197D01*
X266178Y163902D01*
X267127Y162953D01*
X267056Y162598D01*
X267187Y161943D01*
X267558Y161386D01*
X268114Y161015D01*
X268770Y160884D01*
X269426Y161015D01*
X269982Y161386D01*
X270354Y161943D01*
X270484Y162598D01*
X270354Y163254D01*
X269982Y163810D01*
X269426Y164182D01*
X268770Y164312D01*
X268416Y164242D01*
X267734Y164923D01*
Y167677D01*
X268234Y167987D01*
X268398Y167954D01*
Y170079D01*
Y172418D01*
X268097Y172634D01*
X268071Y172860D01*
X269945Y174734D01*
X270300Y174664D01*
X270956Y174794D01*
X271512Y175166D01*
X271884Y175722D01*
X272014Y176378D01*
X271884Y177034D01*
X271512Y177590D01*
X270956Y177962D01*
X270300Y178092D01*
D02*
G37*
G36*
X284646Y177305D02*
X283990Y177174D01*
X283434Y176803D01*
X283062Y176247D01*
X282932Y175591D01*
X283062Y174935D01*
X283434Y174379D01*
X283990Y174007D01*
X284646Y173877D01*
X285301Y174007D01*
X285858Y174379D01*
X286229Y174935D01*
X286360Y175591D01*
X286229Y176247D01*
X285858Y176803D01*
X285301Y177174D01*
X284646Y177305D01*
D02*
G37*
G36*
X176378Y172974D02*
X175722Y172843D01*
X175166Y172472D01*
X175053Y172303D01*
X174553D01*
X174440Y172472D01*
X173884Y172843D01*
X173228Y172974D01*
X172573Y172843D01*
X172016Y172472D01*
X171645Y171916D01*
X171514Y171260D01*
X171645Y170604D01*
X172016Y170048D01*
X172573Y169676D01*
X173228Y169546D01*
X173884Y169676D01*
X174440Y170048D01*
X174553Y170217D01*
X175053D01*
X175166Y170048D01*
X175722Y169676D01*
X176378Y169546D01*
X177034Y169676D01*
X177590Y170048D01*
X177962Y170604D01*
X178092Y171260D01*
X177962Y171916D01*
X177590Y172472D01*
X177034Y172843D01*
X176378Y172974D01*
D02*
G37*
G36*
X252500Y175714D02*
X251844Y175584D01*
X251288Y175212D01*
X250916Y174656D01*
X250786Y174000D01*
X250916Y173344D01*
X251288Y172788D01*
X251844Y172416D01*
X252500Y172286D01*
X253156Y172416D01*
X253712Y172788D01*
X254084Y173344D01*
X254214Y174000D01*
X254084Y174656D01*
X253712Y175212D01*
X253156Y175584D01*
X252500Y175714D01*
D02*
G37*
G36*
X271654Y173368D02*
X270998Y173237D01*
X270442Y172866D01*
X270070Y172310D01*
X269534Y172176D01*
X269398Y172203D01*
Y170079D01*
Y167721D01*
X269727Y167227D01*
X270449Y166745D01*
X270800Y166676D01*
Y168800D01*
X271300D01*
Y169300D01*
X273424D01*
X273355Y169651D01*
X272872Y170372D01*
X273114Y170813D01*
X273237Y170998D01*
X273368Y171654D01*
X273237Y172310D01*
X272866Y172866D01*
X272309Y173237D01*
X271654Y173368D01*
D02*
G37*
G36*
X263148Y173516D02*
X261524D01*
Y171891D01*
X261875Y171961D01*
X262596Y172443D01*
X263078Y173165D01*
X263148Y173516D01*
D02*
G37*
G36*
X192126Y174155D02*
X191470Y174025D01*
X190914Y173653D01*
X190542Y173097D01*
X190412Y172441D01*
X190542Y171785D01*
X190914Y171229D01*
X191470Y170857D01*
X192126Y170727D01*
X192782Y170857D01*
X193338Y171229D01*
X193710Y171785D01*
X193840Y172441D01*
X193710Y173097D01*
X193338Y173653D01*
X192782Y174025D01*
X192126Y174155D01*
D02*
G37*
G36*
X52075Y172203D02*
Y170579D01*
X53699D01*
X53629Y170930D01*
X53147Y171651D01*
X52426Y172133D01*
X52075Y172203D01*
D02*
G37*
G36*
X51075D02*
X50724Y172133D01*
X50002Y171651D01*
X49520Y170930D01*
X49450Y170579D01*
X51075D01*
Y172203D01*
D02*
G37*
G36*
X313492Y171416D02*
Y169791D01*
X315117D01*
X315047Y170142D01*
X314565Y170864D01*
X313843Y171346D01*
X313492Y171416D01*
D02*
G37*
G36*
X312492D02*
X312141Y171346D01*
X311420Y170864D01*
X310938Y170142D01*
X310868Y169791D01*
X312492D01*
Y171416D01*
D02*
G37*
G36*
X297925D02*
X297574Y171346D01*
X296853Y170864D01*
X296371Y170142D01*
X296301Y169791D01*
X297925D01*
Y171416D01*
D02*
G37*
G36*
X262705D02*
Y169791D01*
X264329D01*
X264259Y170142D01*
X263777Y170864D01*
X263056Y171346D01*
X262705Y171416D01*
D02*
G37*
G36*
X305906Y174549D02*
X305250Y174418D01*
X304694Y174047D01*
X304322Y173491D01*
X304192Y172835D01*
X304318Y172197D01*
X301096Y168975D01*
X300635Y169221D01*
X300649Y169291D01*
X300480Y170142D01*
X299998Y170864D01*
X299276Y171346D01*
X298925Y171416D01*
Y169291D01*
X298425D01*
Y168791D01*
X296301D01*
X296371Y168440D01*
X296853Y167719D01*
X297574Y167237D01*
X298425Y167068D01*
X298741Y166621D01*
X298810Y166273D01*
X299182Y165717D01*
X299738Y165346D01*
X300394Y165215D01*
X301050Y165346D01*
X301606Y165717D01*
X301977Y166273D01*
X302108Y166929D01*
X301981Y167567D01*
X305597Y171182D01*
X305906Y171121D01*
X306561Y171251D01*
X307118Y171623D01*
X307489Y172179D01*
X307620Y172835D01*
X307489Y173491D01*
X307118Y174047D01*
X306561Y174418D01*
X305906Y174549D01*
D02*
G37*
G36*
X292600Y170024D02*
Y168400D01*
X294224D01*
X294155Y168751D01*
X293672Y169473D01*
X292951Y169955D01*
X292600Y170024D01*
D02*
G37*
G36*
X291600D02*
X291249Y169955D01*
X290528Y169473D01*
X290045Y168751D01*
X289976Y168400D01*
X291600D01*
Y170024D01*
D02*
G37*
G36*
X228000Y171714D02*
X227344Y171584D01*
X226788Y171212D01*
X226416Y170656D01*
X226286Y170000D01*
X226416Y169344D01*
X226788Y168788D01*
X227344Y168416D01*
X228000Y168286D01*
X228656Y168416D01*
X229212Y168788D01*
X229584Y169344D01*
X229714Y170000D01*
X229584Y170656D01*
X229212Y171212D01*
X228656Y171584D01*
X228000Y171714D01*
D02*
G37*
G36*
X352487Y171472D02*
X351832Y171342D01*
X351275Y170970D01*
X350904Y170414D01*
X350773Y169758D01*
X350868Y169285D01*
X342603Y161021D01*
X327364D01*
X327128Y161461D01*
X327174Y161530D01*
X327305Y162186D01*
X327174Y162842D01*
X326803Y163398D01*
X326247Y163770D01*
X325591Y163900D01*
X324935Y163770D01*
X324379Y163398D01*
X324007Y162842D01*
X323877Y162186D01*
X324007Y161530D01*
X324293Y161101D01*
X324379Y160974D01*
X324287Y160434D01*
X317816Y153963D01*
X317636Y154084D01*
X317049Y154200D01*
X317025Y154258D01*
X317156Y154913D01*
X317025Y155569D01*
X316654Y156125D01*
X316098Y156497D01*
X315442Y156627D01*
X314786Y156497D01*
X314230Y156125D01*
X313858Y155569D01*
X313728Y154913D01*
X313858Y154258D01*
X314230Y153701D01*
X314786Y153330D01*
X315373Y153213D01*
X315397Y153156D01*
X315266Y152500D01*
X315397Y151844D01*
X315768Y151288D01*
X316324Y150916D01*
X316980Y150786D01*
X317636Y150916D01*
X318192Y151288D01*
X318564Y151844D01*
X318694Y152500D01*
X318687Y152540D01*
X325546Y159399D01*
X342939D01*
X343249Y159461D01*
X343512Y159636D01*
X352014Y168139D01*
X352487Y168044D01*
X353143Y168175D01*
X353699Y168546D01*
X354071Y169103D01*
X354201Y169758D01*
X354071Y170414D01*
X353699Y170970D01*
X353143Y171342D01*
X352487Y171472D01*
D02*
G37*
G36*
X53699Y169579D02*
X52075D01*
Y167954D01*
X52426Y168024D01*
X53147Y168506D01*
X53629Y169228D01*
X53699Y169579D01*
D02*
G37*
G36*
X51075D02*
X49450D01*
X49520Y169228D01*
X50002Y168506D01*
X50724Y168024D01*
X51075Y167954D01*
Y169579D01*
D02*
G37*
G36*
X253002Y171212D02*
X252346Y171082D01*
X251790Y170710D01*
X251418Y170154D01*
X251288Y169498D01*
X251418Y168842D01*
X251790Y168286D01*
X252346Y167915D01*
X253002Y167784D01*
X253658Y167915D01*
X254214Y168286D01*
X254585Y168842D01*
X254716Y169498D01*
X254585Y170154D01*
X254214Y170710D01*
X253658Y171082D01*
X253002Y171212D01*
D02*
G37*
G36*
X315117Y168791D02*
X313492D01*
Y167167D01*
X313843Y167237D01*
X314565Y167719D01*
X315047Y168440D01*
X315117Y168791D01*
D02*
G37*
G36*
X312492D02*
X310868D01*
X310938Y168440D01*
X311420Y167719D01*
X312141Y167237D01*
X312492Y167167D01*
Y168791D01*
D02*
G37*
G36*
X264329D02*
X262705D01*
Y167167D01*
X263056Y167237D01*
X263777Y167719D01*
X264259Y168440D01*
X264329Y168791D01*
D02*
G37*
G36*
X273424Y168300D02*
X271800D01*
Y166676D01*
X272151Y166745D01*
X272872Y167227D01*
X273355Y167949D01*
X273424Y168300D01*
D02*
G37*
G36*
X192626Y168266D02*
Y166642D01*
X194250D01*
X194181Y166993D01*
X193699Y167714D01*
X192977Y168196D01*
X192626Y168266D01*
D02*
G37*
G36*
X191626D02*
X191275Y168196D01*
X190553Y167714D01*
X190071Y166993D01*
X190002Y166642D01*
X191626D01*
Y168266D01*
D02*
G37*
G36*
X110000Y168265D02*
Y166641D01*
X111624D01*
X111555Y166992D01*
X111073Y167713D01*
X110351Y168195D01*
X110000Y168265D01*
D02*
G37*
G36*
X109000D02*
X108649Y168195D01*
X107928Y167713D01*
X107446Y166992D01*
X107376Y166641D01*
X109000D01*
Y168265D01*
D02*
G37*
G36*
X294224Y167400D02*
X292600D01*
Y165776D01*
X292951Y165846D01*
X293672Y166328D01*
X294155Y167049D01*
X294224Y167400D01*
D02*
G37*
G36*
X291600D02*
X289976D01*
X290045Y167049D01*
X290528Y166328D01*
X291249Y165846D01*
X291600Y165776D01*
Y167400D01*
D02*
G37*
G36*
X205524Y168714D02*
X204868Y168584D01*
X204312Y168212D01*
X203940Y167656D01*
X203810Y167000D01*
X203940Y166344D01*
X204312Y165788D01*
X204868Y165416D01*
X205524Y165286D01*
X206180Y165416D01*
X206736Y165788D01*
X207107Y166344D01*
X207238Y167000D01*
X207107Y167656D01*
X206736Y168212D01*
X206180Y168584D01*
X205524Y168714D01*
D02*
G37*
G36*
X367700Y168614D02*
X367044Y168484D01*
X366488Y168112D01*
X366116Y167556D01*
X365986Y166900D01*
X366116Y166244D01*
X366488Y165688D01*
X367044Y165316D01*
X367700Y165186D01*
X368356Y165316D01*
X368912Y165688D01*
X369284Y166244D01*
X369414Y166900D01*
X369284Y167556D01*
X368912Y168112D01*
X368356Y168484D01*
X367700Y168614D01*
D02*
G37*
G36*
X184646Y167856D02*
X183990Y167725D01*
X183434Y167354D01*
X183062Y166798D01*
X182932Y166142D01*
X183062Y165486D01*
X183434Y164930D01*
X183990Y164558D01*
X184646Y164428D01*
X185301Y164558D01*
X185858Y164930D01*
X186229Y165486D01*
X186360Y166142D01*
X186229Y166798D01*
X185858Y167354D01*
X185301Y167725D01*
X184646Y167856D01*
D02*
G37*
G36*
X111624Y165641D02*
X110000D01*
Y164016D01*
X110351Y164086D01*
X111073Y164568D01*
X111555Y165290D01*
X111624Y165641D01*
D02*
G37*
G36*
X109000D02*
X107376D01*
X107446Y165290D01*
X107928Y164568D01*
X108649Y164086D01*
X109000Y164016D01*
Y165641D01*
D02*
G37*
G36*
X194674Y165642D02*
X190002D01*
X190071Y165291D01*
X190553Y164569D01*
X191275Y164087D01*
X191870Y163969D01*
X191940Y163886D01*
X196613D01*
X196543Y164237D01*
X196061Y164958D01*
X195339Y165440D01*
X194744Y165559D01*
X194674Y165642D01*
D02*
G37*
G36*
X137000Y170414D02*
X136344Y170284D01*
X135788Y169912D01*
X135416Y169356D01*
X135286Y168700D01*
X135416Y168044D01*
X135788Y167488D01*
X136031Y167325D01*
Y166724D01*
X135796Y166566D01*
X135424Y166010D01*
X135294Y165354D01*
X135364Y165000D01*
X128356Y157991D01*
X128158Y157695D01*
X128089Y157347D01*
Y153013D01*
X127788Y152812D01*
X127416Y152256D01*
X127286Y151600D01*
X127416Y150944D01*
X127495Y150827D01*
X127690Y150403D01*
X127134Y150031D01*
X126763Y149475D01*
X126632Y148819D01*
X126763Y148163D01*
X127134Y147607D01*
X127690Y147235D01*
X128346Y147105D01*
X129002Y147235D01*
X129558Y147607D01*
X129930Y148163D01*
X130060Y148819D01*
X129930Y149475D01*
X129622Y149935D01*
X129656Y150016D01*
X130212Y150388D01*
X130584Y150944D01*
X130714Y151600D01*
X130584Y152256D01*
X130212Y152812D01*
X129911Y153013D01*
Y156969D01*
X136653Y163711D01*
X137008Y163640D01*
X137664Y163771D01*
X138220Y164142D01*
X138591Y164699D01*
X138722Y165354D01*
X138591Y166010D01*
X138220Y166566D01*
X137976Y166729D01*
Y167331D01*
X138212Y167488D01*
X138584Y168044D01*
X138714Y168700D01*
X138584Y169356D01*
X138212Y169912D01*
X137656Y170284D01*
X137000Y170414D01*
D02*
G37*
G36*
X38976Y167068D02*
X38320Y166938D01*
X37764Y166566D01*
X37393Y166010D01*
X37262Y165354D01*
X37393Y164699D01*
X37764Y164142D01*
X38320Y163771D01*
X38976Y163640D01*
X39632Y163771D01*
X40188Y164142D01*
X40560Y164699D01*
X40690Y165354D01*
X40560Y166010D01*
X40188Y166566D01*
X39632Y166938D01*
X38976Y167068D01*
D02*
G37*
G36*
X316929Y166675D02*
X316273Y166544D01*
X315717Y166173D01*
X315346Y165617D01*
X315215Y164961D01*
X315346Y164305D01*
X315717Y163749D01*
X316273Y163377D01*
X316929Y163247D01*
X317585Y163377D01*
X318141Y163749D01*
X318513Y164305D01*
X318643Y164961D01*
X318513Y165617D01*
X318141Y166173D01*
X317585Y166544D01*
X316929Y166675D01*
D02*
G37*
G36*
X208500Y166214D02*
X207844Y166084D01*
X207288Y165712D01*
X206916Y165156D01*
X206786Y164500D01*
X206916Y163844D01*
X207288Y163288D01*
X207844Y162916D01*
X208500Y162786D01*
X209156Y162916D01*
X209712Y163288D01*
X210084Y163844D01*
X210214Y164500D01*
X210084Y165156D01*
X209712Y165712D01*
X209156Y166084D01*
X208500Y166214D01*
D02*
G37*
G36*
X217717Y163147D02*
X217061Y163017D01*
X216505Y162645D01*
X216392Y162476D01*
X215892D01*
X215779Y162645D01*
X215223Y163017D01*
X214567Y163147D01*
X213911Y163017D01*
X213355Y162645D01*
X212983Y162089D01*
X212853Y161433D01*
X212983Y160777D01*
X213355Y160221D01*
X213911Y159850D01*
X214567Y159719D01*
X215223Y159850D01*
X215779Y160221D01*
X215892Y160390D01*
X216392D01*
X216505Y160221D01*
X217061Y159850D01*
X217717Y159719D01*
X218373Y159850D01*
X218929Y160221D01*
X219300Y160777D01*
X219431Y161433D01*
X219300Y162089D01*
X218929Y162645D01*
X218373Y163017D01*
X217717Y163147D01*
D02*
G37*
G36*
X263000Y165714D02*
X262344Y165584D01*
X261788Y165212D01*
X261416Y164656D01*
X261286Y164000D01*
X261416Y163344D01*
X261788Y162788D01*
X262344Y162416D01*
X263000Y162286D01*
X263656Y162416D01*
X264212Y162788D01*
X264584Y163344D01*
X264714Y164000D01*
X264584Y164656D01*
X264212Y165212D01*
X263656Y165584D01*
X263000Y165714D01*
D02*
G37*
G36*
X196613Y162886D02*
X194988D01*
Y161261D01*
X195339Y161331D01*
X196061Y161813D01*
X196543Y162535D01*
X196613Y162886D01*
D02*
G37*
G36*
X193988D02*
X192364D01*
X192434Y162535D01*
X192916Y161813D01*
X193637Y161331D01*
X193988Y161261D01*
Y162886D01*
D02*
G37*
G36*
X221654Y163147D02*
X220998Y163017D01*
X220442Y162645D01*
X220070Y162089D01*
X219940Y161433D01*
X220070Y160777D01*
X220442Y160221D01*
X220998Y159850D01*
X221654Y159719D01*
X222309Y159850D01*
X222866Y160221D01*
X223237Y160777D01*
X223368Y161433D01*
X223237Y162089D01*
X222866Y162645D01*
X222309Y163017D01*
X221654Y163147D01*
D02*
G37*
G36*
X86614Y161171D02*
X85958Y161040D01*
X85402Y160669D01*
X85031Y160113D01*
X84900Y159457D01*
X85031Y158801D01*
X85402Y158245D01*
X85958Y157873D01*
X86614Y157743D01*
X87270Y157873D01*
X87826Y158245D01*
X88198Y158801D01*
X88328Y159457D01*
X88198Y160113D01*
X87826Y160669D01*
X87270Y161040D01*
X86614Y161171D01*
D02*
G37*
G36*
X316929Y161163D02*
X316273Y161032D01*
X315717Y160661D01*
X315346Y160105D01*
X315215Y159449D01*
X315346Y158793D01*
X315717Y158237D01*
X316273Y157865D01*
X316929Y157735D01*
X317585Y157865D01*
X318141Y158237D01*
X318513Y158793D01*
X318643Y159449D01*
X318513Y160105D01*
X318141Y160661D01*
X317585Y161032D01*
X316929Y161163D01*
D02*
G37*
G36*
X181102Y160769D02*
X180447Y160639D01*
X179890Y160267D01*
X179519Y159711D01*
X179388Y159055D01*
X179519Y158399D01*
X179890Y157843D01*
X180447Y157472D01*
X181102Y157341D01*
X181758Y157472D01*
X182314Y157843D01*
X182686Y158399D01*
X182816Y159055D01*
X182686Y159711D01*
X182314Y160267D01*
X181758Y160639D01*
X181102Y160769D01*
D02*
G37*
G36*
X172441Y160375D02*
X171785Y160245D01*
X171229Y159873D01*
X170857Y159317D01*
X170727Y158661D01*
X170857Y158005D01*
X171229Y157449D01*
X171785Y157078D01*
X172441Y156947D01*
X173097Y157078D01*
X173653Y157449D01*
X174025Y158005D01*
X174155Y158661D01*
X174025Y159317D01*
X173653Y159873D01*
X173097Y160245D01*
X172441Y160375D01*
D02*
G37*
G36*
X269270Y158424D02*
Y156799D01*
X270895D01*
X270825Y157150D01*
X270343Y157872D01*
X269621Y158354D01*
X269270Y158424D01*
D02*
G37*
G36*
X268270D02*
X267919Y158354D01*
X267198Y157872D01*
X266716Y157150D01*
X266646Y156799D01*
X268270D01*
Y158424D01*
D02*
G37*
G36*
X204000Y159714D02*
X203344Y159584D01*
X202788Y159212D01*
X202416Y158656D01*
X202286Y158000D01*
X202416Y157344D01*
X202788Y156788D01*
X203344Y156416D01*
X204000Y156286D01*
X204656Y156416D01*
X205212Y156788D01*
X205584Y157344D01*
X205714Y158000D01*
X205584Y158656D01*
X205212Y159212D01*
X204656Y159584D01*
X204000Y159714D01*
D02*
G37*
G36*
X263500Y159214D02*
X262844Y159084D01*
X262288Y158712D01*
X261916Y158156D01*
X261786Y157500D01*
X261916Y156844D01*
X262288Y156288D01*
X262844Y155916D01*
X263500Y155786D01*
X264156Y155916D01*
X264712Y156288D01*
X265084Y156844D01*
X265214Y157500D01*
X265084Y158156D01*
X264712Y158712D01*
X264156Y159084D01*
X263500Y159214D01*
D02*
G37*
G36*
X113524D02*
X112868Y159084D01*
X112312Y158712D01*
X111940Y158156D01*
X111810Y157500D01*
X111940Y156844D01*
X112312Y156288D01*
X112868Y155916D01*
X113524Y155786D01*
X114180Y155916D01*
X114736Y156288D01*
X115107Y156844D01*
X115238Y157500D01*
X115107Y158156D01*
X114736Y158712D01*
X114180Y159084D01*
X113524Y159214D01*
D02*
G37*
G36*
X23500D02*
X22844Y159084D01*
X22288Y158712D01*
X21916Y158156D01*
X21786Y157500D01*
X21916Y156844D01*
X22288Y156288D01*
X22844Y155916D01*
X23500Y155786D01*
X24156Y155916D01*
X24712Y156288D01*
X25084Y156844D01*
X25214Y157500D01*
X25084Y158156D01*
X24712Y158712D01*
X24156Y159084D01*
X23500Y159214D01*
D02*
G37*
G36*
X351000Y158714D02*
X350344Y158584D01*
X349788Y158212D01*
X349416Y157656D01*
X349380Y157472D01*
X349161D01*
X348851Y157410D01*
X348588Y157234D01*
X335973Y144620D01*
X335500Y144714D01*
X334844Y144584D01*
X334288Y144212D01*
X333916Y143656D01*
X333786Y143000D01*
X333916Y142344D01*
X334288Y141788D01*
X334844Y141416D01*
X335500Y141286D01*
X336156Y141416D01*
X336712Y141788D01*
X337084Y142344D01*
X337214Y143000D01*
X337120Y143473D01*
X349312Y155666D01*
X349788Y155788D01*
X350344Y155416D01*
X351000Y155286D01*
X351656Y155416D01*
X352212Y155788D01*
X352584Y156344D01*
X352714Y157000D01*
X352584Y157656D01*
X352212Y158212D01*
X351656Y158584D01*
X351000Y158714D01*
D02*
G37*
G36*
X194365Y156555D02*
Y154930D01*
X195989D01*
X195919Y155281D01*
X195437Y156003D01*
X194715Y156485D01*
X194365Y156555D01*
D02*
G37*
G36*
X193365D02*
X193014Y156485D01*
X192292Y156003D01*
X191810Y155281D01*
X191740Y154930D01*
X193365D01*
Y156555D01*
D02*
G37*
G36*
X80500Y157714D02*
X79844Y157584D01*
X79288Y157212D01*
X78916Y156656D01*
X78786Y156000D01*
X78916Y155344D01*
X79288Y154788D01*
X79844Y154416D01*
X80500Y154286D01*
X81156Y154416D01*
X81712Y154788D01*
X82084Y155344D01*
X82214Y156000D01*
X82084Y156656D01*
X81712Y157212D01*
X81156Y157584D01*
X80500Y157714D01*
D02*
G37*
G36*
X4331Y157620D02*
X3675Y157489D01*
X3119Y157118D01*
X2747Y156562D01*
X2617Y155906D01*
X2747Y155250D01*
X3119Y154694D01*
X3675Y154322D01*
X4331Y154192D01*
X4987Y154322D01*
X5543Y154694D01*
X5914Y155250D01*
X6045Y155906D01*
X5914Y156562D01*
X5543Y157118D01*
X4987Y157489D01*
X4331Y157620D01*
D02*
G37*
G36*
X270895Y155799D02*
X269270D01*
Y154175D01*
X269621Y154245D01*
X270343Y154727D01*
X270825Y155448D01*
X270895Y155799D01*
D02*
G37*
G36*
X268270D02*
X266646D01*
X266716Y155448D01*
X267198Y154727D01*
X267919Y154245D01*
X268270Y154175D01*
Y155799D01*
D02*
G37*
G36*
X160630Y157226D02*
X159974Y157095D01*
X159418Y156724D01*
X159046Y156168D01*
X158916Y155512D01*
X159046Y154856D01*
X159418Y154300D01*
X159974Y153928D01*
X160630Y153798D01*
X161286Y153928D01*
X161842Y154300D01*
X162214Y154856D01*
X162344Y155512D01*
X162214Y156168D01*
X161842Y156724D01*
X161286Y157095D01*
X160630Y157226D01*
D02*
G37*
G36*
X136220Y156832D02*
X135564Y156702D01*
X135008Y156330D01*
X134637Y155774D01*
X134506Y155118D01*
X134637Y154462D01*
X135008Y153906D01*
X135564Y153535D01*
X136220Y153404D01*
X136876Y153535D01*
X137432Y153906D01*
X137804Y154462D01*
X137934Y155118D01*
X137804Y155774D01*
X137432Y156330D01*
X136876Y156702D01*
X136220Y156832D01*
D02*
G37*
G36*
X110100Y155909D02*
X109444Y155778D01*
X108888Y155407D01*
X108517Y154851D01*
X108386Y154195D01*
X108517Y153539D01*
X108888Y152983D01*
X109444Y152611D01*
X110100Y152481D01*
X110756Y152611D01*
X111312Y152983D01*
X111684Y153539D01*
X111814Y154195D01*
X111684Y154851D01*
X111312Y155407D01*
X110756Y155778D01*
X110100Y155909D01*
D02*
G37*
G36*
X195989Y153930D02*
X194365D01*
Y152306D01*
X194715Y152376D01*
X195437Y152858D01*
X195919Y153579D01*
X195989Y153930D01*
D02*
G37*
G36*
X193365D02*
X191740D01*
X191810Y153579D01*
X192292Y152858D01*
X193014Y152376D01*
X193365Y152306D01*
Y153930D01*
D02*
G37*
G36*
X284298Y172293D02*
X283642Y172163D01*
X283086Y171791D01*
X282715Y171235D01*
X282584Y170579D01*
X282715Y169923D01*
X283086Y169367D01*
X283642Y168996D01*
X284298Y168865D01*
X284827Y168970D01*
X284900Y168898D01*
X285031Y168242D01*
X285402Y167686D01*
X285958Y167314D01*
X285996Y167306D01*
Y155351D01*
X285788Y155212D01*
X285416Y154656D01*
X285286Y154000D01*
X285416Y153344D01*
X285788Y152788D01*
X286344Y152416D01*
X287000Y152286D01*
X287656Y152416D01*
X288212Y152788D01*
X288584Y153344D01*
X288714Y154000D01*
X288584Y154656D01*
X288212Y155212D01*
X287656Y155584D01*
X287618Y155591D01*
Y167546D01*
X287826Y167686D01*
X288198Y168242D01*
X288328Y168898D01*
X288198Y169553D01*
X287826Y170110D01*
X287270Y170481D01*
X286614Y170612D01*
X286085Y170506D01*
X286012Y170579D01*
X285882Y171235D01*
X285510Y171791D01*
X284954Y172163D01*
X284298Y172293D01*
D02*
G37*
G36*
X139370Y153683D02*
X138714Y153552D01*
X138158Y153181D01*
X137786Y152624D01*
X137656Y151969D01*
X137786Y151313D01*
X138158Y150757D01*
X138714Y150385D01*
X139370Y150255D01*
X140026Y150385D01*
X140582Y150757D01*
X140954Y151313D01*
X141084Y151969D01*
X140954Y152624D01*
X140582Y153181D01*
X140026Y153552D01*
X139370Y153683D01*
D02*
G37*
G36*
X70472Y153289D02*
X69816Y153158D01*
X69260Y152787D01*
X68889Y152231D01*
X68758Y151575D01*
X68889Y150919D01*
X69260Y150363D01*
X69816Y149991D01*
X70472Y149861D01*
X71128Y149991D01*
X71684Y150363D01*
X72056Y150919D01*
X72186Y151575D01*
X72056Y152231D01*
X71684Y152787D01*
X71128Y153158D01*
X70472Y153289D01*
D02*
G37*
G36*
X162787Y153001D02*
X162132Y152871D01*
X161575Y152499D01*
X161204Y151943D01*
X161073Y151287D01*
X161144Y150933D01*
X156156Y145944D01*
X155958Y145649D01*
X155889Y145300D01*
Y129413D01*
X155588Y129212D01*
X155216Y128656D01*
X155086Y128000D01*
X155216Y127344D01*
X155588Y126788D01*
X156144Y126416D01*
X156800Y126286D01*
X157456Y126416D01*
X158012Y126788D01*
X158384Y127344D01*
X158514Y128000D01*
X158384Y128656D01*
X158012Y129212D01*
X157711Y129413D01*
Y144923D01*
X162433Y149644D01*
X162787Y149573D01*
X163443Y149704D01*
X163999Y150075D01*
X164371Y150631D01*
X164501Y151287D01*
X164371Y151943D01*
X163999Y152499D01*
X163443Y152871D01*
X162787Y153001D01*
D02*
G37*
G36*
X66535Y151320D02*
X65879Y151190D01*
X65323Y150818D01*
X64952Y150262D01*
X64821Y149606D01*
X64952Y148951D01*
X65323Y148394D01*
X65879Y148023D01*
X66535Y147892D01*
X67191Y148023D01*
X67747Y148394D01*
X68119Y148951D01*
X68249Y149606D01*
X68119Y150262D01*
X67747Y150818D01*
X67191Y151190D01*
X66535Y151320D01*
D02*
G37*
G36*
X304724Y150927D02*
X304068Y150796D01*
X303512Y150425D01*
X303141Y149869D01*
X303010Y149213D01*
X303141Y148557D01*
X303512Y148001D01*
X304068Y147629D01*
X304724Y147499D01*
X305380Y147629D01*
X305936Y148001D01*
X306308Y148557D01*
X306438Y149213D01*
X306308Y149869D01*
X305936Y150425D01*
X305380Y150796D01*
X304724Y150927D01*
D02*
G37*
G36*
X172047Y150533D02*
X171391Y150403D01*
X170835Y150031D01*
X170464Y149475D01*
X170333Y148819D01*
X170464Y148163D01*
X170835Y147607D01*
X171391Y147235D01*
X172047Y147105D01*
X172703Y147235D01*
X173259Y147607D01*
X173631Y148163D01*
X173761Y148819D01*
X173631Y149475D01*
X173259Y150031D01*
X172703Y150403D01*
X172047Y150533D01*
D02*
G37*
G36*
X137008Y150139D02*
X136352Y150009D01*
X135796Y149637D01*
X135424Y149081D01*
X135294Y148425D01*
X135424Y147769D01*
X135796Y147213D01*
X135920Y147130D01*
X135900Y147082D01*
Y145000D01*
X137524D01*
X137454Y145351D01*
X136972Y146072D01*
X136683Y146266D01*
X136878Y146737D01*
X137008Y146711D01*
X137664Y146842D01*
X138220Y147213D01*
X138591Y147769D01*
X138722Y148425D01*
X138591Y149081D01*
X138220Y149637D01*
X137664Y150009D01*
X137008Y150139D01*
D02*
G37*
G36*
X295669Y167068D02*
X295013Y166938D01*
X294457Y166566D01*
X294086Y166010D01*
X293955Y165354D01*
X294086Y164699D01*
X294457Y164142D01*
X295013Y163771D01*
X295669Y163640D01*
X296142Y163734D01*
X299778Y160099D01*
X299778Y160099D01*
X300041Y159923D01*
X300352Y159861D01*
X301035D01*
X303309Y157588D01*
X303163Y157110D01*
X303082Y157094D01*
X302526Y156722D01*
X302155Y156166D01*
X302024Y155510D01*
X302155Y154854D01*
X302526Y154298D01*
X303082Y153926D01*
X303738Y153796D01*
X304394Y153926D01*
X304950Y154298D01*
X305322Y154854D01*
X305324Y154864D01*
X305793Y155016D01*
X306125Y154736D01*
Y154049D01*
X306187Y153739D01*
X306362Y153475D01*
X311988Y147850D01*
X311988Y147850D01*
X312251Y147674D01*
X312561Y147612D01*
X313849D01*
X314117Y147211D01*
X314673Y146840D01*
X315329Y146709D01*
X315985Y146840D01*
X316541Y147211D01*
X316912Y147767D01*
X317043Y148423D01*
X316912Y149079D01*
X316541Y149635D01*
X315985Y150007D01*
X315377Y150128D01*
X315033Y150461D01*
X314902Y151117D01*
X314531Y151673D01*
X313975Y152044D01*
X313319Y152175D01*
X312663Y152044D01*
X312107Y151673D01*
X311735Y151117D01*
X311719Y151036D01*
X311241Y150891D01*
X307747Y154385D01*
Y155108D01*
X307747Y155108D01*
X307685Y155418D01*
X307509Y155681D01*
X307509Y155681D01*
X301945Y161245D01*
X301682Y161421D01*
X301371Y161483D01*
X300688D01*
X297289Y164881D01*
X297383Y165354D01*
X297253Y166010D01*
X296881Y166566D01*
X296325Y166938D01*
X295669Y167068D01*
D02*
G37*
G36*
X49000Y149214D02*
X48344Y149084D01*
X47788Y148712D01*
X47416Y148156D01*
X47286Y147500D01*
X47416Y146844D01*
X47788Y146288D01*
X48344Y145916D01*
X49000Y145786D01*
X49656Y145916D01*
X50212Y146288D01*
X50584Y146844D01*
X50714Y147500D01*
X50584Y148156D01*
X50212Y148712D01*
X49656Y149084D01*
X49000Y149214D01*
D02*
G37*
G36*
X186720Y147006D02*
Y145382D01*
X188345D01*
X188275Y145733D01*
X187793Y146454D01*
X187071Y146936D01*
X186720Y147006D01*
D02*
G37*
G36*
X185720D02*
X185369Y146936D01*
X184648Y146454D01*
X184166Y145733D01*
X184096Y145382D01*
X185720D01*
Y147006D01*
D02*
G37*
G36*
X71654Y148564D02*
X70998Y148434D01*
X70442Y148062D01*
X70070Y147506D01*
X69940Y146850D01*
X70070Y146195D01*
X70442Y145638D01*
X70998Y145267D01*
X71654Y145136D01*
X72309Y145267D01*
X72866Y145638D01*
X73237Y146195D01*
X73368Y146850D01*
X73237Y147506D01*
X72866Y148062D01*
X72309Y148434D01*
X71654Y148564D01*
D02*
G37*
G36*
X134900Y146624D02*
X134549Y146555D01*
X133827Y146072D01*
X133345Y145351D01*
X133276Y145000D01*
X134900D01*
Y146624D01*
D02*
G37*
G36*
X204331Y150533D02*
X203675Y150403D01*
X203119Y150031D01*
X202747Y149475D01*
X202617Y148819D01*
X202656Y148622D01*
X202362Y148171D01*
X201706Y148040D01*
X201150Y147669D01*
X200779Y147113D01*
X200648Y146457D01*
X200779Y145801D01*
X201150Y145245D01*
X201706Y144873D01*
X202362Y144743D01*
X203018Y144873D01*
X203574Y145245D01*
X203946Y145801D01*
X204076Y146457D01*
X204037Y146654D01*
X204331Y147105D01*
X204987Y147235D01*
X205543Y147607D01*
X205914Y148163D01*
X206045Y148819D01*
X205914Y149475D01*
X205543Y150031D01*
X204987Y150403D01*
X204331Y150533D01*
D02*
G37*
G36*
X115500Y147714D02*
X114844Y147584D01*
X114288Y147212D01*
X113916Y146656D01*
X113786Y146000D01*
X113916Y145344D01*
X114288Y144788D01*
X114844Y144416D01*
X115500Y144286D01*
X116156Y144416D01*
X116712Y144788D01*
X117084Y145344D01*
X117214Y146000D01*
X117084Y146656D01*
X116712Y147212D01*
X116156Y147584D01*
X115500Y147714D01*
D02*
G37*
G36*
X145276Y147383D02*
X144620Y147253D01*
X144064Y146881D01*
X143692Y146325D01*
X143562Y145669D01*
X143692Y145013D01*
X144064Y144457D01*
X144620Y144086D01*
X145276Y143955D01*
X145931Y144086D01*
X146488Y144457D01*
X146859Y145013D01*
X146990Y145669D01*
X146859Y146325D01*
X146488Y146881D01*
X145931Y147253D01*
X145276Y147383D01*
D02*
G37*
G36*
X189764Y153683D02*
X189108Y153552D01*
X188552Y153181D01*
X188180Y152624D01*
X188050Y151969D01*
X188180Y151313D01*
X188552Y150757D01*
X188853Y150556D01*
Y147638D01*
X188922Y147289D01*
X189120Y146993D01*
X190876Y145237D01*
X190806Y144882D01*
X190936Y144226D01*
X191308Y143670D01*
X191864Y143298D01*
X192520Y143168D01*
X193175Y143298D01*
X193732Y143670D01*
X194103Y144226D01*
X194234Y144882D01*
X194103Y145538D01*
X193732Y146094D01*
X193175Y146465D01*
X192520Y146596D01*
X192165Y146525D01*
X190675Y148015D01*
Y150556D01*
X190976Y150757D01*
X191347Y151313D01*
X191478Y151969D01*
X191347Y152624D01*
X190976Y153181D01*
X190420Y153552D01*
X189764Y153683D01*
D02*
G37*
G36*
X188345Y144382D02*
X186720D01*
Y142757D01*
X187071Y142827D01*
X187793Y143309D01*
X188275Y144031D01*
X188345Y144382D01*
D02*
G37*
G36*
X185720D02*
X184096D01*
X184166Y144031D01*
X184648Y143309D01*
X185369Y142827D01*
X185720Y142757D01*
Y144382D01*
D02*
G37*
G36*
X74803Y145415D02*
X74147Y145284D01*
X73591Y144913D01*
X73220Y144357D01*
X73089Y143701D01*
X73220Y143045D01*
X73591Y142489D01*
X74147Y142117D01*
X74803Y141987D01*
X75459Y142117D01*
X76015Y142489D01*
X76387Y143045D01*
X76517Y143701D01*
X76387Y144357D01*
X76015Y144913D01*
X75459Y145284D01*
X74803Y145415D01*
D02*
G37*
G36*
X137524Y144000D02*
X133276D01*
X133345Y143649D01*
X133827Y142928D01*
X134549Y142446D01*
X134848Y142386D01*
X135039Y141924D01*
X134953Y141796D01*
X134883Y141445D01*
X139132D01*
X139062Y141796D01*
X138580Y142517D01*
X137859Y142999D01*
X137560Y143059D01*
X137369Y143521D01*
X137454Y143649D01*
X137524Y144000D01*
D02*
G37*
G36*
X296457Y151320D02*
X295801Y151190D01*
X295245Y150818D01*
X294873Y150262D01*
X294743Y149606D01*
X294873Y148951D01*
X295245Y148394D01*
X295801Y148023D01*
X296457Y147892D01*
X296811Y147963D01*
X299470Y145304D01*
X299766Y145106D01*
X300115Y145037D01*
X302994D01*
X303261Y144537D01*
X303141Y144357D01*
X303010Y143701D01*
X303141Y143045D01*
X303512Y142489D01*
X304068Y142117D01*
X304724Y141987D01*
X305040Y141540D01*
X304940Y141362D01*
X298819D01*
X298151Y142029D01*
X298171Y142126D01*
X298040Y142782D01*
X297669Y143338D01*
X297112Y143710D01*
X296457Y143840D01*
X295801Y143710D01*
X295245Y143338D01*
X294873Y142782D01*
X294743Y142126D01*
X294873Y141470D01*
X295245Y140914D01*
X295801Y140542D01*
X296457Y140412D01*
X297112Y140542D01*
X297252Y140636D01*
X297909Y139978D01*
X298172Y139802D01*
X298483Y139740D01*
X305213D01*
X305481Y139339D01*
X306037Y138968D01*
X306693Y138837D01*
X307349Y138968D01*
X307416Y139012D01*
X307857Y138777D01*
Y137885D01*
X307441Y137470D01*
X307087Y137541D01*
X306431Y137410D01*
X305875Y137039D01*
X305503Y136483D01*
X305373Y135827D01*
X305503Y135171D01*
X305875Y134615D01*
X306431Y134243D01*
X307087Y134113D01*
X307743Y134243D01*
X308299Y134615D01*
X308670Y135171D01*
X308801Y135827D01*
X308730Y136182D01*
X309412Y136864D01*
X309610Y137159D01*
X309679Y137508D01*
Y142592D01*
X309610Y142940D01*
X309412Y143236D01*
X306055Y146593D01*
X305760Y146790D01*
X305411Y146860D01*
X300492D01*
X298100Y149252D01*
X298171Y149606D01*
X298040Y150262D01*
X297669Y150818D01*
X297112Y151190D01*
X296457Y151320D01*
D02*
G37*
G36*
X325500Y143214D02*
X324844Y143084D01*
X324288Y142712D01*
X323916Y142156D01*
X323786Y141500D01*
X323916Y140844D01*
X324288Y140288D01*
X324844Y139916D01*
X325500Y139786D01*
X326156Y139916D01*
X326712Y140288D01*
X327084Y140844D01*
X327214Y141500D01*
X327084Y142156D01*
X326712Y142712D01*
X326156Y143084D01*
X325500Y143214D01*
D02*
G37*
G36*
X204000D02*
X203344Y143084D01*
X202788Y142712D01*
X202416Y142156D01*
X202286Y141500D01*
X202416Y140844D01*
X202788Y140288D01*
X203344Y139916D01*
X204000Y139786D01*
X204656Y139916D01*
X205212Y140288D01*
X205584Y140844D01*
X205714Y141500D01*
X205584Y142156D01*
X205212Y142712D01*
X204656Y143084D01*
X204000Y143214D01*
D02*
G37*
G36*
X162500Y141124D02*
Y139500D01*
X164124D01*
X164055Y139851D01*
X163573Y140573D01*
X162851Y141054D01*
X162500Y141124D01*
D02*
G37*
G36*
X161500D02*
X161149Y141054D01*
X160427Y140573D01*
X159945Y139851D01*
X159876Y139500D01*
X161500D01*
Y141124D01*
D02*
G37*
G36*
X139132Y140445D02*
X137508D01*
Y138820D01*
X137859Y138890D01*
X138580Y139372D01*
X139062Y140094D01*
X139132Y140445D01*
D02*
G37*
G36*
X136508D02*
X134883D01*
X134953Y140094D01*
X135435Y139372D01*
X136157Y138890D01*
X136508Y138820D01*
Y140445D01*
D02*
G37*
G36*
X339580Y141662D02*
X338924Y141531D01*
X338368Y141159D01*
X337996Y140603D01*
X337866Y139947D01*
X337996Y139292D01*
X338368Y138735D01*
X338924Y138364D01*
X339580Y138233D01*
X340236Y138364D01*
X340792Y138735D01*
X341163Y139292D01*
X341294Y139947D01*
X341163Y140603D01*
X340792Y141159D01*
X340236Y141531D01*
X339580Y141662D01*
D02*
G37*
G36*
X389370Y141478D02*
X388714Y141347D01*
X388158Y140976D01*
X387786Y140420D01*
X387656Y139764D01*
X387786Y139108D01*
X388158Y138552D01*
X388714Y138180D01*
X389370Y138050D01*
X390026Y138180D01*
X390582Y138552D01*
X390954Y139108D01*
X391084Y139764D01*
X390954Y140420D01*
X390582Y140976D01*
X390026Y141347D01*
X389370Y141478D01*
D02*
G37*
G36*
X317323Y139116D02*
X316667Y138985D01*
X316111Y138614D01*
X315739Y138057D01*
X315630Y137508D01*
X315609Y137402D01*
X315136Y137392D01*
X315122Y137464D01*
X315084Y137656D01*
X314712Y138212D01*
X314156Y138584D01*
X313500Y138714D01*
X312844Y138584D01*
X312288Y138212D01*
X311916Y137656D01*
X311786Y137000D01*
X311916Y136344D01*
X312288Y135788D01*
X312844Y135416D01*
X313500Y135286D01*
X314156Y135416D01*
X314712Y135788D01*
X315084Y136344D01*
X315193Y136893D01*
X315214Y137000D01*
X315687Y137009D01*
X315701Y136938D01*
X315739Y136746D01*
X316111Y136190D01*
X316667Y135818D01*
X317323Y135688D01*
X317979Y135818D01*
X318535Y136190D01*
X318906Y136746D01*
X319037Y137402D01*
X318906Y138057D01*
X318535Y138614D01*
X317979Y138985D01*
X317323Y139116D01*
D02*
G37*
G36*
X143500Y140714D02*
X142844Y140584D01*
X142288Y140212D01*
X141916Y139656D01*
X141786Y139000D01*
X141916Y138344D01*
X142288Y137788D01*
X142844Y137416D01*
X143500Y137286D01*
X144156Y137416D01*
X144712Y137788D01*
X145084Y138344D01*
X145214Y139000D01*
X145084Y139656D01*
X144712Y140212D01*
X144156Y140584D01*
X143500Y140714D01*
D02*
G37*
G36*
X330315Y140690D02*
X329659Y140560D01*
X329103Y140188D01*
X328731Y139632D01*
X328601Y138976D01*
X328731Y138321D01*
X329103Y137764D01*
X329659Y137393D01*
X330315Y137262D01*
X330971Y137393D01*
X331527Y137764D01*
X331899Y138321D01*
X332029Y138976D01*
X331899Y139632D01*
X331527Y140188D01*
X330971Y140560D01*
X330315Y140690D01*
D02*
G37*
G36*
X164124Y138500D02*
X162500D01*
Y136876D01*
X162851Y136945D01*
X163573Y137427D01*
X164055Y138149D01*
X164124Y138500D01*
D02*
G37*
G36*
X161500D02*
X159876D01*
X159945Y138149D01*
X160427Y137427D01*
X161149Y136945D01*
X161500Y136876D01*
Y138500D01*
D02*
G37*
G36*
X373622Y140297D02*
X372966Y140166D01*
X372410Y139795D01*
X372038Y139239D01*
X371908Y138583D01*
X372038Y137927D01*
X372410Y137371D01*
X372966Y136999D01*
X373622Y136869D01*
X374278Y136999D01*
X374834Y137371D01*
X375206Y137927D01*
X375336Y138583D01*
X375206Y139239D01*
X374834Y139795D01*
X374278Y140166D01*
X373622Y140297D01*
D02*
G37*
G36*
X349213D02*
X348557Y140166D01*
X348001Y139795D01*
X347629Y139239D01*
X347499Y138583D01*
X347629Y137927D01*
X348001Y137371D01*
X348557Y136999D01*
X349213Y136869D01*
X349868Y136999D01*
X350425Y137371D01*
X350796Y137927D01*
X350927Y138583D01*
X350796Y139239D01*
X350425Y139795D01*
X349868Y140166D01*
X349213Y140297D01*
D02*
G37*
G36*
X195669Y138722D02*
X195013Y138591D01*
X194457Y138220D01*
X194086Y137664D01*
X193955Y137008D01*
X193988Y136844D01*
X193577Y136344D01*
X192752D01*
X192551Y136645D01*
X191995Y137017D01*
X191339Y137147D01*
X190683Y137017D01*
X190127Y136645D01*
X189755Y136089D01*
X189625Y135433D01*
X189755Y134777D01*
X190127Y134221D01*
X190683Y133849D01*
X191339Y133719D01*
X191995Y133849D01*
X192551Y134221D01*
X192752Y134522D01*
X193485D01*
X193721Y134081D01*
X193615Y133922D01*
X193545Y133571D01*
X195669D01*
Y133071D01*
X196169D01*
Y130946D01*
X196520Y131016D01*
X197242Y131498D01*
X197441Y131797D01*
X197643Y131809D01*
X198004Y131739D01*
X198427Y131105D01*
X199149Y130623D01*
X199500Y130553D01*
Y132677D01*
X200000D01*
Y133177D01*
X202124D01*
X202055Y133528D01*
X201725Y134022D01*
X201992Y134522D01*
X203095D01*
X205049Y132567D01*
X204979Y132213D01*
X205109Y131557D01*
X205481Y131001D01*
X206037Y130629D01*
X206693Y130499D01*
X207349Y130629D01*
X207905Y131001D01*
X208277Y131557D01*
X208407Y132213D01*
X208277Y132869D01*
X207905Y133425D01*
X207349Y133796D01*
X206693Y133927D01*
X206338Y133856D01*
X204117Y136077D01*
X203821Y136275D01*
X203473Y136344D01*
X201936D01*
X201714Y136614D01*
X201584Y137270D01*
X201212Y137826D01*
X200656Y138198D01*
X200000Y138328D01*
X199344Y138198D01*
X198788Y137826D01*
X198416Y137270D01*
X198286Y136614D01*
X198195Y136504D01*
X197679D01*
X197360Y136892D01*
X197383Y137008D01*
X197253Y137664D01*
X196881Y138220D01*
X196325Y138591D01*
X195669Y138722D01*
D02*
G37*
G36*
X69500Y139414D02*
X68844Y139284D01*
X68288Y138912D01*
X67916Y138356D01*
X67786Y137700D01*
X67916Y137044D01*
X68288Y136488D01*
X68844Y136116D01*
X69500Y135986D01*
X70156Y136116D01*
X70712Y136488D01*
X71084Y137044D01*
X71214Y137700D01*
X71084Y138356D01*
X70712Y138912D01*
X70156Y139284D01*
X69500Y139414D01*
D02*
G37*
G36*
X182677Y138722D02*
X182021Y138591D01*
X181465Y138220D01*
X181094Y137664D01*
X180963Y137008D01*
X181094Y136352D01*
X181465Y135796D01*
X182021Y135424D01*
X182677Y135294D01*
X183333Y135424D01*
X183889Y135796D01*
X184261Y136352D01*
X184391Y137008D01*
X184261Y137664D01*
X183889Y138220D01*
X183333Y138591D01*
X182677Y138722D01*
D02*
G37*
G36*
X134358Y135195D02*
Y133571D01*
X135983D01*
X135913Y133922D01*
X135431Y134643D01*
X134709Y135125D01*
X134358Y135195D01*
D02*
G37*
G36*
X133358D02*
X133007Y135125D01*
X132286Y134643D01*
X131804Y133922D01*
X131734Y133571D01*
X133358D01*
Y135195D01*
D02*
G37*
G36*
X183177Y132833D02*
Y131209D01*
X184802D01*
X184732Y131560D01*
X184250Y132281D01*
X183528Y132763D01*
X183177Y132833D01*
D02*
G37*
G36*
X182177D02*
X181826Y132763D01*
X181105Y132281D01*
X180623Y131560D01*
X180553Y131209D01*
X182177D01*
Y132833D01*
D02*
G37*
G36*
X195169Y132571D02*
X193545D01*
X193615Y132220D01*
X194097Y131498D01*
X194818Y131016D01*
X195169Y130946D01*
Y132571D01*
D02*
G37*
G36*
X135983D02*
X134358D01*
Y130946D01*
X134709Y131016D01*
X135431Y131498D01*
X135913Y132220D01*
X135983Y132571D01*
D02*
G37*
G36*
X133358D02*
X131734D01*
X131804Y132220D01*
X132286Y131498D01*
X133007Y131016D01*
X133358Y130946D01*
Y132571D01*
D02*
G37*
G36*
X202124Y132177D02*
X200500D01*
Y130553D01*
X200851Y130623D01*
X201572Y131105D01*
X202055Y131826D01*
X202124Y132177D01*
D02*
G37*
G36*
X142218Y132496D02*
X141562Y132365D01*
X141006Y131994D01*
X140635Y131438D01*
X140504Y130782D01*
X140635Y130126D01*
X141006Y129570D01*
X141562Y129198D01*
X142218Y129068D01*
X142874Y129198D01*
X143430Y129570D01*
X143802Y130126D01*
X143932Y130782D01*
X143802Y131438D01*
X143430Y131994D01*
X142874Y132365D01*
X142218Y132496D01*
D02*
G37*
G36*
X191839Y130077D02*
Y128453D01*
X193463D01*
X193393Y128804D01*
X192911Y129525D01*
X192190Y130007D01*
X191839Y130077D01*
D02*
G37*
G36*
X190839D02*
X190488Y130007D01*
X189766Y129525D01*
X189284Y128804D01*
X189214Y128453D01*
X190839D01*
Y130077D01*
D02*
G37*
G36*
X184802Y130209D02*
X180553D01*
X180623Y129858D01*
X181105Y129136D01*
X181430Y128918D01*
X181146Y128492D01*
X181076Y128141D01*
X185324D01*
X185255Y128492D01*
X184773Y129213D01*
X184447Y129431D01*
X184732Y129858D01*
X184802Y130209D01*
D02*
G37*
G36*
X293701Y133210D02*
X293045Y133080D01*
X292489Y132708D01*
X292117Y132152D01*
X291987Y131496D01*
X292117Y130840D01*
X292489Y130284D01*
X293045Y129912D01*
X293701Y129782D01*
X294357Y129912D01*
X294913Y130284D01*
X295181Y130685D01*
X300245D01*
X300481Y130244D01*
X300308Y129985D01*
X300238Y129634D01*
X302362D01*
Y129134D01*
X302862D01*
Y127009D01*
X303213Y127079D01*
X303935Y127561D01*
X304417Y128283D01*
X304565Y129027D01*
X304586Y129134D01*
X305057Y129135D01*
X305071Y129066D01*
X305109Y128872D01*
X305481Y128316D01*
X306037Y127944D01*
X306693Y127814D01*
X307349Y127944D01*
X307905Y128316D01*
X308277Y128872D01*
X308407Y129528D01*
X308277Y130183D01*
X307905Y130740D01*
X307349Y131111D01*
X306693Y131242D01*
X306220Y131148D01*
X305298Y132069D01*
X305035Y132245D01*
X304725Y132307D01*
X295181D01*
X294913Y132708D01*
X294357Y133080D01*
X293701Y133210D01*
D02*
G37*
G36*
X301862Y128634D02*
X300238D01*
X300308Y128283D01*
X300790Y127561D01*
X301511Y127079D01*
X301862Y127009D01*
Y128634D01*
D02*
G37*
G36*
X193463Y127453D02*
X191839D01*
Y125828D01*
X192190Y125898D01*
X192911Y126380D01*
X193393Y127102D01*
X193463Y127453D01*
D02*
G37*
G36*
X190839D02*
X189214D01*
X189284Y127102D01*
X189766Y126380D01*
X190488Y125898D01*
X190839Y125828D01*
Y127453D01*
D02*
G37*
G36*
X185324Y127141D02*
X183700D01*
Y125516D01*
X184051Y125586D01*
X184773Y126068D01*
X185255Y126790D01*
X185324Y127141D01*
D02*
G37*
G36*
X182700D02*
X181076D01*
X181146Y126790D01*
X181628Y126068D01*
X182349Y125586D01*
X182700Y125516D01*
Y127141D01*
D02*
G37*
G36*
X365748Y127698D02*
X365092Y127568D01*
X364536Y127196D01*
X364164Y126640D01*
X364034Y125984D01*
X364164Y125328D01*
X364536Y124772D01*
X365092Y124401D01*
X365748Y124270D01*
X366404Y124401D01*
X366960Y124772D01*
X367332Y125328D01*
X367462Y125984D01*
X367332Y126640D01*
X366960Y127196D01*
X366404Y127568D01*
X365748Y127698D01*
D02*
G37*
G36*
X275984Y126911D02*
X275328Y126780D01*
X274772Y126409D01*
X274401Y125853D01*
X274270Y125197D01*
X274401Y124541D01*
X274772Y123985D01*
X275328Y123613D01*
X275984Y123483D01*
X276640Y123613D01*
X277196Y123985D01*
X277568Y124541D01*
X277698Y125197D01*
X277568Y125853D01*
X277196Y126409D01*
X276640Y126780D01*
X275984Y126911D01*
D02*
G37*
G36*
X305100Y124224D02*
Y122600D01*
X306724D01*
X306655Y122951D01*
X306172Y123672D01*
X305451Y124154D01*
X305100Y124224D01*
D02*
G37*
G36*
X304100D02*
X303749Y124154D01*
X303028Y123672D01*
X302545Y122951D01*
X302476Y122600D01*
X304100D01*
Y124224D01*
D02*
G37*
G36*
X137008Y125336D02*
X136352Y125206D01*
X135796Y124834D01*
X135424Y124278D01*
X135294Y123622D01*
X135424Y122966D01*
X135796Y122410D01*
X136352Y122038D01*
X137008Y121908D01*
X137664Y122038D01*
X138220Y122410D01*
X138591Y122966D01*
X138722Y123622D01*
X138591Y124278D01*
X138220Y124834D01*
X137664Y125206D01*
X137008Y125336D01*
D02*
G37*
G36*
X306724Y121600D02*
X305100D01*
Y119976D01*
X305451Y120045D01*
X306172Y120528D01*
X306655Y121249D01*
X306724Y121600D01*
D02*
G37*
G36*
X304100D02*
X302476D01*
X302545Y121249D01*
X303028Y120528D01*
X303749Y120045D01*
X304100Y119976D01*
Y121600D01*
D02*
G37*
G36*
X285906Y133311D02*
X284476Y133170D01*
X283102Y132753D01*
X281835Y132076D01*
X280725Y131165D01*
X279814Y130055D01*
X279137Y128788D01*
X278720Y127414D01*
X278579Y125984D01*
X278720Y124555D01*
X279137Y123180D01*
X279814Y121914D01*
X280725Y120803D01*
X281835Y119892D01*
X283102Y119215D01*
X284476Y118798D01*
X285906Y118658D01*
X287335Y118798D01*
X288709Y119215D01*
X289976Y119892D01*
X291086Y120803D01*
X291998Y121914D01*
X292674Y123180D01*
X293091Y124555D01*
X293232Y125984D01*
X293091Y127414D01*
X292674Y128788D01*
X291998Y130055D01*
X291086Y131165D01*
X289976Y132076D01*
X288709Y132753D01*
X287335Y133170D01*
X285906Y133311D01*
D02*
G37*
G36*
X142500Y125514D02*
X141844Y125384D01*
X141288Y125012D01*
X140916Y124456D01*
X140786Y123800D01*
X140916Y123144D01*
X141288Y122588D01*
X141589Y122387D01*
Y117342D01*
Y110014D01*
X141658Y109665D01*
X141856Y109370D01*
X142476Y108749D01*
X142380Y108268D01*
X142511Y107612D01*
X142882Y107056D01*
X143438Y106684D01*
X144094Y106554D01*
X144750Y106684D01*
X145306Y107056D01*
X145678Y107612D01*
X145808Y108268D01*
X145678Y108924D01*
X145306Y109480D01*
X144750Y109851D01*
X144094Y109982D01*
X143866Y109936D01*
X143411Y110391D01*
Y115970D01*
X144315D01*
X144786Y115499D01*
X144916Y114844D01*
X145288Y114288D01*
X145844Y113916D01*
X146500Y113786D01*
X147156Y113916D01*
X147712Y114288D01*
X148084Y114844D01*
X148214Y115500D01*
X148084Y116156D01*
X147712Y116712D01*
X147156Y117084D01*
X146500Y117214D01*
X145844Y117084D01*
X145805Y117058D01*
X145337Y117525D01*
X145041Y117723D01*
X144693Y117792D01*
X143411D01*
Y122387D01*
X143712Y122588D01*
X143825Y122757D01*
X144355Y122651D01*
X144416Y122344D01*
X144788Y121788D01*
X145344Y121416D01*
X145377Y120900D01*
X145267Y120735D01*
X145136Y120079D01*
X145267Y119423D01*
X145638Y118867D01*
X146195Y118495D01*
X146850Y118365D01*
X147506Y118495D01*
X148062Y118867D01*
X148434Y119423D01*
X148564Y120079D01*
X148434Y120735D01*
X148062Y121291D01*
X147506Y121662D01*
X147473Y122179D01*
X147584Y122344D01*
X147714Y123000D01*
X147584Y123656D01*
X147212Y124212D01*
X146656Y124584D01*
X146000Y124714D01*
X145344Y124584D01*
X144788Y124212D01*
X144675Y124044D01*
X144145Y124149D01*
X144084Y124456D01*
X143712Y125012D01*
X143156Y125384D01*
X142500Y125514D01*
D02*
G37*
G36*
X294500Y121714D02*
X293844Y121584D01*
X293288Y121212D01*
X292916Y120656D01*
X292786Y120000D01*
X292916Y119344D01*
X293288Y118788D01*
X293844Y118416D01*
X294500Y118286D01*
X295156Y118416D01*
X295712Y118788D01*
X296084Y119344D01*
X296214Y120000D01*
X296084Y120656D01*
X295712Y121212D01*
X295156Y121584D01*
X294500Y121714D01*
D02*
G37*
G36*
X206693Y124155D02*
X206037Y124025D01*
X205481Y123653D01*
X205109Y123097D01*
X204979Y122441D01*
X205109Y121785D01*
X205481Y121229D01*
X206037Y120857D01*
X206693Y120727D01*
X207048Y120798D01*
X209538Y118307D01*
X209292Y117846D01*
X209161Y117872D01*
Y115748D01*
Y113624D01*
X209512Y113693D01*
X210234Y114175D01*
X210716Y114897D01*
X210794Y115287D01*
X211294Y115238D01*
Y111024D01*
X211363Y110675D01*
X211488Y110488D01*
X211516Y110344D01*
X211888Y109788D01*
X212444Y109416D01*
X213100Y109286D01*
X213756Y109416D01*
X214312Y109788D01*
X214684Y110344D01*
X214814Y111000D01*
X214684Y111656D01*
X214312Y112212D01*
X213756Y112584D01*
X213116Y112711D01*
Y116929D01*
X213047Y117278D01*
X212849Y117573D01*
X208336Y122086D01*
X208407Y122441D01*
X208277Y123097D01*
X207905Y123653D01*
X207349Y124025D01*
X206693Y124155D01*
D02*
G37*
G36*
X227953Y125730D02*
X227297Y125599D01*
X226741Y125228D01*
X226369Y124672D01*
X226239Y124016D01*
X226369Y123360D01*
X226741Y122804D01*
X227297Y122432D01*
X227953Y122302D01*
X228426Y122396D01*
X232991Y117831D01*
X232744Y117370D01*
X232283Y117462D01*
X231627Y117332D01*
X231071Y116960D01*
X230700Y116404D01*
X230569Y115748D01*
X230700Y115092D01*
X231071Y114536D01*
X231627Y114164D01*
X232283Y114034D01*
X232939Y114164D01*
X233495Y114536D01*
X233867Y115092D01*
X233997Y115748D01*
X233990Y115784D01*
X234443Y116071D01*
X234554Y115989D01*
X234506Y115748D01*
X234637Y115092D01*
X235008Y114536D01*
X235564Y114164D01*
X236220Y114034D01*
X236876Y114164D01*
X237432Y114536D01*
X237804Y115092D01*
X237934Y115748D01*
X237804Y116404D01*
X237432Y116960D01*
X236876Y117332D01*
X236220Y117462D01*
X235747Y117368D01*
X229573Y123542D01*
X229667Y124016D01*
X229536Y124672D01*
X229165Y125228D01*
X228609Y125599D01*
X227953Y125730D01*
D02*
G37*
G36*
X321500Y120214D02*
X320844Y120084D01*
X320288Y119712D01*
X319916Y119156D01*
X319786Y118500D01*
X319916Y117844D01*
X320288Y117288D01*
X320844Y116916D01*
X321500Y116786D01*
X322156Y116916D01*
X322712Y117288D01*
X323084Y117844D01*
X323214Y118500D01*
X323084Y119156D01*
X322712Y119712D01*
X322156Y120084D01*
X321500Y120214D01*
D02*
G37*
G36*
X208161Y117872D02*
X207810Y117803D01*
X207089Y117321D01*
X206607Y116599D01*
X206537Y116248D01*
X208161D01*
Y117872D01*
D02*
G37*
G36*
X130315Y118643D02*
X129659Y118513D01*
X129103Y118141D01*
X128731Y117585D01*
X128601Y116929D01*
X128731Y116273D01*
X129103Y115717D01*
X129659Y115346D01*
X130315Y115215D01*
X130971Y115346D01*
X131527Y115717D01*
X131899Y116273D01*
X132029Y116929D01*
X131899Y117585D01*
X131527Y118141D01*
X130971Y118513D01*
X130315Y118643D01*
D02*
G37*
G36*
X287902Y115510D02*
Y113886D01*
X289526D01*
X289456Y114237D01*
X288974Y114958D01*
X288253Y115440D01*
X287902Y115510D01*
D02*
G37*
G36*
X286902D02*
X286551Y115440D01*
X285829Y114958D01*
X285347Y114237D01*
X285277Y113886D01*
X286902D01*
Y115510D01*
D02*
G37*
G36*
X208161Y115248D02*
X206537D01*
X206607Y114897D01*
X207089Y114175D01*
X207810Y113693D01*
X208161Y113624D01*
Y115248D01*
D02*
G37*
G36*
X206406Y113148D02*
Y111524D01*
X208030D01*
X207960Y111875D01*
X207478Y112596D01*
X206757Y113078D01*
X206406Y113148D01*
D02*
G37*
G36*
X205406D02*
X205055Y113078D01*
X204333Y112596D01*
X203851Y111875D01*
X203781Y111524D01*
X205406D01*
Y113148D01*
D02*
G37*
G36*
X289526Y112886D02*
X287902D01*
Y111261D01*
X288253Y111331D01*
X288974Y111813D01*
X289456Y112535D01*
X289526Y112886D01*
D02*
G37*
G36*
X286902D02*
X285277D01*
X285347Y112535D01*
X285829Y111813D01*
X286551Y111331D01*
X286902Y111261D01*
Y112886D01*
D02*
G37*
G36*
X137795Y114312D02*
X137139Y114182D01*
X136583Y113810D01*
X136212Y113254D01*
X136081Y112598D01*
X136212Y111943D01*
X136583Y111386D01*
X137139Y111015D01*
X137795Y110884D01*
X138451Y111015D01*
X139007Y111386D01*
X139379Y111943D01*
X139509Y112598D01*
X139379Y113254D01*
X139007Y113810D01*
X138451Y114182D01*
X137795Y114312D01*
D02*
G37*
G36*
X374409Y112738D02*
X373753Y112607D01*
X373197Y112236D01*
X372826Y111679D01*
X372695Y111024D01*
X372826Y110368D01*
X373197Y109812D01*
X373753Y109440D01*
X374409Y109310D01*
X375065Y109440D01*
X375621Y109812D01*
X375993Y110368D01*
X376123Y111024D01*
X375993Y111679D01*
X375621Y112236D01*
X375065Y112607D01*
X374409Y112738D01*
D02*
G37*
G36*
X297244D02*
X296588Y112607D01*
X296032Y112236D01*
X295660Y111679D01*
X295530Y111024D01*
X295660Y110368D01*
X296032Y109812D01*
X296588Y109440D01*
X297244Y109310D01*
X297900Y109440D01*
X298456Y109812D01*
X298828Y110368D01*
X298958Y111024D01*
X298828Y111679D01*
X298456Y112236D01*
X297900Y112607D01*
X297244Y112738D01*
D02*
G37*
G36*
X281102D02*
X280447Y112607D01*
X279890Y112236D01*
X279519Y111679D01*
X279388Y111024D01*
X279483Y110550D01*
X278159Y109227D01*
X277983Y108964D01*
X277921Y108653D01*
Y94299D01*
X277937Y94220D01*
Y93899D01*
X277496Y93664D01*
X277428Y93710D01*
X276772Y93840D01*
X276116Y93710D01*
X275560Y93338D01*
X275188Y92782D01*
X275151Y92596D01*
X274651Y92645D01*
Y96247D01*
X274712Y96288D01*
X275084Y96844D01*
X275214Y97500D01*
X275084Y98156D01*
X274712Y98712D01*
X274156Y99084D01*
X273500Y99214D01*
X272844Y99084D01*
X272288Y98712D01*
X271916Y98156D01*
X271867Y97908D01*
X271740Y97717D01*
X271624Y97138D01*
X271624Y97138D01*
Y92727D01*
X271183Y92492D01*
X271128Y92528D01*
X270472Y92659D01*
X269816Y92528D01*
X269260Y92157D01*
X268889Y91601D01*
X268758Y90945D01*
X268889Y90289D01*
X269260Y89733D01*
X269816Y89361D01*
X270472Y89231D01*
X271128Y89361D01*
X271183Y89398D01*
X271624Y89162D01*
Y84591D01*
X267381Y80348D01*
X267257Y80324D01*
X266701Y79952D01*
X266330Y79396D01*
X266199Y78740D01*
X266330Y78084D01*
X266701Y77528D01*
X267257Y77157D01*
X267913Y77026D01*
X268569Y77157D01*
X269125Y77528D01*
X269497Y78084D01*
X269522Y78208D01*
X274208Y82894D01*
X274208Y82894D01*
X274536Y83385D01*
X274651Y83965D01*
X274651Y83965D01*
Y86063D01*
X275151Y86330D01*
X275328Y86212D01*
X275984Y86081D01*
X276189Y86122D01*
X276689Y85712D01*
Y84980D01*
X276288Y84712D01*
X275916Y84156D01*
X275786Y83500D01*
X275916Y82844D01*
X276288Y82288D01*
X276844Y81916D01*
X277500Y81786D01*
X278156Y81916D01*
X278712Y82288D01*
X279084Y82844D01*
X279214Y83500D01*
X279084Y84156D01*
X278712Y84712D01*
X278311Y84980D01*
Y86180D01*
X279321Y87191D01*
X279497Y87454D01*
X279559Y87764D01*
Y94283D01*
X279543Y94363D01*
Y98227D01*
X279984Y98462D01*
X280053Y98416D01*
X280709Y98286D01*
X281364Y98416D01*
X281921Y98788D01*
X282292Y99344D01*
X282423Y100000D01*
X282292Y100656D01*
X281921Y101212D01*
X281364Y101584D01*
X280709Y101714D01*
X280053Y101584D01*
X279984Y101538D01*
X279543Y101773D01*
Y108318D01*
X280629Y109404D01*
X281102Y109310D01*
X281758Y109440D01*
X282314Y109812D01*
X282686Y110368D01*
X282816Y111024D01*
X282686Y111679D01*
X282314Y112236D01*
X281758Y112607D01*
X281102Y112738D01*
D02*
G37*
G36*
X244776Y110524D02*
X243151D01*
X243221Y110173D01*
X243703Y109451D01*
X244425Y108969D01*
X244776Y108899D01*
Y110524D01*
D02*
G37*
G36*
X338500Y111714D02*
X337844Y111584D01*
X337288Y111212D01*
X336916Y110656D01*
X336786Y110000D01*
X336916Y109344D01*
X337288Y108788D01*
X337844Y108416D01*
X338500Y108286D01*
X339156Y108416D01*
X339712Y108788D01*
X340084Y109344D01*
X340214Y110000D01*
X340084Y110656D01*
X339712Y111212D01*
X339156Y111584D01*
X338500Y111714D01*
D02*
G37*
G36*
X208030Y110524D02*
X203781D01*
X203851Y110173D01*
X204333Y109451D01*
X205055Y108969D01*
X205066Y108967D01*
X205172Y108436D01*
X204927Y108273D01*
X204446Y107551D01*
X204376Y107200D01*
X208624D01*
X208555Y107551D01*
X208072Y108273D01*
X207351Y108755D01*
X207339Y108757D01*
X207234Y109288D01*
X207478Y109451D01*
X207960Y110173D01*
X208030Y110524D01*
D02*
G37*
G36*
X208624Y106200D02*
X207000D01*
Y104576D01*
X207351Y104646D01*
X208072Y105128D01*
X208555Y105849D01*
X208624Y106200D01*
D02*
G37*
G36*
X206000D02*
X204376D01*
X204446Y105849D01*
X204927Y105128D01*
X205649Y104646D01*
X206000Y104576D01*
Y106200D01*
D02*
G37*
G36*
X245776Y105274D02*
Y103650D01*
X247400D01*
X247330Y104001D01*
X246848Y104722D01*
X246127Y105204D01*
X245776Y105274D01*
D02*
G37*
G36*
X244776D02*
X244425Y105204D01*
X243703Y104722D01*
X243221Y104001D01*
X243151Y103650D01*
X244776D01*
Y105274D01*
D02*
G37*
G36*
X268110Y106438D02*
X267454Y106308D01*
X266898Y105936D01*
X266527Y105380D01*
X266396Y104724D01*
X266527Y104069D01*
X266898Y103512D01*
X267454Y103141D01*
X268110Y103010D01*
X268766Y103141D01*
X269322Y103512D01*
X269694Y104069D01*
X269824Y104724D01*
X269694Y105380D01*
X269322Y105936D01*
X268766Y106308D01*
X268110Y106438D01*
D02*
G37*
G36*
X360500Y106214D02*
X359844Y106084D01*
X359288Y105712D01*
X358916Y105156D01*
X358786Y104500D01*
X358916Y103844D01*
X359288Y103288D01*
X359844Y102916D01*
X360500Y102786D01*
X361156Y102916D01*
X361712Y103288D01*
X362084Y103844D01*
X362214Y104500D01*
X362084Y105156D01*
X361712Y105712D01*
X361156Y106084D01*
X360500Y106214D01*
D02*
G37*
G36*
X293701Y107226D02*
X293045Y107095D01*
X292489Y106724D01*
X292117Y106168D01*
X291987Y105512D01*
X292117Y104856D01*
X292489Y104300D01*
X293045Y103928D01*
X293701Y103798D01*
X294357Y103928D01*
X294510Y104031D01*
X295065Y103800D01*
X295116Y103544D01*
X295488Y102988D01*
X296044Y102616D01*
X296700Y102486D01*
X297356Y102616D01*
X297912Y102988D01*
X298284Y103544D01*
X298414Y104200D01*
X298284Y104856D01*
X297912Y105412D01*
X297356Y105784D01*
X296700Y105914D01*
X296044Y105784D01*
X295891Y105681D01*
X295335Y105911D01*
X295284Y106168D01*
X294913Y106724D01*
X294357Y107095D01*
X293701Y107226D01*
D02*
G37*
G36*
X385827Y106139D02*
X382677D01*
X381714Y105947D01*
X380897Y105402D01*
X380352Y104585D01*
X380160Y103622D01*
X380352Y102659D01*
X380897Y101842D01*
X381714Y101297D01*
X382677Y101105D01*
X385827D01*
X386790Y101297D01*
X387607Y101842D01*
X388152Y102659D01*
X388344Y103622D01*
X388152Y104585D01*
X387607Y105402D01*
X386790Y105947D01*
X385827Y106139D01*
D02*
G37*
G36*
X369961D02*
X365630D01*
X364667Y105947D01*
X363850Y105402D01*
X363305Y104585D01*
X363113Y103622D01*
X363305Y102659D01*
X363850Y101842D01*
X364667Y101297D01*
X365630Y101105D01*
X369961D01*
X370924Y101297D01*
X371740Y101842D01*
X372286Y102659D01*
X372477Y103622D01*
X372286Y104585D01*
X371740Y105402D01*
X370924Y105947D01*
X369961Y106139D01*
D02*
G37*
G36*
X247400Y102650D02*
X245776D01*
Y101025D01*
X246127Y101095D01*
X246848Y101577D01*
X247330Y102299D01*
X247400Y102650D01*
D02*
G37*
G36*
X244776D02*
X243151D01*
X243221Y102299D01*
X243703Y101577D01*
X244425Y101095D01*
X244776Y101025D01*
Y102650D01*
D02*
G37*
G36*
X207874Y104076D02*
X207218Y103946D01*
X206662Y103574D01*
X206290Y103018D01*
X206160Y102362D01*
X206290Y101706D01*
X206662Y101150D01*
X207218Y100779D01*
X207874Y100648D01*
X208530Y100779D01*
X209086Y101150D01*
X209458Y101706D01*
X209588Y102362D01*
X209458Y103018D01*
X209086Y103574D01*
X208530Y103946D01*
X207874Y104076D01*
D02*
G37*
G36*
X268500Y100714D02*
X267844Y100584D01*
X267288Y100212D01*
X266916Y99656D01*
X266786Y99000D01*
X266916Y98344D01*
X267288Y97788D01*
X267844Y97416D01*
X268500Y97286D01*
X269156Y97416D01*
X269712Y97788D01*
X270084Y98344D01*
X270214Y99000D01*
X270084Y99656D01*
X269712Y100212D01*
X269156Y100584D01*
X268500Y100714D01*
D02*
G37*
G36*
X369764Y99807D02*
X369070Y99669D01*
X368481Y99275D01*
X368088Y98686D01*
X367949Y97992D01*
X368088Y97298D01*
X368481Y96709D01*
X369070Y96316D01*
X369764Y96178D01*
X370458Y96316D01*
X371047Y96709D01*
X371440Y97298D01*
X371578Y97992D01*
X371440Y98686D01*
X371047Y99275D01*
X370458Y99669D01*
X369764Y99807D01*
D02*
G37*
G36*
X321260Y98958D02*
X320604Y98828D01*
X320048Y98456D01*
X319676Y97900D01*
X319546Y97244D01*
X319676Y96588D01*
X320048Y96032D01*
X320604Y95660D01*
X321260Y95530D01*
X321916Y95660D01*
X322472Y96032D01*
X322843Y96588D01*
X322974Y97244D01*
X322843Y97900D01*
X322472Y98456D01*
X321916Y98828D01*
X321260Y98958D01*
D02*
G37*
G36*
X234252Y98564D02*
X233596Y98434D01*
X233040Y98062D01*
X232668Y97506D01*
X232538Y96850D01*
X232668Y96194D01*
X233040Y95638D01*
X233596Y95267D01*
X234252Y95136D01*
X234908Y95267D01*
X235464Y95638D01*
X235836Y96194D01*
X235966Y96850D01*
X235836Y97506D01*
X235464Y98062D01*
X234908Y98434D01*
X234252Y98564D01*
D02*
G37*
G36*
X220866Y98171D02*
X220210Y98040D01*
X219654Y97669D01*
X219283Y97113D01*
X219152Y96457D01*
X219283Y95801D01*
X219654Y95245D01*
X220210Y94873D01*
X220866Y94743D01*
X221522Y94873D01*
X222078Y95245D01*
X222450Y95801D01*
X222580Y96457D01*
X222450Y97113D01*
X222078Y97669D01*
X221522Y98040D01*
X220866Y98171D01*
D02*
G37*
G36*
X295669Y96596D02*
X295013Y96465D01*
X294457Y96094D01*
X294086Y95538D01*
X293955Y94882D01*
X294086Y94226D01*
X294457Y93670D01*
X295013Y93298D01*
X295669Y93168D01*
X296325Y93298D01*
X296881Y93670D01*
X297253Y94226D01*
X297383Y94882D01*
X297253Y95538D01*
X296881Y96094D01*
X296325Y96465D01*
X295669Y96596D01*
D02*
G37*
G36*
X337500Y96114D02*
X336844Y95984D01*
X336288Y95612D01*
X335916Y95056D01*
X335786Y94400D01*
X335916Y93744D01*
X336288Y93188D01*
X336844Y92816D01*
X337500Y92686D01*
X338156Y92816D01*
X338712Y93188D01*
X339084Y93744D01*
X339214Y94400D01*
X339084Y95056D01*
X338712Y95612D01*
X338156Y95984D01*
X337500Y96114D01*
D02*
G37*
G36*
X317323Y95415D02*
X316667Y95284D01*
X316111Y94913D01*
X315739Y94357D01*
X315609Y93701D01*
X315739Y93045D01*
X316111Y92489D01*
X316667Y92117D01*
X317323Y91987D01*
X317979Y92117D01*
X318535Y92489D01*
X318906Y93045D01*
X319037Y93701D01*
X318906Y94357D01*
X318535Y94913D01*
X317979Y95284D01*
X317323Y95415D01*
D02*
G37*
G36*
X305200D02*
X304544Y95284D01*
X303988Y94913D01*
X303616Y94357D01*
X303486Y93701D01*
X303616Y93045D01*
X303988Y92489D01*
X304544Y92117D01*
X305200Y91987D01*
X305856Y92117D01*
X306412Y92489D01*
X306784Y93045D01*
X306914Y93701D01*
X306784Y94357D01*
X306412Y94913D01*
X305856Y95284D01*
X305200Y95415D01*
D02*
G37*
G36*
X282677D02*
X282021Y95284D01*
X281465Y94913D01*
X281094Y94357D01*
X280963Y93701D01*
X281094Y93045D01*
X281465Y92489D01*
X282021Y92117D01*
X282677Y91987D01*
X283333Y92117D01*
X283889Y92489D01*
X284261Y93045D01*
X284391Y93701D01*
X284261Y94357D01*
X283889Y94913D01*
X283333Y95284D01*
X282677Y95415D01*
D02*
G37*
G36*
X357500Y94714D02*
X356844Y94584D01*
X356288Y94212D01*
X355916Y93656D01*
X355786Y93000D01*
X355916Y92344D01*
X356288Y91788D01*
X356844Y91416D01*
X357500Y91286D01*
X358156Y91416D01*
X358712Y91788D01*
X359084Y92344D01*
X359214Y93000D01*
X359084Y93656D01*
X358712Y94212D01*
X358156Y94584D01*
X357500Y94714D01*
D02*
G37*
G36*
X261024Y93840D02*
X260368Y93710D01*
X259812Y93338D01*
X259440Y92782D01*
X259310Y92126D01*
X259440Y91470D01*
X259812Y90914D01*
X260368Y90542D01*
X261024Y90412D01*
X261680Y90542D01*
X262236Y90914D01*
X262607Y91470D01*
X262738Y92126D01*
X262607Y92782D01*
X262236Y93338D01*
X261680Y93710D01*
X261024Y93840D01*
D02*
G37*
G36*
X231209Y91888D02*
Y90264D01*
X232833D01*
X232763Y90615D01*
X232281Y91336D01*
X231560Y91818D01*
X231209Y91888D01*
D02*
G37*
G36*
X230209D02*
X229858Y91818D01*
X229136Y91336D01*
X228654Y90615D01*
X228584Y90264D01*
X230209D01*
Y91888D01*
D02*
G37*
G36*
X80602D02*
X80251Y91818D01*
X79530Y91336D01*
X79048Y90615D01*
X78978Y90264D01*
X80602D01*
Y91888D01*
D02*
G37*
G36*
X350787Y92659D02*
X350132Y92528D01*
X349575Y92157D01*
X349204Y91601D01*
X349073Y90945D01*
X349204Y90289D01*
X349575Y89733D01*
X350132Y89361D01*
X350787Y89231D01*
X351443Y89361D01*
X351999Y89733D01*
X352371Y90289D01*
X352501Y90945D01*
X352371Y91601D01*
X351999Y92157D01*
X351443Y92528D01*
X350787Y92659D01*
D02*
G37*
G36*
X338976Y92265D02*
X338320Y92135D01*
X337764Y91763D01*
X337393Y91207D01*
X337262Y90551D01*
X337393Y89895D01*
X337764Y89339D01*
X338320Y88968D01*
X338976Y88837D01*
X339632Y88968D01*
X340188Y89339D01*
X340560Y89895D01*
X340690Y90551D01*
X340560Y91207D01*
X340188Y91763D01*
X339632Y92135D01*
X338976Y92265D01*
D02*
G37*
G36*
X330315Y91478D02*
X329659Y91347D01*
X329103Y90976D01*
X328731Y90420D01*
X328601Y89764D01*
X328731Y89108D01*
X329103Y88552D01*
X329659Y88180D01*
X330315Y88050D01*
X330971Y88180D01*
X331527Y88552D01*
X331899Y89108D01*
X332029Y89764D01*
X331899Y90420D01*
X331527Y90976D01*
X330971Y91347D01*
X330315Y91478D01*
D02*
G37*
G36*
X220472D02*
X219816Y91347D01*
X219260Y90976D01*
X218889Y90420D01*
X218758Y89764D01*
X218889Y89108D01*
X219260Y88552D01*
X219816Y88180D01*
X220472Y88050D01*
X221128Y88180D01*
X221684Y88552D01*
X222056Y89108D01*
X222186Y89764D01*
X222056Y90420D01*
X221684Y90976D01*
X221128Y91347D01*
X220472Y91478D01*
D02*
G37*
G36*
X232833Y89264D02*
X231209D01*
Y87639D01*
X231560Y87709D01*
X232281Y88191D01*
X232763Y88913D01*
X232833Y89264D01*
D02*
G37*
G36*
X230209D02*
X228584D01*
X228654Y88913D01*
X229136Y88191D01*
X229858Y87709D01*
X230209Y87639D01*
Y89264D01*
D02*
G37*
G36*
X80602D02*
X78978D01*
X79048Y88913D01*
X79530Y88191D01*
X80251Y87709D01*
X80602Y87639D01*
Y89264D01*
D02*
G37*
G36*
X259055Y90297D02*
X258399Y90166D01*
X257843Y89795D01*
X257472Y89239D01*
X257341Y88583D01*
X257472Y87927D01*
X257843Y87371D01*
X258399Y86999D01*
X259055Y86869D01*
X259711Y86999D01*
X260267Y87371D01*
X260639Y87927D01*
X260769Y88583D01*
X260639Y89239D01*
X260267Y89795D01*
X259711Y90166D01*
X259055Y90297D01*
D02*
G37*
G36*
X251575D02*
X250919Y90166D01*
X250363Y89795D01*
X249991Y89239D01*
X249861Y88583D01*
X249991Y87927D01*
X250363Y87371D01*
X250919Y86999D01*
X251575Y86869D01*
X252231Y86999D01*
X252787Y87371D01*
X253158Y87927D01*
X253289Y88583D01*
X253158Y89239D01*
X252787Y89795D01*
X252231Y90166D01*
X251575Y90297D01*
D02*
G37*
G36*
X81602Y91888D02*
Y89764D01*
Y87639D01*
X81738Y87666D01*
X82275Y87533D01*
X82646Y86977D01*
X83202Y86605D01*
X83858Y86475D01*
X84514Y86605D01*
X85070Y86977D01*
X85442Y87533D01*
X85572Y88189D01*
X85442Y88845D01*
X85070Y89401D01*
X84514Y89773D01*
X83858Y89903D01*
X83320Y89796D01*
X83157Y90615D01*
X82675Y91336D01*
X81953Y91818D01*
X81602Y91888D01*
D02*
G37*
G36*
X204400Y89514D02*
X203744Y89384D01*
X203188Y89012D01*
X202816Y88456D01*
X202686Y87800D01*
X202816Y87144D01*
X203188Y86588D01*
X203744Y86216D01*
X204400Y86086D01*
X205056Y86216D01*
X205612Y86588D01*
X205984Y87144D01*
X206114Y87800D01*
X205984Y88456D01*
X205612Y89012D01*
X205056Y89384D01*
X204400Y89514D01*
D02*
G37*
G36*
X282677Y89116D02*
X282021Y88985D01*
X281465Y88614D01*
X281094Y88058D01*
X280963Y87402D01*
X281094Y86746D01*
X281465Y86190D01*
X282021Y85818D01*
X282677Y85688D01*
X283333Y85818D01*
X283889Y86190D01*
X284261Y86746D01*
X284391Y87402D01*
X284261Y88058D01*
X283889Y88614D01*
X283333Y88985D01*
X282677Y89116D01*
D02*
G37*
G36*
X347100Y88314D02*
X346444Y88184D01*
X345888Y87812D01*
X345516Y87256D01*
X345386Y86600D01*
X345516Y85944D01*
X345888Y85388D01*
X346444Y85016D01*
X347100Y84886D01*
X347756Y85016D01*
X348312Y85388D01*
X348684Y85944D01*
X348814Y86600D01*
X348684Y87256D01*
X348312Y87812D01*
X347756Y88184D01*
X347100Y88314D01*
D02*
G37*
G36*
X308661Y87934D02*
X308005Y87804D01*
X307449Y87432D01*
X307078Y86876D01*
X306947Y86220D01*
X307078Y85565D01*
X307449Y85008D01*
X308005Y84637D01*
X308661Y84506D01*
X309317Y84637D01*
X309873Y85008D01*
X310245Y85565D01*
X310375Y86220D01*
X310245Y86876D01*
X309873Y87432D01*
X309317Y87804D01*
X308661Y87934D01*
D02*
G37*
G36*
X268110Y87541D02*
X267454Y87410D01*
X266898Y87039D01*
X266527Y86483D01*
X266396Y85827D01*
X266527Y85171D01*
X266898Y84615D01*
X267454Y84243D01*
X268110Y84113D01*
X268766Y84243D01*
X269322Y84615D01*
X269694Y85171D01*
X269824Y85827D01*
X269694Y86483D01*
X269322Y87039D01*
X268766Y87410D01*
X268110Y87541D01*
D02*
G37*
G36*
X233465Y87147D02*
X232809Y87017D01*
X232253Y86645D01*
X231881Y86089D01*
X231751Y85433D01*
X231881Y84777D01*
X232253Y84221D01*
X232809Y83849D01*
X233465Y83719D01*
X234120Y83849D01*
X234677Y84221D01*
X235048Y84777D01*
X235179Y85433D01*
X235048Y86089D01*
X234677Y86645D01*
X234120Y87017D01*
X233465Y87147D01*
D02*
G37*
G36*
X360496Y86753D02*
X359840Y86623D01*
X359284Y86251D01*
X358913Y85695D01*
X358782Y85039D01*
X358913Y84383D01*
X359284Y83827D01*
X359840Y83456D01*
X360496Y83325D01*
X361152Y83456D01*
X361708Y83827D01*
X362080Y84383D01*
X362210Y85039D01*
X362080Y85695D01*
X361708Y86251D01*
X361152Y86623D01*
X360496Y86753D01*
D02*
G37*
G36*
X155118Y86360D02*
X154462Y86229D01*
X153906Y85858D01*
X153535Y85302D01*
X153404Y84646D01*
X153535Y83990D01*
X153906Y83434D01*
X154462Y83062D01*
X155118Y82932D01*
X155774Y83062D01*
X156330Y83434D01*
X156702Y83990D01*
X156832Y84646D01*
X156702Y85302D01*
X156330Y85858D01*
X155774Y86229D01*
X155118Y86360D01*
D02*
G37*
G36*
X341500Y84714D02*
X340844Y84584D01*
X340288Y84212D01*
X339916Y83656D01*
X339786Y83000D01*
X339916Y82344D01*
X340288Y81788D01*
X340844Y81416D01*
X341500Y81286D01*
X342156Y81416D01*
X342712Y81788D01*
X343084Y82344D01*
X343214Y83000D01*
X343084Y83656D01*
X342712Y84212D01*
X342156Y84584D01*
X341500Y84714D01*
D02*
G37*
G36*
X81890Y84391D02*
X81234Y84261D01*
X80678Y83889D01*
X80306Y83333D01*
X80176Y82677D01*
X80306Y82021D01*
X80678Y81465D01*
X81234Y81094D01*
X81890Y80963D01*
X82546Y81094D01*
X83102Y81465D01*
X83473Y82021D01*
X83604Y82677D01*
X83473Y83333D01*
X83102Y83889D01*
X82546Y84261D01*
X81890Y84391D01*
D02*
G37*
G36*
X334646Y81249D02*
X333990Y81119D01*
X333434Y80747D01*
X333062Y80191D01*
X332932Y79535D01*
X333062Y78879D01*
X333434Y78323D01*
X333990Y77952D01*
X334646Y77821D01*
X335301Y77952D01*
X335858Y78323D01*
X336229Y78879D01*
X336360Y79535D01*
X336229Y80191D01*
X335858Y80747D01*
X335301Y81119D01*
X334646Y81249D01*
D02*
G37*
G36*
X319291Y80454D02*
X318636Y80324D01*
X318079Y79952D01*
X317708Y79396D01*
X317577Y78740D01*
X317708Y78084D01*
X318079Y77528D01*
X318636Y77157D01*
X319291Y77026D01*
X319947Y77157D01*
X320503Y77528D01*
X320875Y78084D01*
X321005Y78740D01*
X320875Y79396D01*
X320503Y79952D01*
X319947Y80324D01*
X319291Y80454D01*
D02*
G37*
G36*
X277559D02*
X276903Y80324D01*
X276347Y79952D01*
X275975Y79396D01*
X275845Y78740D01*
X275975Y78084D01*
X276347Y77528D01*
X276903Y77157D01*
X277559Y77026D01*
X278215Y77157D01*
X278771Y77528D01*
X279143Y78084D01*
X279273Y78740D01*
X279143Y79396D01*
X278771Y79952D01*
X278215Y80324D01*
X277559Y80454D01*
D02*
G37*
G36*
X300394Y80060D02*
X299738Y79930D01*
X299182Y79558D01*
X298810Y79002D01*
X298680Y78346D01*
X298810Y77691D01*
X299182Y77134D01*
X299738Y76763D01*
X300394Y76632D01*
X301050Y76763D01*
X301606Y77134D01*
X301977Y77691D01*
X302108Y78346D01*
X301977Y79002D01*
X301606Y79558D01*
X301050Y79930D01*
X300394Y80060D01*
D02*
G37*
G36*
X353100Y79614D02*
X352444Y79484D01*
X351888Y79112D01*
X351516Y78556D01*
X351386Y77900D01*
X351516Y77244D01*
X351888Y76688D01*
X352444Y76316D01*
X353100Y76186D01*
X353756Y76316D01*
X354312Y76688D01*
X354684Y77244D01*
X354814Y77900D01*
X354684Y78556D01*
X354312Y79112D01*
X353756Y79484D01*
X353100Y79614D01*
D02*
G37*
G36*
X224500Y79214D02*
X223844Y79084D01*
X223288Y78712D01*
X222916Y78156D01*
X222786Y77500D01*
X222916Y76844D01*
X223288Y76288D01*
X223844Y75916D01*
X224500Y75786D01*
X225156Y75916D01*
X225712Y76288D01*
X226084Y76844D01*
X226214Y77500D01*
X226084Y78156D01*
X225712Y78712D01*
X225156Y79084D01*
X224500Y79214D01*
D02*
G37*
G36*
X212205Y78879D02*
X211549Y78749D01*
X210993Y78377D01*
X210621Y77821D01*
X210491Y77165D01*
X210621Y76509D01*
X210993Y75953D01*
X211549Y75582D01*
X212205Y75451D01*
X212861Y75582D01*
X213417Y75953D01*
X213788Y76509D01*
X213919Y77165D01*
X213788Y77821D01*
X213417Y78377D01*
X212861Y78749D01*
X212205Y78879D01*
D02*
G37*
G36*
X203937D02*
X203281Y78749D01*
X202725Y78377D01*
X202353Y77821D01*
X202223Y77165D01*
X202353Y76509D01*
X202725Y75953D01*
X203281Y75582D01*
X203937Y75451D01*
X204593Y75582D01*
X205149Y75953D01*
X205521Y76509D01*
X205651Y77165D01*
X205521Y77821D01*
X205149Y78377D01*
X204593Y78749D01*
X203937Y78879D01*
D02*
G37*
G36*
X62598D02*
X61942Y78749D01*
X61386Y78377D01*
X61015Y77821D01*
X60884Y77165D01*
X61015Y76509D01*
X61386Y75953D01*
X61942Y75582D01*
X62598Y75451D01*
X63254Y75582D01*
X63810Y75953D01*
X64182Y76509D01*
X64312Y77165D01*
X64182Y77821D01*
X63810Y78377D01*
X63254Y78749D01*
X62598Y78879D01*
D02*
G37*
G36*
X221200Y76128D02*
Y74503D01*
X222824D01*
X222755Y74854D01*
X222272Y75576D01*
X221551Y76058D01*
X221200Y76128D01*
D02*
G37*
G36*
X220200D02*
X219849Y76058D01*
X219127Y75576D01*
X218645Y74854D01*
X218576Y74503D01*
X220200D01*
Y76128D01*
D02*
G37*
G36*
X369764Y77051D02*
X369070Y76912D01*
X368481Y76519D01*
X368088Y75931D01*
X367949Y75236D01*
X368088Y74542D01*
X368481Y73953D01*
X369070Y73560D01*
X369764Y73422D01*
X370458Y73560D01*
X371047Y73953D01*
X371440Y74542D01*
X371578Y75236D01*
X371440Y75931D01*
X371047Y76519D01*
X370458Y76912D01*
X369764Y77051D01*
D02*
G37*
G36*
X362992Y75730D02*
X362336Y75599D01*
X361780Y75228D01*
X361409Y74672D01*
X361278Y74016D01*
X361409Y73360D01*
X361780Y72804D01*
X362336Y72432D01*
X362992Y72302D01*
X363648Y72432D01*
X364204Y72804D01*
X364576Y73360D01*
X364706Y74016D01*
X364576Y74672D01*
X364204Y75228D01*
X363648Y75599D01*
X362992Y75730D01*
D02*
G37*
G36*
X222824Y73503D02*
X221200D01*
Y71879D01*
X221551Y71949D01*
X222272Y72431D01*
X222755Y73152D01*
X222824Y73503D01*
D02*
G37*
G36*
X220200D02*
X218576D01*
X218645Y73152D01*
X219127Y72431D01*
X219849Y71949D01*
X220200Y71879D01*
Y73503D01*
D02*
G37*
G36*
X338295Y70628D02*
Y69004D01*
X339920D01*
X339850Y69355D01*
X339368Y70077D01*
X338646Y70559D01*
X338295Y70628D01*
D02*
G37*
G36*
X337295D02*
X336944Y70559D01*
X336223Y70077D01*
X335741Y69355D01*
X335671Y69004D01*
X337295D01*
Y70628D01*
D02*
G37*
G36*
X312992Y71793D02*
X312336Y71662D01*
X311780Y71291D01*
X311409Y70735D01*
X311278Y70079D01*
X311409Y69423D01*
X311780Y68867D01*
X312336Y68495D01*
X312992Y68365D01*
X313648Y68495D01*
X314204Y68867D01*
X314576Y69423D01*
X314706Y70079D01*
X314576Y70735D01*
X314204Y71291D01*
X313648Y71662D01*
X312992Y71793D01*
D02*
G37*
G36*
X233965Y69447D02*
Y67823D01*
X235589D01*
X235519Y68174D01*
X235037Y68895D01*
X234316Y69377D01*
X233965Y69447D01*
D02*
G37*
G36*
X232965D02*
X232614Y69377D01*
X231892Y68895D01*
X231410Y68174D01*
X231340Y67823D01*
X232965D01*
Y69447D01*
D02*
G37*
G36*
X84358D02*
Y67823D01*
X85983D01*
X85913Y68174D01*
X85431Y68895D01*
X84709Y69377D01*
X84358Y69447D01*
D02*
G37*
G36*
X83358D02*
X83007Y69377D01*
X82286Y68895D01*
X81804Y68174D01*
X81734Y67823D01*
X83358D01*
Y69447D01*
D02*
G37*
G36*
X293000Y71214D02*
X292344Y71084D01*
X291788Y70712D01*
X291416Y70156D01*
X291286Y69500D01*
X291416Y68844D01*
X291788Y68288D01*
X292344Y67916D01*
X293000Y67786D01*
X293656Y67916D01*
X294212Y68288D01*
X294584Y68844D01*
X294714Y69500D01*
X294584Y70156D01*
X294212Y70712D01*
X293656Y71084D01*
X293000Y71214D01*
D02*
G37*
G36*
X260236Y71005D02*
X259580Y70875D01*
X259024Y70503D01*
X258653Y69947D01*
X258522Y69291D01*
X258653Y68635D01*
X259024Y68079D01*
X259580Y67708D01*
X260236Y67577D01*
X260892Y67708D01*
X261448Y68079D01*
X261820Y68635D01*
X261950Y69291D01*
X261820Y69947D01*
X261448Y70503D01*
X260892Y70875D01*
X260236Y71005D01*
D02*
G37*
G36*
X110630D02*
X109974Y70875D01*
X109418Y70503D01*
X109046Y69947D01*
X108916Y69291D01*
X109046Y68635D01*
X109418Y68079D01*
X109974Y67708D01*
X110630Y67577D01*
X111286Y67708D01*
X111842Y68079D01*
X112214Y68635D01*
X112344Y69291D01*
X112214Y69947D01*
X111842Y70503D01*
X111286Y70875D01*
X110630Y71005D01*
D02*
G37*
G36*
X385827Y72123D02*
X382677D01*
X381714Y71932D01*
X380897Y71386D01*
X380352Y70570D01*
X380160Y69606D01*
X380352Y68643D01*
X380897Y67827D01*
X381714Y67281D01*
X382677Y67089D01*
X385827D01*
X386790Y67281D01*
X387607Y67827D01*
X388152Y68643D01*
X388344Y69606D01*
X388152Y70570D01*
X387607Y71386D01*
X386790Y71932D01*
X385827Y72123D01*
D02*
G37*
G36*
X369961D02*
X365630D01*
X364667Y71932D01*
X363850Y71386D01*
X363305Y70570D01*
X363113Y69606D01*
X363305Y68643D01*
X363850Y67827D01*
X364667Y67281D01*
X365630Y67089D01*
X369961D01*
X370924Y67281D01*
X371740Y67827D01*
X372286Y68643D01*
X372477Y69606D01*
X372286Y70570D01*
X371740Y71386D01*
X370924Y71932D01*
X369961Y72123D01*
D02*
G37*
G36*
X339920Y68004D02*
X338295D01*
Y66380D01*
X338646Y66449D01*
X339368Y66931D01*
X339850Y67653D01*
X339920Y68004D01*
D02*
G37*
G36*
X337295D02*
X335671D01*
X335741Y67653D01*
X336223Y66931D01*
X336944Y66449D01*
X337295Y66380D01*
Y68004D01*
D02*
G37*
G36*
X248425Y83604D02*
X247769Y83473D01*
X247213Y83102D01*
X246842Y82546D01*
X246711Y81890D01*
X246842Y81234D01*
X247213Y80678D01*
X247514Y80477D01*
Y71637D01*
X237289Y61412D01*
X237144Y61384D01*
X236588Y61012D01*
X236216Y60456D01*
X236086Y59800D01*
X236216Y59144D01*
X236588Y58588D01*
X236889Y58387D01*
Y48972D01*
X236958Y48623D01*
X237156Y48327D01*
X240932Y44551D01*
X240907Y44518D01*
X240539Y43630D01*
X240413Y42677D01*
X240539Y41725D01*
X240907Y40837D01*
X241492Y40074D01*
X242254Y39489D01*
X243142Y39121D01*
X244094Y38996D01*
X245047Y39121D01*
X245935Y39489D01*
X246697Y40074D01*
X247282Y40837D01*
X247650Y41725D01*
X247776Y42677D01*
X247650Y43630D01*
X247282Y44518D01*
X246697Y45280D01*
X245935Y45865D01*
X245047Y46233D01*
X244094Y46358D01*
X243142Y46233D01*
X242254Y45865D01*
X242221Y45840D01*
X238711Y49349D01*
Y58387D01*
X239012Y58588D01*
X239384Y59144D01*
X239514Y59800D01*
X239384Y60456D01*
X239194Y60740D01*
X239569Y61115D01*
X240111Y60950D01*
X240149Y60761D01*
X240520Y60205D01*
X241076Y59834D01*
X241732Y59703D01*
X242388Y59834D01*
X242944Y60205D01*
X243316Y60761D01*
X243446Y61417D01*
X243316Y62073D01*
X242944Y62629D01*
X242388Y63001D01*
X242199Y63038D01*
X242035Y63581D01*
X246701Y68247D01*
X247161Y68001D01*
X247105Y67717D01*
X247235Y67061D01*
X247607Y66505D01*
X248163Y66133D01*
X248819Y66003D01*
X249475Y66133D01*
X250031Y66505D01*
X250403Y67061D01*
X250533Y67717D01*
X250403Y68372D01*
X250031Y68929D01*
X249475Y69300D01*
X248819Y69431D01*
X248535Y69374D01*
X248289Y69835D01*
X249069Y70616D01*
X249267Y70911D01*
X249336Y71260D01*
Y80477D01*
X249637Y80678D01*
X250009Y81234D01*
X250139Y81890D01*
X250009Y82546D01*
X249637Y83102D01*
X249081Y83473D01*
X248425Y83604D01*
D02*
G37*
G36*
X235589Y66823D02*
X233965D01*
Y65198D01*
X234316Y65268D01*
X235037Y65750D01*
X235519Y66472D01*
X235589Y66823D01*
D02*
G37*
G36*
X232965D02*
X231340D01*
X231410Y66472D01*
X231892Y65750D01*
X232614Y65268D01*
X232965Y65198D01*
Y66823D01*
D02*
G37*
G36*
X85983D02*
X84358D01*
Y65198D01*
X84709Y65268D01*
X85431Y65750D01*
X85913Y66472D01*
X85983Y66823D01*
D02*
G37*
G36*
X83358D02*
X81734D01*
X81804Y66472D01*
X82286Y65750D01*
X83007Y65268D01*
X83358Y65198D01*
Y66823D01*
D02*
G37*
G36*
X231209Y61967D02*
Y60343D01*
X232833D01*
X232763Y60694D01*
X232281Y61415D01*
X231560Y61897D01*
X231209Y61967D01*
D02*
G37*
G36*
X230209D02*
X229858Y61897D01*
X229136Y61415D01*
X228654Y60694D01*
X228584Y60343D01*
X230209D01*
Y61967D01*
D02*
G37*
G36*
X81602D02*
Y60343D01*
X83227D01*
X83157Y60694D01*
X82675Y61415D01*
X81953Y61897D01*
X81602Y61967D01*
D02*
G37*
G36*
X80602D02*
X80251Y61897D01*
X79530Y61415D01*
X79048Y60694D01*
X78978Y60343D01*
X80602D01*
Y61967D01*
D02*
G37*
G36*
X329921Y62738D02*
X329265Y62607D01*
X328709Y62236D01*
X328338Y61680D01*
X328207Y61024D01*
X328338Y60368D01*
X328709Y59812D01*
X329265Y59440D01*
X329921Y59310D01*
X330577Y59440D01*
X331133Y59812D01*
X331505Y60368D01*
X331635Y61024D01*
X331505Y61680D01*
X331133Y62236D01*
X330577Y62607D01*
X329921Y62738D01*
D02*
G37*
G36*
X310236D02*
X309580Y62607D01*
X309024Y62236D01*
X308653Y61680D01*
X308522Y61024D01*
X308653Y60368D01*
X309024Y59812D01*
X309580Y59440D01*
X310236Y59310D01*
X310892Y59440D01*
X311448Y59812D01*
X311820Y60368D01*
X311950Y61024D01*
X311820Y61680D01*
X311448Y62236D01*
X310892Y62607D01*
X310236Y62738D01*
D02*
G37*
G36*
X232833Y59343D02*
X231209D01*
Y57718D01*
X231560Y57788D01*
X232281Y58270D01*
X232763Y58992D01*
X232833Y59343D01*
D02*
G37*
G36*
X230209D02*
X228584D01*
X228654Y58992D01*
X229136Y58270D01*
X229858Y57788D01*
X230209Y57718D01*
Y59343D01*
D02*
G37*
G36*
X83227D02*
X81602D01*
Y57718D01*
X81953Y57788D01*
X82675Y58270D01*
X83157Y58992D01*
X83227Y59343D01*
D02*
G37*
G36*
X80602D02*
X78978D01*
X79048Y58992D01*
X79530Y58270D01*
X80251Y57788D01*
X80602Y57718D01*
Y59343D01*
D02*
G37*
G36*
X265906Y46358D02*
X264953Y46233D01*
X264065Y45865D01*
X263303Y45280D01*
X262718Y44518D01*
X262350Y43630D01*
X262225Y42677D01*
X262350Y41725D01*
X262718Y40837D01*
X263303Y40074D01*
X264065Y39489D01*
X264953Y39121D01*
X265906Y38996D01*
X266858Y39121D01*
X267746Y39489D01*
X268509Y40074D01*
X269093Y40837D01*
X269461Y41725D01*
X269587Y42677D01*
X269461Y43630D01*
X269093Y44518D01*
X268509Y45280D01*
X267746Y45865D01*
X266858Y46233D01*
X265906Y46358D01*
D02*
G37*
G36*
X255000D02*
X254047Y46233D01*
X253159Y45865D01*
X252397Y45280D01*
X251812Y44518D01*
X251444Y43630D01*
X251319Y42677D01*
X251444Y41725D01*
X251812Y40837D01*
X252397Y40074D01*
X253159Y39489D01*
X254047Y39121D01*
X255000Y38996D01*
X255953Y39121D01*
X256840Y39489D01*
X257603Y40074D01*
X258188Y40837D01*
X258556Y41725D01*
X258681Y42677D01*
X258556Y43630D01*
X258188Y44518D01*
X257603Y45280D01*
X256840Y45865D01*
X255953Y46233D01*
X255000Y46358D01*
D02*
G37*
G36*
X233189D02*
X232236Y46233D01*
X231348Y45865D01*
X230586Y45280D01*
X230001Y44518D01*
X229633Y43630D01*
X229508Y42677D01*
X229633Y41725D01*
X230001Y40837D01*
X230586Y40074D01*
X231348Y39489D01*
X232236Y39121D01*
X233189Y38996D01*
X234142Y39121D01*
X235030Y39489D01*
X235792Y40074D01*
X236377Y40837D01*
X236745Y41725D01*
X236870Y42677D01*
X236745Y43630D01*
X236377Y44518D01*
X235792Y45280D01*
X235030Y45865D01*
X234142Y46233D01*
X233189Y46358D01*
D02*
G37*
G36*
X222283D02*
X221331Y46233D01*
X220443Y45865D01*
X219681Y45280D01*
X219095Y44518D01*
X218728Y43630D01*
X218602Y42677D01*
X218728Y41725D01*
X219095Y40837D01*
X219681Y40074D01*
X220443Y39489D01*
X221331Y39121D01*
X222283Y38996D01*
X223236Y39121D01*
X224124Y39489D01*
X224886Y40074D01*
X225471Y40837D01*
X225839Y41725D01*
X225964Y42677D01*
X225839Y43630D01*
X225471Y44518D01*
X224886Y45280D01*
X224124Y45865D01*
X223236Y46233D01*
X222283Y46358D01*
D02*
G37*
G36*
X116299D02*
X115347Y46233D01*
X114459Y45865D01*
X113696Y45280D01*
X113111Y44518D01*
X112743Y43630D01*
X112618Y42677D01*
X112743Y41725D01*
X113111Y40837D01*
X113696Y40074D01*
X114459Y39489D01*
X115347Y39121D01*
X116299Y38996D01*
X117252Y39121D01*
X118140Y39489D01*
X118902Y40074D01*
X119487Y40837D01*
X119855Y41725D01*
X119980Y42677D01*
X119855Y43630D01*
X119487Y44518D01*
X118902Y45280D01*
X118140Y45865D01*
X117252Y46233D01*
X116299Y46358D01*
D02*
G37*
G36*
X105394D02*
X104441Y46233D01*
X103553Y45865D01*
X102791Y45280D01*
X102206Y44518D01*
X101838Y43630D01*
X101713Y42677D01*
X101838Y41725D01*
X102206Y40837D01*
X102791Y40074D01*
X103553Y39489D01*
X104441Y39121D01*
X105394Y38996D01*
X106346Y39121D01*
X107234Y39489D01*
X107997Y40074D01*
X108582Y40837D01*
X108949Y41725D01*
X109075Y42677D01*
X108949Y43630D01*
X108582Y44518D01*
X107997Y45280D01*
X107234Y45865D01*
X106346Y46233D01*
X105394Y46358D01*
D02*
G37*
G36*
X88100Y61514D02*
X87444Y61384D01*
X86888Y61012D01*
X86516Y60456D01*
X86386Y59800D01*
X86516Y59144D01*
X86888Y58588D01*
X87189Y58387D01*
Y49065D01*
X87258Y48717D01*
X87456Y48421D01*
X91326Y44551D01*
X91300Y44518D01*
X90933Y43630D01*
X90807Y42677D01*
X90933Y41725D01*
X91300Y40837D01*
X91885Y40074D01*
X92648Y39489D01*
X93536Y39121D01*
X94488Y38996D01*
X95441Y39121D01*
X96329Y39489D01*
X97091Y40074D01*
X97676Y40837D01*
X98044Y41725D01*
X98169Y42677D01*
X98044Y43630D01*
X97676Y44518D01*
X97091Y45280D01*
X96329Y45865D01*
X95441Y46233D01*
X94488Y46358D01*
X93536Y46233D01*
X92648Y45865D01*
X92614Y45840D01*
X89011Y49443D01*
Y58387D01*
X89312Y58588D01*
X89684Y59144D01*
X89814Y59800D01*
X89684Y60456D01*
X89312Y61012D01*
X88756Y61384D01*
X88100Y61514D01*
D02*
G37*
G36*
X83583Y46358D02*
X82630Y46233D01*
X81742Y45865D01*
X80980Y45280D01*
X80395Y44518D01*
X80027Y43630D01*
X79901Y42677D01*
X80027Y41725D01*
X80395Y40837D01*
X80980Y40074D01*
X81742Y39489D01*
X82630Y39121D01*
X83583Y38996D01*
X84535Y39121D01*
X85423Y39489D01*
X86185Y40074D01*
X86770Y40837D01*
X87138Y41725D01*
X87264Y42677D01*
X87138Y43630D01*
X86770Y44518D01*
X86185Y45280D01*
X85423Y45865D01*
X84535Y46233D01*
X83583Y46358D01*
D02*
G37*
G36*
X72677D02*
X71724Y46233D01*
X70837Y45865D01*
X70074Y45280D01*
X69489Y44518D01*
X69121Y43630D01*
X68996Y42677D01*
X69121Y41725D01*
X69489Y40837D01*
X70074Y40074D01*
X70837Y39489D01*
X71724Y39121D01*
X72677Y38996D01*
X73630Y39121D01*
X74518Y39489D01*
X75280Y40074D01*
X75865Y40837D01*
X76233Y41725D01*
X76358Y42677D01*
X76233Y43630D01*
X75865Y44518D01*
X75280Y45280D01*
X74518Y45865D01*
X73630Y46233D01*
X72677Y46358D01*
D02*
G37*
G36*
X78900Y39624D02*
Y38000D01*
X80524D01*
X80454Y38351D01*
X79972Y39072D01*
X79251Y39555D01*
X78900Y39624D01*
D02*
G37*
G36*
X77900D02*
X77549Y39555D01*
X76828Y39072D01*
X76345Y38351D01*
X76276Y38000D01*
X77900D01*
Y39624D01*
D02*
G37*
G36*
X293307Y46292D02*
X291511Y46115D01*
X289784Y45592D01*
X288193Y44741D01*
X286798Y43596D01*
X285653Y42201D01*
X284802Y40609D01*
X284278Y38882D01*
X284101Y37087D01*
X284278Y35291D01*
X284802Y33564D01*
X285653Y31972D01*
X286798Y30577D01*
X288193Y29432D01*
X289784Y28582D01*
X291511Y28058D01*
X293307Y27881D01*
X295103Y28058D01*
X296830Y28582D01*
X298421Y29432D01*
X299816Y30577D01*
X300961Y31972D01*
X301812Y33564D01*
X302336Y35291D01*
X302513Y37087D01*
X302336Y38882D01*
X301812Y40609D01*
X300961Y42201D01*
X299816Y43596D01*
X298421Y44741D01*
X296830Y45592D01*
X295103Y46115D01*
X293307Y46292D01*
D02*
G37*
G36*
X194882D02*
X193086Y46115D01*
X191359Y45592D01*
X189767Y44741D01*
X188372Y43596D01*
X187227Y42201D01*
X186377Y40609D01*
X185853Y38882D01*
X185676Y37087D01*
X185853Y35291D01*
X186377Y33564D01*
X187227Y31972D01*
X188372Y30577D01*
X189767Y29432D01*
X191359Y28582D01*
X193086Y28058D01*
X194882Y27881D01*
X196678Y28058D01*
X198405Y28582D01*
X199996Y29432D01*
X201391Y30577D01*
X202536Y31972D01*
X203387Y33564D01*
X203911Y35291D01*
X204087Y37087D01*
X203911Y38882D01*
X203387Y40609D01*
X202536Y42201D01*
X201391Y43596D01*
X199996Y44741D01*
X198405Y45592D01*
X196678Y46115D01*
X194882Y46292D01*
D02*
G37*
G36*
X143701D02*
X141905Y46115D01*
X140178Y45592D01*
X138586Y44741D01*
X137191Y43596D01*
X136047Y42201D01*
X135196Y40609D01*
X134672Y38882D01*
X134495Y37087D01*
X134672Y35291D01*
X135196Y33564D01*
X136047Y31972D01*
X137191Y30577D01*
X138586Y29432D01*
X140178Y28582D01*
X141905Y28058D01*
X143701Y27881D01*
X145497Y28058D01*
X147224Y28582D01*
X148815Y29432D01*
X150210Y30577D01*
X151355Y31972D01*
X152206Y33564D01*
X152730Y35291D01*
X152907Y37087D01*
X152730Y38882D01*
X152206Y40609D01*
X151355Y42201D01*
X150210Y43596D01*
X148815Y44741D01*
X147224Y45592D01*
X145497Y46115D01*
X143701Y46292D01*
D02*
G37*
G36*
X45276D02*
X43480Y46115D01*
X41753Y45592D01*
X40161Y44741D01*
X38766Y43596D01*
X37621Y42201D01*
X36771Y40609D01*
X36247Y38882D01*
X36070Y37087D01*
X36247Y35291D01*
X36771Y33564D01*
X37621Y31972D01*
X38766Y30577D01*
X40161Y29432D01*
X41753Y28582D01*
X43480Y28058D01*
X45276Y27881D01*
X47072Y28058D01*
X48798Y28582D01*
X50390Y29432D01*
X51785Y30577D01*
X52930Y31972D01*
X53781Y33564D01*
X54304Y35291D01*
X54481Y37087D01*
X54304Y38882D01*
X53781Y40609D01*
X52930Y42201D01*
X51785Y43596D01*
X50390Y44741D01*
X48798Y45592D01*
X47072Y46115D01*
X45276Y46292D01*
D02*
G37*
G36*
X260453Y35177D02*
X259500Y35052D01*
X258612Y34684D01*
X257850Y34099D01*
X257265Y33336D01*
X256897Y32449D01*
X256772Y31496D01*
X256897Y30543D01*
X257265Y29656D01*
X257850Y28893D01*
X258612Y28308D01*
X259500Y27940D01*
X260453Y27815D01*
X261405Y27940D01*
X262293Y28308D01*
X263056Y28893D01*
X263641Y29656D01*
X264008Y30543D01*
X264134Y31496D01*
X264008Y32449D01*
X263641Y33336D01*
X263056Y34099D01*
X262293Y34684D01*
X261405Y35052D01*
X260453Y35177D01*
D02*
G37*
G36*
X249547D02*
X248594Y35052D01*
X247707Y34684D01*
X246944Y34099D01*
X246359Y33336D01*
X245991Y32449D01*
X245866Y31496D01*
X245991Y30543D01*
X246359Y29656D01*
X246944Y28893D01*
X247707Y28308D01*
X248594Y27940D01*
X249547Y27815D01*
X250500Y27940D01*
X251388Y28308D01*
X252150Y28893D01*
X252735Y29656D01*
X253103Y30543D01*
X253228Y31496D01*
X253103Y32449D01*
X252735Y33336D01*
X252150Y34099D01*
X251388Y34684D01*
X250500Y35052D01*
X249547Y35177D01*
D02*
G37*
G36*
X238642D02*
X237689Y35052D01*
X236801Y34684D01*
X236039Y34099D01*
X235454Y33336D01*
X235086Y32449D01*
X234961Y31496D01*
X235086Y30543D01*
X235454Y29656D01*
X236039Y28893D01*
X236801Y28308D01*
X237689Y27940D01*
X238642Y27815D01*
X239595Y27940D01*
X240482Y28308D01*
X241245Y28893D01*
X241830Y29656D01*
X242197Y30543D01*
X242323Y31496D01*
X242197Y32449D01*
X241830Y33336D01*
X241245Y34099D01*
X240482Y34684D01*
X239595Y35052D01*
X238642Y35177D01*
D02*
G37*
G36*
X227736D02*
X226783Y35052D01*
X225896Y34684D01*
X225133Y34099D01*
X224548Y33336D01*
X224181Y32449D01*
X224055Y31496D01*
X224181Y30543D01*
X224548Y29656D01*
X225133Y28893D01*
X225896Y28308D01*
X226783Y27940D01*
X227736Y27815D01*
X228689Y27940D01*
X229577Y28308D01*
X230339Y28893D01*
X230924Y29656D01*
X231292Y30543D01*
X231417Y31496D01*
X231292Y32449D01*
X230924Y33336D01*
X230339Y34099D01*
X229577Y34684D01*
X228689Y35052D01*
X227736Y35177D01*
D02*
G37*
G36*
X110846D02*
X109894Y35052D01*
X109006Y34684D01*
X108244Y34099D01*
X107659Y33336D01*
X107291Y32449D01*
X107165Y31496D01*
X107291Y30543D01*
X107659Y29656D01*
X108244Y28893D01*
X109006Y28308D01*
X109894Y27940D01*
X110846Y27815D01*
X111799Y27940D01*
X112687Y28308D01*
X113449Y28893D01*
X114034Y29656D01*
X114402Y30543D01*
X114527Y31496D01*
X114402Y32449D01*
X114034Y33336D01*
X113449Y34099D01*
X112687Y34684D01*
X111799Y35052D01*
X110846Y35177D01*
D02*
G37*
G36*
X99941D02*
X98988Y35052D01*
X98101Y34684D01*
X97338Y34099D01*
X96753Y33336D01*
X96385Y32449D01*
X96260Y31496D01*
X96385Y30543D01*
X96753Y29656D01*
X97338Y28893D01*
X98101Y28308D01*
X98988Y27940D01*
X99941Y27815D01*
X100894Y27940D01*
X101781Y28308D01*
X102544Y28893D01*
X103129Y29656D01*
X103497Y30543D01*
X103622Y31496D01*
X103497Y32449D01*
X103129Y33336D01*
X102544Y34099D01*
X101781Y34684D01*
X100894Y35052D01*
X99941Y35177D01*
D02*
G37*
G36*
X89035D02*
X88083Y35052D01*
X87195Y34684D01*
X86432Y34099D01*
X85848Y33336D01*
X85480Y32449D01*
X85354Y31496D01*
X85480Y30543D01*
X85848Y29656D01*
X86432Y28893D01*
X87195Y28308D01*
X88083Y27940D01*
X89035Y27815D01*
X89988Y27940D01*
X90876Y28308D01*
X91638Y28893D01*
X92223Y29656D01*
X92591Y30543D01*
X92716Y31496D01*
X92591Y32449D01*
X92223Y33336D01*
X91638Y34099D01*
X90876Y34684D01*
X89988Y35052D01*
X89035Y35177D01*
D02*
G37*
G36*
X80524Y37000D02*
X76276D01*
X76345Y36649D01*
X76828Y35928D01*
X77350Y35579D01*
X77228Y35058D01*
X77177Y35052D01*
X76289Y34684D01*
X75527Y34099D01*
X74942Y33336D01*
X74574Y32449D01*
X74449Y31496D01*
X74574Y30543D01*
X74942Y29656D01*
X75527Y28893D01*
X76289Y28308D01*
X77177Y27940D01*
X78130Y27815D01*
X79083Y27940D01*
X79971Y28308D01*
X80733Y28893D01*
X81318Y29656D01*
X81686Y30543D01*
X81811Y31496D01*
X81686Y32449D01*
X81318Y33336D01*
X80733Y34099D01*
X79971Y34684D01*
X79326Y34951D01*
X79289Y35198D01*
X79323Y35493D01*
X79972Y35928D01*
X80454Y36649D01*
X80524Y37000D01*
D02*
G37*
%LPD*%
G36*
X246893Y134539D02*
X246786Y134000D01*
X246916Y133344D01*
X247288Y132788D01*
X247844Y132416D01*
X248500Y132286D01*
X248973Y132380D01*
X255851Y125502D01*
Y121319D01*
X255900Y121074D01*
X255753Y120908D01*
X255494Y120743D01*
X255182Y120952D01*
X254831Y121022D01*
Y119398D01*
X256455D01*
X256385Y119749D01*
X256788Y120046D01*
X258311Y118523D01*
X258285Y118260D01*
X257874Y117856D01*
X257218Y117725D01*
X256662Y117354D01*
X256290Y116798D01*
X256160Y116142D01*
X256290Y115486D01*
X256662Y114930D01*
X257218Y114558D01*
X257874Y114428D01*
X258530Y114558D01*
X259086Y114930D01*
X259458Y115486D01*
X259588Y116142D01*
X260037Y116446D01*
X260300Y116394D01*
X260956Y116524D01*
X261512Y116896D01*
X261689Y117160D01*
X262189Y117008D01*
Y109360D01*
X255622Y102792D01*
X255143Y102937D01*
X255127Y103018D01*
X254798Y103510D01*
X254759Y103591D01*
X254859Y104106D01*
X255149Y104300D01*
X255521Y104856D01*
X255651Y105512D01*
X255521Y106168D01*
X255149Y106724D01*
X254593Y107095D01*
X253937Y107226D01*
X253464Y107132D01*
X251759Y108836D01*
X251924Y109379D01*
X252231Y109440D01*
X252787Y109812D01*
X253158Y110368D01*
X253289Y111024D01*
X253158Y111679D01*
X252787Y112236D01*
X252231Y112607D01*
X251575Y112738D01*
X250919Y112607D01*
X250363Y112236D01*
X249991Y111679D01*
X249930Y111372D01*
X249388Y111208D01*
X237581Y123014D01*
X237318Y123190D01*
X237008Y123252D01*
X236214D01*
X236181Y123312D01*
X236448Y123875D01*
X236656Y123916D01*
X237212Y124288D01*
X237584Y124844D01*
X237714Y125500D01*
X237620Y125973D01*
X246478Y134831D01*
X246893Y134539D01*
D02*
G37*
%LPC*%
G36*
X246500Y125714D02*
X245844Y125584D01*
X245288Y125212D01*
X244916Y124656D01*
X244786Y124000D01*
X244916Y123344D01*
X245288Y122788D01*
X245844Y122416D01*
X246500Y122286D01*
X247156Y122416D01*
X247712Y122788D01*
X248084Y123344D01*
X248214Y124000D01*
X248084Y124656D01*
X247712Y125212D01*
X247156Y125584D01*
X246500Y125714D01*
D02*
G37*
G36*
X253831Y121022D02*
X253480Y120952D01*
X252758Y120470D01*
X252276Y119749D01*
X252206Y119398D01*
X253831D01*
Y121022D01*
D02*
G37*
G36*
X256455Y118398D02*
X254831D01*
Y116773D01*
X255182Y116843D01*
X255903Y117325D01*
X256385Y118047D01*
X256455Y118398D01*
D02*
G37*
G36*
X253831D02*
X252206D01*
X252276Y118047D01*
X252758Y117325D01*
X253480Y116843D01*
X253831Y116773D01*
Y118398D01*
D02*
G37*
G36*
X250000Y117462D02*
X249344Y117332D01*
X248788Y116960D01*
X248416Y116404D01*
X248286Y115748D01*
X248416Y115092D01*
X248788Y114536D01*
X249344Y114164D01*
X250000Y114034D01*
X250656Y114164D01*
X251212Y114536D01*
X251584Y115092D01*
X251714Y115748D01*
X251584Y116404D01*
X251212Y116960D01*
X250656Y117332D01*
X250000Y117462D01*
D02*
G37*
%LPD*%
D10*
X316980Y152500D02*
X317319Y152839D01*
X317839D01*
X325210Y160210D01*
X342939D01*
X352487Y169758D01*
X306936Y154049D02*
X312561Y148423D01*
X315329D01*
X335500Y143000D02*
X349161Y156661D01*
X350661D02*
X351000Y157000D01*
X349161Y156661D02*
X350661D01*
X301371Y160672D02*
X306936Y155108D01*
X295669Y165354D02*
X300352Y160672D01*
X306936Y154049D02*
Y155108D01*
X300352Y160672D02*
X301371D01*
X208903Y197485D02*
X209449Y198032D01*
X206095Y197485D02*
X208903D01*
X234500Y186000D02*
X234591Y185909D01*
Y181944D02*
Y185909D01*
Y181944D02*
X241732Y174803D01*
X248500Y134000D02*
X256662Y125838D01*
Y121319D02*
Y125838D01*
X254724Y131102D02*
X257031Y133409D01*
X205110Y67303D02*
X225925D01*
X232979Y74357D02*
X235062D01*
X225925Y67303D02*
X232979Y74357D01*
X299500Y189500D02*
X307079Y181921D01*
Y180717D02*
Y181921D01*
Y180717D02*
X315756Y172039D01*
X286807Y154193D02*
X287000Y154000D01*
X286807Y154193D02*
Y168705D01*
X286614Y168898D02*
X286807Y168705D01*
X224500Y154500D02*
X224579D01*
X243709Y173630D01*
Y180646D01*
X227953Y175984D02*
Y186614D01*
X267000Y122500D02*
X269000Y124500D01*
Y133063D01*
X263000Y125500D02*
X264500Y127000D01*
X268654Y133409D02*
X269000Y133063D01*
X257031Y133409D02*
X268654D01*
X259873Y118108D02*
X260300D01*
X256662Y121319D02*
X259873Y118108D01*
X263000Y109024D02*
Y125500D01*
X251622Y97646D02*
X263000Y109024D01*
X250363Y97646D02*
X251622D01*
X244082Y91365D02*
X250363Y97646D01*
X244082Y83377D02*
Y91365D01*
X235062Y74357D02*
X244082Y83377D01*
X278732Y108653D02*
X281102Y111024D01*
X278732Y94299D02*
Y108653D01*
Y94299D02*
X278748Y94283D01*
Y87764D02*
Y94283D01*
X277500Y86516D02*
X278748Y87764D01*
X277500Y83500D02*
Y86516D01*
X241732Y182623D02*
X243709Y180646D01*
X300394Y167126D02*
X305906Y172638D01*
Y172835D01*
X259047Y174834D02*
X294000Y209787D01*
X295515D01*
X259047Y147547D02*
Y174834D01*
X248193Y136693D02*
X259047Y147547D01*
X241732Y182623D02*
Y189764D01*
X221809Y186534D02*
X224000Y184342D01*
X220159Y186534D02*
X221809D01*
X218307Y188386D02*
X220159Y186534D01*
X220470Y190549D02*
Y190968D01*
X218307Y188386D02*
X220470Y190549D01*
X213780Y192913D02*
X218307Y188386D01*
X213780Y192913D02*
Y192913D01*
X236000Y125500D02*
X247193Y136693D01*
X248193D01*
X234252Y122441D02*
X237008D01*
X227953Y124016D02*
X236220Y115748D01*
X227953Y124016D02*
Y124016D01*
X295515Y209787D02*
X330807Y245079D01*
X315756Y172039D02*
X328339D01*
X328346Y172047D01*
X300394Y166929D02*
Y167126D01*
X293701Y131496D02*
X304725D01*
X306693Y129528D01*
X296457Y142126D02*
X296908D01*
X209449Y198032D02*
X222047D01*
X227953Y186614D02*
X230315Y188976D01*
X236220Y115748D02*
Y115748D01*
X237008Y122441D02*
X253937Y105512D01*
X296908Y142126D02*
X298483Y140551D01*
X306693D01*
D61*
X94488Y42677D02*
D03*
X244094D02*
D03*
D69*
X146500Y115500D02*
D03*
X316980Y152500D02*
D03*
X315329Y148423D02*
D03*
X335500Y143000D02*
D03*
X302000Y208500D02*
D03*
X320100Y214300D02*
D03*
X204618Y186024D02*
D03*
X130315D02*
D03*
X268770Y162598D02*
D03*
X127000Y214500D02*
D03*
X238209Y111004D02*
D03*
X296457Y149606D02*
D03*
X270300Y176378D02*
D03*
X58661Y184252D02*
D03*
X128346Y148819D02*
D03*
X248425Y81890D02*
D03*
X144094Y108268D02*
D03*
X137402Y222441D02*
D03*
X191339Y135433D02*
D03*
X137008Y165354D02*
D03*
X192520Y144882D02*
D03*
X122835Y183465D02*
D03*
X307087Y135827D02*
D03*
X189764Y151969D02*
D03*
X206693Y122441D02*
D03*
X195669Y137008D02*
D03*
X200000Y136614D02*
D03*
X120472Y231496D02*
D03*
X332283Y182283D02*
D03*
X206693Y132213D02*
D03*
X142500Y123800D02*
D03*
X162787Y151287D02*
D03*
X156800Y128000D02*
D03*
X239800Y81890D02*
D03*
X213100Y111000D02*
D03*
X88100Y59800D02*
D03*
X237800D02*
D03*
X129000Y151600D02*
D03*
X45400Y165354D02*
D03*
X268770Y156299D02*
D03*
X162000Y139000D02*
D03*
X137008Y140945D02*
D03*
X110627Y187786D02*
D03*
X206095Y197485D02*
D03*
X234500Y186000D02*
D03*
X248500Y134000D02*
D03*
X254724Y131102D02*
D03*
X220700Y74003D02*
D03*
X233465Y67323D02*
D03*
X299500Y189500D02*
D03*
X193865Y154430D02*
D03*
X261024Y174016D02*
D03*
X192126Y166142D02*
D03*
X51575Y170079D02*
D03*
X347638Y252756D02*
D03*
X304331D02*
D03*
X219685Y201575D02*
D03*
X211811Y195669D02*
D03*
X230709Y89764D02*
D03*
X81102D02*
D03*
X302362Y129134D02*
D03*
X298425Y169291D02*
D03*
X133858Y133071D02*
D03*
X329921Y203937D02*
D03*
Y211417D02*
D03*
X245276Y103150D02*
D03*
X287402Y113386D02*
D03*
X337795Y68504D02*
D03*
X230709Y59843D02*
D03*
X81102D02*
D03*
X182677Y130709D02*
D03*
X191339Y127953D02*
D03*
X268898Y170079D02*
D03*
X245276Y111024D02*
D03*
X205906D02*
D03*
X186220Y144882D02*
D03*
X312992Y169291D02*
D03*
X122835Y190551D02*
D03*
X83858Y67323D02*
D03*
X208661Y115748D02*
D03*
X194488Y163386D02*
D03*
X195669Y133071D02*
D03*
X200000Y132677D02*
D03*
X262205Y169291D02*
D03*
X254331Y118898D02*
D03*
X203937Y182283D02*
D03*
X168898Y215748D02*
D03*
X292100Y167900D02*
D03*
X304600Y122100D02*
D03*
X206500Y106700D02*
D03*
X78400Y37500D02*
D03*
X183200Y127641D02*
D03*
X135400Y144500D02*
D03*
X109500Y166141D02*
D03*
X271300Y168800D02*
D03*
X295669Y165354D02*
D03*
X287000Y154000D02*
D03*
X224500Y154500D02*
D03*
X227953Y175984D02*
D03*
X265000Y128000D02*
D03*
X267000Y122500D02*
D03*
X260300Y118108D02*
D03*
X277500Y83500D02*
D03*
X273500Y97500D02*
D03*
X267913Y78740D02*
D03*
X241732Y174803D02*
D03*
X305906Y172835D02*
D03*
X224000Y184342D02*
D03*
X220470Y190968D02*
D03*
X213780Y192913D02*
D03*
X236000Y125500D02*
D03*
X234252Y122441D02*
D03*
X227953Y124016D02*
D03*
X330807Y245079D02*
D03*
X328346Y172047D02*
D03*
X352487Y169758D02*
D03*
X351000Y157000D02*
D03*
X300394Y166929D02*
D03*
X286614Y168898D02*
D03*
X306693Y129528D02*
D03*
X293701Y131496D02*
D03*
X205110Y67303D02*
D03*
X241732Y189764D02*
D03*
X222047Y198032D02*
D03*
X230315Y188976D02*
D03*
X236220Y115748D02*
D03*
X253937Y105512D02*
D03*
X296457Y142126D02*
D03*
X306693Y140551D02*
D03*
X281102Y111024D02*
D03*
D70*
X144693Y116881D02*
X146074Y115500D01*
X146500D01*
X142961Y116881D02*
X144693D01*
X142500Y117342D02*
X142961Y116881D01*
X323606Y210794D02*
X324183D01*
X320100Y214300D02*
X323606Y210794D01*
X324183D02*
X327388Y207589D01*
Y187179D02*
Y207589D01*
X132783Y193413D02*
Y217823D01*
X122835Y183465D02*
X132783Y193413D01*
X266823Y164546D02*
Y172901D01*
Y164546D02*
X268770Y162598D01*
X156800Y128000D02*
Y145300D01*
X162787Y151287D01*
X120472Y221028D02*
Y231496D01*
Y221028D02*
X127000Y214500D01*
X239800Y81890D02*
Y109255D01*
X238209Y110846D02*
Y111004D01*
Y110846D02*
X239800Y109255D01*
X300115Y145948D02*
X305411D01*
X296457Y149606D02*
X300115Y145948D01*
X266823Y172901D02*
X270300Y176378D01*
X128648Y149120D02*
Y150822D01*
X307087Y135827D02*
X308768Y137508D01*
X189764Y147638D02*
X192520Y144882D01*
X189764Y147638D02*
Y151969D01*
X88100Y49065D02*
Y59144D01*
X327388Y187179D02*
X332283Y182283D01*
X128346Y148819D02*
X128648Y149120D01*
X308768Y137508D02*
Y142592D01*
X237800Y48972D02*
X244094Y42677D01*
X142500Y110014D02*
X144094Y108420D01*
X203473Y135433D02*
X206693Y132213D01*
X142500Y117342D02*
Y123800D01*
X237008Y59843D02*
X248425Y71260D01*
X128346Y151600D02*
X128699Y151248D01*
X87402Y59843D02*
X88100Y59144D01*
Y49065D02*
X94488Y42677D01*
X129000Y157347D02*
X137008Y165354D01*
X237800Y48972D02*
Y59800D01*
X128346Y151600D02*
X129000Y152254D01*
X45400Y165354D02*
Y170991D01*
X58661Y184252D01*
X128699Y150873D02*
Y151248D01*
X305411Y145948D02*
X308768Y142592D01*
X206693Y122441D02*
X212205Y116929D01*
Y111024D02*
Y116929D01*
X129000Y152254D02*
Y157347D01*
X144094Y108268D02*
Y108420D01*
X191339Y135433D02*
X203473D01*
X248425Y71260D02*
Y81890D01*
X142500Y110014D02*
Y117342D01*
X128648Y150822D02*
X128699Y150873D01*
X132783Y217823D02*
X137402Y222441D01*
D71*
X203937Y182390D02*
X204543Y182996D01*
Y185948D02*
X204618Y186024D01*
X204543Y182996D02*
Y185948D01*
X268770Y156299D02*
X268877D01*
X271352Y158172D02*
X272744Y159564D01*
X268877Y156299D02*
X270749Y158172D01*
X272744Y159564D02*
Y167249D01*
X270749Y158172D02*
X271352D01*
X133858Y133071D02*
Y137795D01*
X137008Y140945D01*
X203937Y182283D02*
Y182390D01*
X220700Y74003D02*
Y79755D01*
X233465Y67216D02*
Y67323D01*
X230709Y64460D02*
X233465Y67216D01*
X230709Y59843D02*
Y64460D01*
X287402Y113386D02*
X291655D01*
X302362Y124093D02*
Y129134D01*
X291655Y113386D02*
X302362Y124093D01*
X261099Y170504D02*
Y173941D01*
Y170504D02*
X262205Y169398D01*
X261024Y174016D02*
X261099Y173941D01*
X262205Y169291D02*
Y169398D01*
X208586Y113811D02*
Y115673D01*
X205906Y111130D02*
X208586Y113811D01*
X271300Y168693D02*
X272744Y167249D01*
X329921Y203937D02*
Y211417D01*
X78400Y37500D02*
Y86955D01*
X245276Y103150D02*
Y111024D01*
X81102Y89657D02*
Y89764D01*
X271300Y168693D02*
Y168800D01*
X186220Y130661D02*
Y144882D01*
X183200Y127641D02*
X186220Y130661D01*
X220700Y79755D02*
X230709Y89764D01*
X208586Y115673D02*
X208661Y115748D01*
X78400Y86955D02*
X81102Y89657D01*
X205906Y111024D02*
Y111130D01*
X273138Y97138D02*
X273500Y97500D01*
X273138Y83965D02*
Y97138D01*
X267913Y78740D02*
X273138Y83965D01*
M02*
