G04*
G04 #@! TF.GenerationSoftware,Altium Limited,Altium Designer,26.9.1 (10)*
G04*
G04 Layer_Color=16711935*
G04 Board_Origin=0|0*
%FSLAX25Y25*%
%MOIN*%
G70*
G04*
G04 #@! TF.SameCoordinates,562DED8C-2AFF-4B73-B5E2-3D2E9E186A84*
G04*
G04*
G04 #@! TF.FilePolarity,Negative*
G04*
G01*
G75*
%ADD60C,0.17323*%
%ADD61C,0.06299*%
%ADD62O,0.07087X0.03937*%
%ADD63O,0.08268X0.03937*%
%ADD64C,0.03898*%
%ADD65C,0.13583*%
%ADD66C,0.09409*%
%ADD67C,0.02559*%
%ADD68C,0.12598*%
%ADD69C,0.02362*%
%ADD74R,0.29528X0.25591*%
D60*
X143701Y37087D02*
D03*
X45276D02*
D03*
X293307D02*
D03*
X194882D02*
D03*
D61*
X78130Y31496D02*
D03*
X116299Y42677D02*
D03*
X94488D02*
D03*
X227736Y31496D02*
D03*
X265906Y42677D02*
D03*
X244094D02*
D03*
X222283D02*
D03*
X233189D02*
D03*
X255000D02*
D03*
X238642Y31496D02*
D03*
X249547D02*
D03*
X260453D02*
D03*
X72677Y42677D02*
D03*
X83583D02*
D03*
X105394D02*
D03*
X89035Y31496D02*
D03*
X99941D02*
D03*
X110846D02*
D03*
D62*
X384252Y103622D02*
D03*
Y69606D02*
D03*
D63*
X367795Y103622D02*
D03*
Y69606D02*
D03*
D64*
X192165Y212535D02*
D03*
Y220535D02*
D03*
X162165Y216535D02*
D03*
D65*
X68425Y188976D02*
D03*
X285906Y125984D02*
D03*
D66*
X319409Y188976D02*
D03*
D67*
X369764Y75236D02*
D03*
Y97992D02*
D03*
D68*
X377953Y244094D02*
D03*
X15748D02*
D03*
X377953Y15748D02*
D03*
X15748D02*
D03*
D69*
X146500Y115500D02*
D03*
X146000Y123000D02*
D03*
X314000Y208000D02*
D03*
X323456Y214456D02*
D03*
X325591Y162186D02*
D03*
X316980Y152500D02*
D03*
X315442Y154913D02*
D03*
X313319Y150461D02*
D03*
X315329Y148423D02*
D03*
X335500Y143000D02*
D03*
X339580Y139947D02*
D03*
X360496Y85039D02*
D03*
X302000Y208500D02*
D03*
X317116Y207662D02*
D03*
X322835Y205390D02*
D03*
X320100Y214300D02*
D03*
X204618Y186024D02*
D03*
X130315D02*
D03*
X136220Y189976D02*
D03*
X187402Y183071D02*
D03*
X268770Y162598D02*
D03*
X127000Y214500D02*
D03*
X296457Y216535D02*
D03*
X311000Y220000D02*
D03*
X204000Y194000D02*
D03*
X270472Y90945D02*
D03*
X238209Y111004D02*
D03*
X253002Y169498D02*
D03*
X190500Y205500D02*
D03*
X204000Y158000D02*
D03*
X296457Y149606D02*
D03*
X270300Y176378D02*
D03*
X192126Y172441D02*
D03*
X212205Y188189D02*
D03*
X315900Y181100D02*
D03*
X58661Y184252D02*
D03*
X340157Y253937D02*
D03*
X296850D02*
D03*
X161811Y245276D02*
D03*
X321260Y174016D02*
D03*
X365748Y125984D02*
D03*
X374409Y111024D02*
D03*
X172441Y158661D02*
D03*
X184646Y166142D02*
D03*
X227559Y194094D02*
D03*
X219685D02*
D03*
X128346Y148819D02*
D03*
X311417Y196063D02*
D03*
X66535Y149606D02*
D03*
X275984Y125197D02*
D03*
X293701Y105512D02*
D03*
X251181Y95669D02*
D03*
X248819Y67717D02*
D03*
X248425Y81890D02*
D03*
X338976Y90551D02*
D03*
X317323Y93701D02*
D03*
X282677D02*
D03*
X130315Y194094D02*
D03*
X144094Y108268D02*
D03*
X151181Y222441D02*
D03*
X137402D02*
D03*
X203937Y77165D02*
D03*
X182677Y137008D02*
D03*
X191339Y135433D02*
D03*
X251575Y111024D02*
D03*
X137008Y123622D02*
D03*
Y165354D02*
D03*
X192520Y144882D02*
D03*
X137008Y148425D02*
D03*
X160630Y155512D02*
D03*
X277559Y78740D02*
D03*
X261024Y92126D02*
D03*
X329921Y61024D02*
D03*
X310236D02*
D03*
X350787Y90945D02*
D03*
X269291Y248032D02*
D03*
X122835Y183465D02*
D03*
Y194488D02*
D03*
X320079Y202756D02*
D03*
X74803Y143701D02*
D03*
X146850Y120079D02*
D03*
X145276Y145669D02*
D03*
X307087Y135827D02*
D03*
X268110Y85827D02*
D03*
X308661Y86220D02*
D03*
X319291Y78740D02*
D03*
X295669Y94882D02*
D03*
X260236Y69291D02*
D03*
X212205Y77165D02*
D03*
X110630Y69291D02*
D03*
X62598Y77165D02*
D03*
X189764Y151969D02*
D03*
X181102Y159055D02*
D03*
X206693Y122441D02*
D03*
X195669Y137008D02*
D03*
X200000Y136614D02*
D03*
X250000Y115748D02*
D03*
X333071Y227559D02*
D03*
X364567D02*
D03*
X289764D02*
D03*
X321260D02*
D03*
X77165Y228346D02*
D03*
X179134Y215354D02*
D03*
X174016Y220079D02*
D03*
X38976Y165354D02*
D03*
X16535Y190551D02*
D03*
X4331Y155906D02*
D03*
X144882Y242126D02*
D03*
X120472Y231496D02*
D03*
X151969D02*
D03*
X373622Y138583D02*
D03*
X349213D02*
D03*
X389370Y139764D02*
D03*
X332283Y182283D02*
D03*
X389370Y194094D02*
D03*
X362992Y74016D02*
D03*
X206693Y132213D02*
D03*
X142500Y123800D02*
D03*
X162787Y151287D02*
D03*
X156800Y128000D02*
D03*
X353100Y77900D02*
D03*
X347100Y86600D02*
D03*
X245500Y95669D02*
D03*
X239800Y81890D02*
D03*
X114200Y239500D02*
D03*
X213100Y111000D02*
D03*
X204400Y87800D02*
D03*
X88100Y59800D02*
D03*
X337500Y94400D02*
D03*
X237800Y59800D02*
D03*
X137000Y168700D02*
D03*
X117600Y178700D02*
D03*
X129000Y151600D02*
D03*
X69500Y137700D02*
D03*
X268500Y99000D02*
D03*
X305200Y93701D02*
D03*
X296700Y104200D02*
D03*
X45400Y165354D02*
D03*
X148819Y236700D02*
D03*
X132900Y227239D02*
D03*
X166631Y224570D02*
D03*
X153400D02*
D03*
X145866Y245276D02*
D03*
X367700Y166900D02*
D03*
X325000Y227362D02*
D03*
X282700Y256900D02*
D03*
Y227362D02*
D03*
X183465Y175591D02*
D03*
X303738Y155510D02*
D03*
X268770Y156299D02*
D03*
X228000Y170000D02*
D03*
X162000Y139000D02*
D03*
X143500D02*
D03*
X142218Y130782D02*
D03*
X137008Y140945D02*
D03*
X100024Y204800D02*
D03*
X118000Y200000D02*
D03*
X110627Y187786D02*
D03*
X112000Y201500D02*
D03*
X192000Y179500D02*
D03*
X333071Y205228D02*
D03*
X206095Y197485D02*
D03*
X243744Y185729D02*
D03*
X246500Y186500D02*
D03*
X234500Y186000D02*
D03*
X246500Y124000D02*
D03*
X248500Y134000D02*
D03*
X254724Y131102D02*
D03*
X341500Y83000D02*
D03*
X334646Y79535D02*
D03*
X357500Y93000D02*
D03*
X360500Y104500D02*
D03*
X321500Y118500D02*
D03*
X338500Y110000D02*
D03*
X49000Y147500D02*
D03*
X80500Y156000D02*
D03*
X86614Y159457D02*
D03*
X113524Y157500D02*
D03*
X115500Y146000D02*
D03*
X110100Y154195D02*
D03*
X224500Y77500D02*
D03*
X220700Y74003D02*
D03*
X233465Y67323D02*
D03*
X237000Y72500D02*
D03*
X293000Y69500D02*
D03*
X252500Y174000D02*
D03*
X299500Y189500D02*
D03*
X205524Y167000D02*
D03*
X193865Y154430D02*
D03*
X261024Y174016D02*
D03*
X192126Y166142D02*
D03*
X51575Y170079D02*
D03*
X347638Y252756D02*
D03*
X304331D02*
D03*
X219685Y201575D02*
D03*
X211811Y195669D02*
D03*
X230709Y89764D02*
D03*
X81102D02*
D03*
X302362Y129134D02*
D03*
X298425Y169291D02*
D03*
X133858Y133071D02*
D03*
X329921Y203937D02*
D03*
Y211417D02*
D03*
X245276Y103150D02*
D03*
X287402Y113386D02*
D03*
X337795Y68504D02*
D03*
X230709Y59843D02*
D03*
X81102D02*
D03*
X182677Y130709D02*
D03*
X191339Y127953D02*
D03*
X268898Y170079D02*
D03*
X245276Y111024D02*
D03*
X205906D02*
D03*
X186220Y144882D02*
D03*
X312992Y169291D02*
D03*
X122835Y190551D02*
D03*
X83858Y67323D02*
D03*
X208661Y115748D02*
D03*
X194488Y163386D02*
D03*
X195669Y133071D02*
D03*
X200000Y132677D02*
D03*
X262205Y169291D02*
D03*
X254331Y118898D02*
D03*
X203937Y182283D02*
D03*
X168898Y215748D02*
D03*
X292100Y167900D02*
D03*
X304600Y122100D02*
D03*
X206500Y106700D02*
D03*
X78400Y37500D02*
D03*
X183200Y127641D02*
D03*
X135400Y144500D02*
D03*
X109500Y166141D02*
D03*
X271300Y168800D02*
D03*
X251181Y185827D02*
D03*
X248032Y188976D02*
D03*
X23500Y157500D02*
D03*
X295669Y165354D02*
D03*
X313500Y137000D02*
D03*
X287000Y154000D02*
D03*
X263500Y157500D02*
D03*
X263000Y164000D02*
D03*
X224500Y154500D02*
D03*
X204000Y141500D02*
D03*
X251000Y203000D02*
D03*
X253500Y195000D02*
D03*
X238000Y175500D02*
D03*
X227953Y175984D02*
D03*
X218504Y176793D02*
D03*
X265000Y128000D02*
D03*
X267000Y122500D02*
D03*
X260300Y118108D02*
D03*
X259843Y120933D02*
D03*
X253543Y102362D02*
D03*
X277500Y83500D02*
D03*
X273500Y97500D02*
D03*
X267913Y78740D02*
D03*
X294500Y120000D02*
D03*
X284298Y170579D02*
D03*
X241732Y174803D02*
D03*
X271654Y171654D02*
D03*
X305906Y172835D02*
D03*
X247638Y192520D02*
D03*
X212591Y176782D02*
D03*
X208500Y164500D02*
D03*
X214567Y161433D02*
D03*
X217717D02*
D03*
X221654D02*
D03*
X181102Y173228D02*
D03*
X224000Y184342D02*
D03*
X220470Y190968D02*
D03*
X213780Y192913D02*
D03*
X236000Y125500D02*
D03*
X234252Y122441D02*
D03*
X227953Y124016D02*
D03*
X330807Y245079D02*
D03*
X323622Y176378D02*
D03*
X328346D02*
D03*
X253937Y183465D02*
D03*
X328346Y172047D02*
D03*
X352487Y169758D02*
D03*
X316929Y164961D02*
D03*
Y159449D02*
D03*
X284646Y175591D02*
D03*
X309055Y181890D02*
D03*
X351000Y157000D02*
D03*
X300394Y166929D02*
D03*
X330315Y138976D02*
D03*
X317323Y137402D02*
D03*
X286614Y168898D02*
D03*
X325500Y141500D02*
D03*
X306693Y129528D02*
D03*
X293701Y131496D02*
D03*
X205110Y67303D02*
D03*
X112500Y204800D02*
D03*
X258050Y200250D02*
D03*
X137795Y112598D02*
D03*
X220866Y96457D02*
D03*
X233465Y85433D02*
D03*
X297244Y111024D02*
D03*
X241732Y189764D02*
D03*
X155118Y84646D02*
D03*
X222047Y198032D02*
D03*
X230315Y188976D02*
D03*
X130315Y116929D02*
D03*
X81890Y82677D02*
D03*
X83858Y88189D02*
D03*
X71654Y146850D02*
D03*
X176772Y200000D02*
D03*
X263386Y205512D02*
D03*
X238583Y201575D02*
D03*
X260630Y202756D02*
D03*
X232283Y201575D02*
D03*
X185039Y223622D02*
D03*
X236220Y115748D02*
D03*
X135433Y231102D02*
D03*
X173228Y171260D02*
D03*
X136220Y207087D02*
D03*
X130709D02*
D03*
Y214173D02*
D03*
X136220Y211417D02*
D03*
X176378Y171260D02*
D03*
X202362Y146457D02*
D03*
X204331Y148819D02*
D03*
X172047D02*
D03*
X333071Y210630D02*
D03*
X123228Y197638D02*
D03*
X253937Y105512D02*
D03*
X312992Y70079D02*
D03*
X240157Y115748D02*
D03*
X207874Y102362D02*
D03*
X220472Y89764D02*
D03*
X296457Y142126D02*
D03*
X306693Y140551D02*
D03*
X210630Y184252D02*
D03*
X232283Y115748D02*
D03*
X304724Y143701D02*
D03*
Y149213D02*
D03*
X281102Y111024D02*
D03*
X234252Y96850D02*
D03*
X321260Y97244D02*
D03*
X330315Y89764D02*
D03*
X257874Y116142D02*
D03*
X242126Y96850D02*
D03*
X275984Y87795D02*
D03*
X241732Y61417D02*
D03*
X300394Y78346D02*
D03*
X282677Y87402D02*
D03*
X276772Y92126D02*
D03*
X280709Y100000D02*
D03*
X70472Y151575D02*
D03*
X259055Y88583D02*
D03*
X251575D02*
D03*
X268110Y104724D02*
D03*
X262598D02*
D03*
X139370Y151969D02*
D03*
X136220Y155118D02*
D03*
D74*
X20906Y157480D02*
D03*
X333425D02*
D03*
M02*
