G04*
G04 #@! TF.GenerationSoftware,Altium Limited,Altium Designer,26.9.1 (10)*
G04*
G04 Layer_Color=65535*
G04 Board_Origin=0|0*
%FSLAX25Y25*%
%MOIN*%
G70*
G04*
G04 #@! TF.SameCoordinates,562DED8C-2AFF-4B73-B5E2-3D2E9E186A84*
G04*
G04*
G04 #@! TF.FilePolarity,Positive*
G04*
G01*
G75*
%ADD10C,0.00591*%
D10*
X179331Y180906D02*
X184843D01*
X179331Y185236D02*
X184843D01*
X164173Y211220D02*
X165354D01*
X328937Y128740D02*
X334449D01*
X328937Y133071D02*
X334449D01*
X333071Y136614D02*
X393701D01*
X333071D02*
Y194094D01*
X393701D01*
Y136614D02*
Y194094D01*
X50394Y186220D02*
X55906D01*
X50394Y181890D02*
X55906D01*
X47047Y170472D02*
Y175984D01*
X51378Y170472D02*
Y175984D01*
X251772Y248228D02*
Y253740D01*
X256102Y248228D02*
Y253740D01*
X331890Y256102D02*
X337402D01*
X331890Y251772D02*
X337402D01*
X345669Y255118D02*
X351181D01*
X345669Y250787D02*
X351181D01*
X288583Y256102D02*
X294094D01*
X288583Y251772D02*
X294094D01*
X302362Y255118D02*
X307874D01*
X302362Y250787D02*
X307874D01*
X217717Y203937D02*
X223228D01*
X217717Y199606D02*
X223228D01*
X207480Y196063D02*
Y201575D01*
X211811Y196063D02*
Y201575D01*
X106102Y188189D02*
Y193701D01*
X110433Y188189D02*
Y193701D01*
X157283Y239370D02*
Y244882D01*
X161614Y239370D02*
Y244882D01*
X118898Y216732D02*
Y222244D01*
X123228Y216732D02*
Y222244D01*
X228543Y91732D02*
X234055D01*
X228543Y87402D02*
X234055D01*
X78937Y91732D02*
X84449D01*
X78937Y87402D02*
X84449D01*
X300394Y131102D02*
X305906D01*
X300394Y126772D02*
X305906D01*
X285236Y180315D02*
Y185827D01*
X289567Y180315D02*
Y185827D01*
X293110Y184252D02*
Y189764D01*
X297441Y184252D02*
Y189764D01*
X286220Y164567D02*
Y170079D01*
X290551Y164567D02*
Y170079D01*
X303346Y188189D02*
X308858D01*
X303346Y183858D02*
X308858D01*
X319685Y144882D02*
Y150394D01*
X324016Y144882D02*
Y150394D01*
X316142Y160630D02*
X321654D01*
X316142Y156299D02*
X321654D01*
X315846Y166732D02*
Y173819D01*
X321949Y166732D02*
Y173819D01*
X294094Y169488D02*
Y175000D01*
X298425Y169488D02*
Y175000D01*
X357480Y128150D02*
X362992D01*
X357480Y123819D02*
X362992D01*
X355118Y112402D02*
Y117913D01*
X359449Y112402D02*
Y117913D01*
X366339Y113386D02*
X371850D01*
X366339Y109055D02*
X371850D01*
X356102Y78937D02*
Y84449D01*
X360433Y78937D02*
Y84449D01*
X168110Y152756D02*
Y158268D01*
X172441Y152756D02*
Y158268D01*
X176378Y168504D02*
X181890D01*
X176378Y164173D02*
X181890D01*
X223228Y188189D02*
Y193701D01*
X227559Y188189D02*
Y193701D01*
X215354Y188189D02*
Y193701D01*
X219685Y188189D02*
Y193701D01*
X233071Y105512D02*
Y111024D01*
X237402Y105512D02*
Y111024D01*
X123819Y142913D02*
Y148425D01*
X128150Y142913D02*
Y148425D01*
X132087Y135039D02*
X137598D01*
X132087Y130709D02*
X137598D01*
X327953Y205906D02*
X333465D01*
X327953Y201575D02*
X333465D01*
X292126Y210827D02*
Y216339D01*
X296457Y210827D02*
Y216339D01*
X325591Y211811D02*
Y217323D01*
X329921Y211811D02*
Y217323D01*
X303346Y198031D02*
X308858D01*
X303346Y193701D02*
X308858D01*
X58268Y151772D02*
X63780D01*
X58268Y147441D02*
X63780D01*
X95669Y148819D02*
X101181D01*
X95669Y144488D02*
X101181D01*
X273425Y164567D02*
Y170079D01*
X277756Y164567D02*
Y170079D01*
X299606Y162500D02*
X306693D01*
X299606Y156398D02*
X306693D01*
X271457Y119291D02*
Y124803D01*
X275787Y119291D02*
Y124803D01*
X305315Y152756D02*
X310827D01*
X305315Y148425D02*
X310827D01*
X243307Y105512D02*
X248819D01*
X243307Y101181D02*
X248819D01*
X285630Y115354D02*
X291142D01*
X285630Y111024D02*
X291142D01*
X285630Y107480D02*
X291142D01*
X285630Y103150D02*
X291142D01*
X246850Y89764D02*
Y95276D01*
X251181Y89764D02*
Y95276D01*
X240354Y70079D02*
X245866D01*
X240354Y65748D02*
X245866D01*
X243898Y75984D02*
Y81496D01*
X248228Y75984D02*
Y81496D01*
X254134Y78937D02*
X259646D01*
X254134Y74606D02*
X259646D01*
X333465Y69094D02*
Y74606D01*
X337795Y69094D02*
Y74606D01*
X288780Y137795D02*
Y149606D01*
X299803Y137795D02*
Y149606D01*
X350197Y98622D02*
Y104134D01*
X354528Y98622D02*
Y104134D01*
X314173Y131102D02*
X319685D01*
X314173Y126772D02*
X319685D01*
X338780Y100591D02*
X344291D01*
X338780Y96260D02*
X344291D01*
X334449Y84843D02*
Y90354D01*
X338780Y84843D02*
Y90354D01*
X300984Y109449D02*
Y114961D01*
X305315Y109449D02*
Y114961D01*
X323031Y95669D02*
X328543D01*
X323031Y91339D02*
X328543D01*
X309252Y95669D02*
X314764D01*
X309252Y91339D02*
X314764D01*
X278346Y87795D02*
Y93307D01*
X282677Y87795D02*
Y93307D01*
X268898Y57283D02*
X274409D01*
X268898Y52953D02*
X274409D01*
X125787Y188189D02*
Y193701D01*
X130118Y188189D02*
Y193701D01*
X136024Y110433D02*
X141535D01*
X136024Y106102D02*
X141535D01*
X142913Y224606D02*
X148425D01*
X142913Y220276D02*
X148425D01*
X228543Y62205D02*
X234055D01*
X228543Y57874D02*
X234055D01*
X129134Y224606D02*
X134646D01*
X129134Y220276D02*
X134646D01*
X78937Y62205D02*
X84449D01*
X78937Y57874D02*
X84449D01*
X199606Y71063D02*
Y76575D01*
X203937Y71063D02*
Y76575D01*
X187795Y166535D02*
Y172047D01*
X192126Y166535D02*
Y172047D01*
X177953Y131102D02*
Y136614D01*
X182283Y131102D02*
Y136614D01*
X185925Y128346D02*
Y135433D01*
X192028Y128346D02*
Y135433D01*
X265551Y156693D02*
Y162205D01*
X269882Y156693D02*
Y162205D01*
X203937Y190157D02*
X209449D01*
X203937Y185827D02*
X209449D01*
X264567Y170472D02*
Y175984D01*
X268898Y170472D02*
Y175984D01*
X243307Y113386D02*
X248819D01*
X243307Y109055D02*
X248819D01*
X203937Y113386D02*
X209449D01*
X203937Y109055D02*
X209449D01*
X48130Y70276D02*
Y77362D01*
X54232Y70276D02*
Y77362D01*
X131791Y116535D02*
Y123622D01*
X137894Y116535D02*
Y123622D01*
X131791Y157874D02*
Y164961D01*
X137894Y157874D02*
Y164961D01*
X184252Y146850D02*
X189764D01*
X184252Y142520D02*
X189764D01*
X131791Y141142D02*
Y148228D01*
X137894Y141142D02*
Y148228D01*
X146063Y131004D02*
X153150D01*
X146063Y124902D02*
X153150D01*
X300000Y208858D02*
Y214370D01*
X304331Y208858D02*
Y214370D01*
X152953Y143701D02*
Y155512D01*
X163976Y143701D02*
Y155512D01*
X268110Y81791D02*
X275197D01*
X268110Y75689D02*
X275197D01*
X255807Y85039D02*
Y92126D01*
X261909Y85039D02*
Y92126D01*
X315945Y66535D02*
X327756D01*
X315945Y55512D02*
X327756D01*
X296260Y66535D02*
X308071D01*
X296260Y55512D02*
X308071D01*
X343898Y85433D02*
Y87795D01*
X352953Y85433D02*
Y87795D01*
X301181Y172047D02*
Y174409D01*
X312992Y172047D02*
Y174409D01*
X301181Y175984D02*
X304724D01*
X309449D02*
X312992D01*
X261024Y250197D02*
X266535D01*
X261024Y245866D02*
X266535D01*
X269488Y246161D02*
Y249902D01*
X112598Y193701D02*
Y196457D01*
X307283Y216339D02*
X309055D01*
X320866D02*
X322638D01*
Y214567D02*
Y216339D01*
X307283Y200984D02*
X309055D01*
X307283D02*
Y202756D01*
X320866Y200984D02*
X322638D01*
Y202756D01*
X306299Y211811D02*
Y213386D01*
X75591Y153543D02*
X77953D01*
X75591Y141732D02*
X77953D01*
X79528Y150000D02*
Y153543D01*
Y141732D02*
Y145276D01*
X75591Y135827D02*
X77953D01*
X75591Y124016D02*
X77953D01*
X79528Y132283D02*
Y135827D01*
Y124016D02*
Y127559D01*
X56102Y145276D02*
X62008D01*
X56102Y138189D02*
X62008D01*
X54724Y145079D02*
X55512D01*
X158858Y113583D02*
Y122638D01*
X167913Y113583D02*
Y122638D01*
X141732D02*
X149606D01*
X141732Y113583D02*
X149606D01*
X140354Y122047D02*
X141142D01*
X142126Y169094D02*
X149213D01*
X142126Y161614D02*
X149213D01*
X141732Y152165D02*
X149606D01*
X141732Y139173D02*
X149606D01*
X139961Y149606D02*
Y150787D01*
X307874Y145669D02*
X310236D01*
X307874Y133858D02*
X310236D01*
X311811Y142126D02*
Y145669D01*
Y133858D02*
Y137402D01*
X272441Y114173D02*
X274803D01*
X272441Y102362D02*
X274803D01*
X276378Y110630D02*
Y114173D01*
Y102362D02*
Y105906D01*
X253937Y101575D02*
Y111024D01*
X261811Y101575D02*
Y111024D01*
X255512Y97244D02*
X260236D01*
X342520Y113386D02*
Y122835D01*
X350394Y113386D02*
Y122835D01*
X344094Y109055D02*
X348819D01*
X272835Y147638D02*
X282283D01*
X272835Y139764D02*
X282283D01*
X268504Y141339D02*
Y146063D01*
X265748Y93110D02*
X273622D01*
X265748Y84055D02*
X273622D01*
X264370Y92913D02*
X265157D01*
X309449Y124606D02*
X332283D01*
X309449Y99803D02*
X332283D01*
X309843Y68701D02*
X324016D01*
Y88780D01*
X309843D02*
X324016D01*
X309843Y68701D02*
Y88780D01*
X302756D02*
X309449D01*
X285630Y78543D02*
Y94685D01*
X300984Y78543D02*
Y94685D01*
X287992Y72638D02*
X298622D01*
X272441Y70472D02*
X286614D01*
X272441Y59449D02*
X286614D01*
X267126Y60827D02*
Y69094D01*
X122835Y70472D02*
X137008D01*
X122835Y59449D02*
X137008D01*
X117520Y60827D02*
Y69094D01*
X251969Y63780D02*
Y66142D01*
X263780Y63780D02*
Y66142D01*
X251969Y67717D02*
X255512D01*
X260236D02*
X263780D01*
X213386Y64764D02*
X227559D01*
Y84843D01*
X213386D02*
X227559D01*
X213386Y64764D02*
Y84843D01*
X206299D02*
X212992D01*
X102362Y63780D02*
Y66142D01*
X114173Y63780D02*
Y66142D01*
X102362Y67717D02*
X105906D01*
X110630D02*
X114173D01*
X63780Y64764D02*
X77953D01*
Y84843D01*
X63780D02*
X77953D01*
X63780Y64764D02*
Y84843D01*
X56693D02*
X63386D01*
X175197Y149213D02*
Y161811D01*
X182283D02*
X183858D01*
X182283Y149213D02*
X183858D01*
X200394Y121654D02*
X256299D01*
Y177559D01*
X200394D02*
X256299D01*
X200394Y121654D02*
Y177559D01*
Y175591D02*
X202362Y177559D01*
X194488Y170472D02*
Y175984D01*
X334646Y224409D02*
X358268D01*
Y248031D01*
X334646D02*
X358268D01*
X334646Y224409D02*
Y248031D01*
X291339Y224409D02*
X314961D01*
Y248031D01*
X291339D02*
X314961D01*
X291339Y224409D02*
Y248031D01*
X48819Y254331D02*
X100787D01*
X48819Y202362D02*
X100787D01*
X6693Y157677D02*
Y188780D01*
Y157677D02*
X29528D01*
Y188780D01*
X6693D02*
X29528D01*
X42126Y184646D02*
X44882D01*
X115945Y225591D02*
X151772D01*
X122441Y244094D02*
Y245669D01*
X393701Y69016D02*
Y104213D01*
X388681Y69016D02*
X393701D01*
X388681Y104213D02*
X393701D01*
X183465Y0D02*
X304724D01*
X183465D02*
Y48898D01*
X304724Y0D02*
Y48898D01*
X183465D02*
X304724D01*
X33858Y0D02*
X155118D01*
X33858D02*
Y48898D01*
X155118Y0D02*
Y48898D01*
X33858D02*
X155118D01*
M02*
