G04*
G04 #@! TF.GenerationSoftware,Altium Limited,Altium Designer,26.9.1 (10)*
G04*
G04 Layer_Color=8421504*
G04 Board_Origin=0|0*
%FSLAX25Y25*%
%MOIN*%
G70*
G04*
G04 #@! TF.SameCoordinates,562DED8C-2AFF-4B73-B5E2-3D2E9E186A84*
G04*
G04*
G04 #@! TF.FilePolarity,Positive*
G04*
G01*
G75*
%ADD11R,0.03543X0.03740*%
%ADD12R,0.04724X0.01181*%
%ADD13R,0.04528X0.02362*%
%ADD14R,0.07480X0.05118*%
%ADD15R,0.04724X0.03937*%
%ADD16R,0.11024X0.03937*%
%ADD17R,0.03150X0.03937*%
%ADD18R,0.04724X0.02756*%
%ADD19R,0.07874X0.07087*%
%ADD20R,0.01181X0.05118*%
G04:AMPARAMS|DCode=21|XSize=59.06mil|YSize=133.86mil|CornerRadius=14.76mil|HoleSize=0mil|Usage=FLASHONLY|Rotation=270.000|XOffset=0mil|YOffset=0mil|HoleType=Round|Shape=RoundedRectangle|*
%AMROUNDEDRECTD21*
21,1,0.05906,0.10433,0,0,270.0*
21,1,0.02953,0.13386,0,0,270.0*
1,1,0.02953,-0.05217,-0.01476*
1,1,0.02953,-0.05217,0.01476*
1,1,0.02953,0.05217,0.01476*
1,1,0.02953,0.05217,-0.01476*
%
%ADD21ROUNDEDRECTD21*%
G04:AMPARAMS|DCode=22|XSize=39.37mil|YSize=137.8mil|CornerRadius=9.84mil|HoleSize=0mil|Usage=FLASHONLY|Rotation=270.000|XOffset=0mil|YOffset=0mil|HoleType=Round|Shape=RoundedRectangle|*
%AMROUNDEDRECTD22*
21,1,0.03937,0.11811,0,0,270.0*
21,1,0.01968,0.13780,0,0,270.0*
1,1,0.01968,-0.05906,-0.00984*
1,1,0.01968,-0.05906,0.00984*
1,1,0.01968,0.05906,0.00984*
1,1,0.01968,0.05906,-0.00984*
%
%ADD22ROUNDEDRECTD22*%
%ADD23C,0.40158*%
%ADD24R,0.06102X0.05118*%
%ADD25R,0.01181X0.04724*%
%ADD26R,0.05512X0.04724*%
%ADD27R,0.06102X0.02362*%
%ADD28R,0.02362X0.05118*%
%ADD29R,0.10630X0.09055*%
%ADD30R,0.10669X0.13386*%
%ADD31R,0.03543X0.06299*%
%ADD32R,0.01968X0.00984*%
%ADD33R,0.05118X0.02362*%
%ADD34R,0.05118X0.00984*%
%ADD35R,0.02362X0.00984*%
%ADD36R,0.03937X0.06299*%
%ADD37R,0.01772X0.01181*%
%ADD38R,0.04331X0.04331*%
%ADD39R,0.01181X0.03150*%
%ADD40R,0.03150X0.01181*%
%ADD41R,0.03740X0.02559*%
%ADD42R,0.01575X0.03740*%
%ADD43R,0.04724X0.10630*%
%ADD44R,0.05512X0.03937*%
%ADD45R,0.03937X0.05512*%
%ADD46R,0.10630X0.04724*%
%ADD47R,0.03740X0.03543*%
%ADD48R,0.03543X0.00984*%
%ADD49R,0.02756X0.00984*%
%ADD50R,0.03150X0.00984*%
%ADD51R,0.07874X0.04331*%
%ADD52R,0.03347X0.07480*%
%ADD53R,0.04724X0.04724*%
%ADD54R,0.04724X0.04724*%
%ADD55R,0.07087X0.22441*%
%ADD56R,0.05512X0.08268*%
%ADD57R,0.13780X0.12992*%
%ADD58R,0.04528X0.01181*%
D11*
X185236Y183071D02*
D03*
X178937D02*
D03*
X266929Y248032D02*
D03*
X190157Y144685D02*
D03*
X209843Y111220D02*
D03*
X249213D02*
D03*
X209843Y187992D02*
D03*
X84843Y60039D02*
D03*
X135039Y222441D02*
D03*
X234449Y60039D02*
D03*
X148819Y222441D02*
D03*
X141929Y108268D02*
D03*
X315157Y93504D02*
D03*
X246260Y67913D02*
D03*
X291535Y105315D02*
D03*
X311220Y150591D02*
D03*
X64173Y149606D02*
D03*
X309252Y195866D02*
D03*
X182283Y166339D02*
D03*
X372244Y111220D02*
D03*
X363386Y125984D02*
D03*
X322047Y158465D02*
D03*
X294488Y253937D02*
D03*
X337795D02*
D03*
X56299Y184055D02*
D03*
X183858Y144685D02*
D03*
X203543Y111220D02*
D03*
X242913D02*
D03*
X203543Y187992D02*
D03*
X78543Y60039D02*
D03*
X228150D02*
D03*
X285236Y113189D02*
D03*
X242913Y103346D02*
D03*
X327559Y203740D02*
D03*
X131693Y132874D02*
D03*
X300000Y128937D02*
D03*
X78543Y89567D02*
D03*
X228150D02*
D03*
X217323Y201772D02*
D03*
X301969Y252953D02*
D03*
X345276D02*
D03*
X334843Y130906D02*
D03*
X328543D02*
D03*
X101575Y146654D02*
D03*
X302953Y186024D02*
D03*
X315748Y158465D02*
D03*
X309252Y186024D02*
D03*
X306299Y128937D02*
D03*
X50000Y184055D02*
D03*
X331496Y253937D02*
D03*
X351575Y252953D02*
D03*
X288189Y253937D02*
D03*
X308268Y252953D02*
D03*
X223622Y201772D02*
D03*
X234449Y89567D02*
D03*
X84843D02*
D03*
X357087Y125984D02*
D03*
X365945Y111220D02*
D03*
X175984Y166339D02*
D03*
X137992Y132874D02*
D03*
X333858Y203740D02*
D03*
X302953Y195866D02*
D03*
X57874Y149606D02*
D03*
X95276Y146654D02*
D03*
X304921Y150591D02*
D03*
X249213Y103346D02*
D03*
X291535Y113189D02*
D03*
X285236Y105315D02*
D03*
X239961Y67913D02*
D03*
X253740Y76772D02*
D03*
X260039D02*
D03*
X313780Y128937D02*
D03*
X320079D02*
D03*
X338386Y98425D02*
D03*
X344685D02*
D03*
X322638Y93504D02*
D03*
X328937D02*
D03*
X308858D02*
D03*
X268504Y55118D02*
D03*
X274803D02*
D03*
X135630Y108268D02*
D03*
X142520Y222441D02*
D03*
X128740D02*
D03*
X260630Y248032D02*
D03*
D12*
X197835Y147638D02*
D03*
X258858Y171260D02*
D03*
X197835Y135827D02*
D03*
Y137795D02*
D03*
Y155512D02*
D03*
X258858Y167323D02*
D03*
Y173228D02*
D03*
Y169291D02*
D03*
X197835Y131890D02*
D03*
Y133858D02*
D03*
Y153543D02*
D03*
Y163386D02*
D03*
X258858Y153543D02*
D03*
Y155512D02*
D03*
X197835Y173228D02*
D03*
X258858Y125984D02*
D03*
X197835Y171260D02*
D03*
X258858Y127953D02*
D03*
X197835Y169291D02*
D03*
X258858Y129921D02*
D03*
X197835Y167323D02*
D03*
X258858Y131890D02*
D03*
X197835Y165354D02*
D03*
X258858Y133858D02*
D03*
Y135827D02*
D03*
X197835Y161417D02*
D03*
X258858Y137795D02*
D03*
X197835Y159449D02*
D03*
X258858Y139764D02*
D03*
X197835Y157480D02*
D03*
X258858Y141732D02*
D03*
Y143701D02*
D03*
Y145669D02*
D03*
X197835Y151575D02*
D03*
X258858Y147638D02*
D03*
X197835Y149606D02*
D03*
X258858D02*
D03*
Y151575D02*
D03*
X197835Y145669D02*
D03*
Y143701D02*
D03*
Y141732D02*
D03*
X258858Y157480D02*
D03*
X197835Y139764D02*
D03*
X258858Y159449D02*
D03*
Y161417D02*
D03*
Y163386D02*
D03*
Y165354D02*
D03*
X197835Y129921D02*
D03*
Y127953D02*
D03*
Y125984D02*
D03*
D13*
X365532Y99213D02*
D03*
Y74016D02*
D03*
Y77165D02*
D03*
Y96063D02*
D03*
D14*
X389272Y191634D02*
D03*
D15*
X329823Y182382D02*
D03*
X346752Y138484D02*
D03*
D16*
X387500D02*
D03*
D17*
X371161D02*
D03*
D18*
X329823Y154626D02*
D03*
Y158957D02*
D03*
Y142224D02*
D03*
Y145965D02*
D03*
Y150295D02*
D03*
Y163287D02*
D03*
Y167618D02*
D03*
Y171949D02*
D03*
Y176280D02*
D03*
D19*
X149803Y231299D02*
D03*
X117913D02*
D03*
D20*
X142717Y242126D02*
D03*
X140748D02*
D03*
X125000D02*
D03*
X126969D02*
D03*
X128937D02*
D03*
X130906D02*
D03*
X132874D02*
D03*
X134843D02*
D03*
X136811D02*
D03*
X138780D02*
D03*
D21*
X14173Y156102D02*
D03*
Y190354D02*
D03*
D22*
X36811Y165354D02*
D03*
Y181102D02*
D03*
Y173228D02*
D03*
D23*
X74803Y228346D02*
D03*
D24*
X318799Y227362D02*
D03*
X287500D02*
D03*
X362106D02*
D03*
X330807D02*
D03*
Y245079D02*
D03*
X362106D02*
D03*
X287500D02*
D03*
X318799D02*
D03*
D25*
X206693Y180118D02*
D03*
X250000Y119094D02*
D03*
X206693D02*
D03*
X226378Y180118D02*
D03*
X204724D02*
D03*
X251969Y119094D02*
D03*
X208661D02*
D03*
X251969Y180118D02*
D03*
X244094D02*
D03*
X248032D02*
D03*
X246063D02*
D03*
X238189D02*
D03*
X234252D02*
D03*
X204724Y119094D02*
D03*
X250000Y180118D02*
D03*
X210630Y119094D02*
D03*
X212598D02*
D03*
X214567D02*
D03*
X242126Y180118D02*
D03*
X216535Y119094D02*
D03*
X240157Y180118D02*
D03*
X218504Y119094D02*
D03*
X220472D02*
D03*
X236220Y180118D02*
D03*
X222441Y119094D02*
D03*
X224409D02*
D03*
X232283Y180118D02*
D03*
X226378Y119094D02*
D03*
X230315Y180118D02*
D03*
X228346Y119094D02*
D03*
Y180118D02*
D03*
X230315Y119094D02*
D03*
X232283D02*
D03*
X224409Y180118D02*
D03*
X234252Y119094D02*
D03*
X222441Y180118D02*
D03*
X236220Y119094D02*
D03*
X220472Y180118D02*
D03*
X238189Y119094D02*
D03*
X218504Y180118D02*
D03*
X240157Y119094D02*
D03*
X216535Y180118D02*
D03*
X242126Y119094D02*
D03*
X214567Y180118D02*
D03*
X244094Y119094D02*
D03*
X212598Y180118D02*
D03*
X246063Y119094D02*
D03*
X210630Y180118D02*
D03*
X248032Y119094D02*
D03*
X208661Y180118D02*
D03*
D26*
X178740Y158858D02*
D03*
X187402Y152165D02*
D03*
X178740D02*
D03*
X187402Y158858D02*
D03*
D27*
X60236Y77303D02*
D03*
X209843D02*
D03*
X306299Y86240D02*
D03*
X81496Y67303D02*
D03*
X231102D02*
D03*
X306299Y81240D02*
D03*
Y76240D02*
D03*
Y71240D02*
D03*
X327559D02*
D03*
Y76240D02*
D03*
Y81240D02*
D03*
Y86240D02*
D03*
X209843Y82303D02*
D03*
Y72303D02*
D03*
Y67303D02*
D03*
X231102Y72303D02*
D03*
Y77303D02*
D03*
Y82303D02*
D03*
X60236D02*
D03*
Y72303D02*
D03*
Y67303D02*
D03*
X81496Y72303D02*
D03*
Y77303D02*
D03*
Y82303D02*
D03*
D28*
X108268Y69094D02*
D03*
X257874D02*
D03*
X310827Y169094D02*
D03*
X307087Y177362D02*
D03*
X303346Y169094D02*
D03*
X254134Y60827D02*
D03*
X261614D02*
D03*
X104528D02*
D03*
X112008D02*
D03*
D29*
X293307Y95079D02*
D03*
Y78150D02*
D03*
D30*
X316929Y78740D02*
D03*
D31*
X269685Y88583D02*
D03*
D32*
X265945Y85630D02*
D03*
Y91535D02*
D03*
Y89567D02*
D03*
Y87598D02*
D03*
X273425Y85630D02*
D03*
Y87598D02*
D03*
Y89567D02*
D03*
Y91535D02*
D03*
D33*
X304921Y136024D02*
D03*
X72638Y143898D02*
D03*
Y126181D02*
D03*
Y151378D02*
D03*
X80906Y147638D02*
D03*
X72638Y133661D02*
D03*
X80906Y129921D02*
D03*
X304921Y143504D02*
D03*
X313189Y139764D02*
D03*
X269488Y112008D02*
D03*
Y104528D02*
D03*
X277756Y108268D02*
D03*
D34*
X147835Y145669D02*
D03*
D35*
X142126D02*
D03*
Y147638D02*
D03*
Y149606D02*
D03*
Y143701D02*
D03*
Y141732D02*
D03*
D36*
X145669Y118110D02*
D03*
D37*
X141831Y115551D02*
D03*
Y120669D02*
D03*
Y118110D02*
D03*
X149508Y115551D02*
D03*
Y118110D02*
D03*
Y120669D02*
D03*
D38*
X314961Y208661D02*
D03*
D39*
X317913Y202953D02*
D03*
X315945D02*
D03*
Y214370D02*
D03*
X317913D02*
D03*
X312008Y202953D02*
D03*
X313976D02*
D03*
Y214370D02*
D03*
X312008D02*
D03*
D40*
X309252Y207677D02*
D03*
X320669D02*
D03*
Y205709D02*
D03*
X309252Y209646D02*
D03*
X320669D02*
D03*
X309252Y211614D02*
D03*
Y205709D02*
D03*
X320669Y211614D02*
D03*
D41*
X120669Y194291D02*
D03*
Y183661D02*
D03*
Y190748D02*
D03*
X115551Y194291D02*
D03*
Y190748D02*
D03*
Y187205D02*
D03*
Y183661D02*
D03*
X120669Y187205D02*
D03*
D42*
X348425Y90945D02*
D03*
X345866Y82283D02*
D03*
X350984D02*
D03*
D43*
X307972Y61024D02*
D03*
X327657D02*
D03*
X316043D02*
D03*
X296358D02*
D03*
D44*
X258858Y92323D02*
D03*
X134843Y148425D02*
D03*
Y165157D02*
D03*
Y123819D02*
D03*
X51181Y77559D02*
D03*
X188976Y135630D02*
D03*
X318898Y174016D02*
D03*
X134843Y140945D02*
D03*
X188976Y128150D02*
D03*
X318898Y166535D02*
D03*
X51181Y70079D02*
D03*
X134843Y116339D02*
D03*
Y157677D02*
D03*
X258858Y84843D02*
D03*
D45*
X275394Y78740D02*
D03*
X153346Y127953D02*
D03*
X299409Y159449D02*
D03*
X306890D02*
D03*
X145866Y127953D02*
D03*
X267913Y78740D02*
D03*
D46*
X158465Y155413D02*
D03*
X294291Y149508D02*
D03*
Y137894D02*
D03*
X158465Y143799D02*
D03*
D47*
X302165Y214764D02*
D03*
X266732Y176378D02*
D03*
X267717Y162598D02*
D03*
X180118Y137008D02*
D03*
X189961Y172441D02*
D03*
X201772Y76969D02*
D03*
X127953Y194094D02*
D03*
X280512Y93701D02*
D03*
X336614Y90748D02*
D03*
X246063Y81890D02*
D03*
X249016Y95669D02*
D03*
X273622Y125197D02*
D03*
X294291Y216732D02*
D03*
X125984Y148819D02*
D03*
X235236Y111417D02*
D03*
X217520Y194094D02*
D03*
X225394D02*
D03*
X170276Y158661D02*
D03*
X358268Y84843D02*
D03*
X121063Y222638D02*
D03*
X159449Y245276D02*
D03*
X302165Y208465D02*
D03*
X266732Y170079D02*
D03*
X267717Y156299D02*
D03*
X180118Y130709D02*
D03*
X189961Y166142D02*
D03*
X127953Y187795D02*
D03*
X335630Y68701D02*
D03*
X327756Y211417D02*
D03*
X296260Y169094D02*
D03*
X108268Y187795D02*
D03*
X209646Y195669D02*
D03*
X49213Y170079D02*
D03*
X275591Y164173D02*
D03*
X295276Y190157D02*
D03*
X287402Y186220D02*
D03*
X321850Y150787D02*
D03*
Y144488D02*
D03*
X295276Y183858D02*
D03*
X287402Y179921D02*
D03*
X288386Y164173D02*
D03*
Y170472D02*
D03*
X49213Y176378D02*
D03*
X253937Y247835D02*
D03*
Y254134D02*
D03*
X209646Y201969D02*
D03*
X108268Y194094D02*
D03*
X159449Y238976D02*
D03*
X121063Y216339D02*
D03*
X296260Y175394D02*
D03*
X357283Y112008D02*
D03*
Y118307D02*
D03*
X358268Y78543D02*
D03*
X170276Y152362D02*
D03*
X225394Y187795D02*
D03*
X217520D02*
D03*
X235236Y105118D02*
D03*
X125984Y142520D02*
D03*
X294291Y210433D02*
D03*
X327756Y217717D02*
D03*
X275591Y170472D02*
D03*
X273622Y118898D02*
D03*
X249016Y89370D02*
D03*
X246063Y75591D02*
D03*
X335630Y75000D02*
D03*
X352362Y98228D02*
D03*
Y104528D02*
D03*
X336614Y84449D02*
D03*
X303150Y109055D02*
D03*
Y115354D02*
D03*
X280512Y87402D02*
D03*
X201772Y70669D02*
D03*
D48*
X148622Y141732D02*
D03*
Y143701D02*
D03*
Y147638D02*
D03*
Y149606D02*
D03*
D49*
X61417Y139764D02*
D03*
Y141732D02*
D03*
Y143701D02*
D03*
D50*
X56890D02*
D03*
Y141732D02*
D03*
Y139764D02*
D03*
D51*
X163386Y114370D02*
D03*
Y121850D02*
D03*
D52*
X142815Y165354D02*
D03*
X148524D02*
D03*
D53*
X257874Y100591D02*
D03*
Y112008D02*
D03*
X346457Y112402D02*
D03*
Y123819D02*
D03*
D54*
X271850Y143701D02*
D03*
X283268D02*
D03*
D55*
X311811Y112205D02*
D03*
X329921D02*
D03*
D56*
X270866Y64961D02*
D03*
X288189D02*
D03*
X121260D02*
D03*
X138583D02*
D03*
D57*
X43701Y228346D02*
D03*
X105906D02*
D03*
D58*
X365532Y79724D02*
D03*
Y81693D02*
D03*
Y83661D02*
D03*
Y85630D02*
D03*
Y87598D02*
D03*
Y89567D02*
D03*
Y91535D02*
D03*
Y93504D02*
D03*
M02*
