G04*
G04 #@! TF.GenerationSoftware,Altium Limited,Altium Designer,26.9.1 (10)*
G04*
G04 Layer_Physical_Order=4*
G04 Layer_Color=16711680*
G04 Board_Origin=0|0*
%FSLAX25Y25*%
%MOIN*%
G70*
G04*
G04 #@! TF.SameCoordinates,562DED8C-2AFF-4B73-B5E2-3D2E9E186A84*
G04*
G04*
G04 #@! TF.FilePolarity,Positive*
G04*
G01*
G75*
%ADD10C,0.00591*%
%ADD60C,0.17323*%
%ADD61C,0.06299*%
%ADD62O,0.07087X0.03937*%
%ADD63O,0.08268X0.03937*%
%ADD64C,0.03898*%
%ADD65C,0.13583*%
%ADD66C,0.09409*%
%ADD67C,0.02559*%
%ADD68C,0.12598*%
%ADD69C,0.02362*%
%ADD70C,0.00787*%
%ADD71C,0.01968*%
%ADD72C,0.01181*%
%ADD74R,0.29528X0.25591*%
G36*
X367717Y244094D02*
X367913Y242098D01*
X368496Y240177D01*
X369441Y238409D01*
X370717Y236858D01*
X372268Y235583D01*
X374035Y234638D01*
X375957Y234055D01*
X377953Y233858D01*
X392126D01*
Y25984D01*
X377953D01*
X375957Y25787D01*
X374035Y25205D01*
X372268Y24260D01*
X370717Y22984D01*
X369441Y21433D01*
X368496Y19665D01*
X367913Y17744D01*
X367717Y15748D01*
Y1575D01*
X25984D01*
Y15748D01*
X25787Y17744D01*
X25205Y19665D01*
X24260Y21433D01*
X22984Y22984D01*
X21433Y24260D01*
X19665Y25205D01*
X17744Y25787D01*
X15748Y25984D01*
X1575D01*
Y233858D01*
X15748D01*
X17744Y234055D01*
X19665Y234638D01*
X21433Y235583D01*
X22984Y236858D01*
X24260Y238409D01*
X25205Y240177D01*
X25787Y242098D01*
X25984Y244094D01*
Y258268D01*
X280460D01*
X280696Y257827D01*
X280645Y257751D01*
X280576Y257400D01*
X284824D01*
X284755Y257751D01*
X284704Y257827D01*
X284940Y258268D01*
X367717D01*
Y244094D01*
D02*
G37*
%LPC*%
G36*
X284824Y256400D02*
X283200D01*
Y254776D01*
X283551Y254845D01*
X284273Y255328D01*
X284755Y256049D01*
X284824Y256400D01*
D02*
G37*
G36*
X282200D02*
X280576D01*
X280645Y256049D01*
X281128Y255328D01*
X281849Y254845D01*
X282200Y254776D01*
Y256400D01*
D02*
G37*
G36*
X340657Y256061D02*
Y254437D01*
X342282D01*
X342212Y254788D01*
X341730Y255509D01*
X341008Y255992D01*
X340657Y256061D01*
D02*
G37*
G36*
X339657D02*
X339306Y255992D01*
X338585Y255509D01*
X338103Y254788D01*
X338033Y254437D01*
X339657D01*
Y256061D01*
D02*
G37*
G36*
X297350D02*
Y254437D01*
X298975D01*
X298905Y254788D01*
X298423Y255509D01*
X297701Y255992D01*
X297350Y256061D01*
D02*
G37*
G36*
X296350D02*
X295999Y255992D01*
X295278Y255509D01*
X294796Y254788D01*
X294726Y254437D01*
X296350D01*
Y256061D01*
D02*
G37*
G36*
X342282Y253437D02*
X340657D01*
Y251813D01*
X341008Y251883D01*
X341730Y252364D01*
X342212Y253086D01*
X342282Y253437D01*
D02*
G37*
G36*
X339657D02*
X338033D01*
X338103Y253086D01*
X338585Y252364D01*
X339306Y251883D01*
X339657Y251813D01*
Y253437D01*
D02*
G37*
G36*
X298975D02*
X297350D01*
Y251813D01*
X297701Y251883D01*
X298423Y252364D01*
X298905Y253086D01*
X298975Y253437D01*
D02*
G37*
G36*
X296350D02*
X294726D01*
X294796Y253086D01*
X295278Y252364D01*
X295999Y251883D01*
X296350Y251813D01*
Y253437D01*
D02*
G37*
G36*
X347638Y254470D02*
X346982Y254340D01*
X346426Y253968D01*
X346054Y253412D01*
X345924Y252756D01*
X346054Y252100D01*
X346426Y251544D01*
X346982Y251172D01*
X347638Y251042D01*
X348294Y251172D01*
X348850Y251544D01*
X349221Y252100D01*
X349352Y252756D01*
X349221Y253412D01*
X348850Y253968D01*
X348294Y254340D01*
X347638Y254470D01*
D02*
G37*
G36*
X304331D02*
X303675Y254340D01*
X303119Y253968D01*
X302747Y253412D01*
X302617Y252756D01*
X302747Y252100D01*
X303119Y251544D01*
X303675Y251172D01*
X304331Y251042D01*
X304987Y251172D01*
X305543Y251544D01*
X305914Y252100D01*
X306045Y252756D01*
X305914Y253412D01*
X305543Y253968D01*
X304987Y254340D01*
X304331Y254470D01*
D02*
G37*
G36*
X269791Y250156D02*
Y248532D01*
X271416D01*
X271346Y248883D01*
X270864Y249604D01*
X270142Y250086D01*
X269791Y250156D01*
D02*
G37*
G36*
X268791D02*
X268440Y250086D01*
X267719Y249604D01*
X267237Y248883D01*
X267167Y248532D01*
X268791D01*
Y250156D01*
D02*
G37*
G36*
X271416Y247532D02*
X269791D01*
Y245907D01*
X270142Y245977D01*
X270864Y246459D01*
X271346Y247181D01*
X271416Y247532D01*
D02*
G37*
G36*
X268791D02*
X267167D01*
X267237Y247181D01*
X267719Y246459D01*
X268440Y245977D01*
X268791Y245907D01*
Y247532D01*
D02*
G37*
G36*
X162311Y247400D02*
Y245776D01*
X163935D01*
X163866Y246127D01*
X163383Y246848D01*
X162662Y247330D01*
X162311Y247400D01*
D02*
G37*
G36*
X161311D02*
X160960Y247330D01*
X160239Y246848D01*
X159756Y246127D01*
X159687Y245776D01*
X161311D01*
Y247400D01*
D02*
G37*
G36*
X146366D02*
Y245776D01*
X147991D01*
X147921Y246127D01*
X147439Y246848D01*
X146717Y247330D01*
X146366Y247400D01*
D02*
G37*
G36*
X145366D02*
X145015Y247330D01*
X144294Y246848D01*
X143812Y246127D01*
X143742Y245776D01*
X145366D01*
Y247400D01*
D02*
G37*
G36*
X330807Y246793D02*
X330151Y246662D01*
X329595Y246291D01*
X329223Y245735D01*
X329093Y245079D01*
X329223Y244423D01*
X329595Y243867D01*
X330151Y243495D01*
X330807Y243365D01*
X331463Y243495D01*
X332019Y243867D01*
X332391Y244423D01*
X332521Y245079D01*
X332391Y245735D01*
X332019Y246291D01*
X331463Y246662D01*
X330807Y246793D01*
D02*
G37*
G36*
X163935Y244776D02*
X162311D01*
Y243151D01*
X162662Y243221D01*
X163383Y243703D01*
X163866Y244425D01*
X163935Y244776D01*
D02*
G37*
G36*
X161311D02*
X159687D01*
X159756Y244425D01*
X160239Y243703D01*
X160960Y243221D01*
X161311Y243151D01*
Y244776D01*
D02*
G37*
G36*
X147991D02*
X143742D01*
X143812Y244425D01*
X143992Y244155D01*
X143309Y243699D01*
X142827Y242977D01*
X142757Y242626D01*
X147006D01*
X146936Y242977D01*
X146756Y243247D01*
X147439Y243703D01*
X147921Y244425D01*
X147991Y244776D01*
D02*
G37*
G36*
X147006Y241626D02*
X145382D01*
Y240002D01*
X145733Y240072D01*
X146454Y240553D01*
X146936Y241275D01*
X147006Y241626D01*
D02*
G37*
G36*
X144382D02*
X142757D01*
X142827Y241275D01*
X143309Y240553D01*
X144031Y240072D01*
X144382Y240002D01*
Y241626D01*
D02*
G37*
G36*
X114700Y241624D02*
Y240000D01*
X116324D01*
X116254Y240351D01*
X115772Y241073D01*
X115051Y241555D01*
X114700Y241624D01*
D02*
G37*
G36*
X113700D02*
X113349Y241555D01*
X112627Y241073D01*
X112145Y240351D01*
X112076Y240000D01*
X113700D01*
Y241624D01*
D02*
G37*
G36*
X116324Y239000D02*
X114700D01*
Y237376D01*
X115051Y237445D01*
X115772Y237928D01*
X116254Y238649D01*
X116324Y239000D01*
D02*
G37*
G36*
X113700D02*
X112076D01*
X112145Y238649D01*
X112627Y237928D01*
X113349Y237445D01*
X113700Y237376D01*
Y239000D01*
D02*
G37*
G36*
X149319Y238824D02*
Y237200D01*
X150943D01*
X150874Y237551D01*
X150391Y238273D01*
X149670Y238755D01*
X149319Y238824D01*
D02*
G37*
G36*
X148319D02*
X147968Y238755D01*
X147247Y238273D01*
X146765Y237551D01*
X146695Y237200D01*
X148319D01*
Y238824D01*
D02*
G37*
G36*
X150943Y236200D02*
X149319D01*
Y234576D01*
X149670Y234645D01*
X150391Y235127D01*
X150874Y235849D01*
X150943Y236200D01*
D02*
G37*
G36*
X148319D02*
X146695D01*
X146765Y235849D01*
X147247Y235127D01*
X147968Y234645D01*
X148319Y234576D01*
Y236200D01*
D02*
G37*
G36*
X152469Y233620D02*
Y231996D01*
X154093D01*
X154023Y232347D01*
X153541Y233068D01*
X152820Y233551D01*
X152469Y233620D01*
D02*
G37*
G36*
X151469D02*
X151118Y233551D01*
X150396Y233068D01*
X149914Y232347D01*
X149844Y231996D01*
X151469D01*
Y233620D01*
D02*
G37*
G36*
X120972D02*
Y231996D01*
X122597D01*
X122527Y232347D01*
X122045Y233068D01*
X121323Y233551D01*
X120972Y233620D01*
D02*
G37*
G36*
X119972D02*
X119621Y233551D01*
X118900Y233068D01*
X118418Y232347D01*
X118348Y231996D01*
X119972D01*
Y233620D01*
D02*
G37*
G36*
X154093Y230996D02*
X152469D01*
Y229372D01*
X152820Y229441D01*
X153541Y229924D01*
X154023Y230645D01*
X154093Y230996D01*
D02*
G37*
G36*
X151469D02*
X149844D01*
X149914Y230645D01*
X150396Y229924D01*
X151118Y229441D01*
X151469Y229372D01*
Y230996D01*
D02*
G37*
G36*
X122597D02*
X120972D01*
Y229372D01*
X121323Y229441D01*
X122045Y229924D01*
X122527Y230645D01*
X122597Y230996D01*
D02*
G37*
G36*
X119972D02*
X118348D01*
X118418Y230645D01*
X118900Y229924D01*
X119621Y229441D01*
X119972Y229372D01*
Y230996D01*
D02*
G37*
G36*
X77665Y230471D02*
Y228846D01*
X79290D01*
X79220Y229197D01*
X78738Y229919D01*
X78016Y230401D01*
X77665Y230471D01*
D02*
G37*
G36*
X76665D02*
X76314Y230401D01*
X75593Y229919D01*
X75111Y229197D01*
X75041Y228846D01*
X76665D01*
Y230471D01*
D02*
G37*
G36*
X365067Y229683D02*
Y228059D01*
X366691D01*
X366621Y228410D01*
X366140Y229132D01*
X365418Y229613D01*
X365067Y229683D01*
D02*
G37*
G36*
X364067D02*
X363716Y229613D01*
X362995Y229132D01*
X362512Y228410D01*
X362443Y228059D01*
X364067D01*
Y229683D01*
D02*
G37*
G36*
X333571D02*
Y228059D01*
X335195D01*
X335125Y228410D01*
X334643Y229132D01*
X333922Y229613D01*
X333571Y229683D01*
D02*
G37*
G36*
X332571D02*
X332220Y229613D01*
X331498Y229132D01*
X331016Y228410D01*
X330946Y228059D01*
X332571D01*
Y229683D01*
D02*
G37*
G36*
X320760D02*
X320409Y229613D01*
X319687Y229132D01*
X319205Y228410D01*
X319135Y228059D01*
X320760D01*
Y229683D01*
D02*
G37*
G36*
X290264D02*
Y228059D01*
X291888D01*
X291818Y228410D01*
X291336Y229132D01*
X290615Y229613D01*
X290264Y229683D01*
D02*
G37*
G36*
X289264D02*
X288913Y229613D01*
X288191Y229132D01*
X287709Y228410D01*
X287639Y228059D01*
X289264D01*
Y229683D01*
D02*
G37*
G36*
X325500Y229487D02*
Y227862D01*
X327124D01*
X327055Y228213D01*
X326572Y228935D01*
X325851Y229417D01*
X325500Y229487D01*
D02*
G37*
G36*
X283200D02*
Y227862D01*
X284824D01*
X284755Y228213D01*
X284273Y228935D01*
X283551Y229417D01*
X283200Y229487D01*
D02*
G37*
G36*
X282200D02*
X281849Y229417D01*
X281128Y228935D01*
X280645Y228213D01*
X280576Y227862D01*
X282200D01*
Y229487D01*
D02*
G37*
G36*
X133400Y229364D02*
Y227739D01*
X135024D01*
X134955Y228090D01*
X134473Y228812D01*
X133751Y229294D01*
X133400Y229364D01*
D02*
G37*
G36*
X132400D02*
X132049Y229294D01*
X131327Y228812D01*
X130845Y228090D01*
X130776Y227739D01*
X132400D01*
Y229364D01*
D02*
G37*
G36*
X79290Y227846D02*
X77665D01*
Y226222D01*
X78016Y226292D01*
X78738Y226774D01*
X79220Y227495D01*
X79290Y227846D01*
D02*
G37*
G36*
X76665D02*
X75041D01*
X75111Y227495D01*
X75593Y226774D01*
X76314Y226292D01*
X76665Y226222D01*
Y227846D01*
D02*
G37*
G36*
X366691Y227059D02*
X365067D01*
Y225435D01*
X365418Y225504D01*
X366140Y225987D01*
X366621Y226708D01*
X366691Y227059D01*
D02*
G37*
G36*
X364067D02*
X362443D01*
X362512Y226708D01*
X362995Y225987D01*
X363716Y225504D01*
X364067Y225435D01*
Y227059D01*
D02*
G37*
G36*
X335195D02*
X333571D01*
Y225435D01*
X333922Y225504D01*
X334643Y225987D01*
X335125Y226708D01*
X335195Y227059D01*
D02*
G37*
G36*
X332571D02*
X330946D01*
X331016Y226708D01*
X331498Y225987D01*
X332220Y225504D01*
X332571Y225435D01*
Y227059D01*
D02*
G37*
G36*
X320760D02*
X319135D01*
X319205Y226708D01*
X319687Y225987D01*
X320409Y225504D01*
X320760Y225435D01*
Y227059D01*
D02*
G37*
G36*
X291888D02*
X290264D01*
Y225435D01*
X290615Y225504D01*
X291336Y225987D01*
X291818Y226708D01*
X291888Y227059D01*
D02*
G37*
G36*
X289264D02*
X287639D01*
X287709Y226708D01*
X288191Y225987D01*
X288913Y225504D01*
X289264Y225435D01*
Y227059D01*
D02*
G37*
G36*
X327124Y226862D02*
X325500D01*
Y225238D01*
X325851Y225308D01*
X326572Y225790D01*
X327055Y226511D01*
X327124Y226862D01*
D02*
G37*
G36*
X321760Y229683D02*
Y227559D01*
Y225435D01*
X322111Y225504D01*
X322737Y225923D01*
X323306Y225971D01*
X323428Y225790D01*
X324149Y225308D01*
X324500Y225238D01*
Y227362D01*
Y229487D01*
X324149Y229417D01*
X323523Y228998D01*
X322953Y228950D01*
X322832Y229132D01*
X322111Y229613D01*
X321760Y229683D01*
D02*
G37*
G36*
X284824Y226862D02*
X283200D01*
Y225238D01*
X283551Y225308D01*
X284273Y225790D01*
X284755Y226511D01*
X284824Y226862D01*
D02*
G37*
G36*
X282200D02*
X280576D01*
X280645Y226511D01*
X281128Y225790D01*
X281849Y225308D01*
X282200Y225238D01*
Y226862D01*
D02*
G37*
G36*
X135024Y226739D02*
X133400D01*
Y225115D01*
X133751Y225185D01*
X134473Y225667D01*
X134955Y226388D01*
X135024Y226739D01*
D02*
G37*
G36*
X132400D02*
X130776D01*
X130845Y226388D01*
X131327Y225667D01*
X132049Y225185D01*
X132400Y225115D01*
Y226739D01*
D02*
G37*
G36*
X167131Y226694D02*
Y225070D01*
X168755D01*
X168685Y225421D01*
X168203Y226143D01*
X167482Y226624D01*
X167131Y226694D01*
D02*
G37*
G36*
X166131D02*
X165780Y226624D01*
X165058Y226143D01*
X164576Y225421D01*
X164506Y225070D01*
X166131D01*
Y226694D01*
D02*
G37*
G36*
X153900D02*
Y225070D01*
X155524D01*
X155455Y225421D01*
X154973Y226143D01*
X154251Y226624D01*
X153900Y226694D01*
D02*
G37*
G36*
X152900D02*
X152549Y226624D01*
X151828Y226143D01*
X151346Y225421D01*
X151195Y224662D01*
X151181Y224665D01*
X150330Y224496D01*
X149609Y224013D01*
X149127Y223292D01*
X149057Y222941D01*
X151181D01*
Y222441D01*
X151681D01*
Y220317D01*
X152032Y220387D01*
X152754Y220868D01*
X153236Y221590D01*
X153387Y222349D01*
X153400Y222346D01*
X154251Y222516D01*
X154973Y222997D01*
X155455Y223719D01*
X155524Y224070D01*
X153400D01*
Y224570D01*
X152900D01*
Y226694D01*
D02*
G37*
G36*
X137902Y224565D02*
Y222941D01*
X139526D01*
X139456Y223292D01*
X138974Y224013D01*
X138253Y224496D01*
X137902Y224565D01*
D02*
G37*
G36*
X136902D02*
X136551Y224496D01*
X135829Y224013D01*
X135347Y223292D01*
X135277Y222941D01*
X136902D01*
Y224565D01*
D02*
G37*
G36*
X168755Y224070D02*
X167131D01*
Y222446D01*
X167482Y222516D01*
X168203Y222997D01*
X168685Y223719D01*
X168755Y224070D01*
D02*
G37*
G36*
X166131D02*
X164506D01*
X164576Y223719D01*
X165058Y222997D01*
X165780Y222516D01*
X166131Y222446D01*
Y224070D01*
D02*
G37*
G36*
X174516Y222203D02*
Y220579D01*
X176140D01*
X176070Y220930D01*
X175588Y221651D01*
X174867Y222133D01*
X174516Y222203D01*
D02*
G37*
G36*
X173516D02*
X173165Y222133D01*
X172443Y221651D01*
X171961Y220930D01*
X171891Y220579D01*
X173516D01*
Y222203D01*
D02*
G37*
G36*
X311500Y222124D02*
Y220500D01*
X313124D01*
X313055Y220851D01*
X312573Y221572D01*
X311851Y222055D01*
X311500Y222124D01*
D02*
G37*
G36*
X310500D02*
X310149Y222055D01*
X309427Y221572D01*
X308945Y220851D01*
X308876Y220500D01*
X310500D01*
Y222124D01*
D02*
G37*
G36*
X150681Y221941D02*
X149057D01*
X149127Y221590D01*
X149609Y220868D01*
X150330Y220387D01*
X150681Y220317D01*
Y221941D01*
D02*
G37*
G36*
X139526D02*
X137902D01*
Y220317D01*
X138253Y220387D01*
X138974Y220868D01*
X139456Y221590D01*
X139526Y221941D01*
D02*
G37*
G36*
X136902D02*
X135277D01*
X135347Y221590D01*
X135829Y220868D01*
X136551Y220387D01*
X136902Y220317D01*
Y221941D01*
D02*
G37*
G36*
X176140Y219579D02*
X174516D01*
Y217954D01*
X174867Y218024D01*
X175588Y218506D01*
X176070Y219228D01*
X176140Y219579D01*
D02*
G37*
G36*
X173516D02*
X171891D01*
X171961Y219228D01*
X172443Y218506D01*
X173165Y218024D01*
X173516Y217954D01*
Y219579D01*
D02*
G37*
G36*
X313124Y219500D02*
X311500D01*
Y217876D01*
X311851Y217945D01*
X312573Y218427D01*
X313055Y219149D01*
X313124Y219500D01*
D02*
G37*
G36*
X310500D02*
X308876D01*
X308945Y219149D01*
X309427Y218427D01*
X310149Y217945D01*
X310500Y217876D01*
Y219500D01*
D02*
G37*
G36*
X296957Y218660D02*
Y217035D01*
X298581D01*
X298511Y217386D01*
X298029Y218108D01*
X297308Y218590D01*
X296957Y218660D01*
D02*
G37*
G36*
X295957D02*
X295606Y218590D01*
X294884Y218108D01*
X294402Y217386D01*
X294332Y217035D01*
X295957D01*
Y218660D01*
D02*
G37*
G36*
X179634Y217479D02*
Y215854D01*
X181258D01*
X181188Y216205D01*
X180706Y216927D01*
X179985Y217409D01*
X179634Y217479D01*
D02*
G37*
G36*
X178634D02*
X178283Y217409D01*
X177561Y216927D01*
X177079Y216205D01*
X177009Y215854D01*
X178634D01*
Y217479D01*
D02*
G37*
G36*
X126500Y216624D02*
X126149Y216555D01*
X125427Y216073D01*
X124945Y215351D01*
X124876Y215000D01*
X126500D01*
Y216624D01*
D02*
G37*
G36*
X319600Y216424D02*
X319249Y216355D01*
X318528Y215873D01*
X318045Y215151D01*
X317976Y214800D01*
X319600D01*
Y216424D01*
D02*
G37*
G36*
X298581Y216035D02*
X296957D01*
Y214411D01*
X297308Y214481D01*
X298029Y214963D01*
X298511Y215684D01*
X298581Y216035D01*
D02*
G37*
G36*
X295957D02*
X294332D01*
X294402Y215684D01*
X294884Y214963D01*
X295606Y214481D01*
X295957Y214411D01*
Y216035D01*
D02*
G37*
G36*
X162165Y219032D02*
X161210Y218842D01*
X160400Y218301D01*
X159859Y217491D01*
X159669Y216535D01*
X159859Y215580D01*
X160400Y214770D01*
X161210Y214229D01*
X162165Y214039D01*
X163121Y214229D01*
X163931Y214770D01*
X164472Y215580D01*
X164662Y216535D01*
X164472Y217491D01*
X163931Y218301D01*
X163121Y218842D01*
X162165Y219032D01*
D02*
G37*
G36*
X168898Y217462D02*
X168242Y217332D01*
X167686Y216960D01*
X167314Y216404D01*
X167184Y215748D01*
X167314Y215092D01*
X167686Y214536D01*
X168242Y214164D01*
X168898Y214034D01*
X169553Y214164D01*
X170110Y214536D01*
X170481Y215092D01*
X170612Y215748D01*
X170481Y216404D01*
X170110Y216960D01*
X169553Y217332D01*
X168898Y217462D01*
D02*
G37*
G36*
X181258Y214854D02*
X179634D01*
Y213230D01*
X179985Y213300D01*
X180706Y213782D01*
X181188Y214503D01*
X181258Y214854D01*
D02*
G37*
G36*
X178634D02*
X177009D01*
X177079Y214503D01*
X177561Y213782D01*
X178283Y213300D01*
X178634Y213230D01*
Y214854D01*
D02*
G37*
G36*
X126500Y214000D02*
X124876D01*
X124945Y213649D01*
X125427Y212928D01*
X126149Y212445D01*
X126500Y212376D01*
Y214000D01*
D02*
G37*
G36*
X319600Y213800D02*
X317976D01*
X318045Y213449D01*
X318528Y212727D01*
X319249Y212245D01*
X319600Y212176D01*
Y213800D01*
D02*
G37*
G36*
X127500Y216624D02*
Y214500D01*
Y212376D01*
X127851Y212445D01*
X128572Y212928D01*
X128745Y213186D01*
X129347D01*
X129497Y212961D01*
X130053Y212590D01*
X130709Y212459D01*
X131365Y212590D01*
X131921Y212961D01*
X132189Y213362D01*
X133129D01*
X134600Y211891D01*
X134506Y211417D01*
X134637Y210761D01*
X135008Y210205D01*
X135564Y209834D01*
X136220Y209703D01*
X136876Y209834D01*
X137432Y210205D01*
X137804Y210761D01*
X137934Y211417D01*
X137804Y212073D01*
X137432Y212629D01*
X136876Y213001D01*
X136220Y213131D01*
X135747Y213037D01*
X134038Y214747D01*
X133775Y214922D01*
X133465Y214984D01*
X132189D01*
X131921Y215385D01*
X131365Y215757D01*
X130709Y215887D01*
X130053Y215757D01*
X129550Y215421D01*
X129411Y215402D01*
X128963Y215487D01*
X128572Y216073D01*
X127851Y216555D01*
X127500Y216624D01*
D02*
G37*
G36*
X313500Y210124D02*
X313149Y210055D01*
X312427Y209573D01*
X311945Y208851D01*
X311876Y208500D01*
X313500D01*
Y210124D01*
D02*
G37*
G36*
X317616Y209786D02*
Y208161D01*
X319240D01*
X319170Y208512D01*
X318688Y209234D01*
X317967Y209716D01*
X317616Y209786D01*
D02*
G37*
G36*
X136220Y208801D02*
X135564Y208670D01*
X135008Y208299D01*
X134740Y207897D01*
X132189D01*
X131921Y208299D01*
X131365Y208670D01*
X130709Y208801D01*
X130053Y208670D01*
X129497Y208299D01*
X129125Y207743D01*
X128995Y207087D01*
X129125Y206431D01*
X129497Y205875D01*
X130053Y205503D01*
X130709Y205373D01*
X131365Y205503D01*
X131921Y205875D01*
X132189Y206276D01*
X134740D01*
X135008Y205875D01*
X135564Y205503D01*
X136220Y205373D01*
X136876Y205503D01*
X137432Y205875D01*
X137804Y206431D01*
X137934Y207087D01*
X137804Y207743D01*
X137432Y208299D01*
X136876Y208670D01*
X136220Y208801D01*
D02*
G37*
G36*
X302000Y210214D02*
X301344Y210084D01*
X300788Y209712D01*
X300416Y209156D01*
X300286Y208500D01*
X300416Y207844D01*
X300788Y207288D01*
X301344Y206916D01*
X302000Y206786D01*
X302656Y206916D01*
X303212Y207288D01*
X303584Y207844D01*
X303714Y208500D01*
X303584Y209156D01*
X303212Y209712D01*
X302656Y210084D01*
X302000Y210214D01*
D02*
G37*
G36*
X191000Y207624D02*
Y206000D01*
X192624D01*
X192554Y206351D01*
X192072Y207072D01*
X191351Y207555D01*
X191000Y207624D01*
D02*
G37*
G36*
X190000D02*
X189649Y207555D01*
X188927Y207072D01*
X188445Y206351D01*
X188376Y206000D01*
X190000D01*
Y207624D01*
D02*
G37*
G36*
X313500Y207500D02*
X311876D01*
X311945Y207149D01*
X312427Y206428D01*
X313149Y205945D01*
X313500Y205876D01*
Y207500D01*
D02*
G37*
G36*
X319240Y207161D02*
X317616D01*
Y205537D01*
X317967Y205607D01*
X318688Y206089D01*
X319170Y206810D01*
X319240Y207161D01*
D02*
G37*
G36*
X314500Y210124D02*
Y208000D01*
Y205876D01*
X314851Y205945D01*
X315396Y206310D01*
X315543Y206089D01*
X316265Y205607D01*
X316616Y205537D01*
Y207662D01*
Y209786D01*
X316265Y209716D01*
X315720Y209352D01*
X315573Y209573D01*
X314851Y210055D01*
X314500Y210124D01*
D02*
G37*
G36*
X329921Y213131D02*
X329265Y213001D01*
X328709Y212629D01*
X328338Y212073D01*
X328207Y211417D01*
X328338Y210761D01*
X328709Y210205D01*
X329265Y209834D01*
X329921Y209703D01*
X330577Y209834D01*
X330955Y210086D01*
X331429Y209986D01*
X331528Y209913D01*
X331859Y209418D01*
X332260Y209150D01*
Y206708D01*
X331859Y206440D01*
X331487Y205884D01*
X331421Y205550D01*
X330867Y205327D01*
X330577Y205521D01*
X329921Y205651D01*
X329265Y205521D01*
X328709Y205149D01*
X328338Y204593D01*
X328207Y203937D01*
X328338Y203281D01*
X328709Y202725D01*
X329265Y202353D01*
X329921Y202223D01*
X330577Y202353D01*
X331133Y202725D01*
X331505Y203281D01*
X331571Y203615D01*
X332125Y203838D01*
X332415Y203645D01*
X333071Y203514D01*
X333727Y203645D01*
X334283Y204016D01*
X334654Y204572D01*
X334785Y205228D01*
X334654Y205884D01*
X334283Y206440D01*
X333882Y206708D01*
Y209150D01*
X334283Y209418D01*
X334654Y209974D01*
X334785Y210630D01*
X334654Y211286D01*
X334283Y211842D01*
X333727Y212214D01*
X333071Y212344D01*
X332415Y212214D01*
X332037Y211961D01*
X331563Y212061D01*
X331464Y212134D01*
X331133Y212629D01*
X330577Y213001D01*
X329921Y213131D01*
D02*
G37*
G36*
X192624Y205000D02*
X191000D01*
Y203376D01*
X191351Y203446D01*
X192072Y203927D01*
X192554Y204649D01*
X192624Y205000D01*
D02*
G37*
G36*
X190000D02*
X188376D01*
X188445Y204649D01*
X188927Y203927D01*
X189649Y203446D01*
X190000Y203376D01*
Y205000D01*
D02*
G37*
G36*
X319579Y204880D02*
X319228Y204811D01*
X318506Y204328D01*
X318024Y203607D01*
X317954Y203256D01*
X319579D01*
Y204880D01*
D02*
G37*
G36*
X100024Y206514D02*
X99368Y206384D01*
X98812Y206012D01*
X98440Y205456D01*
X98310Y204800D01*
X98440Y204144D01*
X98812Y203588D01*
X99368Y203216D01*
X100024Y203086D01*
X100680Y203216D01*
X101236Y203588D01*
X101607Y204144D01*
X101738Y204800D01*
X101607Y205456D01*
X101236Y206012D01*
X100680Y206384D01*
X100024Y206514D01*
D02*
G37*
G36*
X219685Y203289D02*
X219029Y203158D01*
X218473Y202787D01*
X218101Y202231D01*
X217971Y201575D01*
X218101Y200919D01*
X218473Y200363D01*
X219029Y199991D01*
X219685Y199861D01*
X220341Y199991D01*
X220897Y200363D01*
X221269Y200919D01*
X221399Y201575D01*
X221269Y202231D01*
X220897Y202787D01*
X220341Y203158D01*
X219685Y203289D01*
D02*
G37*
G36*
X135433Y232816D02*
X134777Y232686D01*
X134221Y232314D01*
X133849Y231758D01*
X133719Y231102D01*
X133849Y230447D01*
X134221Y229890D01*
X134777Y229519D01*
X135433Y229388D01*
X135906Y229483D01*
X156171Y209218D01*
X156434Y209042D01*
X156744Y208980D01*
X156744Y208980D01*
X196248D01*
X205665Y199564D01*
X205520Y199085D01*
X205439Y199069D01*
X204883Y198697D01*
X204511Y198141D01*
X204381Y197485D01*
X204511Y196829D01*
X204664Y196602D01*
X204500Y196357D01*
Y194500D01*
X206124D01*
X206055Y194851D01*
X205732Y195334D01*
X206033Y195784D01*
X206095Y195771D01*
X206751Y195902D01*
X207307Y196273D01*
X207679Y196829D01*
X207695Y196910D01*
X208173Y197055D01*
X209024Y196205D01*
Y194063D01*
X209085Y193753D01*
X209261Y193490D01*
X211891Y190860D01*
X211726Y190318D01*
X211354Y190244D01*
X210632Y189761D01*
X210150Y189040D01*
X210080Y188689D01*
X212205D01*
Y187689D01*
X210080D01*
X210150Y187338D01*
X210632Y186617D01*
X210933Y186416D01*
X210738Y185945D01*
X210630Y185966D01*
X209974Y185836D01*
X209818Y185731D01*
X206976Y188573D01*
X206713Y188749D01*
X206403Y188811D01*
X137994D01*
X137758Y189252D01*
X137804Y189321D01*
X137934Y189976D01*
X137804Y190632D01*
X137432Y191188D01*
X136876Y191560D01*
X136220Y191690D01*
X135564Y191560D01*
X135008Y191188D01*
X134695Y190720D01*
X134153D01*
X133843Y190658D01*
X133580Y190482D01*
X132999Y189901D01*
X132150D01*
X130629Y191423D01*
X130793Y191966D01*
X131166Y192040D01*
X131887Y192522D01*
X132370Y193243D01*
X132439Y193594D01*
X130315D01*
Y194094D01*
X129815D01*
Y196219D01*
X129464Y196149D01*
X128743Y195667D01*
X128260Y194945D01*
X128186Y194573D01*
X127644Y194408D01*
X124855Y197197D01*
X124942Y197638D01*
X124812Y198294D01*
X124440Y198850D01*
X123884Y199221D01*
X123228Y199352D01*
X122573Y199221D01*
X122016Y198850D01*
X121645Y198294D01*
X121514Y197638D01*
X121645Y196982D01*
X121756Y196816D01*
X121658Y196325D01*
X121262Y196061D01*
X120780Y195339D01*
X120710Y194988D01*
X122835D01*
Y193988D01*
X120710D01*
X120780Y193637D01*
X121262Y192916D01*
X121855Y192520D01*
X121918Y192088D01*
X121891Y191942D01*
X121623Y191763D01*
X121251Y191207D01*
X121235Y191126D01*
X120756Y190981D01*
X118811Y192927D01*
Y198520D01*
X119212Y198788D01*
X119584Y199344D01*
X119714Y200000D01*
X119584Y200656D01*
X119538Y200725D01*
X119773Y201166D01*
X174459D01*
X175152Y200473D01*
X175058Y200000D01*
X175188Y199344D01*
X175560Y198788D01*
X176116Y198416D01*
X176772Y198286D01*
X177427Y198416D01*
X177984Y198788D01*
X178355Y199344D01*
X178486Y200000D01*
X178355Y200656D01*
X177984Y201212D01*
X177427Y201584D01*
X176772Y201714D01*
X176298Y201620D01*
X175369Y202550D01*
X175106Y202726D01*
X174795Y202787D01*
X115887D01*
X115577Y202726D01*
X115314Y202550D01*
X115075Y202311D01*
X113480D01*
X113212Y202712D01*
X113205Y202716D01*
X113188Y202897D01*
X113257Y203284D01*
X113712Y203588D01*
X114084Y204144D01*
X114214Y204800D01*
X114084Y205456D01*
X113712Y206012D01*
X113156Y206384D01*
X112500Y206514D01*
X111844Y206384D01*
X111288Y206012D01*
X110916Y205456D01*
X110786Y204800D01*
X110916Y204144D01*
X111288Y203588D01*
X111295Y203584D01*
X111312Y203403D01*
X111243Y203016D01*
X110788Y202712D01*
X110416Y202156D01*
X110286Y201500D01*
X110416Y200844D01*
X110788Y200288D01*
X111344Y199916D01*
X112000Y199786D01*
X112656Y199916D01*
X113212Y200288D01*
X113480Y200689D01*
X115411D01*
X115721Y200751D01*
X115984Y200927D01*
X116020Y200962D01*
X116416Y200656D01*
X116286Y200000D01*
X116416Y199344D01*
X116788Y198788D01*
X117189Y198520D01*
Y192591D01*
X117251Y192280D01*
X117427Y192017D01*
X122017Y187427D01*
X122281Y187251D01*
X122591Y187189D01*
X128542D01*
X128777Y186748D01*
X128731Y186679D01*
X128601Y186024D01*
X128731Y185368D01*
X129103Y184812D01*
X129659Y184440D01*
X130315Y184310D01*
X130971Y184440D01*
X131527Y184812D01*
X131899Y185368D01*
X132029Y186024D01*
X131899Y186679D01*
X131853Y186748D01*
X132088Y187189D01*
X202845D01*
X203081Y186748D01*
X203035Y186679D01*
X202904Y186024D01*
X203035Y185368D01*
X203406Y184812D01*
X203912Y184473D01*
X203894Y184206D01*
X203826Y183975D01*
X203281Y183867D01*
X202725Y183495D01*
X202353Y182939D01*
X202223Y182283D01*
X202353Y181628D01*
X202725Y181071D01*
X203281Y180700D01*
X203937Y180569D01*
X204593Y180700D01*
X205149Y181071D01*
X205521Y181628D01*
X205651Y182283D01*
X205521Y182939D01*
X205149Y183495D01*
X204643Y183834D01*
X204661Y184101D01*
X204729Y184332D01*
X205274Y184440D01*
X205830Y184812D01*
X206202Y185368D01*
X206332Y186024D01*
X206284Y186264D01*
X206745Y186511D01*
X208930Y184325D01*
X208916Y184252D01*
X209046Y183596D01*
X209418Y183040D01*
X209974Y182668D01*
X210630Y182538D01*
X211286Y182668D01*
X211842Y183040D01*
X212214Y183596D01*
X212344Y184252D01*
X212214Y184908D01*
X211842Y185464D01*
X211707Y185555D01*
X211902Y186026D01*
X212205Y185965D01*
X213056Y186134D01*
X213315Y186308D01*
X213756Y186072D01*
Y178555D01*
X213315Y178320D01*
X213246Y178365D01*
X212591Y178496D01*
X211935Y178365D01*
X211379Y177994D01*
X211007Y177438D01*
X210877Y176782D01*
X211007Y176126D01*
X211379Y175570D01*
X211935Y175198D01*
X212591Y175068D01*
X213246Y175198D01*
X213315Y175244D01*
X213756Y175008D01*
Y162913D01*
X213355Y162645D01*
X212983Y162089D01*
X212853Y161433D01*
X212983Y160777D01*
X213355Y160221D01*
X213911Y159850D01*
X214567Y159719D01*
X215223Y159850D01*
X215779Y160221D01*
X215892Y160390D01*
X216392D01*
X216505Y160221D01*
X217061Y159850D01*
X217717Y159719D01*
X218373Y159850D01*
X218929Y160221D01*
X219300Y160777D01*
X219431Y161433D01*
X219300Y162089D01*
X218929Y162645D01*
X218527Y162913D01*
Y164912D01*
X218466Y165223D01*
X218290Y165486D01*
X217318Y166458D01*
Y166564D01*
X217318Y166564D01*
X217256Y166874D01*
X217080Y167137D01*
X216811Y167407D01*
Y175401D01*
X217199Y175546D01*
X217311Y175568D01*
X217848Y175209D01*
X218504Y175079D01*
X219160Y175209D01*
X219716Y175581D01*
X220088Y176137D01*
X220218Y176793D01*
X220174Y177014D01*
X220343Y177155D01*
X220843Y176922D01*
Y162913D01*
X220442Y162645D01*
X220070Y162089D01*
X219940Y161433D01*
X220070Y160777D01*
X220442Y160221D01*
X220998Y159850D01*
X221654Y159719D01*
X222309Y159850D01*
X222866Y160221D01*
X223237Y160777D01*
X223368Y161433D01*
X223237Y162089D01*
X222866Y162645D01*
X222464Y162913D01*
Y174098D01*
X222964Y174147D01*
X223007Y173934D01*
X223183Y173670D01*
X226380Y170473D01*
X226286Y170000D01*
X226416Y169344D01*
X226788Y168788D01*
X227344Y168416D01*
X228000Y168286D01*
X228656Y168416D01*
X228725Y168462D01*
X229166Y168227D01*
Y163738D01*
X206027Y140599D01*
X205609Y140836D01*
X205588Y140867D01*
X205714Y141500D01*
X205584Y142156D01*
X205212Y142712D01*
X204656Y143084D01*
X204000Y143214D01*
X203527Y143120D01*
X202378Y144268D01*
X202570Y144784D01*
X203018Y144873D01*
X203574Y145245D01*
X203946Y145801D01*
X204076Y146457D01*
X204037Y146654D01*
X204331Y147105D01*
X204987Y147235D01*
X205543Y147607D01*
X205914Y148163D01*
X206045Y148819D01*
X205914Y149475D01*
X205543Y150031D01*
X204987Y150403D01*
X204557Y150488D01*
X193729Y161316D01*
X193979Y161773D01*
X194488Y161672D01*
X195144Y161802D01*
X195700Y162174D01*
X196072Y162730D01*
X196202Y163386D01*
X196072Y164042D01*
X195700Y164598D01*
X195144Y164969D01*
X194488Y165100D01*
X193986Y165000D01*
X193658Y165408D01*
X193710Y165486D01*
X193840Y166142D01*
X193710Y166798D01*
X193338Y167354D01*
X192782Y167725D01*
X192126Y167856D01*
X191470Y167725D01*
X190914Y167354D01*
X190542Y166798D01*
X190412Y166142D01*
X190542Y165486D01*
X190914Y164930D01*
X191470Y164558D01*
X192126Y164428D01*
X192628Y164528D01*
X192956Y164119D01*
X192905Y164042D01*
X192774Y163386D01*
X192876Y162876D01*
X192418Y162627D01*
X182600Y172444D01*
X182686Y172573D01*
X182816Y173228D01*
X182761Y173507D01*
X183186Y173932D01*
X183465Y173877D01*
X184121Y174007D01*
X184677Y174379D01*
X184945Y174780D01*
X190800D01*
X190952Y174280D01*
X190553Y174013D01*
X190071Y173292D01*
X190002Y172941D01*
X194250D01*
X194181Y173292D01*
X193699Y174013D01*
X193300Y174280D01*
X193452Y174780D01*
X203909D01*
X205189Y173500D01*
Y171232D01*
X204950Y170993D01*
X204774Y170730D01*
X204713Y170419D01*
Y168480D01*
X204312Y168212D01*
X203940Y167656D01*
X203810Y167000D01*
X203940Y166344D01*
X204312Y165788D01*
X204868Y165416D01*
X205524Y165286D01*
X206180Y165416D01*
X206235Y165453D01*
X206353Y165446D01*
X206493Y165396D01*
X206916Y165156D01*
X206786Y164500D01*
X206916Y163844D01*
X207288Y163288D01*
X207844Y162916D01*
X208500Y162786D01*
X209156Y162916D01*
X209712Y163288D01*
X210084Y163844D01*
X210214Y164500D01*
X210084Y165156D01*
X209712Y165712D01*
X209156Y166084D01*
X208500Y166214D01*
X208311Y166369D01*
Y175965D01*
X208311Y175965D01*
X208249Y176275D01*
X208073Y176538D01*
X208073Y176538D01*
X207258Y177353D01*
X206995Y177529D01*
X206685Y177590D01*
X193068D01*
X192916Y178090D01*
X193212Y178288D01*
X193584Y178844D01*
X193714Y179500D01*
X193584Y180156D01*
X193212Y180712D01*
X192656Y181084D01*
X192000Y181214D01*
X191527Y181120D01*
X191012Y181635D01*
X190749Y181810D01*
X190439Y181872D01*
X189779D01*
X189487Y182372D01*
X189526Y182571D01*
X185277D01*
X185317Y182372D01*
X185024Y181872D01*
X134290D01*
X134290Y181872D01*
X133980Y181810D01*
X133717Y181635D01*
X133717Y181635D01*
X109488Y157406D01*
X109312Y157143D01*
X109250Y156833D01*
Y155649D01*
X108888Y155407D01*
X108517Y154851D01*
X108386Y154195D01*
X108517Y153539D01*
X108888Y152983D01*
X109444Y152611D01*
X110100Y152481D01*
X110756Y152611D01*
X111312Y152983D01*
X111684Y153539D01*
X111814Y154195D01*
X111684Y154851D01*
X111312Y155407D01*
X110872Y155701D01*
Y156497D01*
X111445Y157070D01*
X111924Y156925D01*
X111940Y156844D01*
X112312Y156288D01*
X112713Y156020D01*
Y145181D01*
X112775Y144871D01*
X112950Y144608D01*
X114108Y143450D01*
X114371Y143274D01*
X114681Y143213D01*
X118629D01*
X118939Y143274D01*
X119202Y143450D01*
X126232Y150480D01*
X126620Y150161D01*
X126292Y149670D01*
X126222Y149319D01*
X130471D01*
X130401Y149670D01*
X130289Y149838D01*
X130572Y150028D01*
X131054Y150749D01*
X131124Y151100D01*
X129000D01*
Y152100D01*
X131124D01*
X131054Y152451D01*
X130572Y153173D01*
X130008Y153550D01*
X129873Y154121D01*
X132429Y156677D01*
X134696D01*
X134906Y156177D01*
X134637Y155774D01*
X134506Y155118D01*
X134637Y154462D01*
X135008Y153906D01*
X135564Y153535D01*
X135688Y153510D01*
X137762Y151437D01*
X137786Y151313D01*
X138054Y150912D01*
X138033Y150864D01*
X137724Y150507D01*
X137508Y150550D01*
Y148925D01*
X139132D01*
X139062Y149276D01*
X138654Y149887D01*
X138855Y150296D01*
X138902Y150348D01*
X139370Y150255D01*
X140026Y150385D01*
X140582Y150757D01*
X140954Y151313D01*
X141084Y151969D01*
X140954Y152624D01*
X140582Y153181D01*
X140026Y153552D01*
X139902Y153577D01*
X137829Y155650D01*
X137804Y155774D01*
X137534Y156177D01*
X137744Y156677D01*
X158230D01*
X158539Y156177D01*
X158506Y156012D01*
X162971D01*
X163182Y156320D01*
X163367Y156352D01*
X170427Y149292D01*
X170333Y148819D01*
X170464Y148163D01*
X170835Y147607D01*
X171391Y147235D01*
X172047Y147105D01*
X172703Y147235D01*
X173259Y147607D01*
X173631Y148163D01*
X173761Y148819D01*
X173631Y149475D01*
X173259Y150031D01*
X172703Y150403D01*
X172047Y150533D01*
X171574Y150439D01*
X163951Y158062D01*
X163688Y158237D01*
X163378Y158299D01*
X132093D01*
X131783Y158237D01*
X131520Y158062D01*
X118293Y144834D01*
X117273D01*
X117038Y145275D01*
X117084Y145344D01*
X117214Y146000D01*
X117084Y146656D01*
X116712Y147212D01*
X116311Y147480D01*
Y158865D01*
X136606Y179160D01*
X181859D01*
X183248Y177771D01*
X183083Y177229D01*
X182809Y177174D01*
X182253Y176803D01*
X181881Y176247D01*
X181751Y175591D01*
X181806Y175312D01*
X181381Y174887D01*
X181102Y174942D01*
X180447Y174812D01*
X179890Y174440D01*
X179519Y173884D01*
X179388Y173228D01*
X179519Y172573D01*
X179890Y172016D01*
X180447Y171645D01*
X181102Y171514D01*
X181215Y171537D01*
X184054Y168698D01*
X183909Y168219D01*
X183795Y168196D01*
X183073Y167714D01*
X182591Y166993D01*
X182562Y166846D01*
X182083Y166701D01*
X177998Y170787D01*
X178092Y171260D01*
X177962Y171916D01*
X177590Y172472D01*
X177034Y172843D01*
X176378Y172974D01*
X175722Y172843D01*
X175166Y172472D01*
X175053Y172303D01*
X174553D01*
X174440Y172472D01*
X173884Y172843D01*
X173228Y172974D01*
X172573Y172843D01*
X172016Y172472D01*
X171645Y171916D01*
X171514Y171260D01*
X171645Y170604D01*
X172016Y170048D01*
X172573Y169676D01*
X173228Y169546D01*
X173702Y169640D01*
X181665Y161677D01*
X181602Y161561D01*
Y159555D01*
X183608D01*
X183724Y159617D01*
X188009Y155332D01*
X188272Y155156D01*
X188583Y155095D01*
X189259D01*
X189672Y154682D01*
X189505Y154141D01*
X188913Y154023D01*
X188191Y153541D01*
X187709Y152820D01*
X187639Y152469D01*
X189764D01*
Y151969D01*
X190264D01*
Y149844D01*
X190615Y149914D01*
X191336Y150396D01*
X191818Y151118D01*
X191936Y151710D01*
X192477Y151876D01*
X202380Y141973D01*
X202286Y141500D01*
X202416Y140844D01*
X202788Y140288D01*
X203344Y139916D01*
X203460Y139893D01*
X203410Y139393D01*
X201163D01*
X200998Y139558D01*
X200735Y139733D01*
X200425Y139795D01*
X187449D01*
X187138Y139733D01*
X186875Y139558D01*
X185198Y137881D01*
X184627Y138016D01*
X184250Y138580D01*
X183528Y139062D01*
X183177Y139132D01*
Y137008D01*
X182677D01*
Y136508D01*
X180553D01*
X180623Y136157D01*
X181105Y135435D01*
X181669Y135058D01*
X181804Y134487D01*
X166231Y118913D01*
X149250D01*
X148942Y119413D01*
X148975Y119579D01*
X144726D01*
X144759Y119413D01*
X144450Y118913D01*
X143654D01*
X143343Y118851D01*
X143080Y118676D01*
X143080Y118676D01*
X142145Y117740D01*
X131795D01*
X131527Y118141D01*
X130971Y118513D01*
X130315Y118643D01*
X129659Y118513D01*
X129103Y118141D01*
X128731Y117585D01*
X128715Y117504D01*
X128237Y117359D01*
X87847Y157749D01*
X87826Y158245D01*
X88198Y158801D01*
X88328Y159457D01*
X88198Y160113D01*
X87826Y160669D01*
X87270Y161040D01*
X86614Y161171D01*
X85958Y161040D01*
X85402Y160669D01*
X85031Y160113D01*
X84900Y159457D01*
X85031Y158801D01*
X85402Y158245D01*
X85958Y157873D01*
X86142Y157837D01*
Y157496D01*
X86204Y157186D01*
X86380Y156923D01*
X131277Y112025D01*
X131277Y112025D01*
X131541Y111849D01*
X131851Y111788D01*
X136315D01*
X136583Y111386D01*
X137139Y111015D01*
X137795Y110884D01*
X138451Y111015D01*
X139007Y111386D01*
X139379Y111943D01*
X139509Y112598D01*
X139379Y113254D01*
X139007Y113810D01*
X138451Y114182D01*
X137795Y114312D01*
X137139Y114182D01*
X136583Y113810D01*
X136315Y113409D01*
X132187D01*
X130745Y114851D01*
X130890Y115330D01*
X130971Y115346D01*
X131527Y115717D01*
X131795Y116118D01*
X142481D01*
X142791Y116180D01*
X143054Y116356D01*
X143990Y117292D01*
X144473D01*
X144740Y116792D01*
X144446Y116351D01*
X144376Y116000D01*
X148624D01*
X148555Y116351D01*
X148260Y116792D01*
X148528Y117292D01*
X166567D01*
X166877Y117353D01*
X167140Y117529D01*
X180487Y130875D01*
X180785Y130771D01*
X180974Y130656D01*
X181094Y130053D01*
X181465Y129497D01*
X181758Y129301D01*
X181952Y128922D01*
X181867Y128672D01*
X181616Y128297D01*
X181486Y127641D01*
X181616Y126985D01*
X181988Y126429D01*
X182544Y126057D01*
X183200Y125927D01*
X183856Y126057D01*
X184412Y126429D01*
X184784Y126985D01*
X184914Y127641D01*
X184784Y128297D01*
X184412Y128853D01*
X184119Y129049D01*
X183925Y129427D01*
X184010Y129677D01*
X184261Y130053D01*
X184391Y130709D01*
X184261Y131365D01*
X183889Y131921D01*
X183333Y132292D01*
X182730Y132412D01*
X182615Y132601D01*
X182510Y132899D01*
X187785Y138173D01*
X193269D01*
X193578Y137673D01*
X193460Y137083D01*
X193226Y136974D01*
X192959Y136933D01*
X192911Y137005D01*
X192190Y137488D01*
X191839Y137557D01*
Y135433D01*
Y133309D01*
X192190Y133378D01*
X192911Y133861D01*
X193393Y134582D01*
X193547Y135357D01*
X193782Y135467D01*
X194048Y135508D01*
X194097Y135435D01*
X194689Y135039D01*
X194753Y134608D01*
X194725Y134462D01*
X194457Y134283D01*
X194086Y133727D01*
X193955Y133071D01*
X194086Y132415D01*
X194457Y131859D01*
X195013Y131487D01*
X195669Y131357D01*
X196325Y131487D01*
X196881Y131859D01*
X197253Y132415D01*
X197383Y133071D01*
X197253Y133727D01*
X196881Y134283D01*
X196613Y134462D01*
X196586Y134608D01*
X196649Y135039D01*
X197242Y135435D01*
X197441Y135734D01*
X197643Y135746D01*
X198004Y135676D01*
X198427Y135042D01*
X199020Y134646D01*
X199084Y134214D01*
X199056Y134068D01*
X198788Y133889D01*
X198416Y133333D01*
X198286Y132677D01*
X198416Y132021D01*
X198788Y131465D01*
X199344Y131094D01*
X199454Y131072D01*
X199619Y130529D01*
X155394Y86305D01*
X155118Y86360D01*
X154462Y86229D01*
X153906Y85858D01*
X153535Y85302D01*
X153404Y84646D01*
X153535Y83990D01*
X153906Y83434D01*
X154462Y83062D01*
X155118Y82932D01*
X155774Y83062D01*
X156330Y83434D01*
X156702Y83990D01*
X156832Y84646D01*
X156702Y85302D01*
X156695Y85312D01*
X204050Y132667D01*
X204510Y132420D01*
X204469Y132213D01*
X204638Y131362D01*
X205120Y130640D01*
X205842Y130158D01*
X206193Y130088D01*
Y132213D01*
X206693D01*
Y132713D01*
X208817D01*
X208748Y133064D01*
X208265Y133785D01*
X207544Y134267D01*
X206693Y134436D01*
X206485Y134395D01*
X206239Y134856D01*
X224224Y152841D01*
X224500Y152786D01*
X225156Y152916D01*
X225712Y153288D01*
X226084Y153844D01*
X226214Y154500D01*
X226084Y155156D01*
X225712Y155712D01*
X225156Y156084D01*
X224619Y156190D01*
X224449Y156529D01*
X224422Y156701D01*
X229794Y162073D01*
X230256Y161881D01*
Y145037D01*
X229734Y144514D01*
X229558Y144251D01*
X229496Y143941D01*
Y125563D01*
X228996Y125340D01*
X228609Y125599D01*
X227953Y125730D01*
X227297Y125599D01*
X226741Y125228D01*
X226369Y124672D01*
X226239Y124016D01*
X226369Y123360D01*
X226741Y122804D01*
X227297Y122432D01*
X227953Y122302D01*
X228609Y122432D01*
X228996Y122691D01*
X229496Y122468D01*
Y112693D01*
X229558Y112383D01*
X229734Y112120D01*
X232887Y108967D01*
X232887Y108967D01*
X233150Y108791D01*
X233460Y108729D01*
X233949D01*
X234260Y108791D01*
X234523Y108967D01*
X235687Y110131D01*
X236259Y109996D01*
X236636Y109432D01*
X237357Y108949D01*
X237708Y108880D01*
Y111004D01*
X238209D01*
Y111504D01*
X240333D01*
X240263Y111855D01*
X239781Y112577D01*
X239217Y112954D01*
X239081Y113525D01*
X239684Y114128D01*
X240157Y114034D01*
X240813Y114164D01*
X241369Y114536D01*
X241741Y115092D01*
X241871Y115748D01*
X241741Y116404D01*
X241369Y116960D01*
X240813Y117332D01*
X240157Y117462D01*
X239502Y117332D01*
X238945Y116960D01*
X238574Y116404D01*
X238443Y115748D01*
X238491Y115508D01*
X238380Y115425D01*
X237927Y115712D01*
X237934Y115748D01*
X237804Y116404D01*
X237432Y116960D01*
X236876Y117332D01*
X236220Y117462D01*
X235760Y117370D01*
X235513Y117831D01*
X243249Y125567D01*
X244988D01*
X245191Y125067D01*
X244916Y124656D01*
X244786Y124000D01*
X244916Y123344D01*
X245288Y122788D01*
X245844Y122416D01*
X246500Y122286D01*
X247156Y122416D01*
X247712Y122788D01*
X247980Y123189D01*
X257161D01*
X257471Y123251D01*
X257734Y123427D01*
X257973Y123665D01*
X265227D01*
X265462Y123225D01*
X265416Y123156D01*
X265286Y122500D01*
X265416Y121844D01*
X265788Y121288D01*
X266189Y121020D01*
Y117713D01*
X266251Y117402D01*
X266427Y117139D01*
X274805Y108761D01*
X274614Y108299D01*
X271588D01*
X261975Y117912D01*
X262014Y118108D01*
X261884Y118764D01*
X261512Y119320D01*
X261055Y119626D01*
Y119721D01*
X261426Y120277D01*
X261557Y120933D01*
X261426Y121589D01*
X261055Y122145D01*
X260498Y122517D01*
X259843Y122647D01*
X259187Y122517D01*
X258631Y122145D01*
X258259Y121589D01*
X258129Y120933D01*
X258169Y120732D01*
X256518Y119082D01*
X255975Y119246D01*
X255914Y119553D01*
X255543Y120110D01*
X254987Y120481D01*
X254331Y120612D01*
X253675Y120481D01*
X253119Y120110D01*
X252747Y119553D01*
X252617Y118898D01*
X252747Y118242D01*
X253119Y117686D01*
X253675Y117314D01*
X253982Y117253D01*
X254147Y116710D01*
X252622Y115186D01*
X252505Y115248D01*
X247876D01*
X247945Y114897D01*
X248428Y114175D01*
X249149Y113693D01*
X249296Y113664D01*
X249441Y113186D01*
X247463Y111208D01*
X246920Y111372D01*
X246859Y111679D01*
X246488Y112236D01*
X245932Y112607D01*
X245276Y112738D01*
X244620Y112607D01*
X244064Y112236D01*
X243692Y111679D01*
X243562Y111024D01*
X243692Y110368D01*
X244064Y109812D01*
X244620Y109440D01*
X244927Y109379D01*
X245091Y108836D01*
X234725Y98470D01*
X234252Y98564D01*
X233596Y98434D01*
X233040Y98062D01*
X232668Y97506D01*
X232538Y96850D01*
X232668Y96194D01*
X233040Y95638D01*
X233596Y95267D01*
X234252Y95136D01*
X234908Y95267D01*
X235464Y95638D01*
X235836Y96194D01*
X235966Y96850D01*
X235872Y97324D01*
X249013Y110464D01*
X249491Y110319D01*
X249520Y110173D01*
X250002Y109451D01*
X250724Y108969D01*
X251075Y108899D01*
Y111024D01*
X252075D01*
Y108899D01*
X252382Y108960D01*
X252411Y108938D01*
X252522Y108394D01*
X247463Y103334D01*
X246920Y103498D01*
X246859Y103805D01*
X246488Y104362D01*
X245932Y104733D01*
X245276Y104864D01*
X244620Y104733D01*
X244064Y104362D01*
X243692Y103805D01*
X243562Y103150D01*
X243692Y102494D01*
X244064Y101938D01*
X244620Y101566D01*
X244927Y101505D01*
X245091Y100962D01*
X242599Y98470D01*
X242126Y98564D01*
X241470Y98434D01*
X240914Y98062D01*
X240542Y97506D01*
X240412Y96850D01*
X240542Y96194D01*
X240914Y95638D01*
X241470Y95267D01*
X242126Y95136D01*
X242782Y95267D01*
X242915Y95356D01*
X243377Y95164D01*
X243445Y94818D01*
X243928Y94097D01*
X244649Y93615D01*
X245000Y93545D01*
Y95669D01*
Y97794D01*
X244904Y97775D01*
X244658Y98235D01*
X251750Y105327D01*
X252292Y105163D01*
X252353Y104856D01*
X252682Y104364D01*
X252722Y104283D01*
X252621Y103768D01*
X252331Y103574D01*
X251960Y103018D01*
X251829Y102362D01*
X251960Y101706D01*
X252331Y101150D01*
X252888Y100779D01*
X253543Y100648D01*
X254049Y100749D01*
X260151Y94647D01*
X260015Y94076D01*
X259451Y93699D01*
X258969Y92977D01*
X258899Y92626D01*
X261024D01*
Y92126D01*
X261524D01*
Y90002D01*
X261875Y90071D01*
X262596Y90553D01*
X262973Y91118D01*
X263545Y91253D01*
X266775Y88023D01*
X266726Y87525D01*
X266538Y87399D01*
X266056Y86678D01*
X265986Y86327D01*
X270235D01*
X270202Y86492D01*
X270510Y86992D01*
X274499D01*
X274772Y86583D01*
X275328Y86212D01*
X275984Y86081D01*
X276640Y86212D01*
X277196Y86583D01*
X277568Y87139D01*
X277698Y87795D01*
X277568Y88451D01*
X277522Y88520D01*
X277758Y88961D01*
X281153D01*
X281363Y88461D01*
X281094Y88058D01*
X280963Y87402D01*
X281094Y86746D01*
X281465Y86190D01*
X282021Y85818D01*
X282677Y85688D01*
X283333Y85818D01*
X283889Y86190D01*
X284157Y86591D01*
X291003D01*
X298774Y78820D01*
X298680Y78346D01*
X298810Y77691D01*
X299182Y77134D01*
X299020Y76666D01*
X293473Y71120D01*
X293000Y71214D01*
X292344Y71084D01*
X291788Y70712D01*
X291416Y70156D01*
X291286Y69500D01*
X291416Y68844D01*
X291788Y68288D01*
X292344Y67916D01*
X293000Y67786D01*
X293656Y67916D01*
X294212Y68288D01*
X294584Y68844D01*
X294714Y69500D01*
X294620Y69973D01*
X300628Y75981D01*
X300804Y76244D01*
X300866Y76555D01*
Y76726D01*
X301050Y76763D01*
X301606Y77134D01*
X301977Y77691D01*
X302108Y78346D01*
X301977Y79002D01*
X301606Y79558D01*
X301050Y79930D01*
X300394Y80060D01*
X299921Y79966D01*
X291912Y87975D01*
X291649Y88151D01*
X291339Y88213D01*
X284397D01*
X284232Y88461D01*
X284498Y88961D01*
X292964D01*
X311372Y70552D01*
X311278Y70079D01*
X311409Y69423D01*
X311780Y68867D01*
X312336Y68495D01*
X312992Y68365D01*
X313648Y68495D01*
X314204Y68867D01*
X314576Y69423D01*
X314706Y70079D01*
X314576Y70735D01*
X314204Y71291D01*
X313648Y71662D01*
X312992Y71793D01*
X312519Y71699D01*
X293873Y90345D01*
X293610Y90521D01*
X293299Y90582D01*
X278319D01*
X278096Y91082D01*
X278355Y91470D01*
X278486Y92126D01*
X278355Y92782D01*
X277984Y93338D01*
X277583Y93606D01*
Y95727D01*
X280235Y98380D01*
X280709Y98286D01*
X281364Y98416D01*
X281921Y98788D01*
X282292Y99344D01*
X282423Y100000D01*
X282292Y100656D01*
X281921Y101212D01*
X281364Y101584D01*
X280709Y101714D01*
X280053Y101584D01*
X279497Y101212D01*
X279125Y100656D01*
X278995Y100000D01*
X279089Y99527D01*
X276198Y96636D01*
X276023Y96373D01*
X275961Y96063D01*
Y93606D01*
X275560Y93338D01*
X275188Y92782D01*
X275058Y92126D01*
X275188Y91470D01*
X275201Y91451D01*
X274968Y90900D01*
X274805Y90870D01*
X269206Y96468D01*
X269311Y96815D01*
X269402Y96979D01*
X270073Y97427D01*
X270555Y98149D01*
X270624Y98500D01*
X268500D01*
Y99000D01*
X268000D01*
Y101124D01*
X267649Y101055D01*
X266928Y100573D01*
X266480Y99902D01*
X266315Y99812D01*
X265968Y99706D01*
X263028Y102646D01*
X263173Y103125D01*
X263254Y103141D01*
X263359Y103211D01*
X267349D01*
X267454Y103141D01*
X268110Y103010D01*
X268766Y103141D01*
X269322Y103512D01*
X269694Y104069D01*
X269824Y104724D01*
X269694Y105380D01*
X269322Y105936D01*
X268766Y106308D01*
X268110Y106438D01*
X267454Y106308D01*
X267349Y106238D01*
X263359D01*
X263254Y106308D01*
X262598Y106438D01*
X261943Y106308D01*
X261386Y105936D01*
X261015Y105380D01*
X260999Y105299D01*
X260520Y105154D01*
X259589Y106085D01*
X259326Y106261D01*
X259016Y106323D01*
X255417D01*
X255149Y106724D01*
X254593Y107095D01*
X254286Y107156D01*
X254121Y107699D01*
X258447Y112025D01*
X258447Y112025D01*
X258623Y112288D01*
X258685Y112598D01*
X258685Y112599D01*
Y114662D01*
X259086Y114930D01*
X259458Y115486D01*
X259588Y116142D01*
X260037Y116446D01*
X260300Y116394D01*
X260956Y116524D01*
X261024Y116569D01*
X270679Y106915D01*
X270942Y106739D01*
X271252Y106677D01*
X271252Y106677D01*
X291301D01*
X291609Y106177D01*
X291576Y106012D01*
X293701D01*
Y105512D01*
X294201D01*
Y103387D01*
X294552Y103457D01*
X294844Y103051D01*
X295128Y102628D01*
X295849Y102146D01*
X296200Y102076D01*
Y104200D01*
X297200D01*
Y102076D01*
X297551Y102146D01*
X298272Y102628D01*
X298650Y103192D01*
X299221Y103327D01*
X306475Y96074D01*
X306156Y95685D01*
X306051Y95755D01*
X305700Y95825D01*
Y94201D01*
X307324D01*
X307255Y94552D01*
X307184Y94657D01*
X307573Y94976D01*
X325563Y76986D01*
X325826Y76810D01*
X326136Y76748D01*
X336059D01*
X336369Y76810D01*
X336632Y76986D01*
X341027Y81380D01*
X341500Y81286D01*
X342156Y81416D01*
X342712Y81788D01*
X343084Y82344D01*
X343214Y83000D01*
X343084Y83656D01*
X342712Y84212D01*
X342156Y84584D01*
X341500Y84714D01*
X340844Y84584D01*
X340288Y84212D01*
X339916Y83656D01*
X339786Y83000D01*
X339880Y82527D01*
X336840Y79487D01*
X336741Y79497D01*
X336330Y79684D01*
X336229Y80191D01*
X335858Y80747D01*
X335301Y81119D01*
X334646Y81249D01*
X334166Y81154D01*
X306168Y109152D01*
X305905Y109328D01*
X305594Y109390D01*
X298724D01*
X298596Y109591D01*
X298508Y109890D01*
X298828Y110368D01*
X298958Y111024D01*
X298864Y111497D01*
X314073Y126706D01*
X314073Y126706D01*
X314249Y126969D01*
X314311Y127280D01*
X314311Y127280D01*
Y135520D01*
X314712Y135788D01*
X315084Y136344D01*
X315193Y136893D01*
X315214Y137000D01*
X315687Y137009D01*
X315701Y136938D01*
X315739Y136746D01*
X316111Y136190D01*
X316667Y135818D01*
X317323Y135688D01*
X317979Y135818D01*
X318535Y136190D01*
X318906Y136746D01*
X319037Y137402D01*
X319018Y137498D01*
X319685Y138166D01*
X328835D01*
X329103Y137764D01*
X329659Y137393D01*
X330315Y137262D01*
X330971Y137393D01*
X331527Y137764D01*
X331899Y138321D01*
X332029Y138976D01*
X331899Y139632D01*
X331527Y140188D01*
X330971Y140560D01*
X330315Y140690D01*
X329659Y140560D01*
X329103Y140188D01*
X328835Y139787D01*
X326863D01*
X326711Y140287D01*
X326712Y140288D01*
X327084Y140844D01*
X327214Y141500D01*
X327084Y142156D01*
X326801Y142579D01*
X326994Y143079D01*
X331479D01*
X335184Y139374D01*
X335184Y139374D01*
X335447Y139198D01*
X335757Y139137D01*
X338100D01*
X338368Y138735D01*
X338924Y138364D01*
X339580Y138233D01*
X340236Y138364D01*
X340792Y138735D01*
X341163Y139292D01*
X341294Y139947D01*
X341163Y140603D01*
X340792Y141159D01*
X340236Y141531D01*
X339580Y141662D01*
X338924Y141531D01*
X338368Y141159D01*
X338100Y140758D01*
X336393D01*
X336259Y140929D01*
X336244Y141002D01*
X336374Y141562D01*
X336712Y141788D01*
X337084Y142344D01*
X337214Y143000D01*
X337084Y143656D01*
X337025Y143744D01*
X337260Y144185D01*
X348689D01*
Y170776D01*
X330120D01*
X329853Y171276D01*
X329930Y171391D01*
X330060Y172047D01*
X329930Y172703D01*
X329558Y173259D01*
X329002Y173631D01*
X328346Y173761D01*
X327691Y173631D01*
X327134Y173259D01*
X326763Y172703D01*
X326632Y172047D01*
X326763Y171391D01*
X326840Y171276D01*
X326573Y170776D01*
X318161D01*
Y166760D01*
X317661Y166493D01*
X317585Y166544D01*
X316929Y166675D01*
X316273Y166544D01*
X315717Y166173D01*
X315346Y165617D01*
X315215Y164961D01*
X315346Y164305D01*
X315717Y163749D01*
X316118Y163481D01*
Y160929D01*
X315717Y160661D01*
X315346Y160105D01*
X315215Y159449D01*
X315346Y158793D01*
X315717Y158237D01*
X316273Y157865D01*
X316929Y157735D01*
X317585Y157865D01*
X317661Y157916D01*
X318161Y157649D01*
Y154720D01*
X317661Y154469D01*
X317588Y154523D01*
X317666Y154913D01*
X317496Y155764D01*
X317014Y156486D01*
X316293Y156968D01*
X315942Y157038D01*
Y154913D01*
X315442D01*
Y154413D01*
X313317D01*
X313387Y154062D01*
X313869Y153341D01*
X314591Y152859D01*
X315136Y152751D01*
X315166Y152414D01*
X314697Y152164D01*
X314170Y152515D01*
X313819Y152585D01*
Y150461D01*
X313319D01*
Y149961D01*
X311194D01*
X311264Y149610D01*
X311746Y148888D01*
X312468Y148406D01*
X313319Y148237D01*
X313703Y147980D01*
X313745Y147767D01*
X314050Y147311D01*
X313932Y146955D01*
X313829Y146811D01*
X312142D01*
X312142Y146811D01*
X311831Y146749D01*
X311568Y146573D01*
X307166Y142171D01*
X306693Y142265D01*
X306323Y142192D01*
X306041Y142645D01*
X306308Y143045D01*
X306438Y143701D01*
X306308Y144357D01*
X305936Y144913D01*
X305535Y145181D01*
Y147733D01*
X305936Y148001D01*
X306308Y148557D01*
X306438Y149213D01*
X306308Y149869D01*
X305936Y150425D01*
X305380Y150796D01*
X304724Y150927D01*
X304068Y150796D01*
X303512Y150425D01*
X303141Y149869D01*
X303010Y149213D01*
X303141Y148557D01*
X303512Y148001D01*
X303913Y147733D01*
Y145181D01*
X303512Y144913D01*
X303141Y144357D01*
X303010Y143701D01*
X303141Y143045D01*
X303512Y142489D01*
X303906Y142226D01*
Y130681D01*
X303406Y130458D01*
X303018Y130717D01*
X302362Y130848D01*
X301706Y130717D01*
X301150Y130346D01*
X301135Y130324D01*
X300635Y130475D01*
Y149676D01*
X301485Y150526D01*
X301485Y150526D01*
X301813Y151017D01*
X301919Y151550D01*
X304270Y153902D01*
X304394Y153926D01*
X304950Y154298D01*
X305322Y154854D01*
X305452Y155510D01*
X305322Y156166D01*
X305252Y156271D01*
Y168248D01*
X305136Y168828D01*
X304808Y169318D01*
X304808Y169319D01*
X304663Y169464D01*
Y171042D01*
X305163Y171309D01*
X305250Y171251D01*
X305906Y171121D01*
X306561Y171251D01*
X307118Y171623D01*
X307489Y172179D01*
X307620Y172835D01*
X307489Y173491D01*
X307118Y174047D01*
X306716Y174315D01*
Y178404D01*
X308582Y180270D01*
X309055Y180176D01*
X309711Y180306D01*
X310267Y180678D01*
X310535Y181079D01*
X312533D01*
X312844Y181141D01*
X313107Y181316D01*
X313235Y181445D01*
X313696Y181198D01*
X313676Y181100D01*
X313845Y180249D01*
X314328Y179527D01*
X315049Y179045D01*
X315400Y178976D01*
Y181100D01*
X315900D01*
Y181600D01*
X318024D01*
X317991Y181765D01*
X318300Y182265D01*
X328360D01*
X334372Y176253D01*
X334635Y176078D01*
X334945Y176016D01*
X347878D01*
X352058Y171836D01*
X351912Y171358D01*
X351832Y171342D01*
X351275Y170970D01*
X350904Y170414D01*
X350773Y169758D01*
X350904Y169103D01*
X351275Y168546D01*
X351832Y168175D01*
X352487Y168044D01*
X353143Y168175D01*
X353212Y168221D01*
X353653Y167985D01*
Y160800D01*
X351473Y158620D01*
X351000Y158714D01*
X350344Y158584D01*
X349788Y158212D01*
X349416Y157656D01*
X349286Y157000D01*
X349416Y156344D01*
X349788Y155788D01*
X350344Y155416D01*
X351000Y155286D01*
X351656Y155416D01*
X352212Y155788D01*
X352584Y156344D01*
X352714Y157000D01*
X352620Y157473D01*
X355037Y159890D01*
X355037Y159890D01*
X355213Y160153D01*
X355275Y160464D01*
Y170577D01*
X355213Y170887D01*
X355037Y171150D01*
X355037Y171150D01*
X348787Y177400D01*
X348524Y177576D01*
X348214Y177638D01*
X335281D01*
X333156Y179762D01*
X333292Y180334D01*
X333856Y180711D01*
X334338Y181432D01*
X334408Y181783D01*
X332283D01*
Y182283D01*
X331783D01*
Y184408D01*
X331432Y184338D01*
X330711Y183856D01*
X330334Y183292D01*
X329762Y183156D01*
X329269Y183650D01*
X329006Y183826D01*
X328695Y183887D01*
X322030D01*
X321931Y184387D01*
X322034Y184430D01*
X323122Y185264D01*
X323956Y186352D01*
X324480Y187618D01*
X324659Y188976D01*
X324480Y190335D01*
X323956Y191601D01*
X323122Y192688D01*
X322034Y193523D01*
X320768Y194047D01*
X319409Y194226D01*
X318654Y194127D01*
X318421Y194600D01*
X326570Y202749D01*
X326570Y202749D01*
X326898Y203240D01*
X327013Y203819D01*
X327013Y203819D01*
Y208062D01*
X327013Y208062D01*
X326898Y208641D01*
X326570Y209132D01*
X324969Y210733D01*
Y213695D01*
X325039Y213800D01*
X325170Y214456D01*
X325039Y215111D01*
X324668Y215668D01*
X324112Y216039D01*
X323456Y216170D01*
X322800Y216039D01*
X322359Y215745D01*
X321757Y215746D01*
X321673Y215873D01*
X320951Y216355D01*
X320600Y216424D01*
Y214300D01*
Y212176D01*
X320951Y212245D01*
X321442Y212574D01*
X321942Y212306D01*
Y210106D01*
X321942Y210106D01*
X322057Y209527D01*
X322386Y209036D01*
X323414Y208008D01*
X323335Y207860D01*
Y205390D01*
X322335D01*
Y207514D01*
X321984Y207444D01*
X321262Y206962D01*
X320780Y206241D01*
X320611Y205390D01*
X320630Y205294D01*
X320579Y205243D01*
Y202756D01*
X320079D01*
Y202256D01*
X317954D01*
X318024Y201905D01*
X318506Y201184D01*
X319228Y200701D01*
X319553Y200637D01*
X319699Y200158D01*
X302080Y182539D01*
X301751Y182048D01*
X301636Y181469D01*
X301636Y181469D01*
Y168837D01*
X301636Y168837D01*
X301663Y168705D01*
X301213Y168404D01*
X301050Y168513D01*
X300394Y168643D01*
X300100Y169095D01*
X300139Y169291D01*
X300009Y169947D01*
X299637Y170503D01*
X299081Y170875D01*
X298425Y171005D01*
X297769Y170875D01*
X297213Y170503D01*
X296842Y169947D01*
X296711Y169291D01*
X296842Y168635D01*
X297213Y168079D01*
X297769Y167708D01*
X298425Y167577D01*
X298719Y167126D01*
X298680Y166929D01*
X298810Y166273D01*
X299182Y165717D01*
X299738Y165346D01*
X300394Y165215D01*
X301050Y165346D01*
X301606Y165717D01*
X301725Y165896D01*
X302225Y165744D01*
Y156271D01*
X302155Y156166D01*
X302130Y156042D01*
X299344Y153256D01*
X299016Y152765D01*
X298910Y152232D01*
X298052Y151373D01*
X297955Y151228D01*
X297308Y151661D01*
X296957Y151731D01*
Y149606D01*
Y147482D01*
X297109Y147512D01*
X297609Y147197D01*
Y143908D01*
X297168Y143673D01*
X297112Y143710D01*
X296457Y143840D01*
X295801Y143710D01*
X295245Y143338D01*
X294977Y142937D01*
X276415D01*
X263930Y155422D01*
X264075Y155900D01*
X264156Y155916D01*
X264712Y156288D01*
X265084Y156844D01*
X265214Y157500D01*
X265120Y157973D01*
X266958Y159811D01*
X278339D01*
X278649Y159873D01*
X278912Y160049D01*
X286141Y167278D01*
X286614Y167184D01*
X287270Y167314D01*
X287826Y167686D01*
X288198Y168242D01*
X288328Y168898D01*
X288198Y169553D01*
X287826Y170110D01*
X287270Y170481D01*
X286614Y170612D01*
X286085Y170506D01*
X286012Y170579D01*
X285882Y171235D01*
X285510Y171791D01*
X285359Y171892D01*
X285219Y172368D01*
X285395Y172631D01*
X285456Y172941D01*
X285456Y172941D01*
Y174111D01*
X285858Y174379D01*
X286229Y174935D01*
X286245Y175016D01*
X286724Y175161D01*
X291817Y170068D01*
X291652Y169525D01*
X291444Y169484D01*
X290888Y169112D01*
X290516Y168556D01*
X290386Y167900D01*
X290516Y167244D01*
X290888Y166688D01*
X291444Y166316D01*
X292100Y166186D01*
X292756Y166316D01*
X293312Y166688D01*
X293684Y167244D01*
X293725Y167452D01*
X294268Y167617D01*
X294649Y167236D01*
X294606Y166666D01*
X294457Y166566D01*
X294086Y166010D01*
X293955Y165354D01*
X294086Y164699D01*
X294457Y164142D01*
X295013Y163771D01*
X295669Y163640D01*
X296325Y163771D01*
X296881Y164142D01*
X297253Y164699D01*
X297383Y165354D01*
X297253Y166010D01*
X296881Y166566D01*
X296421Y166874D01*
Y167421D01*
X296359Y167732D01*
X296183Y167995D01*
X285250Y178928D01*
X284987Y179104D01*
X284677Y179165D01*
X248714D01*
X244554Y183325D01*
Y184249D01*
X244956Y184517D01*
X245327Y185073D01*
X245502Y185145D01*
X245844Y184916D01*
X246500Y184786D01*
X246973Y184880D01*
X248962Y182891D01*
X248962Y182891D01*
X249225Y182715D01*
X249535Y182654D01*
X252457D01*
X252725Y182253D01*
X253281Y181881D01*
X253937Y181751D01*
X254593Y181881D01*
X255149Y182253D01*
X255521Y182809D01*
X255651Y183465D01*
X255521Y184121D01*
X255149Y184677D01*
X254593Y185048D01*
X253937Y185179D01*
X253281Y185048D01*
X253204Y184997D01*
X252795Y185325D01*
X252895Y185827D01*
X252765Y186483D01*
X252393Y187039D01*
X251837Y187410D01*
X251181Y187541D01*
X250708Y187447D01*
X249652Y188503D01*
X249746Y188976D01*
X249615Y189632D01*
X249244Y190188D01*
X248688Y190560D01*
X248644Y190569D01*
X248538Y191100D01*
X248850Y191308D01*
X249221Y191864D01*
X249352Y192520D01*
X249221Y193175D01*
X248878Y193689D01*
X248927Y193896D01*
X249065Y194189D01*
X252020D01*
X252288Y193788D01*
X252844Y193416D01*
X253500Y193286D01*
X254156Y193416D01*
X254712Y193788D01*
X255084Y194344D01*
X255214Y195000D01*
X255084Y195656D01*
X254712Y196212D01*
X254156Y196584D01*
X253500Y196714D01*
X252844Y196584D01*
X252288Y196212D01*
X252020Y195811D01*
X241774D01*
X241582Y196273D01*
X247499Y202189D01*
X249520D01*
X249788Y201788D01*
X250344Y201416D01*
X251000Y201286D01*
X251656Y201416D01*
X252212Y201788D01*
X252584Y202344D01*
X252714Y203000D01*
X252584Y203656D01*
X252212Y204212D01*
X251656Y204584D01*
X251000Y204714D01*
X250344Y204584D01*
X249788Y204212D01*
X249520Y203811D01*
X247163D01*
X246852Y203749D01*
X246589Y203573D01*
X232398Y189382D01*
X231920Y189527D01*
X231899Y189632D01*
X231527Y190188D01*
X230971Y190560D01*
X230315Y190690D01*
X229659Y190560D01*
X229656Y190558D01*
X229214Y190783D01*
X229178Y191211D01*
X232857Y194890D01*
X233032Y195153D01*
X233094Y195463D01*
Y200095D01*
X233495Y200363D01*
X233867Y200919D01*
X233997Y201575D01*
X233903Y202048D01*
X238131Y206276D01*
X241483D01*
X241675Y205814D01*
X239056Y203195D01*
X238583Y203289D01*
X237927Y203158D01*
X237371Y202787D01*
X236999Y202231D01*
X236869Y201575D01*
X236999Y200919D01*
X237371Y200363D01*
X237927Y199991D01*
X238583Y199861D01*
X239239Y199991D01*
X239795Y200363D01*
X240166Y200919D01*
X240297Y201575D01*
X240202Y202048D01*
X244430Y206276D01*
X250877D01*
X256430Y200723D01*
X256336Y200250D01*
X256466Y199594D01*
X256838Y199038D01*
X257394Y198666D01*
X258050Y198536D01*
X258706Y198666D01*
X259262Y199038D01*
X259634Y199594D01*
X259764Y200250D01*
X259658Y200782D01*
X259839Y201005D01*
X259915Y201073D01*
X260055Y201156D01*
X260630Y201042D01*
X261286Y201172D01*
X261842Y201544D01*
X262214Y202100D01*
X262344Y202756D01*
X262214Y203412D01*
X261900Y203882D01*
X262260Y204242D01*
X262730Y203928D01*
X263386Y203798D01*
X264042Y203928D01*
X264598Y204300D01*
X264969Y204856D01*
X265100Y205512D01*
X264969Y206168D01*
X264598Y206724D01*
X264042Y207095D01*
X263386Y207226D01*
X262913Y207132D01*
X261280Y208764D01*
X261017Y208940D01*
X260707Y209001D01*
X236104D01*
X235794Y208940D01*
X235531Y208764D01*
X227884Y201117D01*
X227709Y200854D01*
X227647Y200544D01*
Y199266D01*
X222356Y193975D01*
X221885Y194212D01*
X221740Y194945D01*
X221257Y195667D01*
X220536Y196149D01*
X220185Y196219D01*
Y194094D01*
X219685D01*
Y193594D01*
X217561D01*
X217631Y193243D01*
X218112Y192522D01*
X218647Y192165D01*
X218887Y191624D01*
X218756Y190968D01*
X218887Y190312D01*
X219258Y189756D01*
X219814Y189384D01*
X220470Y189254D01*
X221126Y189384D01*
X221682Y189756D01*
X222054Y190312D01*
X222184Y190968D01*
X222094Y191420D01*
X224888Y194214D01*
X225359Y193977D01*
X225504Y193243D01*
X225987Y192522D01*
X226708Y192040D01*
X227143Y191953D01*
X227556Y191838D01*
X227528Y191518D01*
Y186222D01*
X226078Y184772D01*
X225600Y184917D01*
X225584Y184998D01*
X225212Y185554D01*
X224656Y185926D01*
X224000Y186056D01*
X223344Y185926D01*
X222788Y185554D01*
X222416Y184998D01*
X222286Y184342D01*
X222416Y183686D01*
X222788Y183130D01*
X223344Y182759D01*
X223425Y182743D01*
X223570Y182264D01*
X222445Y181139D01*
X222039D01*
X221728Y181077D01*
X221465Y180901D01*
X218977Y178413D01*
X218504Y178507D01*
X217848Y178376D01*
X217311Y178018D01*
X217199Y178040D01*
X216811Y178185D01*
Y194275D01*
X216811Y194275D01*
X216749Y194586D01*
X216573Y194849D01*
X216573Y194849D01*
X202838Y208583D01*
X202575Y208759D01*
X202265Y208821D01*
X200987D01*
X192259Y217549D01*
X192425Y218090D01*
X193121Y218229D01*
X193931Y218770D01*
X194472Y219580D01*
X194662Y220535D01*
X194472Y221491D01*
X193931Y222301D01*
X193121Y222842D01*
X192165Y223032D01*
X191210Y222842D01*
X190400Y222301D01*
X189859Y221491D01*
X189720Y220795D01*
X189179Y220629D01*
X186659Y223149D01*
X186753Y223622D01*
X186623Y224278D01*
X186251Y224834D01*
X185695Y225206D01*
X185039Y225336D01*
X184383Y225206D01*
X183827Y224834D01*
X183456Y224278D01*
X183325Y223622D01*
X183456Y222966D01*
X183827Y222410D01*
X184383Y222038D01*
X185039Y221908D01*
X185513Y222002D01*
X192005Y215510D01*
X191840Y214967D01*
X191210Y214842D01*
X190400Y214301D01*
X189859Y213491D01*
X189669Y212535D01*
X189859Y211580D01*
X190178Y211102D01*
X189911Y210602D01*
X157080D01*
X137053Y230629D01*
X137147Y231102D01*
X137017Y231758D01*
X136645Y232314D01*
X136089Y232686D01*
X135433Y232816D01*
D02*
G37*
G36*
X311917Y198187D02*
Y196563D01*
X313542D01*
X313472Y196914D01*
X312990Y197635D01*
X312268Y198118D01*
X311917Y198187D01*
D02*
G37*
G36*
X310917D02*
X310566Y198118D01*
X309845Y197635D01*
X309363Y196914D01*
X309293Y196563D01*
X310917D01*
Y198187D01*
D02*
G37*
G36*
X222047Y199746D02*
X221391Y199615D01*
X220835Y199244D01*
X220464Y198688D01*
X220333Y198032D01*
X220464Y197376D01*
X220835Y196820D01*
X221391Y196448D01*
X222047Y196318D01*
X222703Y196448D01*
X223259Y196820D01*
X223631Y197376D01*
X223761Y198032D01*
X223631Y198688D01*
X223259Y199244D01*
X222703Y199615D01*
X222047Y199746D01*
D02*
G37*
G36*
X389870Y196219D02*
Y194594D01*
X391494D01*
X391424Y194945D01*
X390943Y195667D01*
X390221Y196149D01*
X389870Y196219D01*
D02*
G37*
G36*
X388870D02*
X388519Y196149D01*
X387797Y195667D01*
X387316Y194945D01*
X387246Y194594D01*
X388870D01*
Y196219D01*
D02*
G37*
G36*
X219185D02*
X218834Y196149D01*
X218112Y195667D01*
X217631Y194945D01*
X217561Y194594D01*
X219185D01*
Y196219D01*
D02*
G37*
G36*
X130815D02*
Y194594D01*
X132439D01*
X132370Y194945D01*
X131887Y195667D01*
X131166Y196149D01*
X130815Y196219D01*
D02*
G37*
G36*
X203500Y196124D02*
X203149Y196054D01*
X202428Y195572D01*
X201945Y194851D01*
X201876Y194500D01*
X203500D01*
Y196124D01*
D02*
G37*
G36*
X313542Y195563D02*
X311917D01*
Y193939D01*
X312268Y194008D01*
X312990Y194491D01*
X313472Y195212D01*
X313542Y195563D01*
D02*
G37*
G36*
X310917D02*
X309293D01*
X309363Y195212D01*
X309845Y194491D01*
X310566Y194008D01*
X310917Y193939D01*
Y195563D01*
D02*
G37*
G36*
X391494Y193594D02*
X389870D01*
Y191970D01*
X390221Y192040D01*
X390943Y192522D01*
X391424Y193243D01*
X391494Y193594D01*
D02*
G37*
G36*
X388870D02*
X387246D01*
X387316Y193243D01*
X387797Y192522D01*
X388519Y192040D01*
X388870Y191970D01*
Y193594D01*
D02*
G37*
G36*
X206124Y193500D02*
X204500D01*
Y191876D01*
X204851Y191946D01*
X205573Y192428D01*
X206055Y193149D01*
X206124Y193500D01*
D02*
G37*
G36*
X203500D02*
X201876D01*
X201945Y193149D01*
X202428Y192428D01*
X203149Y191946D01*
X203500Y191876D01*
Y193500D01*
D02*
G37*
G36*
X17035Y192676D02*
Y191051D01*
X18660D01*
X18590Y191402D01*
X18108Y192124D01*
X17386Y192606D01*
X17035Y192676D01*
D02*
G37*
G36*
X16035D02*
X15684Y192606D01*
X14963Y192124D01*
X14481Y191402D01*
X14411Y191051D01*
X16035D01*
Y192676D01*
D02*
G37*
G36*
X18660Y190051D02*
X17035D01*
Y188427D01*
X17386Y188497D01*
X18108Y188979D01*
X18590Y189700D01*
X18660Y190051D01*
D02*
G37*
G36*
X16035D02*
X14411D01*
X14481Y189700D01*
X14963Y188979D01*
X15684Y188497D01*
X16035Y188427D01*
Y190051D01*
D02*
G37*
G36*
X299500Y191214D02*
X298844Y191084D01*
X298288Y190712D01*
X297916Y190156D01*
X297786Y189500D01*
X297916Y188844D01*
X298288Y188288D01*
X298844Y187916D01*
X299500Y187786D01*
X300156Y187916D01*
X300712Y188288D01*
X301084Y188844D01*
X301214Y189500D01*
X301084Y190156D01*
X300712Y190712D01*
X300156Y191084D01*
X299500Y191214D01*
D02*
G37*
G36*
X110627Y189500D02*
X109971Y189369D01*
X109415Y188998D01*
X109043Y188442D01*
X108913Y187786D01*
X109043Y187130D01*
X109415Y186574D01*
X109971Y186202D01*
X110627Y186072D01*
X111283Y186202D01*
X111839Y186574D01*
X112210Y187130D01*
X112341Y187786D01*
X112210Y188442D01*
X111839Y188998D01*
X111283Y189369D01*
X110627Y189500D01*
D02*
G37*
G36*
X59161Y186376D02*
Y184752D01*
X60786D01*
X60716Y185103D01*
X60234Y185825D01*
X59512Y186307D01*
X59161Y186376D01*
D02*
G37*
G36*
X58161D02*
X57810Y186307D01*
X57089Y185825D01*
X56607Y185103D01*
X56537Y184752D01*
X58161D01*
Y186376D01*
D02*
G37*
G36*
X123335Y185589D02*
Y183965D01*
X124959D01*
X124889Y184316D01*
X124407Y185037D01*
X123686Y185519D01*
X123335Y185589D01*
D02*
G37*
G36*
X122335D02*
X121984Y185519D01*
X121262Y185037D01*
X120780Y184316D01*
X120710Y183965D01*
X122335D01*
Y185589D01*
D02*
G37*
G36*
X187902Y185195D02*
Y183571D01*
X189526D01*
X189456Y183922D01*
X188974Y184643D01*
X188253Y185125D01*
X187902Y185195D01*
D02*
G37*
G36*
X186902D02*
X186551Y185125D01*
X185829Y184643D01*
X185347Y183922D01*
X185277Y183571D01*
X186902D01*
Y185195D01*
D02*
G37*
G36*
X332783Y184408D02*
Y182783D01*
X334408D01*
X334338Y183134D01*
X333856Y183856D01*
X333134Y184338D01*
X332783Y184408D01*
D02*
G37*
G36*
X60786Y183752D02*
X59161D01*
Y182128D01*
X59512Y182197D01*
X60234Y182679D01*
X60716Y183401D01*
X60786Y183752D01*
D02*
G37*
G36*
X58161D02*
X56537D01*
X56607Y183401D01*
X57089Y182679D01*
X57810Y182197D01*
X58161Y182128D01*
Y183752D01*
D02*
G37*
G36*
X68425Y196303D02*
X66996Y196162D01*
X65621Y195745D01*
X64355Y195068D01*
X63244Y194157D01*
X62333Y193047D01*
X61656Y191780D01*
X61239Y190406D01*
X61099Y188976D01*
X61239Y187547D01*
X61656Y186173D01*
X62333Y184906D01*
X63244Y183796D01*
X64355Y182885D01*
X65621Y182208D01*
X66996Y181791D01*
X68425Y181650D01*
X69854Y181791D01*
X71229Y182208D01*
X72496Y182885D01*
X73606Y183796D01*
X74517Y184906D01*
X75194Y186173D01*
X75611Y187547D01*
X75752Y188976D01*
X75611Y190406D01*
X75194Y191780D01*
X74517Y193047D01*
X73606Y194157D01*
X72496Y195068D01*
X71229Y195745D01*
X69854Y196162D01*
X68425Y196303D01*
D02*
G37*
G36*
X124959Y182965D02*
X123335D01*
Y181340D01*
X123686Y181410D01*
X124407Y181892D01*
X124889Y182614D01*
X124959Y182965D01*
D02*
G37*
G36*
X122335D02*
X120710D01*
X120780Y182614D01*
X121262Y181892D01*
X121984Y181410D01*
X122335Y181340D01*
Y182965D01*
D02*
G37*
G36*
X118100Y180824D02*
Y179200D01*
X119724D01*
X119655Y179551D01*
X119173Y180272D01*
X118451Y180754D01*
X118100Y180824D01*
D02*
G37*
G36*
X117100D02*
X116749Y180754D01*
X116027Y180272D01*
X115545Y179551D01*
X115476Y179200D01*
X117100D01*
Y180824D01*
D02*
G37*
G36*
X318024Y180600D02*
X316400D01*
Y178976D01*
X316751Y179045D01*
X317473Y179527D01*
X317955Y180249D01*
X318024Y180600D01*
D02*
G37*
G36*
X328346Y178092D02*
X327691Y177962D01*
X327134Y177590D01*
X326866Y177189D01*
X325102D01*
X324834Y177590D01*
X324278Y177962D01*
X323622Y178092D01*
X322966Y177962D01*
X322410Y177590D01*
X322038Y177034D01*
X321954Y176611D01*
X321760Y176444D01*
Y174516D01*
X323688D01*
X323855Y174710D01*
X324278Y174794D01*
X324834Y175166D01*
X325102Y175567D01*
X326866D01*
X327134Y175166D01*
X327691Y174794D01*
X328346Y174664D01*
X329002Y174794D01*
X329558Y175166D01*
X329930Y175722D01*
X330060Y176378D01*
X329930Y177034D01*
X329558Y177590D01*
X329002Y177962D01*
X328346Y178092D01*
D02*
G37*
G36*
X119724Y178200D02*
X118100D01*
Y176576D01*
X118451Y176646D01*
X119173Y177128D01*
X119655Y177849D01*
X119724Y178200D01*
D02*
G37*
G36*
X117100D02*
X115476D01*
X115545Y177849D01*
X116027Y177128D01*
X116749Y176646D01*
X117100Y176576D01*
Y178200D01*
D02*
G37*
G36*
X320760Y176140D02*
X320409Y176070D01*
X319687Y175588D01*
X319205Y174867D01*
X319135Y174516D01*
X320760D01*
Y176140D01*
D02*
G37*
G36*
X323384Y173516D02*
X321760D01*
Y171891D01*
X322111Y171961D01*
X322832Y172443D01*
X323314Y173165D01*
X323384Y173516D01*
D02*
G37*
G36*
X320760D02*
X319135D01*
X319205Y173165D01*
X319687Y172443D01*
X320409Y171961D01*
X320760Y171891D01*
Y173516D01*
D02*
G37*
G36*
X194250Y171941D02*
X192626D01*
Y170317D01*
X192977Y170386D01*
X193699Y170869D01*
X194181Y171590D01*
X194250Y171941D01*
D02*
G37*
G36*
X191626D02*
X190002D01*
X190071Y171590D01*
X190553Y170869D01*
X191275Y170386D01*
X191626Y170317D01*
Y171941D01*
D02*
G37*
G36*
X137500Y170824D02*
Y169200D01*
X139124D01*
X139055Y169551D01*
X138573Y170273D01*
X137851Y170755D01*
X137500Y170824D01*
D02*
G37*
G36*
X136500D02*
X136149Y170755D01*
X135427Y170273D01*
X134945Y169551D01*
X134876Y169200D01*
X136500D01*
Y170824D01*
D02*
G37*
G36*
X51575Y171793D02*
X50919Y171662D01*
X50363Y171291D01*
X49991Y170735D01*
X49861Y170079D01*
X49991Y169423D01*
X50363Y168867D01*
X50919Y168495D01*
X51575Y168365D01*
X52231Y168495D01*
X52787Y168867D01*
X53158Y169423D01*
X53289Y170079D01*
X53158Y170735D01*
X52787Y171291D01*
X52231Y171662D01*
X51575Y171793D01*
D02*
G37*
G36*
X312992Y171005D02*
X312336Y170875D01*
X311780Y170503D01*
X311409Y169947D01*
X311278Y169291D01*
X311409Y168635D01*
X311780Y168079D01*
X312336Y167708D01*
X312992Y167577D01*
X313648Y167708D01*
X314204Y168079D01*
X314576Y168635D01*
X314706Y169291D01*
X314576Y169947D01*
X314204Y170503D01*
X313648Y170875D01*
X312992Y171005D01*
D02*
G37*
G36*
X368200Y169024D02*
Y167400D01*
X369824D01*
X369755Y167751D01*
X369272Y168473D01*
X368551Y168955D01*
X368200Y169024D01*
D02*
G37*
G36*
X367200D02*
X366849Y168955D01*
X366127Y168473D01*
X365645Y167751D01*
X365576Y167400D01*
X367200D01*
Y169024D01*
D02*
G37*
G36*
X139124Y168200D02*
X134876D01*
X134945Y167849D01*
X135245Y167401D01*
X135435Y166927D01*
X134953Y166205D01*
X134883Y165854D01*
X139132D01*
X139062Y166205D01*
X138763Y166653D01*
X138573Y167128D01*
X139055Y167849D01*
X139124Y168200D01*
D02*
G37*
G36*
X45900Y167479D02*
Y165854D01*
X47524D01*
X47455Y166205D01*
X46973Y166927D01*
X46251Y167409D01*
X45900Y167479D01*
D02*
G37*
G36*
X44900D02*
X44549Y167409D01*
X43828Y166927D01*
X43345Y166205D01*
X43276Y165854D01*
X44900D01*
Y167479D01*
D02*
G37*
G36*
X39476D02*
Y165854D01*
X41101D01*
X41031Y166205D01*
X40549Y166927D01*
X39827Y167409D01*
X39476Y167479D01*
D02*
G37*
G36*
X38476D02*
X38125Y167409D01*
X37404Y166927D01*
X36922Y166205D01*
X36852Y165854D01*
X38476D01*
Y167479D01*
D02*
G37*
G36*
X369824Y166400D02*
X368200D01*
Y164776D01*
X368551Y164846D01*
X369272Y165328D01*
X369755Y166049D01*
X369824Y166400D01*
D02*
G37*
G36*
X367200D02*
X365576D01*
X365645Y166049D01*
X366127Y165328D01*
X366849Y164846D01*
X367200Y164776D01*
Y166400D01*
D02*
G37*
G36*
X109500Y167855D02*
X108844Y167724D01*
X108288Y167353D01*
X107916Y166797D01*
X107786Y166141D01*
X107916Y165485D01*
X108288Y164929D01*
X108844Y164557D01*
X109500Y164427D01*
X110156Y164557D01*
X110712Y164929D01*
X111084Y165485D01*
X111214Y166141D01*
X111084Y166797D01*
X110712Y167353D01*
X110156Y167724D01*
X109500Y167855D01*
D02*
G37*
G36*
X139132Y164854D02*
X137508D01*
Y163230D01*
X137859Y163300D01*
X138580Y163782D01*
X139062Y164503D01*
X139132Y164854D01*
D02*
G37*
G36*
X136508D02*
X134883D01*
X134953Y164503D01*
X135435Y163782D01*
X136157Y163300D01*
X136508Y163230D01*
Y164854D01*
D02*
G37*
G36*
X47524D02*
X45900D01*
Y163230D01*
X46251Y163300D01*
X46973Y163782D01*
X47455Y164503D01*
X47524Y164854D01*
D02*
G37*
G36*
X44900D02*
X43276D01*
X43345Y164503D01*
X43828Y163782D01*
X44549Y163300D01*
X44900Y163230D01*
Y164854D01*
D02*
G37*
G36*
X41101D02*
X39476D01*
Y163230D01*
X39827Y163300D01*
X40549Y163782D01*
X41031Y164503D01*
X41101Y164854D01*
D02*
G37*
G36*
X38476D02*
X36852D01*
X36922Y164503D01*
X37404Y163782D01*
X38125Y163300D01*
X38476Y163230D01*
Y164854D01*
D02*
G37*
G36*
X180602Y161180D02*
X180251Y161110D01*
X179530Y160628D01*
X179048Y159906D01*
X178978Y159555D01*
X180602D01*
Y161180D01*
D02*
G37*
G36*
X172941Y160786D02*
Y159161D01*
X174565D01*
X174496Y159512D01*
X174013Y160234D01*
X173292Y160716D01*
X172941Y160786D01*
D02*
G37*
G36*
X171941D02*
X171590Y160716D01*
X170869Y160234D01*
X170386Y159512D01*
X170317Y159161D01*
X171941D01*
Y160786D01*
D02*
G37*
G36*
X204500Y160124D02*
Y158500D01*
X206124D01*
X206055Y158851D01*
X205573Y159573D01*
X204851Y160055D01*
X204500Y160124D01*
D02*
G37*
G36*
X203500D02*
X203149Y160055D01*
X202428Y159573D01*
X201945Y158851D01*
X201876Y158500D01*
X203500D01*
Y160124D01*
D02*
G37*
G36*
X36169Y170776D02*
X5642D01*
Y158183D01*
X5260Y157979D01*
X5142Y157968D01*
X4831Y158030D01*
Y155906D01*
Y153781D01*
X5142Y153843D01*
X5260Y153832D01*
X5642Y153628D01*
Y144185D01*
X36169D01*
Y170776D01*
D02*
G37*
G36*
X183227Y158555D02*
X181602D01*
Y156931D01*
X181953Y157001D01*
X182675Y157483D01*
X183157Y158204D01*
X183227Y158555D01*
D02*
G37*
G36*
X180602D02*
X178978D01*
X179048Y158204D01*
X179530Y157483D01*
X180251Y157001D01*
X180602Y156931D01*
Y158555D01*
D02*
G37*
G36*
X174565Y158161D02*
X172941D01*
Y156537D01*
X173292Y156607D01*
X174013Y157089D01*
X174496Y157810D01*
X174565Y158161D01*
D02*
G37*
G36*
X171941D02*
X170317D01*
X170386Y157810D01*
X170869Y157089D01*
X171590Y156607D01*
X171941Y156537D01*
Y158161D01*
D02*
G37*
G36*
X3831Y158030D02*
X3480Y157960D01*
X2758Y157478D01*
X2276Y156757D01*
X2206Y156406D01*
X3831D01*
Y158030D01*
D02*
G37*
G36*
X206124Y157500D02*
X204500D01*
Y155876D01*
X204851Y155946D01*
X205573Y156428D01*
X206055Y157149D01*
X206124Y157500D01*
D02*
G37*
G36*
X203500D02*
X201876D01*
X201945Y157149D01*
X202428Y156428D01*
X203149Y155946D01*
X203500Y155876D01*
Y157500D01*
D02*
G37*
G36*
X314942Y157038D02*
X314591Y156968D01*
X313869Y156486D01*
X313387Y155764D01*
X313317Y155413D01*
X314942D01*
Y157038D01*
D02*
G37*
G36*
X268770Y158013D02*
X268114Y157883D01*
X267558Y157511D01*
X267187Y156955D01*
X267056Y156299D01*
X267187Y155643D01*
X267558Y155087D01*
X268114Y154716D01*
X268770Y154585D01*
X269426Y154716D01*
X269982Y155087D01*
X270354Y155643D01*
X270484Y156299D01*
X270354Y156955D01*
X269982Y157511D01*
X269426Y157883D01*
X268770Y158013D01*
D02*
G37*
G36*
X80500Y157714D02*
X79844Y157584D01*
X79288Y157212D01*
X78916Y156656D01*
X78786Y156000D01*
X78905Y155400D01*
X72000Y148495D01*
X71654Y148564D01*
X70998Y148434D01*
X70442Y148062D01*
X70070Y147506D01*
X69940Y146850D01*
X70070Y146195D01*
X70442Y145638D01*
X70998Y145267D01*
X71654Y145136D01*
X72309Y145267D01*
X72866Y145638D01*
X73237Y146195D01*
X73368Y146850D01*
X73248Y147450D01*
X80153Y154355D01*
X80500Y154286D01*
X81156Y154416D01*
X81712Y154788D01*
X82084Y155344D01*
X82214Y156000D01*
X82084Y156656D01*
X81712Y157212D01*
X81156Y157584D01*
X80500Y157714D01*
D02*
G37*
G36*
X3831Y155406D02*
X2206D01*
X2276Y155055D01*
X2758Y154333D01*
X3480Y153851D01*
X3831Y153781D01*
Y155406D01*
D02*
G37*
G36*
X160130Y155012D02*
X158506D01*
X158575Y154661D01*
X159057Y153939D01*
X159779Y153457D01*
X160130Y153387D01*
Y155012D01*
D02*
G37*
G36*
X287000Y155714D02*
X286344Y155584D01*
X285788Y155212D01*
X285416Y154656D01*
X285286Y154000D01*
X285416Y153344D01*
X285788Y152788D01*
X286344Y152416D01*
X287000Y152286D01*
X287656Y152416D01*
X288212Y152788D01*
X288584Y153344D01*
X288714Y154000D01*
X288584Y154656D01*
X288212Y155212D01*
X287656Y155584D01*
X287000Y155714D01*
D02*
G37*
G36*
X163287Y153412D02*
Y151787D01*
X164912D01*
X164842Y152138D01*
X164360Y152860D01*
X163638Y153342D01*
X163287Y153412D01*
D02*
G37*
G36*
X162754Y155012D02*
X161130D01*
Y153292D01*
X161289Y152909D01*
X161215Y152860D01*
X160733Y152138D01*
X160663Y151787D01*
X162287D01*
Y153507D01*
X162129Y153890D01*
X162203Y153939D01*
X162685Y154661D01*
X162754Y155012D01*
D02*
G37*
G36*
X312819Y152585D02*
X312468Y152515D01*
X311746Y152033D01*
X311264Y151312D01*
X311194Y150961D01*
X312819D01*
Y152585D01*
D02*
G37*
G36*
X295957Y151731D02*
X295606Y151661D01*
X294884Y151179D01*
X294402Y150457D01*
X294332Y150106D01*
X295957D01*
Y151731D01*
D02*
G37*
G36*
X67035D02*
Y150106D01*
X68660D01*
X68590Y150457D01*
X68108Y151179D01*
X67386Y151661D01*
X67035Y151731D01*
D02*
G37*
G36*
X66035D02*
X65684Y151661D01*
X64963Y151179D01*
X64481Y150457D01*
X64411Y150106D01*
X66035D01*
Y151731D01*
D02*
G37*
G36*
X67371Y155487D02*
X56177D01*
X55866Y155426D01*
X55603Y155250D01*
X49473Y149120D01*
X49000Y149214D01*
X48344Y149084D01*
X47788Y148712D01*
X47416Y148156D01*
X47286Y147500D01*
X47416Y146844D01*
X47788Y146288D01*
X48344Y145916D01*
X49000Y145786D01*
X49656Y145916D01*
X50212Y146288D01*
X50584Y146844D01*
X50714Y147500D01*
X50620Y147973D01*
X56512Y153866D01*
X67035D01*
X68853Y152048D01*
X68758Y151575D01*
X68889Y150919D01*
X69260Y150363D01*
X69816Y149991D01*
X70472Y149861D01*
X71128Y149991D01*
X71684Y150363D01*
X72056Y150919D01*
X72186Y151575D01*
X72056Y152231D01*
X71684Y152787D01*
X71128Y153158D01*
X70472Y153289D01*
X69999Y153195D01*
X67944Y155250D01*
X67681Y155426D01*
X67371Y155487D01*
D02*
G37*
G36*
X189264Y151469D02*
X187639D01*
X187709Y151118D01*
X188191Y150396D01*
X188913Y149914D01*
X189264Y149844D01*
Y151469D01*
D02*
G37*
G36*
X164912Y150787D02*
X163287D01*
Y149163D01*
X163638Y149233D01*
X164360Y149715D01*
X164842Y150436D01*
X164912Y150787D01*
D02*
G37*
G36*
X162287D02*
X160663D01*
X160733Y150436D01*
X161215Y149715D01*
X161936Y149233D01*
X162287Y149163D01*
Y150787D01*
D02*
G37*
G36*
X136508Y150550D02*
X136157Y150480D01*
X135435Y149998D01*
X134953Y149276D01*
X134883Y148925D01*
X136508D01*
Y150550D01*
D02*
G37*
G36*
X295957Y149106D02*
X294332D01*
X294402Y148755D01*
X294884Y148034D01*
X295606Y147552D01*
X295957Y147482D01*
Y149106D01*
D02*
G37*
G36*
X68660D02*
X67035D01*
Y147482D01*
X67386Y147552D01*
X68108Y148034D01*
X68590Y148755D01*
X68660Y149106D01*
D02*
G37*
G36*
X66035D02*
X64411D01*
X64481Y148755D01*
X64963Y148034D01*
X65684Y147552D01*
X66035Y147482D01*
Y149106D01*
D02*
G37*
G36*
X130471Y148319D02*
X128846D01*
Y146695D01*
X129197Y146765D01*
X129919Y147247D01*
X130401Y147968D01*
X130471Y148319D01*
D02*
G37*
G36*
X127846D02*
X126222D01*
X126292Y147968D01*
X126774Y147247D01*
X127495Y146765D01*
X127846Y146695D01*
Y148319D01*
D02*
G37*
G36*
X139132Y147925D02*
X137508D01*
Y146301D01*
X137859Y146371D01*
X138580Y146853D01*
X139062Y147574D01*
X139132Y147925D01*
D02*
G37*
G36*
X136508D02*
X134883D01*
X134953Y147574D01*
X135435Y146853D01*
X135725Y146659D01*
X135530Y146188D01*
X135400Y146214D01*
X134744Y146084D01*
X134188Y145712D01*
X133816Y145156D01*
X133686Y144500D01*
X133816Y143844D01*
X134188Y143288D01*
X134744Y142916D01*
X135400Y142786D01*
X136056Y142916D01*
X136301Y142494D01*
X135796Y142157D01*
X135424Y141601D01*
X135294Y140945D01*
X135424Y140289D01*
X135796Y139733D01*
X136352Y139361D01*
X137008Y139231D01*
X137664Y139361D01*
X138220Y139733D01*
X138591Y140289D01*
X138722Y140945D01*
X138591Y141601D01*
X138220Y142157D01*
X137664Y142528D01*
X137008Y142659D01*
X136352Y142528D01*
X136107Y142951D01*
X136612Y143288D01*
X136984Y143844D01*
X137114Y144500D01*
X136984Y145156D01*
X136612Y145712D01*
X136488Y145795D01*
X136508Y145843D01*
Y147925D01*
D02*
G37*
G36*
X145776Y147794D02*
Y146169D01*
X147400D01*
X147330Y146520D01*
X146848Y147242D01*
X146127Y147724D01*
X145776Y147794D01*
D02*
G37*
G36*
X144776D02*
X144425Y147724D01*
X143703Y147242D01*
X143221Y146520D01*
X143151Y146169D01*
X144776D01*
Y147794D01*
D02*
G37*
G36*
X193020Y147006D02*
Y145382D01*
X194644D01*
X194574Y145733D01*
X194092Y146454D01*
X193371Y146936D01*
X193020Y147006D01*
D02*
G37*
G36*
X192020D02*
X191669Y146936D01*
X190947Y146454D01*
X190465Y145733D01*
X190395Y145382D01*
X192020D01*
Y147006D01*
D02*
G37*
G36*
X75303Y145825D02*
Y144201D01*
X76928D01*
X76858Y144552D01*
X76376Y145273D01*
X75654Y145755D01*
X75303Y145825D01*
D02*
G37*
G36*
X74303D02*
X73952Y145755D01*
X73231Y145273D01*
X72749Y144552D01*
X72679Y144201D01*
X74303D01*
Y145825D01*
D02*
G37*
G36*
X147400Y145169D02*
X145776D01*
Y143545D01*
X146127Y143615D01*
X146848Y144097D01*
X147330Y144818D01*
X147400Y145169D01*
D02*
G37*
G36*
X144776D02*
X143151D01*
X143221Y144818D01*
X143703Y144097D01*
X144425Y143615D01*
X144776Y143545D01*
Y145169D01*
D02*
G37*
G36*
X186220Y146596D02*
X185564Y146465D01*
X185008Y146094D01*
X184637Y145538D01*
X184506Y144882D01*
X184637Y144226D01*
X185008Y143670D01*
X185564Y143298D01*
X186220Y143168D01*
X186876Y143298D01*
X187432Y143670D01*
X187804Y144226D01*
X187934Y144882D01*
X187804Y145538D01*
X187432Y146094D01*
X186876Y146465D01*
X186220Y146596D01*
D02*
G37*
G36*
X194644Y144382D02*
X193020D01*
Y142757D01*
X193371Y142827D01*
X194092Y143309D01*
X194574Y144031D01*
X194644Y144382D01*
D02*
G37*
G36*
X192020D02*
X190395D01*
X190465Y144031D01*
X190947Y143309D01*
X191669Y142827D01*
X192020Y142757D01*
Y144382D01*
D02*
G37*
G36*
X76928Y143201D02*
X75303D01*
Y141576D01*
X75654Y141646D01*
X76376Y142128D01*
X76858Y142850D01*
X76928Y143201D01*
D02*
G37*
G36*
X74303D02*
X72679D01*
X72749Y142850D01*
X73231Y142128D01*
X73952Y141646D01*
X74303Y141576D01*
Y143201D01*
D02*
G37*
G36*
X389870Y141888D02*
Y140264D01*
X391494D01*
X391424Y140615D01*
X390943Y141336D01*
X390221Y141818D01*
X389870Y141888D01*
D02*
G37*
G36*
X388870D02*
X388519Y141818D01*
X387797Y141336D01*
X387316Y140615D01*
X387246Y140264D01*
X388870D01*
Y141888D01*
D02*
G37*
G36*
X374122Y140707D02*
Y139083D01*
X375746D01*
X375676Y139434D01*
X375195Y140155D01*
X374473Y140637D01*
X374122Y140707D01*
D02*
G37*
G36*
X373122D02*
X372771Y140637D01*
X372049Y140155D01*
X371568Y139434D01*
X371498Y139083D01*
X373122D01*
Y140707D01*
D02*
G37*
G36*
X349713D02*
Y139083D01*
X351337D01*
X351267Y139434D01*
X350785Y140155D01*
X350064Y140637D01*
X349713Y140707D01*
D02*
G37*
G36*
X348713D02*
X348362Y140637D01*
X347640Y140155D01*
X347158Y139434D01*
X347088Y139083D01*
X348713D01*
Y140707D01*
D02*
G37*
G36*
X70000Y139824D02*
Y138200D01*
X71624D01*
X71554Y138551D01*
X71073Y139272D01*
X70351Y139754D01*
X70000Y139824D01*
D02*
G37*
G36*
X69000D02*
X68649Y139754D01*
X67927Y139272D01*
X67445Y138551D01*
X67376Y138200D01*
X69000D01*
Y139824D01*
D02*
G37*
G36*
X391494Y139264D02*
X389870D01*
Y137639D01*
X390221Y137709D01*
X390943Y138191D01*
X391424Y138913D01*
X391494Y139264D01*
D02*
G37*
G36*
X388870D02*
X387246D01*
X387316Y138913D01*
X387797Y138191D01*
X388519Y137709D01*
X388870Y137639D01*
Y139264D01*
D02*
G37*
G36*
X182177Y139132D02*
X181826Y139062D01*
X181105Y138580D01*
X180623Y137859D01*
X180553Y137508D01*
X182177D01*
Y139132D01*
D02*
G37*
G36*
X162000Y140714D02*
X161344Y140584D01*
X160788Y140212D01*
X160416Y139656D01*
X160286Y139000D01*
X160416Y138344D01*
X160788Y137788D01*
X161344Y137416D01*
X162000Y137286D01*
X162656Y137416D01*
X163212Y137788D01*
X163584Y138344D01*
X163714Y139000D01*
X163584Y139656D01*
X163212Y140212D01*
X162656Y140584D01*
X162000Y140714D01*
D02*
G37*
G36*
X143500D02*
X142844Y140584D01*
X142288Y140212D01*
X141948Y139703D01*
X141433D01*
X141123Y139642D01*
X140860Y139466D01*
X138564Y137170D01*
X138388Y136907D01*
X138326Y136597D01*
Y133863D01*
X138388Y133553D01*
X138564Y133290D01*
X140598Y131255D01*
X140504Y130782D01*
X140635Y130126D01*
X141006Y129570D01*
X141562Y129198D01*
X142218Y129068D01*
X142874Y129198D01*
X143430Y129570D01*
X143802Y130126D01*
X143932Y130782D01*
X143802Y131438D01*
X143430Y131994D01*
X142874Y132365D01*
X142218Y132496D01*
X141745Y132402D01*
X139948Y134199D01*
Y136261D01*
X141645Y137958D01*
X142201Y137918D01*
X142288Y137788D01*
X142844Y137416D01*
X143500Y137286D01*
X144156Y137416D01*
X144712Y137788D01*
X145084Y138344D01*
X145214Y139000D01*
X145084Y139656D01*
X144712Y140212D01*
X144156Y140584D01*
X143500Y140714D01*
D02*
G37*
G36*
X375746Y138083D02*
X374122D01*
Y136458D01*
X374473Y136528D01*
X375195Y137010D01*
X375676Y137732D01*
X375746Y138083D01*
D02*
G37*
G36*
X373122D02*
X371498D01*
X371568Y137732D01*
X372049Y137010D01*
X372771Y136528D01*
X373122Y136458D01*
Y138083D01*
D02*
G37*
G36*
X351337D02*
X349713D01*
Y136458D01*
X350064Y136528D01*
X350785Y137010D01*
X351267Y137732D01*
X351337Y138083D01*
D02*
G37*
G36*
X348713D02*
X347088D01*
X347158Y137732D01*
X347640Y137010D01*
X348362Y136528D01*
X348713Y136458D01*
Y138083D01*
D02*
G37*
G36*
X190839Y137557D02*
X190488Y137488D01*
X189766Y137005D01*
X189284Y136284D01*
X189214Y135933D01*
X190839D01*
Y137557D01*
D02*
G37*
G36*
X71624Y137200D02*
X70000D01*
Y135576D01*
X70351Y135645D01*
X71073Y136127D01*
X71554Y136849D01*
X71624Y137200D01*
D02*
G37*
G36*
X69000D02*
X67376D01*
X67445Y136849D01*
X67927Y136127D01*
X68649Y135645D01*
X69000Y135576D01*
Y137200D01*
D02*
G37*
G36*
X190839Y134933D02*
X189214D01*
X189284Y134582D01*
X189766Y133861D01*
X190488Y133378D01*
X190839Y133309D01*
Y134933D01*
D02*
G37*
G36*
X133858Y134785D02*
X133202Y134654D01*
X132646Y134283D01*
X132275Y133727D01*
X132144Y133071D01*
X132275Y132415D01*
X132646Y131859D01*
X133202Y131487D01*
X133858Y131357D01*
X134514Y131487D01*
X135070Y131859D01*
X135442Y132415D01*
X135572Y133071D01*
X135442Y133727D01*
X135070Y134283D01*
X134514Y134654D01*
X133858Y134785D01*
D02*
G37*
G36*
X208817Y131713D02*
X207193D01*
Y130088D01*
X207544Y130158D01*
X208265Y130640D01*
X208748Y131362D01*
X208817Y131713D01*
D02*
G37*
G36*
X157300Y130124D02*
Y128500D01*
X158924D01*
X158854Y128851D01*
X158372Y129572D01*
X157651Y130054D01*
X157300Y130124D01*
D02*
G37*
G36*
X156300D02*
X155949Y130054D01*
X155227Y129572D01*
X154745Y128851D01*
X154676Y128500D01*
X156300D01*
Y130124D01*
D02*
G37*
G36*
X366248Y128109D02*
Y126484D01*
X367872D01*
X367803Y126835D01*
X367320Y127557D01*
X366599Y128039D01*
X366248Y128109D01*
D02*
G37*
G36*
X365248D02*
X364897Y128039D01*
X364176Y127557D01*
X363693Y126835D01*
X363624Y126484D01*
X365248D01*
Y128109D01*
D02*
G37*
G36*
X191339Y129667D02*
X190683Y129536D01*
X190127Y129165D01*
X189755Y128609D01*
X189625Y127953D01*
X189755Y127297D01*
X190127Y126741D01*
X190683Y126369D01*
X191339Y126239D01*
X191995Y126369D01*
X192551Y126741D01*
X192922Y127297D01*
X193053Y127953D01*
X192922Y128609D01*
X192551Y129165D01*
X191995Y129536D01*
X191339Y129667D01*
D02*
G37*
G36*
X158924Y127500D02*
X157300D01*
Y125876D01*
X157651Y125945D01*
X158372Y126427D01*
X158854Y127149D01*
X158924Y127500D01*
D02*
G37*
G36*
X156300D02*
X154676D01*
X154745Y127149D01*
X155227Y126427D01*
X155949Y125945D01*
X156300Y125876D01*
Y127500D01*
D02*
G37*
G36*
X142000Y125924D02*
X141649Y125855D01*
X140928Y125373D01*
X140445Y124651D01*
X140376Y124300D01*
X142000D01*
Y125924D01*
D02*
G37*
G36*
X137508Y125746D02*
Y124122D01*
X139132D01*
X139062Y124473D01*
X138580Y125195D01*
X137859Y125677D01*
X137508Y125746D01*
D02*
G37*
G36*
X136508D02*
X136157Y125677D01*
X135435Y125195D01*
X134953Y124473D01*
X134883Y124122D01*
X136508D01*
Y125746D01*
D02*
G37*
G36*
X367872Y125484D02*
X366248D01*
Y123860D01*
X366599Y123930D01*
X367320Y124412D01*
X367803Y125133D01*
X367872Y125484D01*
D02*
G37*
G36*
X365248D02*
X363624D01*
X363693Y125133D01*
X364176Y124412D01*
X364897Y123930D01*
X365248Y123860D01*
Y125484D01*
D02*
G37*
G36*
X146500Y125124D02*
Y123500D01*
X148124D01*
X148055Y123851D01*
X147573Y124573D01*
X146851Y125055D01*
X146500Y125124D01*
D02*
G37*
G36*
X207193Y124565D02*
Y122941D01*
X208817D01*
X208748Y123292D01*
X208265Y124013D01*
X207544Y124496D01*
X207193Y124565D01*
D02*
G37*
G36*
X206193D02*
X205842Y124496D01*
X205120Y124013D01*
X204638Y123292D01*
X204569Y122941D01*
X206193D01*
Y124565D01*
D02*
G37*
G36*
X142000Y123300D02*
X140376D01*
X140445Y122949D01*
X140928Y122228D01*
X141649Y121746D01*
X142000Y121676D01*
Y123300D01*
D02*
G37*
G36*
X139132Y123122D02*
X137508D01*
Y121498D01*
X137859Y121567D01*
X138580Y122049D01*
X139062Y122771D01*
X139132Y123122D01*
D02*
G37*
G36*
X136508D02*
X134883D01*
X134953Y122771D01*
X135435Y122049D01*
X136157Y121567D01*
X136508Y121498D01*
Y123122D01*
D02*
G37*
G36*
X143000Y125924D02*
Y123800D01*
Y121676D01*
X143351Y121746D01*
X143948Y122145D01*
X144428Y121428D01*
X144912Y121104D01*
X144796Y120930D01*
X144726Y120579D01*
X148975D01*
X148905Y120930D01*
X148423Y121651D01*
X147938Y121975D01*
X148055Y122149D01*
X148124Y122500D01*
X146000D01*
Y123000D01*
X145500D01*
Y125124D01*
X145149Y125055D01*
X144552Y124655D01*
X144072Y125373D01*
X143351Y125855D01*
X143000Y125924D01*
D02*
G37*
G36*
X208817Y121941D02*
X207193D01*
Y120317D01*
X207544Y120386D01*
X208265Y120869D01*
X208748Y121590D01*
X208817Y121941D01*
D02*
G37*
G36*
X206193D02*
X204569D01*
X204638Y121590D01*
X205120Y120869D01*
X205842Y120386D01*
X206193Y120317D01*
Y121941D01*
D02*
G37*
G36*
X250500Y117872D02*
Y116248D01*
X252124D01*
X252055Y116599D01*
X251572Y117321D01*
X250851Y117803D01*
X250500Y117872D01*
D02*
G37*
G36*
X249500D02*
X249149Y117803D01*
X248428Y117321D01*
X247945Y116599D01*
X247876Y116248D01*
X249500D01*
Y117872D01*
D02*
G37*
G36*
X208661Y117462D02*
X208005Y117332D01*
X207449Y116960D01*
X207078Y116404D01*
X206947Y115748D01*
X207078Y115092D01*
X207449Y114536D01*
X208005Y114164D01*
X208661Y114034D01*
X209317Y114164D01*
X209873Y114536D01*
X210245Y115092D01*
X210375Y115748D01*
X210245Y116404D01*
X209873Y116960D01*
X209317Y117332D01*
X208661Y117462D01*
D02*
G37*
G36*
X148624Y115000D02*
X147000D01*
Y113376D01*
X147351Y113445D01*
X148073Y113927D01*
X148555Y114649D01*
X148624Y115000D01*
D02*
G37*
G36*
X146000D02*
X144376D01*
X144446Y114649D01*
X144928Y113927D01*
X145649Y113445D01*
X146000Y113376D01*
Y115000D01*
D02*
G37*
G36*
X374909Y113148D02*
Y111524D01*
X376534D01*
X376464Y111875D01*
X375982Y112596D01*
X375260Y113078D01*
X374909Y113148D01*
D02*
G37*
G36*
X373909D02*
X373558Y113078D01*
X372837Y112596D01*
X372355Y111875D01*
X372285Y111524D01*
X373909D01*
Y113148D01*
D02*
G37*
G36*
X213600Y113124D02*
Y111500D01*
X215224D01*
X215155Y111851D01*
X214672Y112573D01*
X213951Y113055D01*
X213600Y113124D01*
D02*
G37*
G36*
X212600D02*
X212249Y113055D01*
X211527Y112573D01*
X211045Y111851D01*
X210976Y111500D01*
X212600D01*
Y113124D01*
D02*
G37*
G36*
X205906Y112738D02*
X205250Y112607D01*
X204694Y112236D01*
X204322Y111679D01*
X204192Y111024D01*
X204322Y110368D01*
X204694Y109812D01*
X205250Y109440D01*
X205906Y109310D01*
X206561Y109440D01*
X207118Y109812D01*
X207489Y110368D01*
X207620Y111024D01*
X207489Y111679D01*
X207118Y112236D01*
X206561Y112607D01*
X205906Y112738D01*
D02*
G37*
G36*
X376534Y110524D02*
X374909D01*
Y108899D01*
X375260Y108969D01*
X375982Y109451D01*
X376464Y110173D01*
X376534Y110524D01*
D02*
G37*
G36*
X373909D02*
X372285D01*
X372355Y110173D01*
X372837Y109451D01*
X373558Y108969D01*
X373909Y108899D01*
Y110524D01*
D02*
G37*
G36*
X240333Y110504D02*
X238708D01*
Y108880D01*
X239059Y108949D01*
X239781Y109432D01*
X240263Y110153D01*
X240333Y110504D01*
D02*
G37*
G36*
X215224Y110500D02*
X213600D01*
Y108876D01*
X213951Y108946D01*
X214672Y109427D01*
X215155Y110149D01*
X215224Y110500D01*
D02*
G37*
G36*
X212600D02*
X210976D01*
X211045Y110149D01*
X211527Y109427D01*
X212249Y108946D01*
X212600Y108876D01*
Y110500D01*
D02*
G37*
G36*
X144594Y110392D02*
Y108768D01*
X146219D01*
X146149Y109119D01*
X145667Y109840D01*
X144945Y110322D01*
X144594Y110392D01*
D02*
G37*
G36*
X143594D02*
X143243Y110322D01*
X142522Y109840D01*
X142040Y109119D01*
X141970Y108768D01*
X143594D01*
Y110392D01*
D02*
G37*
G36*
X321500Y120214D02*
X320844Y120084D01*
X320288Y119712D01*
X319916Y119156D01*
X319786Y118500D01*
X319916Y117844D01*
X320288Y117288D01*
X320844Y116916D01*
X321500Y116786D01*
X322156Y116916D01*
X322712Y117288D01*
X322983Y117693D01*
X329660D01*
X336880Y110473D01*
X336786Y110000D01*
X336916Y109344D01*
X337288Y108788D01*
X337844Y108416D01*
X338500Y108286D01*
X339156Y108416D01*
X339712Y108788D01*
X340084Y109344D01*
X340214Y110000D01*
X340084Y110656D01*
X339712Y111212D01*
X339156Y111584D01*
X338500Y111714D01*
X338027Y111620D01*
X330569Y119077D01*
X330306Y119253D01*
X329996Y119315D01*
X322977D01*
X322712Y119712D01*
X322156Y120084D01*
X321500Y120214D01*
D02*
G37*
G36*
X146219Y107768D02*
X144594D01*
Y106143D01*
X144945Y106213D01*
X145667Y106695D01*
X146149Y107417D01*
X146219Y107768D01*
D02*
G37*
G36*
X143594D02*
X141970D01*
X142040Y107417D01*
X142522Y106695D01*
X143243Y106213D01*
X143594Y106143D01*
Y107768D01*
D02*
G37*
G36*
X206500Y108414D02*
X205844Y108284D01*
X205288Y107912D01*
X204916Y107356D01*
X204786Y106700D01*
X204916Y106044D01*
X205288Y105488D01*
X205844Y105116D01*
X206500Y104986D01*
X207156Y105116D01*
X207712Y105488D01*
X208084Y106044D01*
X208214Y106700D01*
X208084Y107356D01*
X207712Y107912D01*
X207156Y108284D01*
X206500Y108414D01*
D02*
G37*
G36*
X367295Y106616D02*
X365630D01*
X364855Y106514D01*
X364133Y106215D01*
X363513Y105739D01*
X363037Y105119D01*
X362774Y104483D01*
X362485Y104351D01*
X362221Y104303D01*
X362182Y104338D01*
X362214Y104500D01*
X362084Y105156D01*
X361712Y105712D01*
X361156Y106084D01*
X360500Y106214D01*
X359844Y106084D01*
X359288Y105712D01*
X358916Y105156D01*
X358786Y104500D01*
X358916Y103844D01*
X359288Y103288D01*
X359844Y102916D01*
X360500Y102786D01*
X360813Y102848D01*
X361394Y102268D01*
Y98041D01*
X357973Y94620D01*
X357500Y94714D01*
X356844Y94584D01*
X356288Y94212D01*
X355916Y93656D01*
X355786Y93000D01*
X355916Y92344D01*
X356288Y91788D01*
X356844Y91416D01*
X357500Y91286D01*
X358156Y91416D01*
X358712Y91788D01*
X359084Y92344D01*
X359214Y93000D01*
X359120Y93473D01*
X362778Y97131D01*
X362954Y97395D01*
X363016Y97705D01*
Y101331D01*
X363513Y101505D01*
X364133Y101029D01*
X364855Y100730D01*
X365630Y100628D01*
X367295D01*
Y103622D01*
Y106616D01*
D02*
G37*
G36*
X385827D02*
X384752D01*
Y104122D01*
X388755D01*
X388719Y104397D01*
X388420Y105119D01*
X387944Y105739D01*
X387324Y106215D01*
X386602Y106514D01*
X385827Y106616D01*
D02*
G37*
G36*
X369961D02*
X368295D01*
Y104122D01*
X372889D01*
X372853Y104397D01*
X372553Y105119D01*
X372078Y105739D01*
X371458Y106215D01*
X370736Y106514D01*
X369961Y106616D01*
D02*
G37*
G36*
X383752D02*
X382677D01*
X381902Y106514D01*
X381180Y106215D01*
X380560Y105739D01*
X380084Y105119D01*
X379785Y104397D01*
X379749Y104122D01*
X383752D01*
Y106616D01*
D02*
G37*
G36*
X293201Y105012D02*
X291576D01*
X291646Y104661D01*
X292128Y103939D01*
X292850Y103457D01*
X293201Y103387D01*
Y105012D01*
D02*
G37*
G36*
X388755Y103122D02*
X384752D01*
Y100628D01*
X385827D01*
X386602Y100730D01*
X387324Y101029D01*
X387944Y101505D01*
X388420Y102125D01*
X388719Y102847D01*
X388755Y103122D01*
D02*
G37*
G36*
X383752D02*
X379749D01*
X379785Y102847D01*
X380084Y102125D01*
X380560Y101505D01*
X381180Y101029D01*
X381902Y100730D01*
X382677Y100628D01*
X383752D01*
Y103122D01*
D02*
G37*
G36*
X372889D02*
X368295D01*
Y100628D01*
X369961D01*
X370736Y100730D01*
X371458Y101029D01*
X372078Y101505D01*
X372553Y102125D01*
X372853Y102847D01*
X372889Y103122D01*
D02*
G37*
G36*
X269000Y101124D02*
Y99500D01*
X270624D01*
X270555Y99851D01*
X270073Y100573D01*
X269351Y101055D01*
X269000Y101124D01*
D02*
G37*
G36*
X369764Y99807D02*
X369070Y99669D01*
X368481Y99275D01*
X368088Y98686D01*
X367949Y97992D01*
X368088Y97298D01*
X368481Y96709D01*
X369070Y96316D01*
X369764Y96178D01*
X370458Y96316D01*
X371047Y96709D01*
X371440Y97298D01*
X371578Y97992D01*
X371440Y98686D01*
X371047Y99275D01*
X370458Y99669D01*
X369764Y99807D01*
D02*
G37*
G36*
X246000Y97794D02*
Y96169D01*
X247624D01*
X247555Y96520D01*
X247073Y97242D01*
X246351Y97724D01*
X246000Y97794D01*
D02*
G37*
G36*
X251681Y97794D02*
Y96169D01*
X253306D01*
X253236Y96520D01*
X252754Y97242D01*
X252032Y97724D01*
X251681Y97794D01*
D02*
G37*
G36*
X250681D02*
X250330Y97724D01*
X249609Y97242D01*
X249127Y96520D01*
X249057Y96169D01*
X250681D01*
Y97794D01*
D02*
G37*
G36*
X273500Y99214D02*
X272844Y99084D01*
X272288Y98712D01*
X271916Y98156D01*
X271786Y97500D01*
X271916Y96844D01*
X272288Y96288D01*
X272844Y95916D01*
X273500Y95786D01*
X274156Y95916D01*
X274712Y96288D01*
X275084Y96844D01*
X275214Y97500D01*
X275084Y98156D01*
X274712Y98712D01*
X274156Y99084D01*
X273500Y99214D01*
D02*
G37*
G36*
X296169Y97006D02*
Y95382D01*
X297794D01*
X297724Y95733D01*
X297242Y96454D01*
X296520Y96936D01*
X296169Y97006D01*
D02*
G37*
G36*
X295169D02*
X294818Y96936D01*
X294097Y96454D01*
X293615Y95733D01*
X293545Y95382D01*
X295169D01*
Y97006D01*
D02*
G37*
G36*
X338000Y96524D02*
Y94900D01*
X339624D01*
X339555Y95251D01*
X339072Y95973D01*
X338351Y96455D01*
X338000Y96524D01*
D02*
G37*
G36*
X337000D02*
X336649Y96455D01*
X335928Y95973D01*
X335445Y95251D01*
X335376Y94900D01*
X337000D01*
Y96524D01*
D02*
G37*
G36*
X304700Y95825D02*
X304349Y95755D01*
X303627Y95273D01*
X303145Y94552D01*
X303076Y94201D01*
X304700D01*
Y95825D01*
D02*
G37*
G36*
X283177D02*
Y94201D01*
X284802D01*
X284732Y94552D01*
X284250Y95273D01*
X283528Y95755D01*
X283177Y95825D01*
D02*
G37*
G36*
X282177D02*
X281826Y95755D01*
X281105Y95273D01*
X280623Y94552D01*
X280553Y94201D01*
X282177D01*
Y95825D01*
D02*
G37*
G36*
X247624Y95169D02*
X246000D01*
Y93545D01*
X246351Y93615D01*
X247073Y94097D01*
X247555Y94818D01*
X247624Y95169D01*
D02*
G37*
G36*
X253306Y95169D02*
X251681D01*
Y93545D01*
X252032Y93615D01*
X252754Y94097D01*
X253236Y94818D01*
X253306Y95169D01*
D02*
G37*
G36*
X250681D02*
X249057D01*
X249127Y94818D01*
X249609Y94097D01*
X250330Y93615D01*
X250681Y93545D01*
Y95169D01*
D02*
G37*
G36*
X297794Y94382D02*
X296169D01*
Y92757D01*
X296520Y92827D01*
X297242Y93309D01*
X297724Y94031D01*
X297794Y94382D01*
D02*
G37*
G36*
X295169D02*
X293545D01*
X293615Y94031D01*
X294097Y93309D01*
X294818Y92827D01*
X295169Y92757D01*
Y94382D01*
D02*
G37*
G36*
X307324Y93201D02*
X305700D01*
Y91576D01*
X306051Y91646D01*
X306772Y92128D01*
X307255Y92850D01*
X307324Y93201D01*
D02*
G37*
G36*
X304700D02*
X303076D01*
X303145Y92850D01*
X303627Y92128D01*
X304349Y91646D01*
X304700Y91576D01*
Y93201D01*
D02*
G37*
G36*
X284802D02*
X283177D01*
Y91576D01*
X283528Y91646D01*
X284250Y92128D01*
X284732Y92850D01*
X284802Y93201D01*
D02*
G37*
G36*
X282177D02*
X280553D01*
X280623Y92850D01*
X281105Y92128D01*
X281826Y91646D01*
X282177Y91576D01*
Y93201D01*
D02*
G37*
G36*
X351287Y93069D02*
Y91445D01*
X352912D01*
X352842Y91796D01*
X352360Y92517D01*
X351638Y92999D01*
X351287Y93069D01*
D02*
G37*
G36*
X350287D02*
X349936Y92999D01*
X349215Y92517D01*
X348733Y91796D01*
X348663Y91445D01*
X350287D01*
Y93069D01*
D02*
G37*
G36*
X339624Y93900D02*
X335376D01*
X335445Y93549D01*
X335928Y92827D01*
X336649Y92345D01*
X336915Y92292D01*
X337145Y91737D01*
X336922Y91402D01*
X336852Y91051D01*
X341101D01*
X341031Y91402D01*
X340549Y92124D01*
X339827Y92606D01*
X339561Y92659D01*
X339331Y93214D01*
X339555Y93549D01*
X339624Y93900D01*
D02*
G37*
G36*
X260524Y91626D02*
X258899D01*
X258969Y91275D01*
X259317Y90754D01*
X259055Y90297D01*
X258399Y90166D01*
X257843Y89795D01*
X257575Y89393D01*
X253055D01*
X252787Y89795D01*
X252231Y90166D01*
X251575Y90297D01*
X250919Y90166D01*
X250363Y89795D01*
X249991Y89239D01*
X249861Y88583D01*
X249991Y87927D01*
X250363Y87371D01*
X250919Y86999D01*
X251575Y86869D01*
X252231Y86999D01*
X252787Y87371D01*
X253055Y87772D01*
X257575D01*
X257843Y87371D01*
X258399Y86999D01*
X259055Y86869D01*
X259711Y86999D01*
X260267Y87371D01*
X260639Y87927D01*
X260769Y88583D01*
X260639Y89239D01*
X260461Y89504D01*
X260524Y89598D01*
Y91626D01*
D02*
G37*
G36*
X352912Y90445D02*
X351287D01*
Y88820D01*
X351638Y88890D01*
X352360Y89372D01*
X352842Y90094D01*
X352912Y90445D01*
D02*
G37*
G36*
X350287D02*
X348663D01*
X348733Y90094D01*
X349215Y89372D01*
X349936Y88890D01*
X350287Y88820D01*
Y90445D01*
D02*
G37*
G36*
X341101Y90051D02*
X339476D01*
Y88427D01*
X339827Y88497D01*
X340549Y88979D01*
X341031Y89700D01*
X341101Y90051D01*
D02*
G37*
G36*
X338476D02*
X336852D01*
X336922Y89700D01*
X337404Y88979D01*
X338125Y88497D01*
X338476Y88427D01*
Y90051D01*
D02*
G37*
G36*
X204900Y89924D02*
Y88300D01*
X206524D01*
X206455Y88651D01*
X205973Y89372D01*
X205251Y89855D01*
X204900Y89924D01*
D02*
G37*
G36*
X203900D02*
X203549Y89855D01*
X202828Y89372D01*
X202345Y88651D01*
X202276Y88300D01*
X203900D01*
Y89924D01*
D02*
G37*
G36*
X321260Y98958D02*
X320604Y98828D01*
X320048Y98456D01*
X319676Y97900D01*
X319546Y97244D01*
X319676Y96588D01*
X320048Y96032D01*
X320604Y95660D01*
X321260Y95530D01*
X321733Y95624D01*
X327828Y89529D01*
X328091Y89354D01*
X328401Y89292D01*
X328695D01*
X328731Y89108D01*
X329103Y88552D01*
X329659Y88180D01*
X330315Y88050D01*
X330971Y88180D01*
X331527Y88552D01*
X331899Y89108D01*
X332029Y89764D01*
X331899Y90420D01*
X331527Y90976D01*
X330971Y91347D01*
X330315Y91478D01*
X329659Y91347D01*
X329103Y90976D01*
X328615Y91036D01*
X322880Y96771D01*
X322974Y97244D01*
X322843Y97900D01*
X322472Y98456D01*
X321916Y98828D01*
X321260Y98958D01*
D02*
G37*
G36*
X207874Y104076D02*
X207218Y103946D01*
X206662Y103574D01*
X206290Y103018D01*
X206160Y102362D01*
X206290Y101706D01*
X206662Y101150D01*
X207218Y100779D01*
X207874Y100648D01*
X208347Y100742D01*
X218852Y90237D01*
X218758Y89764D01*
X218889Y89108D01*
X219260Y88552D01*
X219816Y88180D01*
X220472Y88050D01*
X221128Y88180D01*
X221684Y88552D01*
X222056Y89108D01*
X222186Y89764D01*
X222056Y90420D01*
X221684Y90976D01*
X221128Y91347D01*
X220472Y91478D01*
X219999Y91384D01*
X209494Y101889D01*
X209588Y102362D01*
X209458Y103018D01*
X209086Y103574D01*
X208530Y103946D01*
X207874Y104076D01*
D02*
G37*
G36*
X347600Y88724D02*
Y87100D01*
X349224D01*
X349155Y87451D01*
X348673Y88173D01*
X347951Y88655D01*
X347600Y88724D01*
D02*
G37*
G36*
X346600D02*
X346249Y88655D01*
X345528Y88173D01*
X345045Y87451D01*
X344976Y87100D01*
X346600D01*
Y88724D01*
D02*
G37*
G36*
X309161Y88345D02*
Y86720D01*
X310786D01*
X310716Y87071D01*
X310234Y87793D01*
X309512Y88275D01*
X309161Y88345D01*
D02*
G37*
G36*
X308161D02*
X307810Y88275D01*
X307089Y87793D01*
X306607Y87071D01*
X306537Y86720D01*
X308161D01*
Y88345D01*
D02*
G37*
G36*
X81102Y91478D02*
X80446Y91347D01*
X79890Y90976D01*
X79519Y90420D01*
X79388Y89764D01*
X79519Y89108D01*
X79890Y88552D01*
X80446Y88180D01*
X81102Y88050D01*
X81438Y88117D01*
X81940Y87784D01*
X81976Y87454D01*
X81316Y86794D01*
X81141Y86531D01*
X81079Y86221D01*
Y84157D01*
X80678Y83889D01*
X80306Y83333D01*
X80176Y82677D01*
X80306Y82021D01*
X80678Y81465D01*
X81234Y81094D01*
X81890Y80963D01*
X82546Y81094D01*
X83102Y81465D01*
X83473Y82021D01*
X83604Y82677D01*
X83473Y83333D01*
X83102Y83889D01*
X82701Y84157D01*
Y85885D01*
X83385Y86569D01*
X83858Y86475D01*
X84514Y86605D01*
X85070Y86977D01*
X85442Y87533D01*
X85572Y88189D01*
X85442Y88845D01*
X85070Y89401D01*
X84514Y89773D01*
X83858Y89903D01*
X83283Y89789D01*
X83186Y89783D01*
X82755Y90075D01*
X82686Y90420D01*
X82314Y90976D01*
X81758Y91347D01*
X81102Y91478D01*
D02*
G37*
G36*
X206524Y87300D02*
X204900D01*
Y85676D01*
X205251Y85746D01*
X205973Y86228D01*
X206455Y86949D01*
X206524Y87300D01*
D02*
G37*
G36*
X203900D02*
X202276D01*
X202345Y86949D01*
X202828Y86228D01*
X203549Y85746D01*
X203900Y85676D01*
Y87300D01*
D02*
G37*
G36*
X360996Y87164D02*
Y85539D01*
X362620D01*
X362551Y85890D01*
X362069Y86612D01*
X361347Y87094D01*
X360996Y87164D01*
D02*
G37*
G36*
X359996D02*
X359645Y87094D01*
X358924Y86612D01*
X358442Y85890D01*
X358372Y85539D01*
X359996D01*
Y87164D01*
D02*
G37*
G36*
X349224Y86100D02*
X347600D01*
Y84476D01*
X347951Y84545D01*
X348673Y85027D01*
X349155Y85749D01*
X349224Y86100D01*
D02*
G37*
G36*
X346600D02*
X344976D01*
X345045Y85749D01*
X345528Y85027D01*
X346249Y84545D01*
X346600Y84476D01*
Y86100D01*
D02*
G37*
G36*
X310786Y85720D02*
X309161D01*
Y84096D01*
X309512Y84166D01*
X310234Y84648D01*
X310716Y85369D01*
X310786Y85720D01*
D02*
G37*
G36*
X308161D02*
X306537D01*
X306607Y85369D01*
X307089Y84648D01*
X307810Y84166D01*
X308161Y84096D01*
Y85720D01*
D02*
G37*
G36*
X220866Y98171D02*
X220210Y98040D01*
X219654Y97669D01*
X219283Y97113D01*
X219152Y96457D01*
X219283Y95801D01*
X219654Y95245D01*
X220210Y94873D01*
X220866Y94743D01*
X221339Y94837D01*
X230977Y85199D01*
X230978Y85199D01*
X231241Y85023D01*
X231551Y84961D01*
X231844D01*
X231881Y84777D01*
X232253Y84221D01*
X232809Y83849D01*
X233465Y83719D01*
X234120Y83849D01*
X234677Y84221D01*
X235048Y84777D01*
X235179Y85433D01*
X235048Y86089D01*
X234677Y86645D01*
X234120Y87017D01*
X233465Y87147D01*
X232809Y87017D01*
X232253Y86645D01*
X231764Y86705D01*
X230893Y87577D01*
X231058Y88119D01*
X231364Y88180D01*
X231921Y88552D01*
X232292Y89108D01*
X232423Y89764D01*
X232292Y90420D01*
X231921Y90976D01*
X231364Y91347D01*
X230709Y91478D01*
X230053Y91347D01*
X229497Y90976D01*
X229125Y90420D01*
X229064Y90113D01*
X228521Y89948D01*
X222486Y95983D01*
X222580Y96457D01*
X222450Y97113D01*
X222078Y97669D01*
X221522Y98040D01*
X220866Y98171D01*
D02*
G37*
G36*
X270235Y85327D02*
X268610D01*
Y83702D01*
X268961Y83772D01*
X269683Y84254D01*
X270165Y84976D01*
X270235Y85327D01*
D02*
G37*
G36*
X267610D02*
X265986D01*
X266056Y84976D01*
X266538Y84254D01*
X267259Y83772D01*
X267610Y83702D01*
Y85327D01*
D02*
G37*
G36*
X362620Y84539D02*
X360996D01*
Y82915D01*
X361347Y82985D01*
X362069Y83467D01*
X362551Y84188D01*
X362620Y84539D01*
D02*
G37*
G36*
X359996D02*
X358372D01*
X358442Y84188D01*
X358924Y83467D01*
X359645Y82985D01*
X359996Y82915D01*
Y84539D01*
D02*
G37*
G36*
X248925Y84014D02*
Y82390D01*
X250550D01*
X250480Y82741D01*
X249998Y83462D01*
X249276Y83944D01*
X248925Y84014D01*
D02*
G37*
G36*
X247925D02*
X247574Y83944D01*
X246853Y83462D01*
X246371Y82741D01*
X246301Y82390D01*
X247925D01*
Y84014D01*
D02*
G37*
G36*
X240300D02*
Y82390D01*
X241924D01*
X241855Y82741D01*
X241372Y83462D01*
X240651Y83944D01*
X240300Y84014D01*
D02*
G37*
G36*
X239300D02*
X238949Y83944D01*
X238228Y83462D01*
X237745Y82741D01*
X237676Y82390D01*
X239300D01*
Y84014D01*
D02*
G37*
G36*
X277500Y85214D02*
X276844Y85084D01*
X276288Y84712D01*
X275916Y84156D01*
X275786Y83500D01*
X275916Y82844D01*
X276288Y82288D01*
X276844Y81916D01*
X277500Y81786D01*
X278156Y81916D01*
X278712Y82288D01*
X279084Y82844D01*
X279214Y83500D01*
X279084Y84156D01*
X278712Y84712D01*
X278156Y85084D01*
X277500Y85214D01*
D02*
G37*
G36*
X250550Y81390D02*
X248925D01*
Y79765D01*
X249276Y79835D01*
X249998Y80317D01*
X250480Y81039D01*
X250550Y81390D01*
D02*
G37*
G36*
X247925D02*
X246301D01*
X246371Y81039D01*
X246853Y80317D01*
X247574Y79835D01*
X247925Y79765D01*
Y81390D01*
D02*
G37*
G36*
X241924D02*
X240300D01*
Y79765D01*
X240651Y79835D01*
X241372Y80317D01*
X241855Y81039D01*
X241924Y81390D01*
D02*
G37*
G36*
X239300D02*
X237676D01*
X237745Y81039D01*
X238228Y80317D01*
X238949Y79835D01*
X239300Y79765D01*
Y81390D01*
D02*
G37*
G36*
X319791Y80865D02*
Y79240D01*
X321416D01*
X321346Y79591D01*
X320864Y80313D01*
X320142Y80795D01*
X319791Y80865D01*
D02*
G37*
G36*
X318791D02*
X318440Y80795D01*
X317719Y80313D01*
X317237Y79591D01*
X317167Y79240D01*
X318791D01*
Y80865D01*
D02*
G37*
G36*
X278059D02*
Y79240D01*
X279683D01*
X279613Y79591D01*
X279132Y80313D01*
X278410Y80795D01*
X278059Y80865D01*
D02*
G37*
G36*
X277059D02*
X276708Y80795D01*
X275987Y80313D01*
X275504Y79591D01*
X275435Y79240D01*
X277059D01*
Y80865D01*
D02*
G37*
G36*
X353600Y80024D02*
Y78400D01*
X355224D01*
X355155Y78751D01*
X354673Y79473D01*
X353951Y79954D01*
X353600Y80024D01*
D02*
G37*
G36*
X352600D02*
X352249Y79954D01*
X351528Y79473D01*
X351045Y78751D01*
X350976Y78400D01*
X352600D01*
Y80024D01*
D02*
G37*
G36*
X212705Y79290D02*
Y77665D01*
X214329D01*
X214259Y78016D01*
X213777Y78738D01*
X213056Y79220D01*
X212705Y79290D01*
D02*
G37*
G36*
X211705D02*
X211354Y79220D01*
X210632Y78738D01*
X210150Y78016D01*
X210080Y77665D01*
X211705D01*
Y79290D01*
D02*
G37*
G36*
X204437D02*
Y77665D01*
X206061D01*
X205992Y78016D01*
X205509Y78738D01*
X204788Y79220D01*
X204437Y79290D01*
D02*
G37*
G36*
X203437D02*
X203086Y79220D01*
X202364Y78738D01*
X201882Y78016D01*
X201813Y77665D01*
X203437D01*
Y79290D01*
D02*
G37*
G36*
X63098D02*
Y77665D01*
X64723D01*
X64653Y78016D01*
X64171Y78738D01*
X63449Y79220D01*
X63098Y79290D01*
D02*
G37*
G36*
X62098D02*
X61747Y79220D01*
X61026Y78738D01*
X60544Y78016D01*
X60474Y77665D01*
X62098D01*
Y79290D01*
D02*
G37*
G36*
X267913Y80454D02*
X267257Y80324D01*
X266701Y79952D01*
X266330Y79396D01*
X266199Y78740D01*
X266330Y78084D01*
X266701Y77528D01*
X267257Y77157D01*
X267913Y77026D01*
X268569Y77157D01*
X269125Y77528D01*
X269497Y78084D01*
X269627Y78740D01*
X269497Y79396D01*
X269125Y79952D01*
X268569Y80324D01*
X267913Y80454D01*
D02*
G37*
G36*
X321416Y78240D02*
X319791D01*
Y76616D01*
X320142Y76686D01*
X320864Y77168D01*
X321346Y77889D01*
X321416Y78240D01*
D02*
G37*
G36*
X318791D02*
X317167D01*
X317237Y77889D01*
X317719Y77168D01*
X318440Y76686D01*
X318791Y76616D01*
Y78240D01*
D02*
G37*
G36*
X279683D02*
X278059D01*
Y76616D01*
X278410Y76686D01*
X279132Y77168D01*
X279613Y77889D01*
X279683Y78240D01*
D02*
G37*
G36*
X277059D02*
X275435D01*
X275504Y77889D01*
X275987Y77168D01*
X276708Y76686D01*
X277059Y76616D01*
Y78240D01*
D02*
G37*
G36*
X355224Y77400D02*
X353600D01*
Y75776D01*
X353951Y75845D01*
X354673Y76328D01*
X355155Y77049D01*
X355224Y77400D01*
D02*
G37*
G36*
X352600D02*
X350976D01*
X351045Y77049D01*
X351528Y76328D01*
X352249Y75845D01*
X352600Y75776D01*
Y77400D01*
D02*
G37*
G36*
X214329Y76665D02*
X212705D01*
Y75041D01*
X213056Y75111D01*
X213777Y75593D01*
X214259Y76314D01*
X214329Y76665D01*
D02*
G37*
G36*
X211705D02*
X210080D01*
X210150Y76314D01*
X210632Y75593D01*
X211354Y75111D01*
X211705Y75041D01*
Y76665D01*
D02*
G37*
G36*
X206061D02*
X204437D01*
Y75041D01*
X204788Y75111D01*
X205509Y75593D01*
X205992Y76314D01*
X206061Y76665D01*
D02*
G37*
G36*
X203437D02*
X201813D01*
X201882Y76314D01*
X202364Y75593D01*
X203086Y75111D01*
X203437Y75041D01*
Y76665D01*
D02*
G37*
G36*
X64723D02*
X63098D01*
Y75041D01*
X63449Y75111D01*
X64171Y75593D01*
X64653Y76314D01*
X64723Y76665D01*
D02*
G37*
G36*
X62098D02*
X60474D01*
X60544Y76314D01*
X61026Y75593D01*
X61747Y75111D01*
X62098Y75041D01*
Y76665D01*
D02*
G37*
G36*
X363492Y76140D02*
Y74516D01*
X365117D01*
X365047Y74867D01*
X364565Y75588D01*
X363843Y76070D01*
X363492Y76140D01*
D02*
G37*
G36*
X362492D02*
X362141Y76070D01*
X361420Y75588D01*
X360938Y74867D01*
X360868Y74516D01*
X362492D01*
Y76140D01*
D02*
G37*
G36*
X369764Y77051D02*
X369070Y76912D01*
X368481Y76519D01*
X368088Y75931D01*
X367949Y75236D01*
X368088Y74542D01*
X368481Y73953D01*
X369070Y73560D01*
X369764Y73422D01*
X370458Y73560D01*
X371047Y73953D01*
X371440Y74542D01*
X371578Y75236D01*
X371440Y75931D01*
X371047Y76519D01*
X370458Y76912D01*
X369764Y77051D01*
D02*
G37*
G36*
X220700Y75717D02*
X220044Y75587D01*
X219488Y75215D01*
X219116Y74659D01*
X218986Y74003D01*
X219116Y73347D01*
X219488Y72791D01*
X220044Y72420D01*
X220700Y72289D01*
X221356Y72420D01*
X221912Y72791D01*
X222284Y73347D01*
X222414Y74003D01*
X222284Y74659D01*
X221912Y75215D01*
X221356Y75587D01*
X220700Y75717D01*
D02*
G37*
G36*
X385827Y72601D02*
X384752D01*
Y70106D01*
X388755D01*
X388719Y70381D01*
X388420Y71104D01*
X387944Y71724D01*
X387324Y72199D01*
X386602Y72499D01*
X385827Y72601D01*
D02*
G37*
G36*
X369961D02*
X368295D01*
Y70106D01*
X372889D01*
X372853Y70381D01*
X372553Y71104D01*
X372078Y71724D01*
X371458Y72199D01*
X370736Y72499D01*
X369961Y72601D01*
D02*
G37*
G36*
X383752D02*
X382677D01*
X381902Y72499D01*
X381180Y72199D01*
X380560Y71724D01*
X380084Y71104D01*
X379785Y70381D01*
X379749Y70106D01*
X383752D01*
Y72601D01*
D02*
G37*
G36*
X365117Y73516D02*
X360868D01*
X360938Y73165D01*
X361420Y72443D01*
X362141Y71961D01*
X362943Y71802D01*
X363076Y71610D01*
X363207Y71325D01*
X363037Y71104D01*
X362738Y70381D01*
X362702Y70106D01*
X367295D01*
Y72601D01*
X365630D01*
X365236Y72549D01*
X364947Y73015D01*
X365047Y73165D01*
X365117Y73516D01*
D02*
G37*
G36*
X260736Y71416D02*
Y69791D01*
X262361D01*
X262291Y70142D01*
X261809Y70864D01*
X261087Y71346D01*
X260736Y71416D01*
D02*
G37*
G36*
X259736D02*
X259385Y71346D01*
X258664Y70864D01*
X258182Y70142D01*
X258112Y69791D01*
X259736D01*
Y71416D01*
D02*
G37*
G36*
X111130D02*
Y69791D01*
X112754D01*
X112685Y70142D01*
X112203Y70864D01*
X111481Y71346D01*
X111130Y71416D01*
D02*
G37*
G36*
X110130D02*
X109779Y71346D01*
X109057Y70864D01*
X108575Y70142D01*
X108506Y69791D01*
X110130D01*
Y71416D01*
D02*
G37*
G36*
X249319Y69841D02*
Y68217D01*
X250943D01*
X250873Y68568D01*
X250392Y69289D01*
X249670Y69771D01*
X249319Y69841D01*
D02*
G37*
G36*
X248319D02*
X247968Y69771D01*
X247247Y69289D01*
X246764Y68568D01*
X246695Y68217D01*
X248319D01*
Y69841D01*
D02*
G37*
G36*
X262361Y68791D02*
X260736D01*
Y67167D01*
X261087Y67237D01*
X261809Y67719D01*
X262291Y68440D01*
X262361Y68791D01*
D02*
G37*
G36*
X259736D02*
X258112D01*
X258182Y68440D01*
X258664Y67719D01*
X259385Y67237D01*
X259736Y67167D01*
Y68791D01*
D02*
G37*
G36*
X112754D02*
X111130D01*
Y67167D01*
X111481Y67237D01*
X112203Y67719D01*
X112685Y68440D01*
X112754Y68791D01*
D02*
G37*
G36*
X110130D02*
X108506D01*
X108575Y68440D01*
X109057Y67719D01*
X109779Y67237D01*
X110130Y67167D01*
Y68791D01*
D02*
G37*
G36*
X337795Y70218D02*
X337139Y70088D01*
X336583Y69716D01*
X336212Y69160D01*
X336081Y68504D01*
X336212Y67848D01*
X336583Y67292D01*
X337139Y66920D01*
X337795Y66790D01*
X338451Y66920D01*
X339007Y67292D01*
X339379Y67848D01*
X339509Y68504D01*
X339379Y69160D01*
X339007Y69716D01*
X338451Y70088D01*
X337795Y70218D01*
D02*
G37*
G36*
X388755Y69106D02*
X384752D01*
Y66612D01*
X385827D01*
X386602Y66714D01*
X387324Y67013D01*
X387944Y67489D01*
X388420Y68109D01*
X388719Y68831D01*
X388755Y69106D01*
D02*
G37*
G36*
X383752D02*
X379749D01*
X379785Y68831D01*
X380084Y68109D01*
X380560Y67489D01*
X381180Y67013D01*
X381902Y66714D01*
X382677Y66612D01*
X383752D01*
Y69106D01*
D02*
G37*
G36*
X372889D02*
X368295D01*
Y66612D01*
X369961D01*
X370736Y66714D01*
X371458Y67013D01*
X372078Y67489D01*
X372553Y68109D01*
X372853Y68831D01*
X372889Y69106D01*
D02*
G37*
G36*
X367295D02*
X362702D01*
X362738Y68831D01*
X363037Y68109D01*
X363513Y67489D01*
X364133Y67013D01*
X364855Y66714D01*
X365630Y66612D01*
X367295D01*
Y69106D01*
D02*
G37*
G36*
X233465Y69037D02*
X232809Y68906D01*
X232253Y68535D01*
X231881Y67979D01*
X231751Y67323D01*
X231881Y66667D01*
X232253Y66111D01*
X232809Y65739D01*
X233465Y65609D01*
X234120Y65739D01*
X234677Y66111D01*
X235048Y66667D01*
X235179Y67323D01*
X235048Y67979D01*
X234677Y68535D01*
X234120Y68906D01*
X233465Y69037D01*
D02*
G37*
G36*
X83858D02*
X83202Y68906D01*
X82646Y68535D01*
X82275Y67979D01*
X82144Y67323D01*
X82275Y66667D01*
X82646Y66111D01*
X83202Y65739D01*
X83858Y65609D01*
X84514Y65739D01*
X85070Y66111D01*
X85442Y66667D01*
X85572Y67323D01*
X85442Y67979D01*
X85070Y68535D01*
X84514Y68906D01*
X83858Y69037D01*
D02*
G37*
G36*
X250943Y67217D02*
X249319D01*
Y65592D01*
X249670Y65662D01*
X250392Y66144D01*
X250873Y66866D01*
X250943Y67217D01*
D02*
G37*
G36*
X248319D02*
X246695D01*
X246764Y66866D01*
X247247Y66144D01*
X247968Y65662D01*
X248319Y65592D01*
Y67217D01*
D02*
G37*
G36*
X205110Y69017D02*
X204454Y68887D01*
X203898Y68515D01*
X203527Y67959D01*
X203396Y67303D01*
X203527Y66647D01*
X203898Y66091D01*
X204454Y65720D01*
X205110Y65589D01*
X205766Y65720D01*
X206322Y66091D01*
X206694Y66647D01*
X206824Y67303D01*
X206694Y67959D01*
X206322Y68515D01*
X205766Y68887D01*
X205110Y69017D01*
D02*
G37*
G36*
X330421Y63148D02*
Y61524D01*
X332046D01*
X331976Y61875D01*
X331494Y62596D01*
X330772Y63078D01*
X330421Y63148D01*
D02*
G37*
G36*
X329421D02*
X329070Y63078D01*
X328349Y62596D01*
X327867Y61875D01*
X327797Y61524D01*
X329421D01*
Y63148D01*
D02*
G37*
G36*
X310736D02*
Y61524D01*
X312361D01*
X312291Y61875D01*
X311809Y62596D01*
X311087Y63078D01*
X310736Y63148D01*
D02*
G37*
G36*
X309736D02*
X309385Y63078D01*
X308664Y62596D01*
X308182Y61875D01*
X308112Y61524D01*
X309736D01*
Y63148D01*
D02*
G37*
G36*
X237000Y74214D02*
X236344Y74084D01*
X235788Y73712D01*
X235416Y73156D01*
X235286Y72500D01*
X235416Y71844D01*
X235788Y71288D01*
X236089Y71087D01*
Y69973D01*
X235970Y69854D01*
X235772Y69559D01*
X235703Y69210D01*
Y66732D01*
X235772Y66384D01*
X235970Y66088D01*
X240121Y61936D01*
X240018Y61417D01*
X240050Y61259D01*
X239579Y61064D01*
X239372Y61373D01*
X238651Y61854D01*
X238300Y61924D01*
Y60300D01*
X240307D01*
X240424Y60349D01*
X240520Y60205D01*
X241076Y59834D01*
X241732Y59703D01*
X242388Y59834D01*
X242944Y60205D01*
X243316Y60761D01*
X243446Y61417D01*
X243316Y62073D01*
X242944Y62629D01*
X242388Y63001D01*
X241732Y63131D01*
X241542Y63094D01*
X237525Y67110D01*
Y68833D01*
X237644Y68952D01*
X237842Y69247D01*
X237911Y69596D01*
Y71087D01*
X238212Y71288D01*
X238584Y71844D01*
X238714Y72500D01*
X238584Y73156D01*
X238212Y73712D01*
X237656Y74084D01*
X237000Y74214D01*
D02*
G37*
G36*
X237300Y61924D02*
X236949Y61854D01*
X236227Y61373D01*
X235745Y60651D01*
X235676Y60300D01*
X237300D01*
Y61924D01*
D02*
G37*
G36*
X88600D02*
Y60300D01*
X90224D01*
X90154Y60651D01*
X89672Y61373D01*
X88951Y61854D01*
X88600Y61924D01*
D02*
G37*
G36*
X87600D02*
X87249Y61854D01*
X86528Y61373D01*
X86045Y60651D01*
X85976Y60300D01*
X87600D01*
Y61924D01*
D02*
G37*
G36*
X332046Y60524D02*
X330421D01*
Y58899D01*
X330772Y58969D01*
X331494Y59451D01*
X331976Y60173D01*
X332046Y60524D01*
D02*
G37*
G36*
X329421D02*
X327797D01*
X327867Y60173D01*
X328349Y59451D01*
X329070Y58969D01*
X329421Y58899D01*
Y60524D01*
D02*
G37*
G36*
X312361D02*
X310736D01*
Y58899D01*
X311087Y58969D01*
X311809Y59451D01*
X312291Y60173D01*
X312361Y60524D01*
D02*
G37*
G36*
X309736D02*
X308112D01*
X308182Y60173D01*
X308664Y59451D01*
X309385Y58969D01*
X309736Y58899D01*
Y60524D01*
D02*
G37*
G36*
X81102Y61557D02*
X80446Y61426D01*
X79890Y61055D01*
X79519Y60498D01*
X79388Y59843D01*
X79519Y59187D01*
X79890Y58631D01*
X80446Y58259D01*
X81102Y58129D01*
X81758Y58259D01*
X82314Y58631D01*
X82686Y59187D01*
X82816Y59843D01*
X82686Y60498D01*
X82314Y61055D01*
X81758Y61426D01*
X81102Y61557D01*
D02*
G37*
G36*
X239924Y59300D02*
X238300D01*
Y57676D01*
X238651Y57745D01*
X239372Y58227D01*
X239855Y58949D01*
X239924Y59300D01*
D02*
G37*
G36*
X237300D02*
X235676D01*
X235745Y58949D01*
X236227Y58227D01*
X236949Y57745D01*
X237300Y57676D01*
Y59300D01*
D02*
G37*
G36*
X90224D02*
X88600D01*
Y57676D01*
X88951Y57745D01*
X89672Y58227D01*
X90154Y58949D01*
X90224Y59300D01*
D02*
G37*
G36*
X87600D02*
X85976D01*
X86045Y58949D01*
X86528Y58227D01*
X87249Y57745D01*
X87600Y57676D01*
Y59300D01*
D02*
G37*
G36*
X266406Y46797D02*
Y43177D01*
X270025D01*
X269948Y43760D01*
X269530Y44770D01*
X268865Y45637D01*
X267998Y46302D01*
X266989Y46720D01*
X266406Y46797D01*
D02*
G37*
G36*
X265406D02*
X264822Y46720D01*
X263813Y46302D01*
X262946Y45637D01*
X262281Y44770D01*
X261863Y43760D01*
X261786Y43177D01*
X265406D01*
Y46797D01*
D02*
G37*
G36*
X244594D02*
Y43177D01*
X248214D01*
X248137Y43760D01*
X247719Y44770D01*
X247054Y45637D01*
X246187Y46302D01*
X245178Y46720D01*
X244594Y46797D01*
D02*
G37*
G36*
X243594D02*
X243011Y46720D01*
X242002Y46302D01*
X241135Y45637D01*
X240470Y44770D01*
X240052Y43760D01*
X239975Y43177D01*
X243594D01*
Y46797D01*
D02*
G37*
G36*
X116799D02*
Y43177D01*
X120419D01*
X120342Y43760D01*
X119924Y44770D01*
X119259Y45637D01*
X118392Y46302D01*
X117383Y46720D01*
X116799Y46797D01*
D02*
G37*
G36*
X115799D02*
X115216Y46720D01*
X114207Y46302D01*
X113340Y45637D01*
X112674Y44770D01*
X112256Y43760D01*
X112180Y43177D01*
X115799D01*
Y46797D01*
D02*
G37*
G36*
X94988D02*
Y43177D01*
X98608D01*
X98531Y43760D01*
X98113Y44770D01*
X97448Y45637D01*
X96581Y46302D01*
X95572Y46720D01*
X94988Y46797D01*
D02*
G37*
G36*
X93988D02*
X93405Y46720D01*
X92396Y46302D01*
X91529Y45637D01*
X90864Y44770D01*
X90445Y43760D01*
X90369Y43177D01*
X93988D01*
Y46797D01*
D02*
G37*
G36*
X255000Y46358D02*
X254047Y46233D01*
X253159Y45865D01*
X252397Y45280D01*
X251812Y44518D01*
X251444Y43630D01*
X251319Y42677D01*
X251444Y41725D01*
X251812Y40837D01*
X252397Y40074D01*
X253159Y39489D01*
X254047Y39121D01*
X255000Y38996D01*
X255953Y39121D01*
X256840Y39489D01*
X257603Y40074D01*
X258188Y40837D01*
X258556Y41725D01*
X258681Y42677D01*
X258556Y43630D01*
X258188Y44518D01*
X257603Y45280D01*
X256840Y45865D01*
X255953Y46233D01*
X255000Y46358D01*
D02*
G37*
G36*
X224500Y79214D02*
X223844Y79084D01*
X223288Y78712D01*
X222916Y78156D01*
X222786Y77500D01*
X222916Y76844D01*
X223288Y76288D01*
X223589Y76087D01*
Y68985D01*
X223658Y68637D01*
X223856Y68341D01*
X230276Y61920D01*
X230131Y61442D01*
X230053Y61426D01*
X229497Y61055D01*
X229125Y60498D01*
X228995Y59843D01*
X229125Y59187D01*
X229497Y58631D01*
X230053Y58259D01*
X230709Y58129D01*
X231364Y58259D01*
X231778Y58535D01*
X232278Y58334D01*
Y46238D01*
X232236Y46233D01*
X231348Y45865D01*
X230586Y45280D01*
X230001Y44518D01*
X229633Y43630D01*
X229508Y42677D01*
X229633Y41725D01*
X230001Y40837D01*
X230586Y40074D01*
X231348Y39489D01*
X232236Y39121D01*
X233189Y38996D01*
X234142Y39121D01*
X235030Y39489D01*
X235792Y40074D01*
X236377Y40837D01*
X236745Y41725D01*
X236870Y42677D01*
X236745Y43630D01*
X236377Y44518D01*
X235792Y45280D01*
X235030Y45865D01*
X234142Y46233D01*
X234100Y46238D01*
Y60296D01*
X234031Y60645D01*
X233833Y60941D01*
X225411Y69363D01*
Y76087D01*
X225712Y76288D01*
X226084Y76844D01*
X226214Y77500D01*
X226084Y78156D01*
X225712Y78712D01*
X225156Y79084D01*
X224500Y79214D01*
D02*
G37*
G36*
X222283Y46358D02*
X221331Y46233D01*
X220443Y45865D01*
X219681Y45280D01*
X219095Y44518D01*
X218728Y43630D01*
X218602Y42677D01*
X218728Y41725D01*
X219095Y40837D01*
X219681Y40074D01*
X220443Y39489D01*
X221331Y39121D01*
X222283Y38996D01*
X223236Y39121D01*
X224124Y39489D01*
X224886Y40074D01*
X225471Y40837D01*
X225839Y41725D01*
X225964Y42677D01*
X225839Y43630D01*
X225471Y44518D01*
X224886Y45280D01*
X224124Y45865D01*
X223236Y46233D01*
X222283Y46358D01*
D02*
G37*
G36*
X105394D02*
X104441Y46233D01*
X103553Y45865D01*
X102791Y45280D01*
X102206Y44518D01*
X101838Y43630D01*
X101713Y42677D01*
X101838Y41725D01*
X102206Y40837D01*
X102791Y40074D01*
X103553Y39489D01*
X104441Y39121D01*
X105394Y38996D01*
X106346Y39121D01*
X107234Y39489D01*
X107997Y40074D01*
X108582Y40837D01*
X108949Y41725D01*
X109075Y42677D01*
X108949Y43630D01*
X108582Y44518D01*
X107997Y45280D01*
X107234Y45865D01*
X106346Y46233D01*
X105394Y46358D01*
D02*
G37*
G36*
X83583D02*
X82630Y46233D01*
X81742Y45865D01*
X80980Y45280D01*
X80395Y44518D01*
X80027Y43630D01*
X79901Y42677D01*
X80027Y41725D01*
X80395Y40837D01*
X80980Y40074D01*
X81742Y39489D01*
X82630Y39121D01*
X83583Y38996D01*
X84535Y39121D01*
X85423Y39489D01*
X86185Y40074D01*
X86770Y40837D01*
X87138Y41725D01*
X87264Y42677D01*
X87138Y43630D01*
X86770Y44518D01*
X86185Y45280D01*
X85423Y45865D01*
X84535Y46233D01*
X83583Y46358D01*
D02*
G37*
G36*
X72677D02*
X71724Y46233D01*
X70837Y45865D01*
X70074Y45280D01*
X69489Y44518D01*
X69121Y43630D01*
X68996Y42677D01*
X69121Y41725D01*
X69489Y40837D01*
X70074Y40074D01*
X70837Y39489D01*
X71724Y39121D01*
X72677Y38996D01*
X73630Y39121D01*
X74518Y39489D01*
X75280Y40074D01*
X75865Y40837D01*
X76233Y41725D01*
X76358Y42677D01*
X76233Y43630D01*
X75865Y44518D01*
X75280Y45280D01*
X74518Y45865D01*
X73630Y46233D01*
X72677Y46358D01*
D02*
G37*
G36*
X270025Y42177D02*
X266406D01*
Y38558D01*
X266989Y38634D01*
X267998Y39053D01*
X268865Y39718D01*
X269530Y40584D01*
X269948Y41594D01*
X270025Y42177D01*
D02*
G37*
G36*
X265406D02*
X261786D01*
X261863Y41594D01*
X262281Y40584D01*
X262946Y39718D01*
X263813Y39053D01*
X264822Y38634D01*
X265406Y38558D01*
Y42177D01*
D02*
G37*
G36*
X248214D02*
X244594D01*
Y38558D01*
X245178Y38634D01*
X246187Y39053D01*
X247054Y39718D01*
X247719Y40584D01*
X248137Y41594D01*
X248214Y42177D01*
D02*
G37*
G36*
X243594D02*
X239975D01*
X240052Y41594D01*
X240470Y40584D01*
X241135Y39718D01*
X242002Y39053D01*
X243011Y38634D01*
X243594Y38558D01*
Y42177D01*
D02*
G37*
G36*
X120419D02*
X116799D01*
Y38558D01*
X117383Y38634D01*
X118392Y39053D01*
X119259Y39718D01*
X119924Y40584D01*
X120342Y41594D01*
X120419Y42177D01*
D02*
G37*
G36*
X115799D02*
X112180D01*
X112256Y41594D01*
X112674Y40584D01*
X113340Y39718D01*
X114207Y39053D01*
X115216Y38634D01*
X115799Y38558D01*
Y42177D01*
D02*
G37*
G36*
X98608D02*
X94988D01*
Y38558D01*
X95572Y38634D01*
X96581Y39053D01*
X97448Y39718D01*
X98113Y40584D01*
X98531Y41594D01*
X98608Y42177D01*
D02*
G37*
G36*
X93988D02*
X90369D01*
X90445Y41594D01*
X90864Y40584D01*
X91529Y39718D01*
X92396Y39053D01*
X93405Y38634D01*
X93988Y38558D01*
Y42177D01*
D02*
G37*
G36*
X293807Y46745D02*
Y37587D01*
X302966D01*
X302829Y38981D01*
X302276Y40802D01*
X301379Y42480D01*
X300172Y43951D01*
X298701Y45159D01*
X297022Y46056D01*
X295201Y46608D01*
X293807Y46745D01*
D02*
G37*
G36*
X292807D02*
X291413Y46608D01*
X289592Y46056D01*
X287913Y45159D01*
X286442Y43951D01*
X285235Y42480D01*
X284338Y40802D01*
X283785Y38981D01*
X283648Y37587D01*
X292807D01*
Y46745D01*
D02*
G37*
G36*
X195382D02*
Y37587D01*
X204541D01*
X204403Y38981D01*
X203851Y40802D01*
X202954Y42480D01*
X201747Y43951D01*
X200275Y45159D01*
X198597Y46056D01*
X196776Y46608D01*
X195382Y46745D01*
D02*
G37*
G36*
X194382D02*
X192988Y46608D01*
X191167Y46056D01*
X189488Y45159D01*
X188017Y43951D01*
X186810Y42480D01*
X185913Y40802D01*
X185360Y38981D01*
X185223Y37587D01*
X194382D01*
Y46745D01*
D02*
G37*
G36*
X144201D02*
Y37587D01*
X153360D01*
X153222Y38981D01*
X152670Y40802D01*
X151773Y42480D01*
X150566Y43951D01*
X149094Y45159D01*
X147416Y46056D01*
X145595Y46608D01*
X144201Y46745D01*
D02*
G37*
G36*
X143201D02*
X141807Y46608D01*
X139986Y46056D01*
X138307Y45159D01*
X136836Y43951D01*
X135629Y42480D01*
X134732Y40802D01*
X134179Y38981D01*
X134042Y37587D01*
X143201D01*
Y46745D01*
D02*
G37*
G36*
X45776D02*
Y37587D01*
X54935D01*
X54797Y38981D01*
X54245Y40802D01*
X53348Y42480D01*
X52140Y43951D01*
X50669Y45159D01*
X48991Y46056D01*
X47170Y46608D01*
X45776Y46745D01*
D02*
G37*
G36*
X44776D02*
X43382Y46608D01*
X41560Y46056D01*
X39882Y45159D01*
X38411Y43951D01*
X37204Y42480D01*
X36306Y40802D01*
X35754Y38981D01*
X35617Y37587D01*
X44776D01*
Y46745D01*
D02*
G37*
G36*
X228236Y35616D02*
Y31996D01*
X231856D01*
X231779Y32579D01*
X231361Y33589D01*
X230696Y34455D01*
X229829Y35121D01*
X228819Y35539D01*
X228236Y35616D01*
D02*
G37*
G36*
X227236D02*
X226653Y35539D01*
X225643Y35121D01*
X224777Y34455D01*
X224112Y33589D01*
X223693Y32579D01*
X223617Y31996D01*
X227236D01*
Y35616D01*
D02*
G37*
G36*
X78400Y39214D02*
X77744Y39084D01*
X77188Y38712D01*
X76816Y38156D01*
X76686Y37500D01*
X76816Y36844D01*
X77188Y36288D01*
X77471Y36099D01*
X77350Y35579D01*
X77047Y35539D01*
X76037Y35121D01*
X75170Y34455D01*
X74505Y33589D01*
X74087Y32579D01*
X74010Y31996D01*
X82250D01*
X82173Y32579D01*
X81755Y33589D01*
X81090Y34455D01*
X80223Y35121D01*
X79315Y35497D01*
X79229Y35824D01*
X79240Y36040D01*
X79612Y36288D01*
X79984Y36844D01*
X80114Y37500D01*
X79984Y38156D01*
X79612Y38712D01*
X79056Y39084D01*
X78400Y39214D01*
D02*
G37*
G36*
X260453Y35177D02*
X259500Y35052D01*
X258612Y34684D01*
X257850Y34099D01*
X257265Y33336D01*
X256897Y32449D01*
X256772Y31496D01*
X256897Y30543D01*
X257265Y29656D01*
X257850Y28893D01*
X258612Y28308D01*
X259500Y27940D01*
X260453Y27815D01*
X261405Y27940D01*
X262293Y28308D01*
X263056Y28893D01*
X263641Y29656D01*
X264008Y30543D01*
X264134Y31496D01*
X264008Y32449D01*
X263641Y33336D01*
X263056Y34099D01*
X262293Y34684D01*
X261405Y35052D01*
X260453Y35177D01*
D02*
G37*
G36*
X249547D02*
X248594Y35052D01*
X247707Y34684D01*
X246944Y34099D01*
X246359Y33336D01*
X245991Y32449D01*
X245866Y31496D01*
X245991Y30543D01*
X246359Y29656D01*
X246944Y28893D01*
X247707Y28308D01*
X248594Y27940D01*
X249547Y27815D01*
X250500Y27940D01*
X251388Y28308D01*
X252150Y28893D01*
X252735Y29656D01*
X253103Y30543D01*
X253228Y31496D01*
X253103Y32449D01*
X252735Y33336D01*
X252150Y34099D01*
X251388Y34684D01*
X250500Y35052D01*
X249547Y35177D01*
D02*
G37*
G36*
X238642D02*
X237689Y35052D01*
X236801Y34684D01*
X236039Y34099D01*
X235454Y33336D01*
X235086Y32449D01*
X234961Y31496D01*
X235086Y30543D01*
X235454Y29656D01*
X236039Y28893D01*
X236801Y28308D01*
X237689Y27940D01*
X238642Y27815D01*
X239595Y27940D01*
X240482Y28308D01*
X241245Y28893D01*
X241830Y29656D01*
X242197Y30543D01*
X242323Y31496D01*
X242197Y32449D01*
X241830Y33336D01*
X241245Y34099D01*
X240482Y34684D01*
X239595Y35052D01*
X238642Y35177D01*
D02*
G37*
G36*
X110846D02*
X109894Y35052D01*
X109006Y34684D01*
X108244Y34099D01*
X107659Y33336D01*
X107291Y32449D01*
X107165Y31496D01*
X107291Y30543D01*
X107659Y29656D01*
X108244Y28893D01*
X109006Y28308D01*
X109894Y27940D01*
X110846Y27815D01*
X111799Y27940D01*
X112687Y28308D01*
X113449Y28893D01*
X114034Y29656D01*
X114402Y30543D01*
X114527Y31496D01*
X114402Y32449D01*
X114034Y33336D01*
X113449Y34099D01*
X112687Y34684D01*
X111799Y35052D01*
X110846Y35177D01*
D02*
G37*
G36*
X99941D02*
X98988Y35052D01*
X98101Y34684D01*
X97338Y34099D01*
X96753Y33336D01*
X96385Y32449D01*
X96260Y31496D01*
X96385Y30543D01*
X96753Y29656D01*
X97338Y28893D01*
X98101Y28308D01*
X98988Y27940D01*
X99941Y27815D01*
X100894Y27940D01*
X101781Y28308D01*
X102544Y28893D01*
X103129Y29656D01*
X103497Y30543D01*
X103622Y31496D01*
X103497Y32449D01*
X103129Y33336D01*
X102544Y34099D01*
X101781Y34684D01*
X100894Y35052D01*
X99941Y35177D01*
D02*
G37*
G36*
X89035D02*
X88083Y35052D01*
X87195Y34684D01*
X86432Y34099D01*
X85848Y33336D01*
X85480Y32449D01*
X85354Y31496D01*
X85480Y30543D01*
X85848Y29656D01*
X86432Y28893D01*
X87195Y28308D01*
X88083Y27940D01*
X89035Y27815D01*
X89988Y27940D01*
X90876Y28308D01*
X91638Y28893D01*
X92223Y29656D01*
X92591Y30543D01*
X92716Y31496D01*
X92591Y32449D01*
X92223Y33336D01*
X91638Y34099D01*
X90876Y34684D01*
X89988Y35052D01*
X89035Y35177D01*
D02*
G37*
G36*
X302966Y36587D02*
X293807D01*
Y27428D01*
X295201Y27565D01*
X297022Y28117D01*
X298701Y29015D01*
X300172Y30222D01*
X301379Y31693D01*
X302276Y33371D01*
X302829Y35193D01*
X302966Y36587D01*
D02*
G37*
G36*
X292807D02*
X283648D01*
X283785Y35193D01*
X284338Y33371D01*
X285235Y31693D01*
X286442Y30222D01*
X287913Y29015D01*
X289592Y28117D01*
X291413Y27565D01*
X292807Y27428D01*
Y36587D01*
D02*
G37*
G36*
X204541D02*
X195382D01*
Y27428D01*
X196776Y27565D01*
X198597Y28117D01*
X200275Y29015D01*
X201747Y30222D01*
X202954Y31693D01*
X203851Y33371D01*
X204403Y35193D01*
X204541Y36587D01*
D02*
G37*
G36*
X194382D02*
X185223D01*
X185360Y35193D01*
X185913Y33371D01*
X186810Y31693D01*
X188017Y30222D01*
X189488Y29015D01*
X191167Y28117D01*
X192988Y27565D01*
X194382Y27428D01*
Y36587D01*
D02*
G37*
G36*
X153360D02*
X144201D01*
Y27428D01*
X145595Y27565D01*
X147416Y28117D01*
X149094Y29015D01*
X150566Y30222D01*
X151773Y31693D01*
X152670Y33371D01*
X153222Y35193D01*
X153360Y36587D01*
D02*
G37*
G36*
X143201D02*
X134042D01*
X134179Y35193D01*
X134732Y33371D01*
X135629Y31693D01*
X136836Y30222D01*
X138307Y29015D01*
X139986Y28117D01*
X141807Y27565D01*
X143201Y27428D01*
Y36587D01*
D02*
G37*
G36*
X54935D02*
X45776D01*
Y27428D01*
X47170Y27565D01*
X48991Y28117D01*
X50669Y29015D01*
X52140Y30222D01*
X53348Y31693D01*
X54245Y33371D01*
X54797Y35193D01*
X54935Y36587D01*
D02*
G37*
G36*
X44776D02*
X35617D01*
X35754Y35193D01*
X36306Y33371D01*
X37204Y31693D01*
X38411Y30222D01*
X39882Y29015D01*
X41560Y28117D01*
X43382Y27565D01*
X44776Y27428D01*
Y36587D01*
D02*
G37*
G36*
X82250Y30996D02*
X78630D01*
Y27376D01*
X79213Y27453D01*
X80223Y27871D01*
X81090Y28536D01*
X81755Y29403D01*
X82173Y30413D01*
X82250Y30996D01*
D02*
G37*
G36*
X77630D02*
X74010D01*
X74087Y30413D01*
X74505Y29403D01*
X75170Y28536D01*
X76037Y27871D01*
X77047Y27453D01*
X77630Y27376D01*
Y30996D01*
D02*
G37*
G36*
X231856D02*
X228236D01*
Y27376D01*
X228819Y27453D01*
X229829Y27871D01*
X230696Y28536D01*
X231361Y29403D01*
X231779Y30413D01*
X231856Y30996D01*
D02*
G37*
G36*
X227236D02*
X223617D01*
X223693Y30413D01*
X224112Y29403D01*
X224777Y28536D01*
X225643Y27871D01*
X226653Y27453D01*
X227236Y27376D01*
Y30996D01*
D02*
G37*
%LPD*%
G36*
X242141Y185169D02*
X242160Y185073D01*
X242532Y184517D01*
X242933Y184249D01*
Y182989D01*
X242995Y182679D01*
X243170Y182415D01*
X247805Y177781D01*
X248068Y177605D01*
X248378Y177543D01*
X248378Y177543D01*
X267900D01*
X268209Y177043D01*
X268176Y176878D01*
X272424D01*
X272391Y177043D01*
X272700Y177543D01*
X283643D01*
X283794Y177043D01*
X283434Y176803D01*
X283062Y176247D01*
X282932Y175591D01*
X283062Y174935D01*
X283434Y174379D01*
X283835Y174111D01*
Y173277D01*
X283777Y173219D01*
X283601Y172956D01*
X283539Y172646D01*
Y172094D01*
X283086Y171791D01*
X282715Y171235D01*
X282584Y170579D01*
X282715Y169923D01*
X283086Y169367D01*
X283642Y168996D01*
X284298Y168865D01*
X284827Y168970D01*
X284900Y168898D01*
X284994Y168424D01*
X278003Y161433D01*
X271170D01*
X270862Y161933D01*
X270895Y162098D01*
X266646D01*
X266679Y161933D01*
X266671Y161862D01*
X266447Y161470D01*
X266359Y161381D01*
X266312Y161371D01*
X266049Y161195D01*
X264238Y159384D01*
X263802Y159620D01*
X263785Y159667D01*
X263811Y159795D01*
X263811Y159795D01*
Y162520D01*
X264212Y162788D01*
X264584Y163344D01*
X264714Y164000D01*
X264584Y164656D01*
X264212Y165212D01*
X263656Y165584D01*
X263000Y165714D01*
X262344Y165584D01*
X261788Y165212D01*
X261416Y164656D01*
X261286Y164000D01*
X261416Y163344D01*
X261788Y162788D01*
X262189Y162520D01*
Y160131D01*
X260950Y158892D01*
X260774Y158629D01*
X260713Y158319D01*
Y157623D01*
X260251Y157431D01*
X243352Y174330D01*
X243446Y174803D01*
X243316Y175459D01*
X242944Y176015D01*
X242388Y176387D01*
X241732Y176517D01*
X241076Y176387D01*
X240520Y176015D01*
X240189Y175519D01*
X239857Y175554D01*
X239692Y175608D01*
X239584Y176156D01*
X239212Y176712D01*
X238656Y177084D01*
X238000Y177214D01*
X237344Y177084D01*
X236788Y176712D01*
X236416Y176156D01*
X236286Y175500D01*
X236416Y174844D01*
X236788Y174288D01*
X237344Y173916D01*
X238000Y173786D01*
X238656Y173916D01*
X239212Y174288D01*
X239543Y174784D01*
X239876Y174749D01*
X240040Y174695D01*
X240149Y174147D01*
X240520Y173591D01*
X241076Y173220D01*
X241732Y173089D01*
X242205Y173183D01*
X274927Y140462D01*
X275190Y140286D01*
X275500Y140225D01*
X283825D01*
X292081Y131969D01*
X291987Y131496D01*
X292117Y130840D01*
X292489Y130284D01*
X293045Y129912D01*
X293701Y129782D01*
X294357Y129912D01*
X294913Y130284D01*
X295284Y130840D01*
X295415Y131496D01*
X295284Y132152D01*
X294913Y132708D01*
X294357Y133080D01*
X293701Y133210D01*
X293228Y133116D01*
X285490Y140853D01*
X285682Y141315D01*
X294977D01*
X295245Y140914D01*
X295801Y140542D01*
X296457Y140412D01*
X297112Y140542D01*
X297168Y140579D01*
X297609Y140344D01*
Y125249D01*
X293968Y121608D01*
X293844Y121584D01*
X293288Y121212D01*
X292916Y120656D01*
X292786Y120000D01*
X292916Y119344D01*
X292962Y119275D01*
X292727Y118834D01*
X289058D01*
X288932Y119334D01*
X289976Y119892D01*
X291086Y120803D01*
X291998Y121914D01*
X292674Y123180D01*
X293091Y124555D01*
X293232Y125984D01*
X293091Y127414D01*
X292674Y128788D01*
X291998Y130055D01*
X291086Y131165D01*
X289976Y132076D01*
X288709Y132753D01*
X287335Y133170D01*
X285906Y133311D01*
X284476Y133170D01*
X283102Y132753D01*
X281835Y132076D01*
X280725Y131165D01*
X279814Y130055D01*
X279137Y128788D01*
X278720Y127414D01*
X278579Y125984D01*
X278596Y125807D01*
X278101Y125734D01*
X278039Y126048D01*
X277557Y126769D01*
X276835Y127251D01*
X276484Y127321D01*
Y125197D01*
Y123072D01*
X276835Y123142D01*
X277557Y123624D01*
X278039Y124346D01*
X278172Y125015D01*
X278677Y124991D01*
X278720Y124555D01*
X279137Y123180D01*
X279814Y121914D01*
X280725Y120803D01*
X281835Y119892D01*
X282879Y119334D01*
X282754Y118834D01*
X278269D01*
X270963Y126140D01*
X270700Y126316D01*
X270390Y126378D01*
X266494D01*
X266375Y126550D01*
X266272Y126878D01*
X266584Y127344D01*
X266714Y128000D01*
X266584Y128656D01*
X266212Y129212D01*
X265656Y129584D01*
X265000Y129714D01*
X264344Y129584D01*
X263788Y129212D01*
X263416Y128656D01*
X263286Y128000D01*
X263416Y127344D01*
X263728Y126878D01*
X263625Y126550D01*
X263507Y126378D01*
X255517D01*
X254943Y126951D01*
X254680Y127127D01*
X254370Y127189D01*
X252717D01*
X252716Y127189D01*
X242913D01*
X242603Y127127D01*
X242340Y126951D01*
X232757Y117368D01*
X232283Y117462D01*
X231627Y117332D01*
X231559Y117286D01*
X231118Y117521D01*
Y143605D01*
X231640Y144127D01*
X231640Y144127D01*
X231816Y144390D01*
X231878Y144701D01*
X231878Y144701D01*
Y175613D01*
X241599Y185334D01*
X242141Y185169D01*
D02*
G37*
G36*
X317759Y143316D02*
X318022Y143141D01*
X318332Y143079D01*
X318332Y143079D01*
X324006D01*
X324199Y142579D01*
X323916Y142156D01*
X323786Y141500D01*
X323822Y141316D01*
X323446Y140878D01*
X315032D01*
X313990Y141920D01*
X313727Y142095D01*
X313417Y142157D01*
X311780D01*
X311780Y142157D01*
X311470Y142095D01*
X311206Y141920D01*
X308833Y139546D01*
X308657Y139283D01*
X308595Y138972D01*
Y137972D01*
X308154Y137737D01*
X307938Y137881D01*
X307587Y137951D01*
Y135827D01*
X306587D01*
Y137951D01*
X306236Y137881D01*
X305968Y137703D01*
X305527Y137939D01*
Y138778D01*
X305968Y139014D01*
X306037Y138968D01*
X306693Y138837D01*
X307349Y138968D01*
X307905Y139339D01*
X308277Y139895D01*
X308407Y140551D01*
X308313Y141024D01*
X312478Y145189D01*
X315886D01*
X317759Y143316D01*
D02*
G37*
G36*
X222471Y154551D02*
X222810Y154381D01*
X222916Y153844D01*
X222923Y153834D01*
X202148Y133058D01*
X201606Y133223D01*
X201584Y133333D01*
X201212Y133889D01*
X200944Y134068D01*
X200916Y134214D01*
X200980Y134646D01*
X201572Y135042D01*
X202055Y135763D01*
X202124Y136114D01*
X200000D01*
Y137114D01*
X202124D01*
X202093Y137272D01*
X202405Y137772D01*
X205157D01*
X205468Y137833D01*
X205731Y138009D01*
X222299Y154578D01*
X222471Y154551D01*
D02*
G37*
G36*
X269881Y93501D02*
X269735Y93022D01*
X269621Y92999D01*
X268900Y92517D01*
X268418Y91796D01*
X268348Y91445D01*
X270472D01*
Y90445D01*
X268348D01*
X268418Y90094D01*
X268900Y89372D01*
X269286Y89114D01*
X269135Y88614D01*
X268477D01*
X255170Y101922D01*
X255257Y102362D01*
X255127Y103018D01*
X254798Y103510D01*
X254759Y103591D01*
X254859Y104106D01*
X255149Y104300D01*
X255417Y104701D01*
X258680D01*
X269881Y93501D01*
D02*
G37*
G36*
X316763Y96263D02*
X316618Y95784D01*
X316472Y95755D01*
X315750Y95273D01*
X315268Y94552D01*
X315198Y94201D01*
X317323D01*
Y93701D01*
X317823D01*
Y91576D01*
X318174Y91646D01*
X318895Y92128D01*
X319377Y92850D01*
X319407Y92996D01*
X319885Y93142D01*
X333024Y80002D01*
X332932Y79535D01*
X333062Y78879D01*
X333108Y78811D01*
X332872Y78370D01*
X326472D01*
X297536Y107306D01*
X297727Y107768D01*
X305259D01*
X316763Y96263D01*
D02*
G37*
%LPC*%
G36*
X272424Y175878D02*
X270800D01*
Y174254D01*
X271151Y174323D01*
X271872Y174805D01*
X272355Y175527D01*
X272424Y175878D01*
D02*
G37*
G36*
X269800D02*
X268176D01*
X268245Y175527D01*
X268727Y174805D01*
X269449Y174323D01*
X269800Y174254D01*
Y175878D01*
D02*
G37*
G36*
X261024Y175730D02*
X260368Y175599D01*
X259812Y175228D01*
X259440Y174672D01*
X259310Y174016D01*
X259440Y173360D01*
X259486Y173291D01*
X259250Y172850D01*
X257470D01*
X255659Y174661D01*
X255396Y174836D01*
X255086Y174898D01*
X253922D01*
X253712Y175212D01*
X253156Y175584D01*
X252500Y175714D01*
X251844Y175584D01*
X251288Y175212D01*
X250916Y174656D01*
X250786Y174000D01*
X250916Y173344D01*
X251288Y172788D01*
X251844Y172416D01*
X252500Y172286D01*
X253156Y172416D01*
X253712Y172788D01*
X254038Y173276D01*
X254750D01*
X256560Y171466D01*
X256823Y171290D01*
X257134Y171229D01*
X261178D01*
X261330Y170729D01*
X260993Y170503D01*
X260621Y169947D01*
X260491Y169291D01*
X260621Y168635D01*
X260993Y168079D01*
X261549Y167708D01*
X262205Y167577D01*
X262861Y167708D01*
X263417Y168079D01*
X263788Y168635D01*
X263919Y169291D01*
X263788Y169947D01*
X263417Y170503D01*
X263080Y170729D01*
X263231Y171229D01*
X263968D01*
X264048Y171244D01*
X267124D01*
X267360Y170803D01*
X267314Y170735D01*
X267184Y170079D01*
X267314Y169423D01*
X267686Y168867D01*
X268242Y168495D01*
X268898Y168365D01*
X269153Y168415D01*
X269716Y168144D01*
X270088Y167588D01*
X270644Y167216D01*
X271300Y167086D01*
X271956Y167216D01*
X272512Y167588D01*
X272884Y168144D01*
X273014Y168800D01*
X272884Y169456D01*
X272701Y169730D01*
X272783Y170386D01*
X272866Y170442D01*
X273237Y170998D01*
X273368Y171654D01*
X273237Y172310D01*
X272866Y172866D01*
X272309Y173237D01*
X271654Y173368D01*
X270998Y173237D01*
X270442Y172866D01*
X263984D01*
X263905Y172850D01*
X262797D01*
X262561Y173291D01*
X262607Y173360D01*
X262738Y174016D01*
X262607Y174672D01*
X262236Y175228D01*
X261680Y175599D01*
X261024Y175730D01*
D02*
G37*
G36*
X253502Y171623D02*
Y169998D01*
X255126D01*
X255056Y170349D01*
X254574Y171071D01*
X253853Y171553D01*
X253502Y171623D01*
D02*
G37*
G36*
X252502D02*
X252151Y171553D01*
X251429Y171071D01*
X250947Y170349D01*
X250877Y169998D01*
X252502D01*
Y171623D01*
D02*
G37*
G36*
X255126Y168998D02*
X253502D01*
Y167374D01*
X253853Y167444D01*
X254574Y167926D01*
X255056Y168647D01*
X255126Y168998D01*
D02*
G37*
G36*
X252502D02*
X250877D01*
X250947Y168647D01*
X251429Y167926D01*
X252151Y167444D01*
X252502Y167374D01*
Y168998D01*
D02*
G37*
G36*
X269270Y164723D02*
Y163098D01*
X270895D01*
X270825Y163449D01*
X270343Y164171D01*
X269621Y164653D01*
X269270Y164723D01*
D02*
G37*
G36*
X268270D02*
X267919Y164653D01*
X267198Y164171D01*
X266716Y163449D01*
X266646Y163098D01*
X268270D01*
Y164723D01*
D02*
G37*
G36*
X248500Y135714D02*
X247844Y135584D01*
X247288Y135212D01*
X246916Y134656D01*
X246786Y134000D01*
X246916Y133344D01*
X247288Y132788D01*
X247844Y132416D01*
X248500Y132286D01*
X249156Y132416D01*
X249712Y132788D01*
X250084Y133344D01*
X250214Y134000D01*
X250084Y134656D01*
X249712Y135212D01*
X249156Y135584D01*
X248500Y135714D01*
D02*
G37*
G36*
X254724Y132816D02*
X254068Y132686D01*
X253512Y132314D01*
X253141Y131758D01*
X253010Y131102D01*
X253141Y130447D01*
X253512Y129890D01*
X254068Y129519D01*
X254724Y129388D01*
X255380Y129519D01*
X255936Y129890D01*
X256308Y130447D01*
X256438Y131102D01*
X256308Y131758D01*
X255936Y132314D01*
X255380Y132686D01*
X254724Y132816D01*
D02*
G37*
G36*
X275484Y127321D02*
X275133Y127251D01*
X274412Y126769D01*
X273930Y126048D01*
X273860Y125697D01*
X275484D01*
Y127321D01*
D02*
G37*
G36*
X236000Y127214D02*
X235344Y127084D01*
X234788Y126712D01*
X234416Y126156D01*
X234286Y125500D01*
X234416Y124844D01*
X234580Y124600D01*
X234279Y124150D01*
X234252Y124155D01*
X233596Y124025D01*
X233040Y123653D01*
X232668Y123097D01*
X232538Y122441D01*
X232668Y121785D01*
X233040Y121229D01*
X233596Y120857D01*
X234252Y120727D01*
X234908Y120857D01*
X235464Y121229D01*
X235836Y121785D01*
X235966Y122441D01*
X235836Y123097D01*
X235672Y123341D01*
X235973Y123791D01*
X236000Y123786D01*
X236656Y123916D01*
X237212Y124288D01*
X237584Y124844D01*
X237714Y125500D01*
X237584Y126156D01*
X237212Y126712D01*
X236656Y127084D01*
X236000Y127214D01*
D02*
G37*
G36*
X275484Y124697D02*
X273860D01*
X273930Y124346D01*
X274412Y123624D01*
X275133Y123142D01*
X275484Y123072D01*
Y124697D01*
D02*
G37*
G36*
X316823Y93201D02*
X315198D01*
X315268Y92850D01*
X315750Y92128D01*
X316472Y91646D01*
X316823Y91576D01*
Y93201D01*
D02*
G37*
%LPD*%
D10*
X143654Y118102D02*
X166567D01*
X142481Y116929D02*
X143654Y118102D01*
X130315Y116929D02*
X142481D01*
X318332Y143890D02*
X331815D01*
X335757Y139947D02*
X339580D01*
X331815Y143890D02*
X335757Y139947D01*
X136153Y189909D02*
X136220Y189976D01*
X131815Y189091D02*
X133335D01*
X134153Y189909D02*
X136153D01*
X122591Y188000D02*
X206403D01*
X123267Y197638D02*
X131815Y189091D01*
X133335D02*
X134153Y189909D01*
X118000Y192591D02*
X122591Y188000D01*
X206403D02*
X210151Y184252D01*
X123228Y197638D02*
X123267D01*
X136270Y179971D02*
X182195D01*
X115500Y159201D02*
X136270Y179971D01*
X182195D02*
X185386Y176780D01*
X110061Y156833D02*
X134290Y181061D01*
X190439D01*
X192000Y179500D01*
X183465Y175591D02*
X204245D01*
X230307Y143941D02*
X231067Y144701D01*
X230307Y112693D02*
Y143941D01*
X229976Y163402D02*
Y173961D01*
X205157Y138583D02*
X229976Y163402D01*
X227953Y175984D02*
X229976Y173961D01*
X223756Y174244D02*
Y178051D01*
X231067Y144701D02*
Y175949D01*
X230307Y112693D02*
X233460Y109540D01*
X223756Y174244D02*
X228000Y170000D01*
X231067Y175949D02*
X247638Y192520D01*
X141433Y138893D02*
X143393D01*
X143500Y139000D01*
X139137Y136597D02*
X141433Y138893D01*
X139137Y133863D02*
Y136597D01*
Y133863D02*
X142218Y130782D01*
X174795Y201976D02*
X176772Y200000D01*
X115887Y201976D02*
X174795D01*
X118000Y192591D02*
Y200000D01*
X115411Y201500D02*
X115887Y201976D01*
X112000Y201500D02*
X115411D01*
X333071Y205228D02*
Y210630D01*
X214567Y161433D02*
Y189331D01*
X156744Y209791D02*
X196584D01*
X209835Y196541D01*
Y194063D02*
X214567Y189331D01*
X209835Y194063D02*
Y196541D01*
X210151Y184252D02*
X210630D01*
X249535Y183465D02*
X253937D01*
X243744Y182989D02*
Y185729D01*
Y182989D02*
X248378Y178354D01*
X246500Y186500D02*
X249535Y183465D01*
X223756Y178051D02*
X240705Y195000D01*
X253500D01*
X221654Y177491D02*
X247163Y203000D01*
X221654Y161433D02*
Y177491D01*
X247163Y203000D02*
X251000D01*
X246500Y124000D02*
X257161D01*
X257637Y124476D01*
X267819D01*
X334638Y79535D02*
X334646D01*
X326136Y77559D02*
X336059D01*
X305594Y108579D02*
X334638Y79535D01*
X336059Y77559D02*
X341500Y83000D01*
X357500Y93000D02*
X362205Y97705D01*
Y102604D01*
X360500Y104309D02*
Y104500D01*
Y104309D02*
X362205Y102604D01*
X321500Y118500D02*
X321504Y118504D01*
X329996D01*
X338500Y110000D01*
X56177Y154677D02*
X67371D01*
X49000Y147500D02*
X56177Y154677D01*
X67371D02*
X70472Y151575D01*
X80500Y155848D02*
Y156000D01*
X71654Y146850D02*
Y147002D01*
X80500Y155848D01*
X113524Y145181D02*
Y157500D01*
X132093Y157488D02*
X163378D01*
X172047Y148819D01*
X113524Y145181D02*
X114681Y144024D01*
X86953Y157496D02*
Y159118D01*
X118629Y144024D02*
X132093Y157488D01*
X114681Y144024D02*
X118629D01*
X86953Y157496D02*
X131851Y112598D01*
X110061Y154234D02*
Y156833D01*
X86614Y159457D02*
X86953Y159118D01*
X115500Y146000D02*
Y159201D01*
X110061Y154234D02*
X110100Y154195D01*
X299815Y78346D02*
X300394D01*
X299606D02*
X299815D01*
X299618Y78334D02*
X300055Y77898D01*
Y76555D02*
Y77898D01*
X293000Y69500D02*
X300055Y76555D01*
X291339Y87402D02*
X299815Y78925D01*
Y78555D02*
Y78925D01*
X299606Y78346D02*
X299815Y78555D01*
X233949Y109540D02*
X240157Y115748D01*
X233460Y109540D02*
X233949D01*
X252500Y174000D02*
X252587Y174087D01*
X255086D01*
X257134Y172039D01*
X135433Y231102D02*
X156744Y209791D01*
X205524Y167000D02*
Y170419D01*
X206000Y170896D01*
Y173836D01*
X204245Y175591D02*
X206000Y173836D01*
X248032Y188976D02*
X251181Y185827D01*
X248378Y178354D02*
X284677D01*
X295610Y165414D02*
X295669Y165354D01*
X284677Y178354D02*
X295610Y167421D01*
Y165414D02*
Y167421D01*
X297244Y111024D02*
X313500Y127280D01*
Y137000D01*
X261524Y158319D02*
X263000Y159795D01*
X276079Y142126D02*
X296457D01*
X261524Y156681D02*
Y158319D01*
X263000Y159795D02*
Y164000D01*
X263500Y157500D02*
X266622Y160622D01*
X261524Y156681D02*
X276079Y142126D01*
X266622Y160622D02*
X278339D01*
X155118Y84646D02*
Y84882D01*
X224500Y154264D01*
Y154500D01*
X188583Y155905D02*
X189594D01*
X191259Y159831D02*
X202303Y148787D01*
X187807Y159831D02*
X191259D01*
X189594Y155905D02*
X204000Y141500D01*
X202303Y146516D02*
Y148787D01*
X204000Y141500D02*
X204000D01*
X200827Y138583D02*
X205157D01*
X166567Y118102D02*
X187449Y138984D01*
X200425D02*
X200827Y138583D01*
X238583Y201575D02*
X244108Y207100D01*
X251200D01*
X258050Y200250D01*
X237795Y207087D02*
X256299D01*
X202265Y208010D02*
X216000Y194275D01*
Y167071D02*
Y194275D01*
X267000Y117713D02*
Y122500D01*
X269217Y122909D02*
Y123079D01*
X254370Y126378D02*
X255181Y125567D01*
X270390D01*
X267000Y117713D02*
X276134Y108579D01*
X267819Y124476D02*
X269217Y123079D01*
X270390Y125567D02*
X277933Y118024D01*
X269217Y122909D02*
X281102Y111024D01*
X276134Y108579D02*
X305594D01*
X271252Y107488D02*
X296207D01*
X259516Y120933D02*
X259843D01*
X260300Y118108D02*
X260632D01*
X251583Y113000D02*
X259516Y120933D01*
X260632Y118108D02*
X271252Y107488D01*
X232283Y115748D02*
X242913Y126378D01*
X253543Y102362D02*
X253582D01*
X268141Y87803D02*
X275976D01*
X253582Y102362D02*
X268141Y87803D01*
X295319Y118024D02*
X304717Y127422D01*
X277933Y118024D02*
X295319D01*
X304717Y127422D02*
Y143693D01*
X284350Y170631D02*
Y172646D01*
X284646Y172941D01*
X284298Y170579D02*
X284350Y170631D01*
X284646Y172941D02*
Y175591D01*
X241732Y174803D02*
X275500Y141035D01*
X271174Y171654D02*
X271654D01*
X270773Y172055D02*
X271174Y171654D01*
X263984Y172055D02*
X270773D01*
X263968Y172039D02*
X263984Y172055D01*
X257134Y172039D02*
X263968D01*
X275500Y141035D02*
X284161D01*
X305906Y172835D02*
Y178740D01*
X208500Y164500D02*
Y164732D01*
X207500Y165732D02*
X208500Y164732D01*
X207500Y165732D02*
Y175965D01*
X206685Y176780D02*
X207500Y175965D01*
X217717Y161433D02*
Y164912D01*
X216507Y166122D02*
Y166564D01*
X216000Y167071D02*
X216507Y166564D01*
Y166122D02*
X217717Y164912D01*
X185386Y176780D02*
X206685D01*
X181102Y172796D02*
X203992Y149906D01*
X181102Y172796D02*
Y173228D01*
X232283Y195463D02*
Y201575D01*
X228339Y191518D02*
X232283Y195463D01*
X228339Y185886D02*
Y191518D01*
X222780Y180328D02*
X228339Y185886D01*
X222039Y180328D02*
X222780D01*
X218504Y176793D02*
X222039Y180328D01*
X220496Y190968D02*
X228458Y198930D01*
X220470Y190968D02*
X220496D01*
X323622Y176378D02*
X328346D01*
X316929Y159449D02*
Y164961D01*
X313720Y183076D02*
X328695D01*
X334945Y176827D01*
X312533Y181890D02*
X313720Y183076D01*
X334945Y176827D02*
X348214D01*
X309055Y181890D02*
X312533D01*
X354464Y160464D02*
Y170577D01*
X348214Y176827D02*
X354464Y170577D01*
X351000Y157000D02*
X354464Y160464D01*
X305906Y178740D02*
X309055Y181890D01*
X317774Y137402D02*
X319349Y138976D01*
X330315D01*
X317323Y137402D02*
X317774D01*
X278339Y160622D02*
X286614Y168898D01*
X325443Y141500D02*
X325500D01*
X314697Y140067D02*
X324010D01*
X325443Y141500D01*
X311780Y141346D02*
X313417D01*
X314697Y140067D01*
X309406Y138972D02*
X311780Y141346D01*
X309406Y132240D02*
Y138972D01*
X306693Y129528D02*
X309406Y132240D01*
X284161Y141035D02*
X293701Y131496D01*
X316222Y146000D02*
X318332Y143890D01*
X312142Y146000D02*
X316222D01*
X306693Y140551D02*
X312142Y146000D01*
X203992Y149158D02*
X204331Y148819D01*
X176378Y171260D02*
X187807Y159831D01*
X242913Y126378D02*
X252717D01*
X220866Y96457D02*
X231551Y85772D01*
X187449Y138984D02*
X200425D01*
X329976Y90103D02*
X330315Y89764D01*
X252717Y126378D02*
X254370D01*
X252717Y126378D02*
X252717Y126378D01*
X282677Y87402D02*
X291339D01*
X256299Y207087D02*
X260630Y202756D01*
X233126Y85772D02*
X233465Y85433D01*
X131851Y112598D02*
X137795D01*
X231551Y85772D02*
X233126D01*
X81890Y82677D02*
Y86221D01*
X83858Y88189D01*
X228458Y200544D02*
X236104Y208190D01*
X260707D02*
X263386Y205512D01*
X236104Y208190D02*
X260707D01*
X228458Y198930D02*
Y200544D01*
X232283Y201575D02*
X237795Y207087D01*
X185039Y223622D02*
X200651Y208010D01*
X202265D01*
X173228Y171260D02*
X188583Y155905D01*
X130709Y207087D02*
X136220D01*
X130709Y214173D02*
X133465D01*
X136220Y211417D01*
X202303Y146516D02*
X202362Y146457D01*
X203992Y149158D02*
Y149906D01*
X296207Y107488D02*
X326136Y77559D01*
X259016Y105512D02*
X274756Y89772D01*
X293299D01*
X312992Y70079D01*
X253937Y105512D02*
X259016D01*
X207874Y102362D02*
X220472Y89764D01*
X304717Y143693D02*
X304724Y143701D01*
Y149213D01*
X234252Y96850D02*
X250402Y113000D01*
X251583D01*
X321260Y97244D02*
X328401Y90103D01*
X329976D01*
X257874Y112598D02*
Y116142D01*
X242126Y96850D02*
X257874Y112598D01*
X275976Y87803D02*
X275984Y87795D01*
X276772Y92126D02*
Y96063D01*
X280709Y100000D01*
X251575Y88583D02*
X259055D01*
D60*
X143701Y37087D02*
D03*
X45276D02*
D03*
X293307D02*
D03*
X194882D02*
D03*
D61*
X78130Y31496D02*
D03*
X116299Y42677D02*
D03*
X94488D02*
D03*
X227736Y31496D02*
D03*
X265906Y42677D02*
D03*
X244094D02*
D03*
X222283D02*
D03*
X233189D02*
D03*
X255000D02*
D03*
X238642Y31496D02*
D03*
X249547D02*
D03*
X260453D02*
D03*
X72677Y42677D02*
D03*
X83583D02*
D03*
X105394D02*
D03*
X89035Y31496D02*
D03*
X99941D02*
D03*
X110846D02*
D03*
D62*
X384252Y103622D02*
D03*
Y69606D02*
D03*
D63*
X367795Y103622D02*
D03*
Y69606D02*
D03*
D64*
X192165Y212535D02*
D03*
Y220535D02*
D03*
X162165Y216535D02*
D03*
D65*
X68425Y188976D02*
D03*
X285906Y125984D02*
D03*
D66*
X319409Y188976D02*
D03*
D67*
X369764Y75236D02*
D03*
Y97992D02*
D03*
D68*
X377953Y244094D02*
D03*
X15748D02*
D03*
X377953Y15748D02*
D03*
X15748D02*
D03*
D69*
X146500Y115500D02*
D03*
X146000Y123000D02*
D03*
X314000Y208000D02*
D03*
X323456Y214456D02*
D03*
X325591Y162186D02*
D03*
X316980Y152500D02*
D03*
X315442Y154913D02*
D03*
X313319Y150461D02*
D03*
X315329Y148423D02*
D03*
X335500Y143000D02*
D03*
X339580Y139947D02*
D03*
X360496Y85039D02*
D03*
X302000Y208500D02*
D03*
X317116Y207662D02*
D03*
X322835Y205390D02*
D03*
X320100Y214300D02*
D03*
X204618Y186024D02*
D03*
X130315D02*
D03*
X136220Y189976D02*
D03*
X187402Y183071D02*
D03*
X268770Y162598D02*
D03*
X127000Y214500D02*
D03*
X296457Y216535D02*
D03*
X311000Y220000D02*
D03*
X204000Y194000D02*
D03*
X270472Y90945D02*
D03*
X238209Y111004D02*
D03*
X253002Y169498D02*
D03*
X190500Y205500D02*
D03*
X204000Y158000D02*
D03*
X296457Y149606D02*
D03*
X270300Y176378D02*
D03*
X192126Y172441D02*
D03*
X212205Y188189D02*
D03*
X315900Y181100D02*
D03*
X58661Y184252D02*
D03*
X340157Y253937D02*
D03*
X296850D02*
D03*
X161811Y245276D02*
D03*
X321260Y174016D02*
D03*
X365748Y125984D02*
D03*
X374409Y111024D02*
D03*
X172441Y158661D02*
D03*
X184646Y166142D02*
D03*
X227559Y194094D02*
D03*
X219685D02*
D03*
X128346Y148819D02*
D03*
X311417Y196063D02*
D03*
X66535Y149606D02*
D03*
X275984Y125197D02*
D03*
X293701Y105512D02*
D03*
X251181Y95669D02*
D03*
X248819Y67717D02*
D03*
X248425Y81890D02*
D03*
X338976Y90551D02*
D03*
X317323Y93701D02*
D03*
X282677D02*
D03*
X130315Y194094D02*
D03*
X144094Y108268D02*
D03*
X151181Y222441D02*
D03*
X137402D02*
D03*
X203937Y77165D02*
D03*
X182677Y137008D02*
D03*
X191339Y135433D02*
D03*
X251575Y111024D02*
D03*
X137008Y123622D02*
D03*
Y165354D02*
D03*
X192520Y144882D02*
D03*
X137008Y148425D02*
D03*
X160630Y155512D02*
D03*
X277559Y78740D02*
D03*
X261024Y92126D02*
D03*
X329921Y61024D02*
D03*
X310236D02*
D03*
X350787Y90945D02*
D03*
X269291Y248032D02*
D03*
X122835Y183465D02*
D03*
Y194488D02*
D03*
X320079Y202756D02*
D03*
X74803Y143701D02*
D03*
X146850Y120079D02*
D03*
X145276Y145669D02*
D03*
X307087Y135827D02*
D03*
X268110Y85827D02*
D03*
X308661Y86220D02*
D03*
X319291Y78740D02*
D03*
X295669Y94882D02*
D03*
X260236Y69291D02*
D03*
X212205Y77165D02*
D03*
X110630Y69291D02*
D03*
X62598Y77165D02*
D03*
X189764Y151969D02*
D03*
X181102Y159055D02*
D03*
X206693Y122441D02*
D03*
X195669Y137008D02*
D03*
X200000Y136614D02*
D03*
X250000Y115748D02*
D03*
X333071Y227559D02*
D03*
X364567D02*
D03*
X289764D02*
D03*
X321260D02*
D03*
X77165Y228346D02*
D03*
X179134Y215354D02*
D03*
X174016Y220079D02*
D03*
X38976Y165354D02*
D03*
X16535Y190551D02*
D03*
X4331Y155906D02*
D03*
X144882Y242126D02*
D03*
X120472Y231496D02*
D03*
X151969D02*
D03*
X373622Y138583D02*
D03*
X349213D02*
D03*
X389370Y139764D02*
D03*
X332283Y182283D02*
D03*
X389370Y194094D02*
D03*
X362992Y74016D02*
D03*
X206693Y132213D02*
D03*
X142500Y123800D02*
D03*
X162787Y151287D02*
D03*
X156800Y128000D02*
D03*
X353100Y77900D02*
D03*
X347100Y86600D02*
D03*
X245500Y95669D02*
D03*
X239800Y81890D02*
D03*
X114200Y239500D02*
D03*
X213100Y111000D02*
D03*
X204400Y87800D02*
D03*
X88100Y59800D02*
D03*
X337500Y94400D02*
D03*
X237800Y59800D02*
D03*
X137000Y168700D02*
D03*
X117600Y178700D02*
D03*
X129000Y151600D02*
D03*
X69500Y137700D02*
D03*
X268500Y99000D02*
D03*
X305200Y93701D02*
D03*
X296700Y104200D02*
D03*
X45400Y165354D02*
D03*
X148819Y236700D02*
D03*
X132900Y227239D02*
D03*
X166631Y224570D02*
D03*
X153400D02*
D03*
X145866Y245276D02*
D03*
X367700Y166900D02*
D03*
X325000Y227362D02*
D03*
X282700Y256900D02*
D03*
Y227362D02*
D03*
X183465Y175591D02*
D03*
X303738Y155510D02*
D03*
X268770Y156299D02*
D03*
X228000Y170000D02*
D03*
X162000Y139000D02*
D03*
X143500D02*
D03*
X142218Y130782D02*
D03*
X137008Y140945D02*
D03*
X100024Y204800D02*
D03*
X118000Y200000D02*
D03*
X110627Y187786D02*
D03*
X112000Y201500D02*
D03*
X192000Y179500D02*
D03*
X333071Y205228D02*
D03*
X206095Y197485D02*
D03*
X243744Y185729D02*
D03*
X246500Y186500D02*
D03*
X234500Y186000D02*
D03*
X246500Y124000D02*
D03*
X248500Y134000D02*
D03*
X254724Y131102D02*
D03*
X341500Y83000D02*
D03*
X334646Y79535D02*
D03*
X357500Y93000D02*
D03*
X360500Y104500D02*
D03*
X321500Y118500D02*
D03*
X338500Y110000D02*
D03*
X49000Y147500D02*
D03*
X80500Y156000D02*
D03*
X86614Y159457D02*
D03*
X113524Y157500D02*
D03*
X115500Y146000D02*
D03*
X110100Y154195D02*
D03*
X224500Y77500D02*
D03*
X220700Y74003D02*
D03*
X233465Y67323D02*
D03*
X237000Y72500D02*
D03*
X293000Y69500D02*
D03*
X252500Y174000D02*
D03*
X299500Y189500D02*
D03*
X205524Y167000D02*
D03*
X193865Y154430D02*
D03*
X261024Y174016D02*
D03*
X192126Y166142D02*
D03*
X51575Y170079D02*
D03*
X347638Y252756D02*
D03*
X304331D02*
D03*
X219685Y201575D02*
D03*
X211811Y195669D02*
D03*
X230709Y89764D02*
D03*
X81102D02*
D03*
X302362Y129134D02*
D03*
X298425Y169291D02*
D03*
X133858Y133071D02*
D03*
X329921Y203937D02*
D03*
Y211417D02*
D03*
X245276Y103150D02*
D03*
X287402Y113386D02*
D03*
X337795Y68504D02*
D03*
X230709Y59843D02*
D03*
X81102D02*
D03*
X182677Y130709D02*
D03*
X191339Y127953D02*
D03*
X268898Y170079D02*
D03*
X245276Y111024D02*
D03*
X205906D02*
D03*
X186220Y144882D02*
D03*
X312992Y169291D02*
D03*
X122835Y190551D02*
D03*
X83858Y67323D02*
D03*
X208661Y115748D02*
D03*
X194488Y163386D02*
D03*
X195669Y133071D02*
D03*
X200000Y132677D02*
D03*
X262205Y169291D02*
D03*
X254331Y118898D02*
D03*
X203937Y182283D02*
D03*
X168898Y215748D02*
D03*
X292100Y167900D02*
D03*
X304600Y122100D02*
D03*
X206500Y106700D02*
D03*
X78400Y37500D02*
D03*
X183200Y127641D02*
D03*
X135400Y144500D02*
D03*
X109500Y166141D02*
D03*
X271300Y168800D02*
D03*
X251181Y185827D02*
D03*
X248032Y188976D02*
D03*
X23500Y157500D02*
D03*
X295669Y165354D02*
D03*
X313500Y137000D02*
D03*
X287000Y154000D02*
D03*
X263500Y157500D02*
D03*
X263000Y164000D02*
D03*
X224500Y154500D02*
D03*
X204000Y141500D02*
D03*
X251000Y203000D02*
D03*
X253500Y195000D02*
D03*
X238000Y175500D02*
D03*
X227953Y175984D02*
D03*
X218504Y176793D02*
D03*
X265000Y128000D02*
D03*
X267000Y122500D02*
D03*
X260300Y118108D02*
D03*
X259843Y120933D02*
D03*
X253543Y102362D02*
D03*
X277500Y83500D02*
D03*
X273500Y97500D02*
D03*
X267913Y78740D02*
D03*
X294500Y120000D02*
D03*
X284298Y170579D02*
D03*
X241732Y174803D02*
D03*
X271654Y171654D02*
D03*
X305906Y172835D02*
D03*
X247638Y192520D02*
D03*
X212591Y176782D02*
D03*
X208500Y164500D02*
D03*
X214567Y161433D02*
D03*
X217717D02*
D03*
X221654D02*
D03*
X181102Y173228D02*
D03*
X224000Y184342D02*
D03*
X220470Y190968D02*
D03*
X213780Y192913D02*
D03*
X236000Y125500D02*
D03*
X234252Y122441D02*
D03*
X227953Y124016D02*
D03*
X330807Y245079D02*
D03*
X323622Y176378D02*
D03*
X328346D02*
D03*
X253937Y183465D02*
D03*
X328346Y172047D02*
D03*
X352487Y169758D02*
D03*
X316929Y164961D02*
D03*
Y159449D02*
D03*
X284646Y175591D02*
D03*
X309055Y181890D02*
D03*
X351000Y157000D02*
D03*
X300394Y166929D02*
D03*
X330315Y138976D02*
D03*
X317323Y137402D02*
D03*
X286614Y168898D02*
D03*
X325500Y141500D02*
D03*
X306693Y129528D02*
D03*
X293701Y131496D02*
D03*
X205110Y67303D02*
D03*
X112500Y204800D02*
D03*
X258050Y200250D02*
D03*
X137795Y112598D02*
D03*
X220866Y96457D02*
D03*
X233465Y85433D02*
D03*
X297244Y111024D02*
D03*
X241732Y189764D02*
D03*
X155118Y84646D02*
D03*
X222047Y198032D02*
D03*
X230315Y188976D02*
D03*
X130315Y116929D02*
D03*
X81890Y82677D02*
D03*
X83858Y88189D02*
D03*
X71654Y146850D02*
D03*
X176772Y200000D02*
D03*
X263386Y205512D02*
D03*
X238583Y201575D02*
D03*
X260630Y202756D02*
D03*
X232283Y201575D02*
D03*
X185039Y223622D02*
D03*
X236220Y115748D02*
D03*
X135433Y231102D02*
D03*
X173228Y171260D02*
D03*
X136220Y207087D02*
D03*
X130709D02*
D03*
Y214173D02*
D03*
X136220Y211417D02*
D03*
X176378Y171260D02*
D03*
X202362Y146457D02*
D03*
X204331Y148819D02*
D03*
X172047D02*
D03*
X333071Y210630D02*
D03*
X123228Y197638D02*
D03*
X253937Y105512D02*
D03*
X312992Y70079D02*
D03*
X240157Y115748D02*
D03*
X207874Y102362D02*
D03*
X220472Y89764D02*
D03*
X296457Y142126D02*
D03*
X306693Y140551D02*
D03*
X210630Y184252D02*
D03*
X232283Y115748D02*
D03*
X304724Y143701D02*
D03*
Y149213D02*
D03*
X281102Y111024D02*
D03*
X234252Y96850D02*
D03*
X321260Y97244D02*
D03*
X330315Y89764D02*
D03*
X257874Y116142D02*
D03*
X242126Y96850D02*
D03*
X275984Y87795D02*
D03*
X241732Y61417D02*
D03*
X300394Y78346D02*
D03*
X282677Y87402D02*
D03*
X276772Y92126D02*
D03*
X280709Y100000D02*
D03*
X70472Y151575D02*
D03*
X259055Y88583D02*
D03*
X251575D02*
D03*
X268110Y104724D02*
D03*
X262598D02*
D03*
X139370Y151969D02*
D03*
X136220Y155118D02*
D03*
D70*
X153400Y224570D02*
X166631D01*
X224500Y68985D02*
Y77500D01*
Y68985D02*
X233189Y60296D01*
Y42677D02*
Y60296D01*
X237000Y69596D02*
Y72500D01*
X236614Y69210D02*
X237000Y69596D01*
X236614Y66732D02*
Y69210D01*
Y66732D02*
X241732Y61614D01*
Y61417D02*
Y61614D01*
D71*
X325500Y203819D02*
Y208062D01*
X323456Y210106D02*
X325500Y208062D01*
X323456Y210106D02*
Y214456D01*
X303556Y155510D02*
X303738Y155692D01*
X325591Y162186D02*
X328719D01*
X333425Y157480D01*
X299122Y150303D02*
X300414Y151596D01*
Y152186D02*
X303738Y155510D01*
X300414Y151596D02*
Y152186D01*
X303150Y168837D02*
X303738Y168248D01*
Y155692D02*
Y168248D01*
X303150Y168837D02*
Y181469D01*
X20906Y157480D02*
X20925Y157500D01*
X23500D01*
X299122Y124622D02*
Y150303D01*
X294500Y120000D02*
X299122Y124622D01*
X262598Y104724D02*
X268110D01*
X136220Y155118D02*
X139370Y151969D01*
X303150Y181469D02*
X325500Y203819D01*
D72*
X325591Y162186D02*
X328346Y159430D01*
Y157480D02*
Y159430D01*
D74*
X20906Y157480D02*
D03*
X333425D02*
D03*
M02*
